<svg xmlns="http://www.w3.org/2000/svg" width="313" height="243.673" viewBox="0 0 313 243.673">
  <g id="Grupo_81527" data-name="Grupo 81527" transform="translate(-644 -4252.24)">
    <g id="Grupo_78303" data-name="Grupo 78303" transform="translate(420 -1939.087)">
      <path id="Rectángulo_34846" data-name="Rectángulo 34846" d="M0,0H271a42,42,0,0,1,42,42V163a0,0,0,0,1,0,0H42A42,42,0,0,1,0,121V0A0,0,0,0,1,0,0Z" transform="translate(224 6272)" fill="#5c22c3"/>
      <g id="Grupo_78301" data-name="Grupo 78301" transform="translate(226 6208.756)">
        <path id="Trazado_145968" data-name="Trazado 145968" d="M43.541,87.083A43.541,43.541,0,1,0,0,43.541,43.541,43.541,0,0,0,43.541,87.083Z" transform="translate(215.887 3.412)" fill="#64b5f6" opacity="0.444" style="mix-blend-mode: multiply;isolation: isolate"/>
        <path id="Trazado_145969" data-name="Trazado 145969" d="M29.752,59.5A29.752,29.752,0,1,0,0,29.752,29.752,29.752,0,0,0,29.752,59.5Z" transform="translate(24.326 152.305)" fill="#64b5f6" opacity="0.444" style="mix-blend-mode: multiply;isolation: isolate"/>
        <rect id="Rectángulo_34812" data-name="Rectángulo 34812" width="309.662" height="222.853" transform="translate(0 0)" fill="none"/>
        <path id="Trazado_145971" data-name="Trazado 145971" d="M8.18,16.36A8.18,8.18,0,1,0,0,8.18,8.18,8.18,0,0,0,8.18,16.36Z" transform="translate(32.317 16.211)" fill="#64b5f6" opacity="0.444" style="mix-blend-mode: multiply;isolation: isolate"/>
        <g id="Grupo_78276" data-name="Grupo 78276" transform="translate(236.437 9.088)">
          <g id="Grupo_53306" data-name="Grupo 53306" transform="translate(0 49.757)">
            <path id="Trazado_99200" data-name="Trazado 99200" d="M415.4,50.79a.592.592,0,1,0-.592.565A.579.579,0,0,0,415.4,50.79Z" transform="translate(-414.214 -50.224)" fill="#fff"/>
            <path id="Trazado_99201" data-name="Trazado 99201" d="M423.842,50.79a.592.592,0,1,0-.591.565A.579.579,0,0,0,423.842,50.79Z" transform="translate(-417.339 -50.224)" fill="#fff"/>
            <path id="Trazado_99202" data-name="Trazado 99202" d="M432.288,50.79a.592.592,0,1,0-.591.565A.579.579,0,0,0,432.288,50.79Z" transform="translate(-420.464 -50.224)" fill="#fff"/>
            <path id="Trazado_99203" data-name="Trazado 99203" d="M440.736,50.79a.592.592,0,1,0-.592.565A.579.579,0,0,0,440.736,50.79Z" transform="translate(-423.59 -50.224)" fill="#fff"/>
            <path id="Trazado_99204" data-name="Trazado 99204" d="M449.181,50.79a.592.592,0,1,0-.591.565A.579.579,0,0,0,449.181,50.79Z" transform="translate(-426.715 -50.224)" fill="#fff"/>
            <path id="Trazado_99205" data-name="Trazado 99205" d="M457.627,50.79a.592.592,0,1,0-.591.565A.579.579,0,0,0,457.627,50.79Z" transform="translate(-429.84 -50.224)" fill="#fff"/>
            <path id="Trazado_99206" data-name="Trazado 99206" d="M466.075,50.79a.592.592,0,1,0-.592.565A.579.579,0,0,0,466.075,50.79Z" transform="translate(-432.965 -50.224)" fill="#fff"/>
            <path id="Trazado_99207" data-name="Trazado 99207" d="M474.521,50.79a.592.592,0,1,0-.591.565A.579.579,0,0,0,474.521,50.79Z" transform="translate(-436.09 -50.224)" fill="#fff"/>
            <path id="Trazado_99208" data-name="Trazado 99208" d="M482.966,50.79a.592.592,0,1,0-.591.565A.579.579,0,0,0,482.966,50.79Z" transform="translate(-439.215 -50.224)" fill="#fff"/>
            <path id="Trazado_99209" data-name="Trazado 99209" d="M491.414,50.79a.592.592,0,1,0-.592.565A.579.579,0,0,0,491.414,50.79Z" transform="translate(-442.341 -50.224)" fill="#fff"/>
            <path id="Trazado_99210" data-name="Trazado 99210" d="M499.86,50.79a.592.592,0,1,0-.592.565A.579.579,0,0,0,499.86,50.79Z" transform="translate(-445.466 -50.224)" fill="#fff"/>
          </g>
          <g id="Grupo_53307" data-name="Grupo 53307" transform="translate(0 45.233)">
            <path id="Trazado_99211" data-name="Trazado 99211" d="M415.4,58.3a.592.592,0,1,0-.592.565A.579.579,0,0,0,415.4,58.3Z" transform="translate(-414.214 -57.732)" fill="#fff"/>
            <path id="Trazado_99212" data-name="Trazado 99212" d="M423.842,58.3a.592.592,0,1,0-.591.565A.579.579,0,0,0,423.842,58.3Z" transform="translate(-417.339 -57.732)" fill="#fff"/>
            <path id="Trazado_99213" data-name="Trazado 99213" d="M432.288,58.3a.592.592,0,1,0-.591.565A.579.579,0,0,0,432.288,58.3Z" transform="translate(-420.464 -57.732)" fill="#fff"/>
            <path id="Trazado_99214" data-name="Trazado 99214" d="M440.736,58.3a.592.592,0,1,0-.592.565A.579.579,0,0,0,440.736,58.3Z" transform="translate(-423.59 -57.732)" fill="#fff"/>
            <path id="Trazado_99215" data-name="Trazado 99215" d="M449.181,58.3a.592.592,0,1,0-.591.565A.579.579,0,0,0,449.181,58.3Z" transform="translate(-426.715 -57.732)" fill="#fff"/>
            <path id="Trazado_99216" data-name="Trazado 99216" d="M457.627,58.3a.592.592,0,1,0-.591.565A.579.579,0,0,0,457.627,58.3Z" transform="translate(-429.84 -57.732)" fill="#fff"/>
            <path id="Trazado_99217" data-name="Trazado 99217" d="M466.075,58.3a.592.592,0,1,0-.592.565A.579.579,0,0,0,466.075,58.3Z" transform="translate(-432.965 -57.732)" fill="#fff"/>
            <path id="Trazado_99218" data-name="Trazado 99218" d="M474.521,58.3a.592.592,0,1,0-.591.565A.579.579,0,0,0,474.521,58.3Z" transform="translate(-436.09 -57.732)" fill="#fff"/>
            <path id="Trazado_99219" data-name="Trazado 99219" d="M482.966,58.3a.592.592,0,1,0-.591.565A.579.579,0,0,0,482.966,58.3Z" transform="translate(-439.215 -57.732)" fill="#fff"/>
            <path id="Trazado_99220" data-name="Trazado 99220" d="M491.414,58.3a.592.592,0,1,0-.592.565A.579.579,0,0,0,491.414,58.3Z" transform="translate(-442.341 -57.732)" fill="#fff"/>
            <path id="Trazado_99221" data-name="Trazado 99221" d="M499.86,58.3a.592.592,0,1,0-.592.565A.579.579,0,0,0,499.86,58.3Z" transform="translate(-445.466 -57.732)" fill="#fff"/>
          </g>
          <g id="Grupo_53308" data-name="Grupo 53308" transform="translate(0 40.71)">
            <ellipse id="Elipse_3955" data-name="Elipse 3955" cx="0.591" cy="0.565" rx="0.591" ry="0.565" transform="translate(0 0)" fill="#fff"/>
            <path id="Trazado_99222" data-name="Trazado 99222" d="M423.842,65.806a.592.592,0,1,0-.591.565A.579.579,0,0,0,423.842,65.806Z" transform="translate(-417.339 -65.24)" fill="#fff"/>
            <ellipse id="Elipse_3956" data-name="Elipse 3956" cx="0.591" cy="0.565" rx="0.591" ry="0.565" transform="translate(10.642 0)" fill="#fff"/>
            <path id="Trazado_99223" data-name="Trazado 99223" d="M440.736,65.806a.592.592,0,1,0-.592.565A.579.579,0,0,0,440.736,65.806Z" transform="translate(-423.589 -65.24)" fill="#fff"/>
            <path id="Trazado_99224" data-name="Trazado 99224" d="M449.181,65.806a.592.592,0,1,0-.591.565A.579.579,0,0,0,449.181,65.806Z" transform="translate(-426.715 -65.24)" fill="#fff"/>
            <ellipse id="Elipse_3957" data-name="Elipse 3957" cx="0.591" cy="0.565" rx="0.591" ry="0.565" transform="translate(26.606 0)" fill="#fff"/>
            <path id="Trazado_99225" data-name="Trazado 99225" d="M466.075,65.806a.592.592,0,1,0-.592.565A.58.58,0,0,0,466.075,65.806Z" transform="translate(-432.965 -65.24)" fill="#fff"/>
            <ellipse id="Elipse_3958" data-name="Elipse 3958" cx="0.591" cy="0.565" rx="0.591" ry="0.565" transform="translate(37.248 0)" fill="#fff"/>
            <ellipse id="Elipse_3959" data-name="Elipse 3959" cx="0.591" cy="0.565" rx="0.591" ry="0.565" transform="translate(42.569 0)" fill="#fff"/>
            <path id="Trazado_99226" data-name="Trazado 99226" d="M491.414,65.806a.592.592,0,1,0-.592.565A.58.58,0,0,0,491.414,65.806Z" transform="translate(-442.341 -65.24)" fill="#fff"/>
            <path id="Trazado_99227" data-name="Trazado 99227" d="M499.86,65.806a.592.592,0,1,0-.592.565A.579.579,0,0,0,499.86,65.806Z" transform="translate(-445.466 -65.24)" fill="#fff"/>
          </g>
          <g id="Grupo_53309" data-name="Grupo 53309" transform="translate(0 36.187)">
            <ellipse id="Elipse_3960" data-name="Elipse 3960" cx="0.591" cy="0.565" rx="0.591" ry="0.565" transform="translate(0 0)" fill="#fff"/>
            <path id="Trazado_99228" data-name="Trazado 99228" d="M423.842,73.312a.592.592,0,1,0-.591.566A.578.578,0,0,0,423.842,73.312Z" transform="translate(-417.339 -72.747)" fill="#fff"/>
            <ellipse id="Elipse_3961" data-name="Elipse 3961" cx="0.591" cy="0.565" rx="0.591" ry="0.565" transform="translate(10.642 0)" fill="#fff"/>
            <path id="Trazado_99229" data-name="Trazado 99229" d="M440.736,73.312a.592.592,0,1,0-.592.566A.579.579,0,0,0,440.736,73.312Z" transform="translate(-423.589 -72.747)" fill="#fff"/>
            <path id="Trazado_99230" data-name="Trazado 99230" d="M449.181,73.312a.592.592,0,1,0-.591.566A.579.579,0,0,0,449.181,73.312Z" transform="translate(-426.715 -72.747)" fill="#fff"/>
            <ellipse id="Elipse_3962" data-name="Elipse 3962" cx="0.591" cy="0.565" rx="0.591" ry="0.565" transform="translate(26.606 0)" fill="#fff"/>
            <path id="Trazado_99231" data-name="Trazado 99231" d="M466.075,73.312a.592.592,0,1,0-.592.566A.579.579,0,0,0,466.075,73.312Z" transform="translate(-432.965 -72.747)" fill="#fff"/>
            <ellipse id="Elipse_3963" data-name="Elipse 3963" cx="0.591" cy="0.565" rx="0.591" ry="0.565" transform="translate(37.248 0)" fill="#fff"/>
            <ellipse id="Elipse_3964" data-name="Elipse 3964" cx="0.591" cy="0.565" rx="0.591" ry="0.565" transform="translate(42.569 0)" fill="#fff"/>
            <path id="Trazado_99232" data-name="Trazado 99232" d="M491.414,73.312a.592.592,0,1,0-.592.566A.579.579,0,0,0,491.414,73.312Z" transform="translate(-442.341 -72.747)" fill="#fff"/>
            <path id="Trazado_99233" data-name="Trazado 99233" d="M499.86,73.312a.592.592,0,1,0-.592.566A.579.579,0,0,0,499.86,73.312Z" transform="translate(-445.466 -72.747)" fill="#fff"/>
          </g>
          <g id="Grupo_53310" data-name="Grupo 53310" transform="translate(0 31.664)">
            <path id="Trazado_99234" data-name="Trazado 99234" d="M415.4,80.82a.592.592,0,1,0-.592.566A.579.579,0,0,0,415.4,80.82Z" transform="translate(-414.214 -80.255)" fill="#fff"/>
            <path id="Trazado_99235" data-name="Trazado 99235" d="M423.842,80.82a.592.592,0,1,0-.591.566A.578.578,0,0,0,423.842,80.82Z" transform="translate(-417.339 -80.255)" fill="#fff"/>
            <path id="Trazado_99236" data-name="Trazado 99236" d="M432.288,80.82a.592.592,0,1,0-.591.566A.578.578,0,0,0,432.288,80.82Z" transform="translate(-420.464 -80.255)" fill="#fff"/>
            <path id="Trazado_99237" data-name="Trazado 99237" d="M440.736,80.82a.592.592,0,1,0-.592.566A.579.579,0,0,0,440.736,80.82Z" transform="translate(-423.59 -80.255)" fill="#fff"/>
            <path id="Trazado_99238" data-name="Trazado 99238" d="M449.181,80.82a.592.592,0,1,0-.591.566A.579.579,0,0,0,449.181,80.82Z" transform="translate(-426.715 -80.255)" fill="#fff"/>
            <path id="Trazado_99239" data-name="Trazado 99239" d="M457.627,80.82a.592.592,0,1,0-.591.566A.578.578,0,0,0,457.627,80.82Z" transform="translate(-429.84 -80.255)" fill="#fff"/>
            <path id="Trazado_99240" data-name="Trazado 99240" d="M466.075,80.82a.592.592,0,1,0-.592.566A.579.579,0,0,0,466.075,80.82Z" transform="translate(-432.965 -80.255)" fill="#fff"/>
            <path id="Trazado_99241" data-name="Trazado 99241" d="M474.521,80.82a.592.592,0,1,0-.591.566A.578.578,0,0,0,474.521,80.82Z" transform="translate(-436.09 -80.255)" fill="#fff"/>
            <path id="Trazado_99242" data-name="Trazado 99242" d="M482.966,80.82a.592.592,0,1,0-.591.566A.579.579,0,0,0,482.966,80.82Z" transform="translate(-439.215 -80.255)" fill="#fff"/>
            <path id="Trazado_99243" data-name="Trazado 99243" d="M491.414,80.82a.592.592,0,1,0-.592.566A.579.579,0,0,0,491.414,80.82Z" transform="translate(-442.341 -80.255)" fill="#fff"/>
            <path id="Trazado_99244" data-name="Trazado 99244" d="M499.86,80.82a.592.592,0,1,0-.592.566A.579.579,0,0,0,499.86,80.82Z" transform="translate(-445.466 -80.255)" fill="#fff"/>
          </g>
          <g id="Grupo_53311" data-name="Grupo 53311" transform="translate(0 27.14)">
            <ellipse id="Elipse_3965" data-name="Elipse 3965" cx="0.591" cy="0.565" rx="0.591" ry="0.565" transform="translate(0 0)" fill="#fff"/>
            <path id="Trazado_99245" data-name="Trazado 99245" d="M423.842,88.328a.592.592,0,1,0-.591.566A.578.578,0,0,0,423.842,88.328Z" transform="translate(-417.339 -87.763)" fill="#fff"/>
            <ellipse id="Elipse_3966" data-name="Elipse 3966" cx="0.591" cy="0.565" rx="0.591" ry="0.565" transform="translate(10.642 0)" fill="#fff"/>
            <path id="Trazado_99246" data-name="Trazado 99246" d="M440.736,88.328a.592.592,0,1,0-.592.566A.579.579,0,0,0,440.736,88.328Z" transform="translate(-423.589 -87.763)" fill="#fff"/>
            <path id="Trazado_99247" data-name="Trazado 99247" d="M449.181,88.328a.592.592,0,1,0-.591.566A.579.579,0,0,0,449.181,88.328Z" transform="translate(-426.715 -87.763)" fill="#fff"/>
            <ellipse id="Elipse_3967" data-name="Elipse 3967" cx="0.591" cy="0.565" rx="0.591" ry="0.565" transform="translate(26.606 0)" fill="#fff"/>
            <path id="Trazado_99248" data-name="Trazado 99248" d="M466.075,88.328a.592.592,0,1,0-.592.566A.579.579,0,0,0,466.075,88.328Z" transform="translate(-432.965 -87.763)" fill="#fff"/>
            <ellipse id="Elipse_3968" data-name="Elipse 3968" cx="0.591" cy="0.565" rx="0.591" ry="0.565" transform="translate(37.248 0)" fill="#fff"/>
            <ellipse id="Elipse_3969" data-name="Elipse 3969" cx="0.591" cy="0.565" rx="0.591" ry="0.565" transform="translate(42.569 0)" fill="#fff"/>
            <path id="Trazado_99249" data-name="Trazado 99249" d="M491.414,88.328a.592.592,0,1,0-.592.566A.579.579,0,0,0,491.414,88.328Z" transform="translate(-442.341 -87.763)" fill="#fff"/>
            <path id="Trazado_99250" data-name="Trazado 99250" d="M499.86,88.328a.592.592,0,1,0-.592.566A.579.579,0,0,0,499.86,88.328Z" transform="translate(-445.466 -87.763)" fill="#fff"/>
          </g>
          <g id="Grupo_53312" data-name="Grupo 53312" transform="translate(0 22.617)">
            <ellipse id="Elipse_3970" data-name="Elipse 3970" cx="0.591" cy="0.565" rx="0.591" ry="0.565" transform="translate(0 0)" fill="#fff"/>
            <path id="Trazado_99251" data-name="Trazado 99251" d="M423.842,95.837a.592.592,0,1,0-.591.565A.579.579,0,0,0,423.842,95.837Z" transform="translate(-417.339 -95.271)" fill="#fff"/>
            <ellipse id="Elipse_3971" data-name="Elipse 3971" cx="0.591" cy="0.565" rx="0.591" ry="0.565" transform="translate(10.642 0)" fill="#fff"/>
            <path id="Trazado_99252" data-name="Trazado 99252" d="M440.736,95.837a.592.592,0,1,0-.592.565A.579.579,0,0,0,440.736,95.837Z" transform="translate(-423.589 -95.271)" fill="#fff"/>
            <path id="Trazado_99253" data-name="Trazado 99253" d="M449.181,95.837a.592.592,0,1,0-.591.565A.579.579,0,0,0,449.181,95.837Z" transform="translate(-426.715 -95.271)" fill="#fff"/>
            <ellipse id="Elipse_3972" data-name="Elipse 3972" cx="0.591" cy="0.565" rx="0.591" ry="0.565" transform="translate(26.606 0)" fill="#fff"/>
            <path id="Trazado_99254" data-name="Trazado 99254" d="M466.075,95.837a.592.592,0,1,0-.592.565A.579.579,0,0,0,466.075,95.837Z" transform="translate(-432.965 -95.271)" fill="#fff"/>
            <ellipse id="Elipse_3973" data-name="Elipse 3973" cx="0.591" cy="0.565" rx="0.591" ry="0.565" transform="translate(37.248 0)" fill="#fff"/>
            <ellipse id="Elipse_3974" data-name="Elipse 3974" cx="0.591" cy="0.565" rx="0.591" ry="0.565" transform="translate(42.569 0)" fill="#fff"/>
            <path id="Trazado_99255" data-name="Trazado 99255" d="M491.414,95.837a.592.592,0,1,0-.592.565A.579.579,0,0,0,491.414,95.837Z" transform="translate(-442.341 -95.271)" fill="#fff"/>
            <path id="Trazado_99256" data-name="Trazado 99256" d="M499.86,95.837a.592.592,0,1,0-.592.565A.579.579,0,0,0,499.86,95.837Z" transform="translate(-445.466 -95.271)" fill="#fff"/>
          </g>
          <g id="Grupo_53313" data-name="Grupo 53313" transform="translate(0 18.094)">
            <path id="Trazado_99257" data-name="Trazado 99257" d="M415.4,103.345a.592.592,0,1,0-.592.565A.579.579,0,0,0,415.4,103.345Z" transform="translate(-414.214 -102.779)" fill="#fff"/>
            <path id="Trazado_99258" data-name="Trazado 99258" d="M423.842,103.345a.592.592,0,1,0-.591.565A.579.579,0,0,0,423.842,103.345Z" transform="translate(-417.339 -102.779)" fill="#fff"/>
            <path id="Trazado_99259" data-name="Trazado 99259" d="M432.288,103.345a.592.592,0,1,0-.591.565A.579.579,0,0,0,432.288,103.345Z" transform="translate(-420.464 -102.779)" fill="#fff"/>
            <path id="Trazado_99260" data-name="Trazado 99260" d="M440.736,103.345a.592.592,0,1,0-.592.565A.579.579,0,0,0,440.736,103.345Z" transform="translate(-423.59 -102.779)" fill="#fff"/>
            <path id="Trazado_99261" data-name="Trazado 99261" d="M449.181,103.345a.592.592,0,1,0-.591.565A.579.579,0,0,0,449.181,103.345Z" transform="translate(-426.715 -102.779)" fill="#fff"/>
            <path id="Trazado_99262" data-name="Trazado 99262" d="M457.627,103.345a.592.592,0,1,0-.591.565A.579.579,0,0,0,457.627,103.345Z" transform="translate(-429.84 -102.779)" fill="#fff"/>
            <path id="Trazado_99263" data-name="Trazado 99263" d="M466.075,103.345a.592.592,0,1,0-.592.565A.579.579,0,0,0,466.075,103.345Z" transform="translate(-432.965 -102.779)" fill="#fff"/>
            <path id="Trazado_99264" data-name="Trazado 99264" d="M474.521,103.345a.592.592,0,1,0-.591.565A.579.579,0,0,0,474.521,103.345Z" transform="translate(-436.09 -102.779)" fill="#fff"/>
            <path id="Trazado_99265" data-name="Trazado 99265" d="M482.966,103.345a.592.592,0,1,0-.591.565A.579.579,0,0,0,482.966,103.345Z" transform="translate(-439.215 -102.779)" fill="#fff"/>
            <path id="Trazado_99266" data-name="Trazado 99266" d="M491.414,103.345a.592.592,0,1,0-.592.565A.579.579,0,0,0,491.414,103.345Z" transform="translate(-442.341 -102.779)" fill="#fff"/>
            <path id="Trazado_99267" data-name="Trazado 99267" d="M499.86,103.345a.592.592,0,1,0-.592.565A.579.579,0,0,0,499.86,103.345Z" transform="translate(-445.466 -102.779)" fill="#fff"/>
          </g>
          <g id="Grupo_53314" data-name="Grupo 53314" transform="translate(0 13.57)">
            <ellipse id="Elipse_3975" data-name="Elipse 3975" cx="0.591" cy="0.565" rx="0.591" ry="0.565" transform="translate(0 0)" fill="#fff"/>
            <path id="Trazado_99268" data-name="Trazado 99268" d="M423.842,110.853a.592.592,0,1,0-.591.565A.579.579,0,0,0,423.842,110.853Z" transform="translate(-417.339 -110.287)" fill="#fff"/>
            <ellipse id="Elipse_3976" data-name="Elipse 3976" cx="0.591" cy="0.565" rx="0.591" ry="0.565" transform="translate(10.642 0)" fill="#fff"/>
            <path id="Trazado_99269" data-name="Trazado 99269" d="M440.736,110.853a.592.592,0,1,0-.592.565A.579.579,0,0,0,440.736,110.853Z" transform="translate(-423.589 -110.287)" fill="#fff"/>
            <path id="Trazado_99270" data-name="Trazado 99270" d="M449.181,110.853a.592.592,0,1,0-.591.565A.579.579,0,0,0,449.181,110.853Z" transform="translate(-426.715 -110.287)" fill="#fff"/>
            <ellipse id="Elipse_3977" data-name="Elipse 3977" cx="0.591" cy="0.565" rx="0.591" ry="0.565" transform="translate(26.606 0)" fill="#fff"/>
            <path id="Trazado_99271" data-name="Trazado 99271" d="M466.075,110.853a.592.592,0,1,0-.592.565A.58.58,0,0,0,466.075,110.853Z" transform="translate(-432.965 -110.287)" fill="#fff"/>
            <ellipse id="Elipse_3978" data-name="Elipse 3978" cx="0.591" cy="0.565" rx="0.591" ry="0.565" transform="translate(37.248 0)" fill="#fff"/>
            <ellipse id="Elipse_3979" data-name="Elipse 3979" cx="0.591" cy="0.565" rx="0.591" ry="0.565" transform="translate(42.569 0)" fill="#fff"/>
            <path id="Trazado_99272" data-name="Trazado 99272" d="M491.414,110.853a.592.592,0,1,0-.592.565A.58.58,0,0,0,491.414,110.853Z" transform="translate(-442.341 -110.287)" fill="#fff"/>
            <path id="Trazado_99273" data-name="Trazado 99273" d="M499.86,110.853a.592.592,0,1,0-.592.565A.579.579,0,0,0,499.86,110.853Z" transform="translate(-445.466 -110.287)" fill="#fff"/>
          </g>
          <g id="Grupo_53315" data-name="Grupo 53315" transform="translate(0 9.047)">
            <path id="Trazado_99274" data-name="Trazado 99274" d="M415.4,118.36a.592.592,0,1,0-.592.566A.579.579,0,0,0,415.4,118.36Z" transform="translate(-414.214 -117.794)" fill="#fff"/>
            <path id="Trazado_99275" data-name="Trazado 99275" d="M423.842,118.36a.592.592,0,1,0-.591.566A.579.579,0,0,0,423.842,118.36Z" transform="translate(-417.339 -117.794)" fill="#fff"/>
            <path id="Trazado_99276" data-name="Trazado 99276" d="M432.288,118.36a.592.592,0,1,0-.591.566A.579.579,0,0,0,432.288,118.36Z" transform="translate(-420.464 -117.794)" fill="#fff"/>
            <path id="Trazado_99277" data-name="Trazado 99277" d="M440.736,118.36a.592.592,0,1,0-.592.566A.579.579,0,0,0,440.736,118.36Z" transform="translate(-423.59 -117.794)" fill="#fff"/>
            <path id="Trazado_99278" data-name="Trazado 99278" d="M449.181,118.36a.592.592,0,1,0-.591.566A.579.579,0,0,0,449.181,118.36Z" transform="translate(-426.715 -117.794)" fill="#fff"/>
            <path id="Trazado_99279" data-name="Trazado 99279" d="M457.627,118.36a.592.592,0,1,0-.591.566A.579.579,0,0,0,457.627,118.36Z" transform="translate(-429.84 -117.794)" fill="#fff"/>
            <path id="Trazado_99280" data-name="Trazado 99280" d="M466.075,118.36a.592.592,0,1,0-.592.566A.58.58,0,0,0,466.075,118.36Z" transform="translate(-432.965 -117.794)" fill="#fff"/>
            <path id="Trazado_99281" data-name="Trazado 99281" d="M474.521,118.36a.592.592,0,1,0-.591.566A.579.579,0,0,0,474.521,118.36Z" transform="translate(-436.09 -117.794)" fill="#fff"/>
            <path id="Trazado_99282" data-name="Trazado 99282" d="M482.966,118.36a.592.592,0,1,0-.591.566A.579.579,0,0,0,482.966,118.36Z" transform="translate(-439.215 -117.794)" fill="#fff"/>
            <path id="Trazado_99283" data-name="Trazado 99283" d="M491.414,118.36a.592.592,0,1,0-.592.566A.58.58,0,0,0,491.414,118.36Z" transform="translate(-442.341 -117.794)" fill="#fff"/>
            <path id="Trazado_99284" data-name="Trazado 99284" d="M499.86,118.36a.592.592,0,1,0-.592.566A.579.579,0,0,0,499.86,118.36Z" transform="translate(-445.466 -117.794)" fill="#fff"/>
          </g>
          <g id="Grupo_53316" data-name="Grupo 53316" transform="translate(0 4.524)">
            <ellipse id="Elipse_3980" data-name="Elipse 3980" cx="0.591" cy="0.565" rx="0.591" ry="0.565" transform="translate(0 0)" fill="#fff"/>
            <path id="Trazado_99285" data-name="Trazado 99285" d="M423.842,125.867a.592.592,0,1,0-.591.566A.578.578,0,0,0,423.842,125.867Z" transform="translate(-417.339 -125.302)" fill="#fff"/>
            <ellipse id="Elipse_3981" data-name="Elipse 3981" cx="0.591" cy="0.565" rx="0.591" ry="0.565" transform="translate(10.642 0)" fill="#fff"/>
            <path id="Trazado_99286" data-name="Trazado 99286" d="M440.736,125.867a.592.592,0,1,0-.592.566A.579.579,0,0,0,440.736,125.867Z" transform="translate(-423.589 -125.302)" fill="#fff"/>
            <path id="Trazado_99287" data-name="Trazado 99287" d="M449.181,125.867a.592.592,0,1,0-.591.566A.579.579,0,0,0,449.181,125.867Z" transform="translate(-426.715 -125.302)" fill="#fff"/>
            <ellipse id="Elipse_3982" data-name="Elipse 3982" cx="0.591" cy="0.565" rx="0.591" ry="0.565" transform="translate(26.606 0)" fill="#fff"/>
            <path id="Trazado_99288" data-name="Trazado 99288" d="M466.075,125.867a.592.592,0,1,0-.592.566A.579.579,0,0,0,466.075,125.867Z" transform="translate(-432.965 -125.302)" fill="#fff"/>
            <ellipse id="Elipse_3983" data-name="Elipse 3983" cx="0.591" cy="0.565" rx="0.591" ry="0.565" transform="translate(37.248 0)" fill="#fff"/>
            <ellipse id="Elipse_3984" data-name="Elipse 3984" cx="0.591" cy="0.565" rx="0.591" ry="0.565" transform="translate(42.569 0)" fill="#fff"/>
            <path id="Trazado_99289" data-name="Trazado 99289" d="M491.414,125.867a.592.592,0,1,0-.592.566A.579.579,0,0,0,491.414,125.867Z" transform="translate(-442.341 -125.302)" fill="#fff"/>
            <path id="Trazado_99290" data-name="Trazado 99290" d="M499.86,125.867a.592.592,0,1,0-.592.566A.579.579,0,0,0,499.86,125.867Z" transform="translate(-445.466 -125.302)" fill="#fff"/>
          </g>
          <g id="Grupo_53317" data-name="Grupo 53317" transform="translate(0 0)">
            <ellipse id="Elipse_3985" data-name="Elipse 3985" cx="0.591" cy="0.565" rx="0.591" ry="0.565" transform="translate(0 0)" fill="#fff"/>
            <path id="Trazado_99291" data-name="Trazado 99291" d="M423.842,133.375a.592.592,0,1,0-.591.566A.578.578,0,0,0,423.842,133.375Z" transform="translate(-417.339 -132.81)" fill="#fff"/>
            <ellipse id="Elipse_3986" data-name="Elipse 3986" cx="0.591" cy="0.565" rx="0.591" ry="0.565" transform="translate(10.642 0)" fill="#fff"/>
            <path id="Trazado_99292" data-name="Trazado 99292" d="M440.736,133.375a.592.592,0,1,0-.592.566A.579.579,0,0,0,440.736,133.375Z" transform="translate(-423.589 -132.81)" fill="#fff"/>
            <path id="Trazado_99293" data-name="Trazado 99293" d="M449.181,133.375a.592.592,0,1,0-.591.566A.579.579,0,0,0,449.181,133.375Z" transform="translate(-426.715 -132.81)" fill="#fff"/>
            <ellipse id="Elipse_3987" data-name="Elipse 3987" cx="0.591" cy="0.565" rx="0.591" ry="0.565" transform="translate(26.606 0)" fill="#fff"/>
            <path id="Trazado_99294" data-name="Trazado 99294" d="M466.075,133.375a.592.592,0,1,0-.592.566A.579.579,0,0,0,466.075,133.375Z" transform="translate(-432.965 -132.81)" fill="#fff"/>
            <ellipse id="Elipse_3988" data-name="Elipse 3988" cx="0.591" cy="0.565" rx="0.591" ry="0.565" transform="translate(37.248 0)" fill="#fff"/>
            <ellipse id="Elipse_3989" data-name="Elipse 3989" cx="0.591" cy="0.565" rx="0.591" ry="0.565" transform="translate(42.569 0)" fill="#fff"/>
            <path id="Trazado_99295" data-name="Trazado 99295" d="M491.414,133.375a.592.592,0,1,0-.592.566A.579.579,0,0,0,491.414,133.375Z" transform="translate(-442.341 -132.81)" fill="#fff"/>
            <path id="Trazado_99296" data-name="Trazado 99296" d="M499.86,133.375a.592.592,0,1,0-.592.566A.579.579,0,0,0,499.86,133.375Z" transform="translate(-445.466 -132.81)" fill="#fff"/>
          </g>
        </g>
        <line id="Línea_138" data-name="Línea 138" y1="115.674" transform="translate(8.548 46.179)" fill="none" stroke="#fff" stroke-width="1" stroke-dasharray="8"/>
      </g>
    </g>
    <g id="Grupo_79805" data-name="Grupo 79805" transform="translate(650.771 4133.529)">
      <path id="Trazado_149821" data-name="Trazado 149821" d="M48.759,203.081,122.9,245.45l65.314-38.083-74-42.43Z" transform="translate(11.595 87.697)" fill="#401888"/>
      <path id="Trazado_149822" data-name="Trazado 149822" d="M72.091,185.514c-16.262,0-29.444,7.42-29.444,16.572s13.182,16.569,29.444,16.569,29.441-7.42,29.441-16.569S88.35,185.514,72.091,185.514Z" transform="translate(0 126.736)" fill="#401888"/>
      <path id="Trazado_149823" data-name="Trazado 149823" d="M116.513,165.171c-16.262,0-29.444,7.42-29.444,16.572s13.182,16.572,29.444,16.572,29.441-7.42,29.441-16.572S132.772,165.171,116.513,165.171Z" transform="translate(84.276 88.142)" fill="#401888"/>
      <g id="Grupo_79804" data-name="Grupo 79804" transform="translate(48.112 118.711)">
        <g id="Grupo_79780" data-name="Grupo 79780" transform="translate(100.272)">
          <path id="Trazado_149824" data-name="Trazado 149824" d="M92.442,173.508c-2.266,2.208-2.967,2.842-5.07,4.9-1.228,1.2-.217,2.3,2.124,2.211a42.186,42.186,0,0,0,9.323-2.016,47.714,47.714,0,0,0,6.982-3.639,4.633,4.633,0,0,0,2.071-2.622v-3.685l-11.148.472S94.891,171.118,92.442,173.508Z" transform="translate(-64.53 -23.965)" fill="#512e2b"/>
          <path id="Trazado_149825" data-name="Trazado 149825" d="M107.623,169.088a30.732,30.732,0,0,1-3.621,4.1,39.936,39.936,0,0,0-4.94,5.719c-.458.6-.724,2.324,1.617,2.234a30.832,30.832,0,0,0,7.8-1.886c2.978-1.06,5.493-4.062,7.226-5.157a7.289,7.289,0,0,0,2.5-3.52l-1.2-3.63Z" transform="translate(-41.938 -27.2)" fill="#512e2b"/>
          <path id="Trazado_149826" data-name="Trazado 149826" d="M127.417,189.547c-.521-10.664-3.52-21.7-3.12-27.911.866-13.524-6.588-20.631-6.588-20.631.594-4.557-20.544,1.819-20.544,1.819s-4.525,24.5-6.437,37.4c-2.173,14.66-.858,44.518-.858,44.518s.275,3.187,5.736,3.164c4.189-.014,7.281-3.685,7.281-3.685l.432-33.978,4.856-24.1s4.673,19.585,6.154,26.61c1.576,7.478,7.62,29.6,7.62,29.6s3.908,4.493,8.764,2.066,3.9-5.137,3.9-5.137S133.657,203.587,127.417,189.547Z" transform="translate(-59.544 -79.53)" fill="#3d6ec4"/>
          <path id="Trazado_149827" data-name="Trazado 149827" d="M101.146,128.3s-3.022-.148-6.142,5.716-6.1,12.1-6.1,12.1,4.546.649,9.485,5.2C105.147,145.215,106.251,131.161,101.146,128.3Z" transform="translate(-60.634 -100.512)" fill="#e26154"/>
          <path id="Trazado_149828" data-name="Trazado 149828" d="M113.272,127.643s-10.789-.548-17.29,2.008a48.05,48.05,0,0,0-3.259,9.242c-1.562,5.98-1,33.79-1,33.79s6.446,4.554,17.232,3.662a14.633,14.633,0,0,0,9.688-4.5s3.836-27.233,3.314-31.133S113.272,127.643,113.272,127.643Z" transform="translate(-55.469 -101.859)" fill="#ef736a"/>
          <path id="Trazado_149829" data-name="Trazado 149829" d="M96.5,131.023l-1.254,7.3s3.72,4.175,7.362,1.055,4.16-4.557,4.16-4.557l-1.793-9.958Z" transform="translate(-48.6 -107.032)" fill="#ffad97"/>
          <g id="Grupo_79776" data-name="Grupo 79776" transform="translate(34.981 26.202)">
            <path id="Trazado_149830" data-name="Trazado 149830" d="M110.529,129.117c-1.573.238-2.593.672-5.939,2.408s-7.014,5.945-8.477,8.526c-2.944,5.2.38,6.6,2.535,3.6,0,0,4.7-7.072,8.419-9.054a22.7,22.7,0,0,1,5.725-2.355S111.436,129.441,110.529,129.117Z" transform="translate(-84.136 -125.171)" fill="#3d6ec4"/>
            <path id="Trazado_149831" data-name="Trazado 149831" d="M92.5,139.526c-.368,3.509.333,4.592,1.744,4.714s1.492-2.382,1.909-5.174c.394-2.639,2.975-11.311,2.975-11.311l-3.2.956S92.87,136.015,92.5,139.526Z" transform="translate(-88.965 -127.755)" fill="#3d6ec4"/>
            <path id="Trazado_149832" data-name="Trazado 149832" d="M113.109,162.9c-2.978-.324-7.266-3.222-7.037-12.643a89.85,89.85,0,0,1,1.1-13.759L95.79,131.509s-3.091,7.156-3.7,21.193-.869,18.875-.869,18.875,12.148.745,19.339,0a64.2,64.2,0,0,0,10.2-1.634l-.817-9.378S116.5,163.271,113.109,162.9Z" transform="translate(-91.218 -120.633)" fill="#3d6ec4"/>
            <ellipse id="Elipse_4710" data-name="Elipse 4710" cx="0.721" cy="1.046" rx="0.721" ry="1.046" transform="translate(4.386 12.411)" fill="#fff"/>
            <path id="Trazado_149833" data-name="Trazado 149833" d="M95.753,133.843c-.336.469-.348,1.037-.026,1.269s.86.041,1.2-.429.348-1.037.026-1.269S96.092,133.374,95.753,133.843Z" transform="translate(-83.107 -117.205)" fill="#fff"/>
            <path id="Trazado_149834" data-name="Trazado 149834" d="M96.538,144.852c3.807,1.011,4.792-3.477,5.67-6.947a38.08,38.08,0,0,1-9.639-3.934C92.106,136.325,92.34,143.736,96.538,144.852Z" transform="translate(-88.977 -115.964)" fill="#4b87dd"/>
          </g>
          <path id="Trazado_149835" data-name="Trazado 149835" d="M106.483,122.154c-3.109-2.367-10.47-3.126-13.159,4.482-2.819,7.979,4.4,17.942,8.248,16.25,2.155-.947,6.684-4.317,7.961-8.518C110.971,129.641,108.9,123.994,106.483,122.154Z" transform="translate(-53.45 -115.282)" fill="#ffc5b3"/>
          <g id="Grupo_79778" data-name="Grupo 79778" transform="translate(0 37.82)">
            <path id="Trazado_149836" data-name="Trazado 149836" d="M87.194,177.624l23.322-13.267v-27.3L87.194,148.685Z" transform="translate(-63.872 -121.723)" fill="#dba763"/>
            <path id="Trazado_149837" data-name="Trazado 149837" d="M79.144,164.358l23.322,13.267V148.685L79.144,137.058Z" transform="translate(-79.144 -121.723)" fill="#e8b679"/>
            <path id="Trazado_149838" data-name="Trazado 149838" d="M87.2,179.088l23.314-13.515V136.418L87.194,149.9Z" transform="translate(-63.872 -122.938)" fill="#dba763"/>
            <path id="Trazado_149839" data-name="Trazado 149839" d="M79.144,136.418v29.155l23.33,13.515-.008-29.188Z" transform="translate(-79.144 -122.938)" fill="#e8b679"/>
            <path id="Trazado_149840" data-name="Trazado 149840" d="M79.144,145.244l23.322,13.483,23.322-13.483-23.314-13.479Z" transform="translate(-79.144 -131.765)" fill="#ffe1c0"/>
            <g id="Grupo_79777" data-name="Grupo 79777" transform="translate(1.387 4.996)">
              <path id="Trazado_149841" data-name="Trazado 149841" d="M90.455,149.677l5.2-3.019v-8.521l-5.2,3.021Z" transform="translate(-59.07 -124.672)" fill="#512e2b"/>
              <path id="Trazado_149842" data-name="Trazado 149842" d="M82.413,136.5l23.3,13.485,5.2-3.032L87.625,133.489Z" transform="translate(-74.327 -133.489)" fill="#724941"/>
              <path id="Trazado_149843" data-name="Trazado 149843" d="M88.26,153.661l7.83-4.519v-1.522l-7.83,4.541Z" transform="translate(-63.235 -106.683)" fill="#512e2b"/>
              <path id="Trazado_149844" data-name="Trazado 149844" d="M88.26,152.734l7.83-4.52v-1.522l-7.83,4.541Z" transform="translate(-63.235 -108.44)" fill="#512e2b"/>
              <path id="Trazado_149845" data-name="Trazado 149845" d="M93.389,151.633l3.744-2.168v-5.207l-3.744,2.17Z" transform="translate(-53.505 -113.062)" fill="#512e2b"/>
              <path id="Trazado_149846" data-name="Trazado 149846" d="M79.622,149.5l3.744,2.164v-5.426l-3.744-2.163Z" transform="translate(-79.622 -113.414)" fill="#512e2b"/>
              <path id="Trazado_149847" data-name="Trazado 149847" d="M81.386,150.519l3.744,2.164v-5.425l-3.744-2.163Z" transform="translate(-76.276 -111.473)" fill="#512e2b"/>
              <path id="Trazado_149848" data-name="Trazado 149848" d="M79.622,145.612l7.7,4.447v-7.8l-7.7-4.456Z" transform="translate(-79.622 -125.299)" fill="#fff"/>
              <path id="Trazado_149849" data-name="Trazado 149849" d="M79.863,139.5l6.055,3.512v-1.269l-6.055-3.491Z" transform="translate(-79.165 -124.454)" fill="#512e2b"/>
            </g>
          </g>
          <path id="Trazado_149850" data-name="Trazado 149850" d="M114.953,137.1s-4.418,9.285-6.246,11.875-9.259,8.5-10.786,9.361a15.761,15.761,0,0,1-6.852,1.776c-1.828-.174-3.062.721-1.3,1.388a14.876,14.876,0,0,0,3.468.823,21.973,21.973,0,0,0-4.485,4.4c-1.02,1.628-1.886,4.618,2.063,3.749,3.193-.7,7.622-5.592,8.784-6.681,2.193-2.057,10.9-6.768,12.875-8.161,2.781-1.973,10.667-13.591,10.667-13.591S120.713,135.881,114.953,137.1Z" transform="translate(-62.548 -84.123)" fill="#ffc5b3"/>
          <path id="Trazado_149851" data-name="Trazado 149851" d="M101.3,139.48a53.581,53.581,0,0,0-4.685,9.74s3.132,2.274,5.936,4.042a45.306,45.306,0,0,0,4.835,2.607s11.554-18.362,3.7-24.69C108.8,129.334,103.9,135.58,101.3,139.48Z" transform="translate(-45.996 -95.689)" fill="#e26154"/>
          <path id="Trazado_149852" data-name="Trazado 149852" d="M101.987,119.756c-5.594.519-8.848,4.218-9.54,7.417a3.922,3.922,0,0,0,.881,3.5c1.281,1.31,3.152,2.761,7.008,2.124a15.491,15.491,0,0,0,5.418-1.993l.646,4.227a3.675,3.675,0,0,0,1.11-.409c.064-1.672.661-2.193,1.582-1.695,1.04.565,1.084,2.946,1.084,2.946a8.655,8.655,0,0,0,2.08-7.8C111.594,125.1,107.582,119.235,101.987,119.756Z" transform="translate(-54.09 -116.79)" fill="#512e2b"/>
          <g id="Grupo_79779" data-name="Grupo 79779" transform="translate(29.536)">
            <path id="Trazado_149853" data-name="Trazado 149853" d="M89.485,128.367c-1.24,1.072,5.681,5.742,10.58,4.181s12.275-7.014,12.275-7.014L97.91,122.24S90.722,127.3,89.485,128.367Z" transform="translate(-89.339 -112.016)" fill="#3d6ec4"/>
            <path id="Trazado_149854" data-name="Trazado 149854" d="M102.26,118.861c-9.4,0-9.963,9.79-9.963,9.79s8.193,5.09,13.307,3.63,6.5-2.729,6.5-2.729S111.662,118.861,102.26,118.861Z" transform="translate(-83.726 -118.426)" fill="#4b87dd"/>
            <path id="Trazado_149855" data-name="Trazado 149855" d="M96.318,118.711c-.779,0-1.411.351-1.411.779s.632.782,1.411.782,1.411-.351,1.411-.782S97.1,118.711,96.318,118.711Z" transform="translate(-78.774 -118.711)" fill="#3d6ec4"/>
          </g>
        </g>
        <g id="Grupo_79798" data-name="Grupo 79798" transform="translate(21.554 92.741)">
          <g id="Grupo_79789" data-name="Grupo 79789" transform="translate(0 34.57)">
            <g id="Grupo_79781" data-name="Grupo 79781" transform="translate(62.064 38.267)">
              <path id="Trazado_149856" data-name="Trazado 149856" d="M73.4,207.988l1.733,1.089,55.759-32.2-1.9-1.014Z" transform="translate(-73.396 -175.863)" fill="#d1814a"/>
              <path id="Trazado_149857" data-name="Trazado 149857" d="M73.994,216.342l55.759-32.2v-7.934l-55.759,32.2Z" transform="translate(-72.261 -175.202)" fill="#bc6f3b"/>
              <path id="Trazado_149858" data-name="Trazado 149858" d="M73.4,194.971l1.733.995v-7.934L73.4,186.951Z" transform="translate(-73.396 -154.826)" fill="#ef995e"/>
            </g>
            <g id="Grupo_79782" data-name="Grupo 79782" transform="translate(0 2.268)">
              <path id="Trazado_149859" data-name="Trazado 149859" d="M51.973,195.563l1.733,1.089,55.759-32.2-1.9-1.014Z" transform="translate(-51.973 -163.437)" fill="#d1814a"/>
              <path id="Trazado_149860" data-name="Trazado 149860" d="M52.571,203.916l55.759-32.2v-7.934l-55.759,32.2Z" transform="translate(-50.838 -162.776)" fill="#bc6f3b"/>
              <path id="Trazado_149861" data-name="Trazado 149861" d="M51.973,182.545l1.733.995v-7.934l-1.733-1.08Z" transform="translate(-51.973 -142.4)" fill="#ef995e"/>
            </g>
            <g id="Grupo_79783" data-name="Grupo 79783" transform="translate(30.133 19.38)">
              <path id="Trazado_149862" data-name="Trazado 149862" d="M62.374,201.469l1.733,1.09,55.758-32.2-1.9-1.014Z" transform="translate(-62.374 -169.344)" fill="#d1814a"/>
              <path id="Trazado_149863" data-name="Trazado 149863" d="M62.972,209.823l55.758-32.2v-7.934l-55.758,32.2Z" transform="translate(-61.239 -168.683)" fill="#bc6f3b"/>
              <path id="Trazado_149864" data-name="Trazado 149864" d="M62.374,188.452l1.733,1v-7.934l-1.733-1.081Z" transform="translate(-62.374 -148.307)" fill="#ef995e"/>
            </g>
            <g id="Grupo_79784" data-name="Grupo 79784" transform="translate(0 28.474)">
              <path id="Trazado_149865" data-name="Trazado 149865" d="M51.973,176.338l63.8,36.835v-2.566l-63.8-36.835Z" transform="translate(-51.973 -170.035)" fill="#ef995e"/>
              <path id="Trazado_149866" data-name="Trazado 149866" d="M51.973,176.221l63.8,36.835,6.688-3.739L58.627,172.482Z" transform="translate(-51.973 -172.482)" fill="#d1814a"/>
              <path id="Trazado_149867" data-name="Trazado 149867" d="M73.994,193.716l6.688-3.893V185.2l-6.688,3.739Z" transform="translate(-10.196 -148.362)" fill="#bc6f3b"/>
            </g>
            <g id="Grupo_79785" data-name="Grupo 79785" transform="translate(12.262 20.985)">
              <path id="Trazado_149868" data-name="Trazado 149868" d="M56.205,173.754l63.979,36.992V208.18L56.205,171.188Z" transform="translate(-56.205 -167.45)" fill="#ef995e"/>
              <path id="Trazado_149869" data-name="Trazado 149869" d="M56.205,173.635l63.979,36.992,6.688-3.739L62.859,169.9Z" transform="translate(-56.205 -169.897)" fill="#d1814a"/>
              <path id="Trazado_149870" data-name="Trazado 149870" d="M78.289,191.186l6.688-3.893v-4.627L78.289,186.4Z" transform="translate(-14.31 -145.675)" fill="#bc6f3b"/>
            </g>
            <g id="Grupo_79786" data-name="Grupo 79786" transform="translate(24.853 13.688)">
              <path id="Trazado_149871" data-name="Trazado 149871" d="M60.551,171.235l64.127,37.07v-2.566l-64.127-37.07Z" transform="translate(-60.551 -164.931)" fill="#ef995e"/>
              <path id="Trazado_149872" data-name="Trazado 149872" d="M60.551,171.117l64.127,37.07,6.688-3.739-64.16-37.069Z" transform="translate(-60.551 -167.379)" fill="#d1814a"/>
              <path id="Trazado_149873" data-name="Trazado 149873" d="M82.686,188.694l6.688-3.893v-4.627l-6.688,3.739Z" transform="translate(-18.559 -143.105)" fill="#bc6f3b"/>
            </g>
            <g id="Grupo_79787" data-name="Grupo 79787" transform="translate(37.443 6.591)">
              <path id="Trazado_149874" data-name="Trazado 149874" d="M64.9,168.785l63.979,36.835v-2.565L64.9,166.219Z" transform="translate(-64.897 -162.481)" fill="#ef995e"/>
              <path id="Trazado_149875" data-name="Trazado 149875" d="M64.9,168.667,128.876,205.5l6.688-3.74L71.552,164.929Z" transform="translate(-64.897 -164.929)" fill="#d1814a"/>
              <path id="Trazado_149876" data-name="Trazado 149876" d="M86.981,186.163l6.688-3.893v-4.628l-6.688,3.74Z" transform="translate(-23.002 -140.809)" fill="#bc6f3b"/>
            </g>
            <g id="Grupo_79788" data-name="Grupo 79788" transform="translate(48.737)">
              <path id="Trazado_149877" data-name="Trazado 149877" d="M68.8,166.51l64.131,37v-2.566l-64.131-37Z" transform="translate(-68.796 -160.206)" fill="#ef995e"/>
              <path id="Trazado_149878" data-name="Trazado 149878" d="M68.8,166.392l64.131,37,6.688-3.74L75.45,162.654Z" transform="translate(-68.796 -162.654)" fill="#d1814a"/>
              <path id="Trazado_149879" data-name="Trazado 149879" d="M90.931,183.944l6.688-3.893v-4.627l-6.688,3.74Z" transform="translate(-26.8 -138.429)" fill="#bc6f3b"/>
            </g>
          </g>
          <g id="Grupo_79791" data-name="Grupo 79791" transform="translate(6.514 21.92)">
            <path id="Trazado_149880" data-name="Trazado 149880" d="M54.222,186.387l28.814,16.7.01-19.869L54.222,166.559Z" transform="translate(-54.222 -142.597)" fill="#dba763"/>
            <path id="Trazado_149881" data-name="Trazado 149881" d="M64.167,207.876l41.5-24.011V164.036L64.177,188.007Z" transform="translate(-35.353 -147.382)" fill="#e8b679"/>
            <path id="Trazado_149882" data-name="Trazado 149882" d="M54.222,182.249l28.824,16.663,41.486-23.969L95.721,158.288Z" transform="translate(-54.222 -158.288)" fill="#ffe1c0"/>
            <g id="Grupo_79790" data-name="Grupo 79790" transform="translate(10.716 6.172)">
              <path id="Trazado_149883" data-name="Trazado 149883" d="M57.921,179.214l6.428,3.732V172.417l-6.428-3.734Z" transform="translate(-57.921 -144.738)" fill="#512e2b"/>
              <path id="Trazado_149884" data-name="Trazado 149884" d="M57.921,184.364l6.428,3.747,41.475-23.968-6.444-3.725Z" transform="translate(-57.921 -160.418)" fill="#724941"/>
              <path id="Trazado_149885" data-name="Trazado 149885" d="M60.085,177.337l9.677,5.585v-1.854l-9.677-5.612Z" transform="translate(-53.813 -131.89)" fill="#512e2b"/>
              <path id="Trazado_149886" data-name="Trazado 149886" d="M60.085,176.192l9.677,5.585v-1.854l-9.677-5.612Z" transform="translate(-53.813 -134.061)" fill="#512e2b"/>
              <path id="Trazado_149887" data-name="Trazado 149887" d="M76.48,177.386l4.628-2.674v-6.7l-4.628,2.673Z" transform="translate(-22.711 -146.019)" fill="#512e2b"/>
              <path id="Trazado_149888" data-name="Trazado 149888" d="M74.3,178.651l4.628-2.674v-6.7L74.3,171.945Z" transform="translate(-26.846 -143.62)" fill="#512e2b"/>
              <path id="Trazado_149889" data-name="Trazado 149889" d="M72.091,179.919l4.628-2.674v-6.7l-4.628,2.673Z" transform="translate(-31.036 -141.214)" fill="#512e2b"/>
              <path id="Trazado_149890" data-name="Trazado 149890" d="M64.6,185.837l9.511-5.5v-9.647L64.6,176.2Z" transform="translate(-45.243 -140.924)" fill="#fff"/>
              <path id="Trazado_149891" data-name="Trazado 149891" d="M65,177.127l7.483-4.34v-1.543L65,175.558Z" transform="translate(-44.48 -139.88)" fill="#512e2b"/>
            </g>
          </g>
          <g id="Grupo_79793" data-name="Grupo 79793" transform="translate(38.158 40.481)">
            <path id="Trazado_149892" data-name="Trazado 149892" d="M65.144,192.793l28.814,16.7.01-19.869L65.144,172.966Z" transform="translate(-65.144 -149.003)" fill="#dba763"/>
            <path id="Trazado_149893" data-name="Trazado 149893" d="M75.09,214.282l41.5-24.012V170.443L75.1,194.414Z" transform="translate(-46.275 -153.788)" fill="#e8b679"/>
            <path id="Trazado_149894" data-name="Trazado 149894" d="M65.144,188.655l28.824,16.663,41.486-23.969-28.812-16.655Z" transform="translate(-65.144 -164.694)" fill="#ffe1c0"/>
            <g id="Grupo_79792" data-name="Grupo 79792" transform="translate(10.716 6.172)">
              <path id="Trazado_149895" data-name="Trazado 149895" d="M68.843,185.621l6.428,3.732V178.825l-6.428-3.735Z" transform="translate(-68.843 -151.144)" fill="#512e2b"/>
              <path id="Trazado_149896" data-name="Trazado 149896" d="M68.843,190.77l6.428,3.748,41.475-23.968-6.443-3.725Z" transform="translate(-68.843 -166.825)" fill="#724941"/>
              <path id="Trazado_149897" data-name="Trazado 149897" d="M71.008,183.743l9.677,5.585v-1.854l-9.677-5.612Z" transform="translate(-64.735 -138.296)" fill="#512e2b"/>
              <path id="Trazado_149898" data-name="Trazado 149898" d="M71.008,182.6l9.677,5.585V186.33l-9.677-5.612Z" transform="translate(-64.735 -140.468)" fill="#512e2b"/>
              <path id="Trazado_149899" data-name="Trazado 149899" d="M87.4,183.794l4.628-2.674v-6.7L87.4,177.088Z" transform="translate(-33.633 -152.425)" fill="#512e2b"/>
              <path id="Trazado_149900" data-name="Trazado 149900" d="M85.222,185.057l4.628-2.674v-6.7l-4.628,2.673Z" transform="translate(-37.768 -150.027)" fill="#512e2b"/>
              <path id="Trazado_149901" data-name="Trazado 149901" d="M83.014,186.326l4.628-2.674v-6.7l-4.628,2.674Z" transform="translate(-41.958 -147.621)" fill="#512e2b"/>
              <path id="Trazado_149902" data-name="Trazado 149902" d="M75.525,192.243l9.511-5.5V177.1l-9.511,5.508Z" transform="translate(-56.165 -147.33)" fill="#fff"/>
              <path id="Trazado_149903" data-name="Trazado 149903" d="M75.927,183.534l7.483-4.34v-1.543l-7.483,4.315Z" transform="translate(-55.403 -146.286)" fill="#512e2b"/>
            </g>
          </g>
          <g id="Grupo_79795" data-name="Grupo 79795" transform="translate(6.514)">
            <path id="Trazado_149904" data-name="Trazado 149904" d="M54.222,178.821l28.814,16.7.01-19.869L54.222,158.993Z" transform="translate(-54.222 -135.031)" fill="#dba763"/>
            <path id="Trazado_149905" data-name="Trazado 149905" d="M64.167,200.31l41.5-24.011V156.471l-41.486,23.97Z" transform="translate(-35.353 -139.815)" fill="#e8b679"/>
            <path id="Trazado_149906" data-name="Trazado 149906" d="M54.222,174.683l28.824,16.663,41.486-23.969L95.721,150.722Z" transform="translate(-54.222 -150.722)" fill="#ffe1c0"/>
            <g id="Grupo_79794" data-name="Grupo 79794" transform="translate(10.716 6.172)">
              <path id="Trazado_149907" data-name="Trazado 149907" d="M57.921,171.648l6.428,3.732V164.852l-6.428-3.734Z" transform="translate(-57.921 -137.172)" fill="#512e2b"/>
              <path id="Trazado_149908" data-name="Trazado 149908" d="M57.921,176.8l6.428,3.747,41.475-23.968-6.444-3.725Z" transform="translate(-57.921 -152.852)" fill="#724941"/>
              <path id="Trazado_149909" data-name="Trazado 149909" d="M60.085,169.771l9.677,5.585V173.5l-9.677-5.612Z" transform="translate(-53.813 -124.324)" fill="#512e2b"/>
              <path id="Trazado_149910" data-name="Trazado 149910" d="M60.085,168.626l9.677,5.585v-1.854l-9.677-5.612Z" transform="translate(-53.813 -126.495)" fill="#512e2b"/>
              <path id="Trazado_149911" data-name="Trazado 149911" d="M76.48,169.821l4.628-2.674v-6.7l-4.628,2.674Z" transform="translate(-22.711 -138.453)" fill="#512e2b"/>
              <path id="Trazado_149912" data-name="Trazado 149912" d="M74.3,171.085l4.628-2.674v-6.7L74.3,164.38Z" transform="translate(-26.846 -136.055)" fill="#512e2b"/>
              <path id="Trazado_149913" data-name="Trazado 149913" d="M72.091,172.353l4.628-2.674v-6.7l-4.628,2.674Z" transform="translate(-31.036 -133.648)" fill="#512e2b"/>
              <path id="Trazado_149914" data-name="Trazado 149914" d="M64.6,178.271l9.511-5.5v-9.647L64.6,168.635Z" transform="translate(-45.243 -133.358)" fill="#fff"/>
              <path id="Trazado_149915" data-name="Trazado 149915" d="M65,169.561l7.483-4.341v-1.543L65,167.993Z" transform="translate(-44.48 -132.314)" fill="#512e2b"/>
            </g>
          </g>
          <g id="Grupo_79797" data-name="Grupo 79797" transform="translate(38.158 18.561)">
            <path id="Trazado_149916" data-name="Trazado 149916" d="M65.144,185.227l28.814,16.7.01-19.869L65.144,165.4Z" transform="translate(-65.144 -141.437)" fill="#dba763"/>
            <path id="Trazado_149917" data-name="Trazado 149917" d="M75.09,206.717l41.5-24.011V162.877L75.1,186.848Z" transform="translate(-46.275 -146.222)" fill="#e8b679"/>
            <path id="Trazado_149918" data-name="Trazado 149918" d="M65.144,181.09l28.824,16.664,41.486-23.97-28.812-16.655Z" transform="translate(-65.144 -157.128)" fill="#ffe1c0"/>
            <g id="Grupo_79796" data-name="Grupo 79796" transform="translate(10.716 6.172)">
              <path id="Trazado_149919" data-name="Trazado 149919" d="M68.843,178.055l6.428,3.732V171.259l-6.428-3.735Z" transform="translate(-68.843 -143.579)" fill="#512e2b"/>
              <path id="Trazado_149920" data-name="Trazado 149920" d="M68.843,183.2l6.428,3.747,41.475-23.968-6.443-3.725Z" transform="translate(-68.843 -159.259)" fill="#724941"/>
              <path id="Trazado_149921" data-name="Trazado 149921" d="M71.008,176.177l9.677,5.585v-1.855L71.008,174.3Z" transform="translate(-64.735 -130.731)" fill="#512e2b"/>
              <path id="Trazado_149922" data-name="Trazado 149922" d="M71.008,175.033l9.677,5.585v-1.855l-9.677-5.612Z" transform="translate(-64.735 -132.902)" fill="#512e2b"/>
              <path id="Trazado_149923" data-name="Trazado 149923" d="M87.4,176.228l4.628-2.674v-6.7L87.4,169.522Z" transform="translate(-33.633 -144.859)" fill="#512e2b"/>
              <path id="Trazado_149924" data-name="Trazado 149924" d="M85.222,177.492l4.628-2.674v-6.7l-4.628,2.674Z" transform="translate(-37.768 -142.461)" fill="#512e2b"/>
              <path id="Trazado_149925" data-name="Trazado 149925" d="M83.014,178.76l4.628-2.674v-6.7l-4.628,2.674Z" transform="translate(-41.958 -140.055)" fill="#512e2b"/>
              <path id="Trazado_149926" data-name="Trazado 149926" d="M75.525,184.678l9.511-5.5v-9.647l-9.511,5.508Z" transform="translate(-56.165 -139.765)" fill="#fff"/>
              <path id="Trazado_149927" data-name="Trazado 149927" d="M75.927,175.968l7.483-4.34v-1.542L75.927,174.4Z" transform="translate(-55.403 -138.72)" fill="#512e2b"/>
            </g>
          </g>
        </g>
        <g id="Grupo_79800" data-name="Grupo 79800" transform="translate(35.463 72.156)">
          <path id="Trazado_149928" data-name="Trazado 149928" d="M74.748,199.812l36.141-20.951v-24.87l-36.154,20.9Z" transform="translate(-22.699 -123.936)" fill="#dba763"/>
          <path id="Trazado_149929" data-name="Trazado 149929" d="M56.774,150.828V175.7l52.048,30.117-.013-24.921Z" transform="translate(-56.774 -129.937)" fill="#e8b679"/>
          <path id="Trazado_149930" data-name="Trazado 149930" d="M56.774,164.507l52.036,30.064,36.154-20.9L92.913,143.617Z" transform="translate(-56.774 -143.617)" fill="#ffe1c0"/>
          <g id="Grupo_79799" data-name="Grupo 79799" transform="translate(1.502 7.741)">
            <path id="Trazado_149931" data-name="Trazado 149931" d="M79.792,174.545l8.063-4.68V156.656l-8.062,4.684Z" transform="translate(-14.608 -126.621)" fill="#512e2b"/>
            <path id="Trazado_149932" data-name="Trazado 149932" d="M61.836,150.961l52.021,30.062,8.063-4.7-52-30.035Z" transform="translate(-48.673 -146.289)" fill="#724941"/>
            <path id="Trazado_149933" data-name="Trazado 149933" d="M75.67,174.515l12.137-7.005v-2.36L75.67,172.189Z" transform="translate(-22.428 -110.506)" fill="#512e2b"/>
            <path id="Trazado_149934" data-name="Trazado 149934" d="M75.67,173.079l12.137-7.005v-2.359L75.67,170.753Z" transform="translate(-22.428 -113.23)" fill="#512e2b"/>
            <path id="Trazado_149935" data-name="Trazado 149935" d="M57.292,164.218l5.8,3.355v-8.411l-5.8-3.353Z" transform="translate(-57.292 -128.228)" fill="#512e2b"/>
            <path id="Trazado_149936" data-name="Trazado 149936" d="M60.027,165.8l5.8,3.354v-8.41l-5.8-3.353Z" transform="translate(-52.105 -125.22)" fill="#512e2b"/>
            <path id="Trazado_149937" data-name="Trazado 149937" d="M62.8,167.395l5.8,3.354v-8.411l-5.8-3.353Z" transform="translate(-46.85 -122.201)" fill="#512e2b"/>
            <path id="Trazado_149938" data-name="Trazado 149938" d="M70.075,171.277,82,178.171V166.086l-11.93-6.909Z" transform="translate(-33.042 -121.838)" fill="#fff"/>
            <path id="Trazado_149939" data-name="Trazado 149939" d="M70.449,161.8l9.386,5.444v-1.967l-9.386-5.412Z" transform="translate(-32.333 -120.528)" fill="#512e2b"/>
          </g>
        </g>
        <g id="Grupo_79802" data-name="Grupo 79802" transform="translate(13.527 73.533)">
          <path id="Trazado_149940" data-name="Trazado 149940" d="M60.808,178.866l23.336-13.528V150.781L60.8,164.277Z" transform="translate(-27.2 -131.401)" fill="#dba763"/>
          <path id="Trazado_149941" data-name="Trazado 149941" d="M49.2,148.739v14.556L82.81,182.741,82.8,168.152Z" transform="translate(-49.202 -135.276)" fill="#e8b679"/>
          <path id="Trazado_149942" data-name="Trazado 149942" d="M49.2,157.581l33.6,19.412,23.344-13.5L72.537,144.092Z" transform="translate(-49.202 -144.092)" fill="#ffe1c0"/>
          <g id="Grupo_79801" data-name="Grupo 79801" transform="translate(1.128 16.656)">
            <path id="Trazado_149943" data-name="Trazado 149943" d="M61.4,163.515l7.837-4.524v-1.523L61.4,162.013Z" transform="translate(-27.183 -135.371)" fill="#512e2b"/>
            <path id="Trazado_149944" data-name="Trazado 149944" d="M61.4,162.588l7.837-4.524v-1.523L61.4,161.086Z" transform="translate(-27.183 -137.13)" fill="#512e2b"/>
            <path id="Trazado_149945" data-name="Trazado 149945" d="M49.592,156.614l4.675,2.7v-6.774l-4.675-2.7Z" transform="translate(-49.592 -149.841)" fill="#512e2b"/>
            <path id="Trazado_149946" data-name="Trazado 149946" d="M51.794,157.891l4.675,2.7v-6.774l-4.675-2.7Z" transform="translate(-45.414 -147.418)" fill="#512e2b"/>
          </g>
          <path id="Trazado_149947" data-name="Trazado 149947" d="M56.051,161.688l11.93,6.894V160.5l-11.93-6.909Z" transform="translate(-36.209 -126.077)" fill="#fff"/>
          <path id="Trazado_149948" data-name="Trazado 149948" d="M56.425,156.213l9.386,5.444V159.69l-9.386-5.412Z" transform="translate(-35.5 -124.767)" fill="#512e2b"/>
          <path id="Trazado_149949" data-name="Trazado 149949" d="M64.038,164.312l8.062-4.68v-7.675l-8.062,4.684Z" transform="translate(-21.056 -129.169)" fill="#512e2b"/>
          <path id="Trazado_149950" data-name="Trazado 149950" d="M52.44,149.945l33.6,19.423,8.062-4.7L60.547,145.259Z" transform="translate(-43.06 -141.878)" fill="#724941"/>
        </g>
        <g id="Grupo_79803" data-name="Grupo 79803" transform="translate(0 52.741)">
          <path id="Trazado_149951" data-name="Trazado 149951" d="M48.371,150.266s-2.865,6.24-3.6,10.9.339,6.875,2.193,9.083,8.457-.739,8.7-.9l.162-.119c1.935-6.571,2.923-13.808-.345-19.127Z" transform="translate(-44.533 -111.9)" fill="#ffc5b3"/>
          <path id="Trazado_149952" data-name="Trazado 149952" d="M71.479,190.7c-3.778.162-11.409,3.564-11.409,3.564l-6.53,1.527s-2.6,5.577.649,7.683c2.437,1.582,3.532,1.483,6.588.229,3.387-1.394,6.559-1.854,10.7-5.293S75.254,190.534,71.479,190.7Z" transform="translate(-29.318 -34.893)" fill="#512e2b"/>
          <path id="Trazado_149953" data-name="Trazado 149953" d="M62.331,186.482c-3.778.162-9.839,2.7-9.839,2.7l-6.53,1.524c-.081-.009-2.694,5.565.646,7.686,2.454,1.556,3.535,1.483,6.591.226,3.387-1.394,5.98-2.156,10.12-5.594S66.109,186.32,62.331,186.482Z" transform="translate(-43.813 -42.891)" fill="#512e2b"/>
          <path id="Trazado_149954" data-name="Trazado 149954" d="M50.061,162.162c-6.078,4.9-3.367,30.078-3.126,40.705.261,11.568-1.741,33.885-2.022,37.063,3.6,4.056,10.717,2.144,13.008-.626.162-1.26,3.161-20.579,3.7-27.772.736-9.758.713-12.629.8-21.59,3.016,8.723,3.453,19.3,3.894,26.8.632,10.792.73,34.543.73,34.543s.73,3.642,7.967,3.621c3.216-.009,6.519-3.477,6.519-3.477s.177-20.987.177-40.917c0-11.3-6.663-47.3-6.663-47.3S55.317,157.924,50.061,162.162Z" transform="translate(-43.813 -92.136)" fill="#3d6ec4"/>
          <path id="Trazado_149955" data-name="Trazado 149955" d="M50.969,148.743c-1.4,1.663-3.96,6.663-6.191,11.328,1.718,2.99,6.4,7.043,12.119,6.855a47.652,47.652,0,0,0-1.147-8.4l3.543-11.267S54.327,144.742,50.969,148.743Z" transform="translate(-44.069 -118.773)" fill="#d1814a"/>
          <path id="Trazado_149956" data-name="Trazado 149956" d="M59.192,139.76c-2.654-1.84-7.759-1.266-9.975,3.413-1.225,2.59.507,9.558.782,14.448a11.912,11.912,0,0,1-1.1,6.223l3.384,1.394a10.2,10.2,0,0,0,6.91,0l-.11-6.015s3.645-.542,4.282-1.127C64.9,156.691,65.711,152.5,65,147.107,63.94,139.074,60.171,140.441,59.192,139.76Z" transform="translate(-36.47 -133.364)" fill="#ffc5b3"/>
          <path id="Trazado_149957" data-name="Trazado 149957" d="M64.5,149.094a68.131,68.131,0,0,0-7.492-2.306c-.846-.125-3.772-.31-3.772-.31s-6.464,10.169-7.182,15.769c-.5,3.923,1.637,16.743.052,29.368-.837,6.681,24.374,4.8,26.593,2.074-1.292-6.319-3.143-16.63.939-25.341,2-4.265-2.532-12-3.8-14.781S64.5,149.094,64.5,149.094Z" transform="translate(-41.789 -118.774)" fill="#ef995e"/>
          <path id="Trazado_149958" data-name="Trazado 149958" d="M72.557,173.463s-3.178,1.5-5.186.661a9.519,9.519,0,0,1-6.388-7.509c-.721-3.645-.246-12.119-.075-14.381-.408-.058-10.693-3.083-10.693-3.083s-3.146,10.036-3.025,16.873c.012.661.437,8.413-.365,13.449s-1.289,12.82-1.289,12.82,7.168,5.577,15.448,4.609A29.083,29.083,0,0,0,75,191.11s-2.749-14.167-2.6-15.905Z" transform="translate(-42.633 -113.704)" fill="#3d6ec4"/>
          <path id="Trazado_149959" data-name="Trazado 149959" d="M53.694,138.5c-2.509,1.451-7.848,4.105-5.986,12.759,1.507,6.994,2.97,7.779,5.085,9.422a12.03,12.03,0,0,0,5.1,1.793,6.022,6.022,0,0,0,2.138-3.96c.1-.834,0-3.367,0-3.367s-1.851-3.659-.417-4.963c1.527-1.388,3.085.82,3.442,1.712,1.252,3.129,2.492,4.6,2.19-.637.4-1.347,1.324-4.479,1.553-5.739a6.139,6.139,0,0,0-1.651-5.722C63.144,137.714,56.206,137.045,53.694,138.5Z" transform="translate(-39.244 -135.389)" fill="#512e2b"/>
          <path id="Trazado_149960" data-name="Trazado 149960" d="M73.953,164.12a41,41,0,0,1-9.213-3.8,62.011,62.011,0,0,1-2.668-6.889l-9.256,3.775s2.332,6.249,3.7,9.1c1.1,2.292,2.474,2.749,4.667,3.558,3.207,1.182,12.606,1.507,16.346,1.99a20.858,20.858,0,0,0,8.254-.44c4.531-1.1,3.025-4.508,2.845-5.762A51.353,51.353,0,0,1,73.953,164.12Z" transform="translate(-28.822 -105.575)" fill="#ffc5b3"/>
          <path id="Trazado_149961" data-name="Trazado 149961" d="M57.326,148.161c-2.1-.692-5.849,6.574-5.215,11.725.18,1.454,1.06,5.5,2.153,10.241,4.395.942,9.143-.423,11.6-3.775C64.073,158.255,61.225,149.453,57.326,148.161Z" transform="translate(-30.293 -115.668)" fill="#d1814a"/>
          <path id="Trazado_149962" data-name="Trazado 149962" d="M60.528,166.093a27.3,27.3,0,0,1-14.579-4.456l-.327,3.555s4.809,4.137,15.2,4.372S74.6,166.249,74.6,166.249l-.614-3.659A27.954,27.954,0,0,1,60.528,166.093Z" transform="translate(-42.468 -90.014)" fill="#4b87dd"/>
          <path id="Trazado_149963" data-name="Trazado 149963" d="M57.28,147.381a8.382,8.382,0,0,0-4.184,2.442c-2.161,2.225-3.309,6.855-3.309,6.855l2.865,2.109a29.053,29.053,0,0,1,2.187-6.606c1.254-2.132,3.378-2.912,4.537-3.607C59.407,147.972,57.28,147.381,57.28,147.381Z" transform="translate(-34.564 -117.06)" fill="#3d6ec4"/>
          <path id="Trazado_149964" data-name="Trazado 149964" d="M48.019,153.895a65.47,65.47,0,0,0-1.278,6.606l2,.252s1.924-7.446,3.013-10.131a31.6,31.6,0,0,1,1.886-4.013l-2.248-.13A25.73,25.73,0,0,0,48.019,153.895Z" transform="translate(-40.345 -118.774)" fill="#3d6ec4"/>
          <path id="Trazado_149965" data-name="Trazado 149965" d="M66.865,157.3a35.055,35.055,0,0,1-3.488,3.3h.38c.382,0,2.6.188,2.6.188a12.6,12.6,0,0,0,1.817-3.106C68.462,156.539,67.737,156.281,66.865,157.3Z" transform="translate(-8.784 -99.452)" fill="#ffc5b3"/>
          <path id="Trazado_149966" data-name="Trazado 149966" d="M62.177,138.555c-5.067-.533-11.279,1.932-13.872,5.5s-.588,6.9,4.479,7.428,11.282-1.932,13.875-5.5S67.244,139.086,62.177,138.555Z" transform="translate(-39.528 -133.941)" fill="#4b87dd"/>
          <path id="Trazado_149967" data-name="Trazado 149967" d="M53.661,137.7c-9.138,3.1-6.125,13.385-6.125,13.385s21.911-2.167,20.289-6.275C65.16,138.067,60.226,135.466,53.661,137.7Z" transform="translate(-39.738 -136.915)" fill="#4b87dd"/>
          <path id="Trazado_149968" data-name="Trazado 149968" d="M59.3,138.782c-3.761-.794-4.676-.31-4.676-.31a21.937,21.937,0,0,1,1.272,2.509c.858,3.535-2.239,7.423-2.906,7.8a16.653,16.653,0,0,0,7.854-3.456C63.762,142.951,63.061,139.575,59.3,138.782Z" transform="translate(-28.49 -134.24)" fill="#3d6ec4"/>
        </g>
      </g>
    </g>
  </g>
</svg>
