<svg xmlns="http://www.w3.org/2000/svg" xmlns:xlink="http://www.w3.org/1999/xlink" width="205.286" height="200" viewBox="0 0 205.286 200">
  <defs>
    <clipPath id="clip-path">
      <rect id="Rectángulo_35619" data-name="Rectángulo 35619" width="205.286" height="200" transform="translate(1024 190)" fill="#fff" stroke="#707070" stroke-width="1"/>
    </clipPath>
  </defs>
  <g id="Enmascarar_grupo_50" data-name="Enmascarar grupo 50" transform="translate(-1024 -190)" clip-path="url(#clip-path)">
    <g id="logistics" transform="translate(1026.644 190)">
      <path id="Trazado_154214" data-name="Trazado 154214" d="M183.871,3.226l12.9,19.355H29.032l12.9-19.355Zm0,0" fill="#fff505"/>
      <path id="Trazado_154215" data-name="Trazado 154215" d="M196.774,22.581v12.9H29.032v-12.9Zm0,0" fill="#fff505"/>
      <path id="Trazado_154216" data-name="Trazado 154216" d="M190.323,35.484v90.323h-12.9V67.742H119.355V48.387H48.387V112.9h6.452v16.129H35.484V35.484Zm0,0" fill="#ccd1d9"/>
      <path id="Trazado_154217" data-name="Trazado 154217" d="M151.613,164.516v9.677h-17.29a12.89,12.89,0,0,0-21.42,9.677,12.89,12.89,0,0,0-21.42-9.677H54.839V112.9h96.774Zm0,0" fill="#64b5f6"/>
      <path id="Trazado_154218" data-name="Trazado 154218" d="M29.032,170.968a12.9,12.9,0,0,0-8.517,3.226H3.226V145.161l16.129-16.129H54.839v45.161H37.549A12.842,12.842,0,0,0,29.032,170.968Zm0,0" fill="#64b5f6"/>
      <path id="Trazado_154219" data-name="Trazado 154219" d="M119.355,48.387V67.742h-12.9V112.9h-12.9V100H74.194v12.9H48.387V48.387H74.194v12.9H93.548v-12.9Zm0,0" fill="#d3a06c"/>
      <path id="Trazado_154220" data-name="Trazado 154220" d="M74.194,100H93.548v12.9H74.194Zm0,0" fill="#e6e9ed"/>
      <path id="Trazado_154221" data-name="Trazado 154221" d="M74.194,48.387H93.548v12.9H74.194Zm0,0" fill="#e6e9ed"/>
      <path id="Trazado_154222" data-name="Trazado 154222" d="M177.419,67.742v58.065H158.065a6.47,6.47,0,0,0-6.452,6.452V112.9H106.452V67.742h25.806v12.9h19.355v-12.9Zm0,0" fill="#cf9e76"/>
      <path id="Trazado_154223" data-name="Trazado 154223" d="M132.258,67.742h19.355v12.9H132.258Zm0,0" fill="#e6e9ed"/>
      <path id="Trazado_154224" data-name="Trazado 154224" d="M190.323,125.806a6.47,6.47,0,0,1,6.452,6.452v32.258a6.47,6.47,0,0,1-6.452,6.452h-6.452v-12.9H164.516v12.9h-6.452a6.47,6.47,0,0,1-6.452-6.452V132.258a6.47,6.47,0,0,1,6.452-6.452h6.452v12.9h19.355v-12.9Zm0,0" fill="#cf9e76"/>
      <g id="Grupo_80911" data-name="Grupo 80911">
        <path id="Trazado_154225" data-name="Trazado 154225" d="M183.871,125.806v12.9H164.516v-12.9Zm0,0" fill="#e6e9ed"/>
        <path id="Trazado_154226" data-name="Trazado 154226" d="M164.516,158.065h19.355v12.9H164.516Zm0,0" fill="#e6e9ed"/>
        <path id="Trazado_154227" data-name="Trazado 154227" d="M151.613,180.645a6.47,6.47,0,0,1-6.452,6.452H138.71l-.387-.1a12.41,12.41,0,0,0,.387-3.13,12.848,12.848,0,0,0-4.387-9.677h17.29Zm0,0" fill="#e6e9ed"/>
        <path id="Trazado_154228" data-name="Trazado 154228" d="M91.483,174.194H37.549a12.848,12.848,0,0,1,4.387,9.677,12.592,12.592,0,0,1-.387,3.13l.387.1H87.1l.387-.1a12.41,12.41,0,0,1-.387-3.13,12.848,12.848,0,0,1,4.387-9.677Zm0,0" fill="#e6e9ed"/>
        <path id="Trazado_154229" data-name="Trazado 154229" d="M9.677,187.1a6.47,6.47,0,0,1-6.452-6.452v-6.452h17.29a12.848,12.848,0,0,0-4.387,9.677,12.41,12.41,0,0,0,.387,3.13l-.387.1Zm0,0" fill="#e6e9ed"/>
      </g>
      <path id="Trazado_154230" data-name="Trazado 154230" d="M16.516,187a12.41,12.41,0,0,1-.387-3.13,12.9,12.9,0,0,1,25.806,0,12.592,12.592,0,0,1-.387,3.13,12.9,12.9,0,0,1-25.032,0Zm0,0" fill="#838f9b"/>
      <path id="Trazado_154231" data-name="Trazado 154231" d="M100,170.968A12.9,12.9,0,1,1,87.484,187a12.41,12.41,0,0,1-.387-3.13,12.932,12.932,0,0,1,12.9-12.9Zm0,0" fill="#838f9b"/>
      <path id="Trazado_154232" data-name="Trazado 154232" d="M134.323,174.194a12.848,12.848,0,0,1,4.387,9.677,12.41,12.41,0,0,1-.387,3.13,12.921,12.921,0,1,1-4-12.807Zm0,0" fill="#838f9b"/>
      <path id="Trazado_154233" data-name="Trazado 154233" d="M83.871,125.806h38.71V161.29H83.871Zm0,0" fill="#cf9e76"/>
      <path id="Trazado_154234" data-name="Trazado 154234" d="M41.935,141.935V161.29H16.129v-9.677l9.677-9.677Zm0,0" fill="#fff505"/>
      <path id="Trazado_154235" data-name="Trazado 154235" d="M32.258,183.871a3.226,3.226,0,1,1-3.226-3.226A3.226,3.226,0,0,1,32.258,183.871Zm0,0" fill="#5c22c3"/>
      <path id="Trazado_154236" data-name="Trazado 154236" d="M129.032,183.871a3.226,3.226,0,1,1-3.226-3.226A3.226,3.226,0,0,1,129.032,183.871Zm0,0" fill="#5c22c3"/>
      <path id="Trazado_154237" data-name="Trazado 154237" d="M103.226,183.871A3.226,3.226,0,1,1,100,180.645,3.226,3.226,0,0,1,103.226,183.871Zm0,0" fill="#5c22c3"/>
      <path id="Trazado_154238" data-name="Trazado 154238" d="M45.161,138.71H24.471L12.9,150.277v14.239H45.161ZM38.71,158.065H19.355v-5.116l7.787-7.787H38.71Zm0,0" fill="#5c22c3"/>
      <path id="Trazado_154239" data-name="Trazado 154239" d="M200,38.71V21.6L185.6,0H40.209l-14.4,21.6V38.71h6.452v87.1H18.019L0,143.826v36.82a9.69,9.69,0,0,0,9.677,9.677H14.27a16.1,16.1,0,0,0,29.524,0H85.238a16.048,16.048,0,0,0,27.665,3.127,16.048,16.048,0,0,0,27.665-3.127h4.593a9.69,9.69,0,0,0,9.677-9.677V173.6a9.544,9.544,0,0,0,3.226.594h32.258A9.69,9.69,0,0,0,200,164.516V132.258a9.664,9.664,0,0,0-6.452-9.084V38.71ZM43.662,6.452H182.145l8.6,12.9H187.1v6.452h6.452v6.452H32.258V25.806H38.71V19.355H35.059ZM20.69,132.258H51.613v38.71h-13a15.833,15.833,0,0,0-19.156,0h-13V146.5ZM77.419,51.613h12.9v6.452h-12.9Zm19.355,12.9v-12.9h19.355v12.9h-12.9v45.161H96.774v-12.9H70.968v12.9H51.613V51.613H70.968v12.9Zm38.71,6.452h12.9v6.452h-12.9Zm19.355,12.9v-12.9h19.355v51.613H158.065a9.543,9.543,0,0,0-3.226.594v-13.5H109.678V70.968h19.355v12.9Zm12.9,45.161h12.9v6.452h-12.9Zm-32.357,41.935a15.923,15.923,0,0,0-22.481,3.325,15.923,15.923,0,0,0-22.481-3.325H58.065V116.129h90.323v54.839Zm-45.062-61.29h-12.9v-6.452h12.9ZM9.677,183.871a3.232,3.232,0,0,1-3.226-3.226v-3.226H14.27a15.966,15.966,0,0,0-1.367,6.452Zm19.355,9.677a9.677,9.677,0,1,1,9.677-9.677A9.69,9.69,0,0,1,29.032,193.548Zm14.762-16.129h7.819v6.452H45.161a15.966,15.966,0,0,0-1.367-6.452Zm14.27,6.452v-6.452H85.238a15.966,15.966,0,0,0-1.367,6.452ZM100,193.548a9.677,9.677,0,1,1,9.677-9.677A9.69,9.69,0,0,1,100,193.548Zm25.806,0a9.677,9.677,0,1,1,9.677-9.677A9.69,9.69,0,0,1,125.807,193.548Zm19.355-9.677h-3.226a15.966,15.966,0,0,0-1.367-6.452h7.819v3.226a3.232,3.232,0,0,1-3.226,3.226Zm35.484-16.129h-12.9V161.29h12.9Zm12.9-3.226a3.232,3.232,0,0,1-3.226,3.226H187.1v-12.9H161.29v12.9h-3.226a3.232,3.232,0,0,1-3.226-3.226V132.258a3.232,3.232,0,0,1,3.226-3.226h3.226v12.9H187.1v-12.9h3.226a3.232,3.232,0,0,1,3.226,3.226ZM187.1,122.581h-6.452V64.516H122.581V45.161H45.161v70.968h6.452v9.677H38.71V38.71H187.1Zm0,0" fill="#5c22c3"/>
      <path id="Trazado_154240" data-name="Trazado 154240" d="M80.645,122.581v41.935h45.161V122.581Zm38.71,35.484H87.1V129.032h32.258Zm0,0" fill="#5c22c3"/>
      <path id="Trazado_154241" data-name="Trazado 154241" d="M45.161,19.355H180.645v6.452H45.161Zm0,0" fill="#5c22c3"/>
    </g>
  </g>
</svg>
