<svg xmlns="http://www.w3.org/2000/svg" xmlns:xlink="http://www.w3.org/1999/xlink" width="205.286" height="200" viewBox="0 0 205.286 200">
  <defs>
    <clipPath id="clip-path">
      <rect id="Rectángulo_35620" data-name="Rectángulo 35620" width="205.286" height="200" transform="translate(1024 634)" fill="#fff" stroke="#707070" stroke-width="1"/>
    </clipPath>
  </defs>
  <g id="Enmascarar_grupo_51" data-name="Enmascarar grupo 51" transform="translate(-1024 -634)" clip-path="url(#clip-path)">
    <g id="shipment" transform="translate(1020.689 628.046)">
      <g id="Grupo_80936" data-name="Grupo 80936">
        <g id="Grupo_80912" data-name="Grupo 80912">
          <path id="Trazado_154242" data-name="Trazado 154242" d="M125.821,119.2v13.244H9.933a3.321,3.321,0,0,1-3.311-3.311V122.51A3.321,3.321,0,0,1,9.933,119.2H125.821Z" fill="#64b5f6"/>
        </g>
        <g id="Grupo_80913" data-name="Grupo 80913">
          <path id="Trazado_154243" data-name="Trazado 154243" d="M125.821,132.443v39.733H79.466a19.866,19.866,0,0,0-39.733,0H19.866a6.642,6.642,0,0,1-6.622-6.622v-6.622H29.8l3.311-13.244H13.244V132.443Z" fill="#64b5f6"/>
        </g>
        <g id="Grupo_80914" data-name="Grupo 80914">
          <path id="Trazado_154244" data-name="Trazado 154244" d="M205.286,155.62v9.933a6.642,6.642,0,0,1-6.622,6.622H185.42a19.816,19.816,0,0,0-6.622-14.8v-44.8l-3.212-17.151a3.3,3.3,0,0,0-3.245-2.715H142.376a3.321,3.321,0,0,0-3.311,3.311v76.155H125.821V92.71a13.277,13.277,0,0,1,13.244-13.244H174.2a13.233,13.233,0,0,1,13.079,11.059l4.768,28.674,5.927,2.947A13.311,13.311,0,0,1,205.286,134v5.066H192.042V149Z" fill="#64b5f6"/>
        </g>
        <g id="Grupo_80915" data-name="Grupo 80915">
          <path id="Trazado_154245" data-name="Trazado 154245" d="M178.8,125.821v31.554a19.861,19.861,0,0,0-33.111,14.8h-6.622V125.821H178.8Z" fill="#64b5f6"/>
        </g>
        <g id="Grupo_80916" data-name="Grupo 80916">
          <path id="Trazado_154246" data-name="Trazado 154246" d="M205.286,139.065V155.62L192.042,149v-9.933Z" fill="#fff505"/>
        </g>
        <g id="Grupo_80917" data-name="Grupo 80917">
          <path id="Trazado_154247" data-name="Trazado 154247" d="M33.111,145.687,29.8,158.931H13.244V145.687Z" fill="#fff505"/>
        </g>
        <g id="Grupo_80918" data-name="Grupo 80918">
          <path id="Trazado_154248" data-name="Trazado 154248" d="M178.8,157.375a19.861,19.861,0,1,1-13.244-5.066A19.816,19.816,0,0,1,178.8,157.375Z" fill="#969faa"/>
        </g>
        <g id="Grupo_80919" data-name="Grupo 80919">
          <path id="Trazado_154249" data-name="Trazado 154249" d="M59.6,152.309a19.866,19.866,0,1,1-19.866,19.866A19.882,19.882,0,0,1,59.6,152.309Z" fill="#969faa"/>
        </g>
        <g id="Grupo_80920" data-name="Grupo 80920">
          <circle id="Elipse_4712" data-name="Elipse 4712" cx="6.622" cy="6.622" r="6.622" transform="translate(158.931 165.554)" fill="#ccd1d9"/>
        </g>
        <g id="Grupo_80921" data-name="Grupo 80921">
          <circle id="Elipse_4713" data-name="Elipse 4713" cx="6.622" cy="6.622" r="6.622" transform="translate(52.977 165.554)" fill="#ccd1d9"/>
        </g>
        <g id="Grupo_80922" data-name="Grupo 80922">
          <path id="Trazado_154250" data-name="Trazado 154250" d="M158.931,115.887a9.92,9.92,0,0,0,9.933,9.933h-29.8v-29.8a3.321,3.321,0,0,1,3.311-3.311h29.965a3.3,3.3,0,0,1,3.245,2.715l3.212,17.151H162.242A3.321,3.321,0,0,0,158.931,115.887Z" fill="#fff505"/>
        </g>
        <g id="Grupo_80923" data-name="Grupo 80923">
          <path id="Trazado_154251" data-name="Trazado 154251" d="M178.8,112.576v13.244h-9.933a9.92,9.92,0,0,1-9.933-9.933,3.321,3.321,0,0,1,3.311-3.311Z" fill="#aab2bd"/>
        </g>
        <g id="Grupo_80924" data-name="Grupo 80924">
          <path id="Trazado_154252" data-name="Trazado 154252" d="M13.244,86.088H52.977V119.2H13.244Z" fill="#d3a06c"/>
        </g>
        <g id="Grupo_80925" data-name="Grupo 80925">
          <path id="Trazado_154253" data-name="Trazado 154253" d="M52.977,86.088H92.71V119.2H52.977Z" fill="#d3a06c"/>
        </g>
        <g id="Grupo_80926" data-name="Grupo 80926">
          <path id="Trazado_154254" data-name="Trazado 154254" d="M92.71,86.088h39.733V119.2H92.71Z" fill="#d3a06c"/>
        </g>
        <g id="Grupo_80927" data-name="Grupo 80927">
          <path id="Trazado_154255" data-name="Trazado 154255" d="M33.111,52.977H72.844V86.088H33.111Z" fill="#d3a06c"/>
        </g>
        <g id="Grupo_80928" data-name="Grupo 80928">
          <path id="Trazado_154256" data-name="Trazado 154256" d="M72.844,52.977h39.733V86.088H72.844Z" fill="#d3a06c"/>
        </g>
        <g id="Grupo_80929" data-name="Grupo 80929">
          <path id="Trazado_154257" data-name="Trazado 154257" d="M52.977,19.866H92.71V52.977H52.977Z" fill="#d3a06c"/>
        </g>
        <g id="Grupo_80930" data-name="Grupo 80930">
          <path id="Trazado_154258" data-name="Trazado 154258" d="M66.221,19.866H79.466V33.111H66.221Z" fill="#b27946"/>
        </g>
        <g id="Grupo_80931" data-name="Grupo 80931">
          <path id="Trazado_154259" data-name="Trazado 154259" d="M59.6,52.977V66.221H46.355V52.977H59.6Z" fill="#b27946"/>
        </g>
        <g id="Grupo_80932" data-name="Grupo 80932">
          <path id="Trazado_154260" data-name="Trazado 154260" d="M99.332,52.977V66.221H86.088V52.977H99.332Z" fill="#b27946"/>
        </g>
        <g id="Grupo_80933" data-name="Grupo 80933">
          <path id="Trazado_154261" data-name="Trazado 154261" d="M112.576,86.088h15.032a13.209,13.209,0,0,0-1.788,6.622v6.622H105.954V86.088Z" fill="#b27946"/>
        </g>
        <g id="Grupo_80934" data-name="Grupo 80934">
          <path id="Trazado_154262" data-name="Trazado 154262" d="M79.466,86.088V99.332H66.221V86.088H79.466Z" fill="#b27946"/>
        </g>
        <g id="Grupo_80935" data-name="Grupo 80935">
          <path id="Trazado_154263" data-name="Trazado 154263" d="M39.733,86.088V99.332H26.489V86.088H39.733Z" fill="#b27946"/>
        </g>
      </g>
      <g id="Grupo_80937" data-name="Grupo 80937">
        <path id="Trazado_154264" data-name="Trazado 154264" d="M165.554,162.242a9.933,9.933,0,1,0,9.933,9.933A9.945,9.945,0,0,0,165.554,162.242Zm0,13.244a3.311,3.311,0,1,1,3.311-3.311A3.312,3.312,0,0,1,165.554,175.487Z" fill="#5c22c3"/>
        <path id="Trazado_154265" data-name="Trazado 154265" d="M59.6,162.242a9.933,9.933,0,1,0,9.933,9.933A9.945,9.945,0,0,0,59.6,162.242Zm0,13.244a3.311,3.311,0,1,1,3.311-3.311A3.312,3.312,0,0,1,59.6,175.487Z" fill="#5c22c3"/>
        <path id="Trazado_154266" data-name="Trazado 154266" d="M199.446,119.2l-4.417-2.208-4.5-27A16.5,16.5,0,0,0,174.2,76.155H139.065a16.478,16.478,0,0,0-13.158,6.622H115.887V49.666H96.021V16.555H49.666V49.666H29.8V82.777H9.933v33.111a6.629,6.629,0,0,0-6.622,6.622v6.622a6.629,6.629,0,0,0,6.622,6.622v29.8a9.945,9.945,0,0,0,9.933,9.933h16.82a23.146,23.146,0,0,0,45.825,0h60.129a23.146,23.146,0,0,0,45.825,0h10.2a9.945,9.945,0,0,0,9.933-9.933V134.006A16.47,16.47,0,0,0,199.446,119.2Zm2.53,31.064-6.622-3.311v-4.576h6.622ZM69.532,89.4h6.622v6.622H69.532Zm13.244,13.244V89.4H89.4v26.489H56.288V89.4H62.91v13.244Zm39.733,13.244H96.021V89.4h6.622v13.244H122.51Zm0-23.177v3.311H109.265V89.4h13.579a16.54,16.54,0,0,0-.334,3.311Zm-13.244-9.933H76.155V56.288h6.622V69.532h19.866V56.288h6.622ZM89.4,56.288h6.622V62.91H89.4ZM69.532,23.177h6.622V29.8H69.532Zm-13.244,0H62.91V36.422H82.777V23.177H89.4V49.666H56.288ZM49.666,56.288h6.622V62.91H49.666Zm-13.244,0h6.622V69.532H62.91V56.288h6.622V82.777H36.422ZM29.8,89.4h6.622v6.622H29.8Zm-13.244,0h6.622v13.244H43.044V89.4h6.622v26.489H16.555ZM9.933,122.51H122.51v6.622H9.933ZM16.555,149H28.869l-1.656,6.622H16.555Zm0,16.555v-3.311h15.83l4.967-19.866h-20.8v-6.622H122.51v33.111h-40a23.146,23.146,0,0,0-45.825,0H19.866A3.312,3.312,0,0,1,16.555,165.554ZM59.6,188.731a16.555,16.555,0,1,1,16.555-16.555A16.574,16.574,0,0,1,59.6,188.731Zm102.643-72.844h13.244v6.622h-6.622A6.629,6.629,0,0,1,162.242,115.887Zm0-6.622a6.629,6.629,0,0,0-6.622,6.622,13.108,13.108,0,0,0,1.841,6.622H142.376V96.021h29.952l2.48,13.244Zm-19.866,19.866h33.111v22.135a23.092,23.092,0,0,0-32.846,17.6h-.265Zm23.177,59.6a16.555,16.555,0,1,1,16.555-16.555A16.574,16.574,0,0,1,165.554,188.731Zm33.111-19.866h-10.2a23.1,23.1,0,0,0-6.357-12.877V112.576l-3.268-17.767a6.625,6.625,0,0,0-6.51-5.41H142.376a6.629,6.629,0,0,0-6.622,6.622v72.844h-6.622V92.71a9.945,9.945,0,0,1,9.933-9.933H174.2a9.9,9.9,0,0,1,9.8,8.3l5.056,30.329,7.43,3.715a9.883,9.883,0,0,1,5.493,8.884v1.748H188.731v15.291l13.244,6.622v7.887A3.312,3.312,0,0,1,198.664,168.865Z" fill="#5c22c3"/>
      </g>
    </g>
  </g>
</svg>
