<svg xmlns="http://www.w3.org/2000/svg" xmlns:xlink="http://www.w3.org/1999/xlink" width="205.286" height="200" viewBox="0 0 205.286 200">
  <defs>
    <clipPath id="clip-path">
      <rect id="Rect치ngulo_35621" data-name="Rect치ngulo 35621" width="205.286" height="200" transform="translate(1024 1063)" fill="#fff" stroke="#707070" stroke-width="1"/>
    </clipPath>
  </defs>
  <g id="Enmascarar_grupo_52" data-name="Enmascarar grupo 52" transform="translate(-1024 -1063)" clip-path="url(#clip-path)">
    <g id="logistics_1_" data-name="logistics (1)" transform="translate(1026.644 1063)">
      <g id="Grupo_80938" data-name="Grupo 80938" transform="translate(0 0.391)">
        <path id="Trazado_154267" data-name="Trazado 154267" d="M136.666,109.609V36.276a13.33,13.33,0,0,0-13.334-13.334H16.667A13.329,13.329,0,0,0,3.334,36.276V182.943a13.33,13.33,0,0,0,13.334,13.334h120V109.609Z" fill="#dbd204"/>
        <path id="Trazado_154268" data-name="Trazado 154268" d="M126.666,109.609V36.276a12.859,12.859,0,0,0-12.333-13.333H15.667A12.859,12.859,0,0,0,3.334,36.276V182.943a12.859,12.859,0,0,0,12.333,13.333h111Z" fill="#fff505"/>
        <path id="Trazado_154269" data-name="Trazado 154269" d="M100,22.943v10a3.343,3.343,0,0,1-3.333,3.333H43.333A3.343,3.343,0,0,1,40,32.943v-10a9.987,9.987,0,0,1,10-10H60a10,10,0,0,1,20,0H90a9.986,9.986,0,0,1,10,10Z" fill="#cfd8dc"/>
        <path id="Trazado_154270" data-name="Trazado 154270" d="M20,52.943H60a3.333,3.333,0,0,1,3.333,3.333V89.609A3.333,3.333,0,0,1,60,92.942H20a3.333,3.333,0,0,1-3.333-3.333V56.276A3.334,3.334,0,0,1,20,52.943Z" fill="#64b5f6"/>
        <path id="Trazado_154271" data-name="Trazado 154271" d="M20,132.942H96.666v16.667H20a3.333,3.333,0,0,1-3.333-3.333v-10A3.334,3.334,0,0,1,20,132.942Z" fill="#fff"/>
        <path id="Trazado_154272" data-name="Trazado 154272" d="M96.666,116.276H190v73.333a6.667,6.667,0,0,1-6.667,6.667h-80a6.667,6.667,0,0,1-6.667-6.667V116.276Z" fill="#f57c00"/>
        <path id="Trazado_154273" data-name="Trazado 154273" d="M96.666,116.276H180v73.333a6.667,6.667,0,0,1-6.667,6.667h-70a6.667,6.667,0,0,1-6.667-6.667V116.276Z" fill="#ff9801"/>
        <path id="Trazado_154274" data-name="Trazado 154274" d="M93.333,109.609h100a3.333,3.333,0,0,1,3.333,3.333v6.667a3.333,3.333,0,0,1-3.333,3.333h-100A3.333,3.333,0,0,1,90,119.609v-6.667A3.333,3.333,0,0,1,93.333,109.609Z" fill="#d84315"/>
        <path id="Trazado_154275" data-name="Trazado 154275" d="M93.333,109.609h90a3.333,3.333,0,0,1,3.333,3.333v6.667a3.333,3.333,0,0,1-3.333,3.333h-90A3.333,3.333,0,0,1,90,119.609v-6.667A3.333,3.333,0,0,1,93.333,109.609Z" fill="#ff5722"/>
        <rect id="Rect치ngulo_35622" data-name="Rect치ngulo 35622" width="23.333" height="20" transform="translate(110 136.276)" fill="#fff"/>
      </g>
      <g id="Grupo_80939" data-name="Grupo 80939">
        <path id="Trazado_154276" data-name="Trazado 154276" d="M20,96.667H60A6.674,6.674,0,0,0,66.667,90V56.667A6.674,6.674,0,0,0,60,50H20a6.674,6.674,0,0,0-6.667,6.667V90A6.675,6.675,0,0,0,20,96.667Zm0-40H60L60,90H20Z" fill="#5c22c3"/>
        <path id="Trazado_154277" data-name="Trazado 154277" d="M76.666,60h46.667a3.333,3.333,0,0,0,0-6.666H76.666a3.333,3.333,0,0,0,0,6.666Z" fill="#5c22c3"/>
        <path id="Trazado_154278" data-name="Trazado 154278" d="M76.666,73.333h46.667a3.333,3.333,0,0,0,0-6.666H76.666a3.333,3.333,0,0,0,0,6.666Z" fill="#5c22c3"/>
        <path id="Trazado_154279" data-name="Trazado 154279" d="M76.666,86.667h46.667a3.333,3.333,0,0,0,0-6.666H76.666a3.333,3.333,0,0,0,0,6.666Z" fill="#5c22c3"/>
        <path id="Trazado_154280" data-name="Trazado 154280" d="M193.333,106.667H140v-70A16.686,16.686,0,0,0,123.333,20H102.859A13.319,13.319,0,0,0,90,10h-7.14a13.269,13.269,0,0,0-25.72,0H50A13.319,13.319,0,0,0,37.14,20H16.667A16.686,16.686,0,0,0,0,36.667V183.333A16.686,16.686,0,0,0,16.667,200H183.333a10.011,10.011,0,0,0,10-10V126.667A6.674,6.674,0,0,0,200,120v-6.667A6.674,6.674,0,0,0,193.333,106.667ZM50,16.667H60a3.333,3.333,0,0,0,3.334-3.334,6.667,6.667,0,0,1,13.334,0A3.333,3.333,0,0,0,80,16.667H90a6.674,6.674,0,0,1,6.667,6.667v10H43.333v-10A6.674,6.674,0,0,1,50,16.667ZM6.667,183.333V36.667a10.011,10.011,0,0,1,10-10h20v6.667A6.674,6.674,0,0,0,43.333,40H96.666a6.674,6.674,0,0,0,6.667-6.667V26.667h20a10.011,10.011,0,0,1,10,10v70h-40a6.674,6.674,0,0,0-6.667,6.667V120a6.674,6.674,0,0,0,6.667,6.667V130H20a6.674,6.674,0,0,0-6.667,6.667v10A6.674,6.674,0,0,0,20,153.334H93.333V180H20a3.333,3.333,0,1,0,0,6.666H93.333V190a9.879,9.879,0,0,0,.614,3.333H16.667A10.011,10.011,0,0,1,6.667,183.333Zm86.666-36.666H20v-10H93.333v10ZM186.666,190a3.336,3.336,0,0,1-3.333,3.333h-80A3.336,3.336,0,0,1,100,190V126.667h86.666V190ZM190,120H93.333v-6.667h100l0,6.667Z" fill="#5c22c3"/>
        <path id="Trazado_154281" data-name="Trazado 154281" d="M110,160h23.333a3.333,3.333,0,0,0,3.334-3.334v-20a3.333,3.333,0,0,0-3.334-3.334H110a3.333,3.333,0,0,0-3.334,3.334v20A3.333,3.333,0,0,0,110,160Zm3.334-20H130v13.333H113.333V140Z" fill="#5c22c3"/>
        <path id="Trazado_154282" data-name="Trazado 154282" d="M150,143.333h26.667a3.333,3.333,0,1,0,0-6.666H150a3.333,3.333,0,1,0,0,6.666Z" fill="#5c22c3"/>
        <path id="Trazado_154283" data-name="Trazado 154283" d="M150,156.667h26.667a3.333,3.333,0,1,0,0-6.666H150a3.333,3.333,0,1,0,0,6.666Z" fill="#5c22c3"/>
        <path id="Trazado_154284" data-name="Trazado 154284" d="M137.643,175.69a3.332,3.332,0,0,0,4.713,0l.977-.977v8.62a3.333,3.333,0,1,0,6.666,0v-8.62l.977.977a3.333,3.333,0,0,0,4.713-4.714l-6.666-6.666c-.03-.03-.071-.039-.1-.068a3.287,3.287,0,0,0-.979-.655l-.012,0c-.03-.012-.061-.011-.091-.023a3.313,3.313,0,0,0-1.045-.2,4.159,4.159,0,0,0-1.164.176,3.17,3.17,0,0,0-.334.119,3.285,3.285,0,0,0-.988.656l-6.667,6.667a3.332,3.332,0,0,0,0,4.714Z" fill="#5c22c3"/>
        <path id="Trazado_154285" data-name="Trazado 154285" d="M172.356,164.31c-.03-.03-.071-.039-.1-.068a3.287,3.287,0,0,0-.979-.655l-.012,0c-.03-.012-.061-.011-.091-.023a3.313,3.313,0,0,0-1.045-.2,4.153,4.153,0,0,0-1.161.175,3.161,3.161,0,0,0-.338.12,3.308,3.308,0,0,0-.987.655l-6.666,6.667a3.333,3.333,0,0,0,4.714,4.714l.977-.977v8.62a3.333,3.333,0,1,0,6.666,0v-8.62l.977.977a3.333,3.333,0,0,0,4.714-4.714Z" fill="#5c22c3"/>
        <path id="Trazado_154286" data-name="Trazado 154286" d="M20.977,175.69a3.332,3.332,0,0,0,4.713,0l2.643-2.643,2.643,2.643a3.333,3.333,0,1,0,4.713-4.713l-2.643-2.643,2.643-2.643a3.333,3.333,0,0,0-4.713-4.713l-2.643,2.643-2.643-2.643a3.333,3.333,0,0,0-4.713,4.713l2.643,2.643-2.643,2.643a3.332,3.332,0,0,0,0,4.713Z" fill="#5c22c3"/>
        <path id="Trazado_154287" data-name="Trazado 154287" d="M50.977,60.977,33.333,78.62l-4.31-4.31a3.333,3.333,0,0,0-4.713,4.713l6.667,6.667a3.332,3.332,0,0,0,4.713,0l20-20a3.333,3.333,0,0,0-4.713-4.713Z" fill="#5c22c3"/>
      </g>
    </g>
  </g>
</svg>
