<svg xmlns="http://www.w3.org/2000/svg" xmlns:xlink="http://www.w3.org/1999/xlink" width="202.97" height="200" viewBox="0 0 202.97 200">
  <defs>
    <clipPath id="clip-path">
      <rect id="Rectángulo_35624" data-name="Rectángulo 35624" width="202.97" height="200" transform="translate(1024 204.212)" fill="#fff" stroke="#707070" stroke-width="1"/>
    </clipPath>
  </defs>
  <g id="Enmascarar_grupo_55" data-name="Enmascarar grupo 55" transform="translate(-1024 -204.212)" clip-path="url(#clip-path)">
    <g id="cinta-transportadora" transform="translate(1025.485 204.212)">
      <g id="Grupo_80944" data-name="Grupo 80944">
        <path id="Trazado_154360" data-name="Trazado 154360" d="M180.343,34.912H148.361V14.648A11.719,11.719,0,0,1,160.079,2.93h8.545a11.719,11.719,0,0,1,11.719,11.719Z" fill="#f07281"/>
        <path id="Trazado_154361" data-name="Trazado 154361" d="M169.235,2.946q-.3-.016-.61-.016H160.08a11.719,11.719,0,0,0-11.719,11.719V34.912h9.766V14.648a11.718,11.718,0,0,1,11.108-11.7Z" fill="#eb5569"/>
        <path id="Trazado_154362" data-name="Trazado 154362" d="M182.073,45.686h-34.84a3.125,3.125,0,0,1-3.125-3.125V28.067a3.125,3.125,0,0,1,3.125-3.125h34.84a3.125,3.125,0,0,1,3.125,3.125V42.561A3.125,3.125,0,0,1,182.073,45.686Z" fill="#d8ecfe"/>
        <path id="Trazado_154363" data-name="Trazado 154363" d="M153.873,42.562V28.067A3.125,3.125,0,0,1,157,24.942h-9.766a3.125,3.125,0,0,0-3.125,3.125V42.561a3.125,3.125,0,0,0,3.125,3.125H157A3.125,3.125,0,0,1,153.873,42.562Z" fill="#c4e2ff"/>
        <path id="Trazado_154364" data-name="Trazado 154364" d="M116.184,102.336v57.781H46.535V105.461a3.124,3.124,0,0,1,3.125-3.125Z" fill="#e19974"/>
        <path id="Trazado_154365" data-name="Trazado 154365" d="M82.66,102.336v17.02a3.124,3.124,0,0,1-3.125,3.125H67a3.127,3.127,0,0,1-3.125-3.125v-17.02Z" fill="#ffe177"/>
        <path id="Trazado_154366" data-name="Trazado 154366" d="M59.426,102.336H49.66a3.124,3.124,0,0,0-3.125,3.125v54.656H56.3V105.461a3.124,3.124,0,0,1,3.125-3.125Z" fill="#dc8758"/>
        <path id="Trazado_154367" data-name="Trazado 154367" d="M73.637,119.355v-17.02H63.871v17.02A3.127,3.127,0,0,0,67,122.48h9.766A3.127,3.127,0,0,1,73.637,119.355Z" fill="#ffd15b"/>
        <path id="Trazado_154368" data-name="Trazado 154368" d="M192.308,197.07H24.7a21.941,21.941,0,1,1,0-43.883H192.308a4.588,4.588,0,0,1,4.588,4.588v34.707a4.588,4.588,0,0,1-4.587,4.587Z" fill="#8ebac5"/>
        <path id="Trazado_154369" data-name="Trazado 154369" d="M24.7,184.18a9.051,9.051,0,0,1,0-18.1H184.005v18.1Z" fill="#62dbfb"/>
        <circle id="Elipse_4714" data-name="Elipse 4714" cx="9.051" cy="9.051" r="9.051" transform="translate(15.646 166.078)" fill="#7ca1b1"/>
        <circle id="Elipse_4715" data-name="Elipse 4715" cx="9.051" cy="9.051" r="9.051" transform="translate(57.716 166.078)" fill="#7ca1b1"/>
        <path id="Trazado_154370" data-name="Trazado 154370" d="M196.895,42.793v149.59a4.686,4.686,0,0,1-4.687,4.688H99.824V42.793a4.691,4.691,0,0,1,4.687-4.687h87.7a4.689,4.689,0,0,1,4.688,4.688Z" fill="#8ebac5"/>
        <path id="Trazado_154371" data-name="Trazado 154371" d="M184,153.8v9.516a3.124,3.124,0,0,1-3.125,3.125h-50a3.124,3.124,0,0,1-3.125-3.125V153.8Z" fill="#d8ecfe"/>
        <path id="Trazado_154372" data-name="Trazado 154372" d="M184,122.613V153.8H127.75V122.613a3.127,3.127,0,0,1,3.125-3.125h50A3.127,3.127,0,0,1,184,122.613Z" fill="#62dbfb"/>
        <path id="Trazado_154373" data-name="Trazado 154373" d="M184,153.8v9.516a3.124,3.124,0,0,1-3.125,3.125H170.332V153.8Z" fill="#f07281"/>
        <path id="Trazado_154374" data-name="Trazado 154374" d="M142.988,153.8H156.66v12.641H142.988Z" fill="#f07281"/>
        <g id="Grupo_80943" data-name="Grupo 80943">
          <circle id="Elipse_4716" data-name="Elipse 4716" cx="4.883" cy="4.883" r="4.883" transform="translate(174.239 50.997)" fill="#91deb6"/>
          <circle id="Elipse_4717" data-name="Elipse 4717" cx="4.883" cy="4.883" r="4.883" transform="translate(154.708 50.997)" fill="#91deb6"/>
          <circle id="Elipse_4718" data-name="Elipse 4718" cx="4.883" cy="4.883" r="4.883" transform="translate(135.177 50.997)" fill="#91deb6"/>
        </g>
        <path id="Trazado_154375" data-name="Trazado 154375" d="M12.521,175.129a21.941,21.941,0,0,1,21.941-21.941H24.7a21.941,21.941,0,1,0,0,43.883h9.766A21.941,21.941,0,0,1,12.521,175.129Z" fill="#7ca1b1"/>
        <path id="Trazado_154376" data-name="Trazado 154376" d="M114.279,38.107h-9.766a4.72,4.72,0,0,0-4.688,4.753V197.07h9.766V42.859A4.721,4.721,0,0,1,114.279,38.107Z" fill="#7ca1b1"/>
        <path id="Trazado_154377" data-name="Trazado 154377" d="M140.641,166.438h-9.766a3.124,3.124,0,0,1-3.125-3.125V153.8h9.766v9.516A3.124,3.124,0,0,0,140.641,166.438Z" fill="#c4e2ff"/>
        <path id="Trazado_154378" data-name="Trazado 154378" d="M140.641,119.488a3.127,3.127,0,0,0-3.125,3.125V153.8H127.75V122.613a3.127,3.127,0,0,1,3.125-3.125Z" fill="#01d0fb"/>
        <path id="Trazado_154379" data-name="Trazado 154379" d="M196.895,179.332v13.051a4.686,4.686,0,0,1-4.687,4.688H99.824V179.332Z" fill="#7ca1b1"/>
        <path id="Trazado_154380" data-name="Trazado 154380" d="M99.824,179.332h9.766V197.07H99.824Z" fill="#678d98"/>
      </g>
      <g id="Grupo_80945" data-name="Grupo 80945">
        <path id="Trazado_154381" data-name="Trazado 154381" d="M197.07,83.008a2.93,2.93,0,0,0,2.93-2.93V42.793a7.626,7.626,0,0,0-7.617-7.617H188.3V28.066a6.064,6.064,0,0,0-4.855-5.934V14.648A14.665,14.665,0,0,0,168.8,0h-8.547a14.665,14.665,0,0,0-14.648,14.648v7.637a6.066,6.066,0,0,0-4.254,5.781v7.109H104.688a7.626,7.626,0,0,0-7.617,7.617V99.406H49.836a6.061,6.061,0,0,0-6.055,6.055v44.8H24.871a24.871,24.871,0,1,0,0,49.742H192.383A7.626,7.626,0,0,0,200,192.383V93.75a2.93,2.93,0,0,0-5.859,0V176.4H102.93V42.793a1.76,1.76,0,0,1,1.758-1.758h87.7a1.76,1.76,0,0,1,1.758,1.758V80.078a2.93,2.93,0,0,0,2.93,2.93ZM30.993,175.129a6.128,6.128,0,0,1-6.121,6.121h0a6.121,6.121,0,0,1,0-12.242h.005A6.128,6.128,0,0,1,30.993,175.129Zm4.169-6.121H56.647a11.945,11.945,0,0,0,0,12.242H35.163a11.93,11.93,0,0,0,0-12.242Zm37.9,6.121a6.121,6.121,0,1,1-6.125-6.121h.007A6.128,6.128,0,0,1,73.063,175.129Zm4.17-6.121H97.07V181.25H77.233a11.935,11.935,0,0,0,0-12.242ZM66.977,105.266h12.93v14.09a.2.2,0,0,1-.2.2H67.172a.2.2,0,0,1-.2-.2ZM5.859,175.129a19.01,19.01,0,0,1,19.012-19.012h37.2a2.93,2.93,0,0,0,0-5.859H49.641v-44.8a.2.2,0,0,1,.2-.2H61.117v14.09a6.061,6.061,0,0,0,6.055,6.055H79.711a6.061,6.061,0,0,0,6.055-6.055v-14.09h11.3v44.992H75.742a2.93,2.93,0,0,0,0,5.859H97.07v7.031h-72.2a11.98,11.98,0,0,0,0,23.961h72.2v7.031h-72.2A19.033,19.033,0,0,1,5.859,175.129Zm188.281,7.131v10.123a1.76,1.76,0,0,1-1.758,1.758H102.93V182.26ZM160.254,5.859H168.8a8.8,8.8,0,0,1,8.789,8.789v7.363H151.465V14.648A8.8,8.8,0,0,1,160.254,5.859ZM147.211,28.066a.2.2,0,0,1,.2-.2H182.25a.2.2,0,0,1,.2.2v7.109H147.211Z" fill="#5c22c3"/>
        <path id="Trazado_154382" data-name="Trazado 154382" d="M125,122.615v40.7a6.061,6.061,0,0,0,6.055,6.055h50a6.061,6.061,0,0,0,6.055-6.055v-40.7a6.061,6.061,0,0,0-6.055-6.055h-50A6.061,6.061,0,0,0,125,122.615Zm5.859,40.7v-6.586h9.379v6.782h-9.184A.2.2,0,0,1,130.857,163.314Zm36.723-6.586v6.782h-7.812v-6.782Zm-13.672,6.782h-7.812v-6.782h7.813Zm27.148,0h-7.617v-6.782h7.813v6.586A.2.2,0,0,1,181.056,163.51Zm.2-40.895v28.254H130.857V122.615a.2.2,0,0,1,.2-.2h50a.2.2,0,0,1,.195.2Z" fill="#5c22c3"/>
        <path id="Trazado_154383" data-name="Trazado 154383" d="M179.3,48.068a7.813,7.813,0,1,0,7.813,7.813,7.821,7.821,0,0,0-7.812-7.813Zm0,9.766a1.953,1.953,0,1,1,1.953-1.953A1.955,1.955,0,0,1,179.3,57.833Z" fill="#5c22c3"/>
        <path id="Trazado_154384" data-name="Trazado 154384" d="M167.579,55.88a7.813,7.813,0,1,0-7.812,7.813A7.821,7.821,0,0,0,167.579,55.88Zm-9.766,0a1.953,1.953,0,1,1,1.953,1.953A1.955,1.955,0,0,1,157.814,55.88Z" fill="#5c22c3"/>
        <path id="Trazado_154385" data-name="Trazado 154385" d="M148.048,55.88a7.813,7.813,0,1,0-7.812,7.813A7.821,7.821,0,0,0,148.048,55.88Zm-9.766,0a1.953,1.953,0,1,1,1.953,1.953A1.955,1.955,0,0,1,138.282,55.88Z" fill="#5c22c3"/>
        <path id="Trazado_154386" data-name="Trazado 154386" d="M184.181,67.6h-9.766a2.93,2.93,0,0,0,0,5.859h9.766a2.93,2.93,0,0,0,0-5.859Z" fill="#5c22c3"/>
        <path id="Trazado_154387" data-name="Trazado 154387" d="M184.181,77.364H159.767a2.93,2.93,0,0,0,0,5.859h24.414a2.93,2.93,0,0,0,0-5.859Z" fill="#5c22c3"/>
      </g>
    </g>
  </g>
</svg>
