<svg xmlns="http://www.w3.org/2000/svg" xmlns:xlink="http://www.w3.org/1999/xlink" width="202.97" height="200" viewBox="0 0 202.97 200">
  <defs>
    <clipPath id="clip-path">
      <rect id="Rectángulo_35626" data-name="Rectángulo 35626" width="202.97" height="200" transform="translate(1024 984.793)" fill="#fff" stroke="#707070" stroke-width="1"/>
    </clipPath>
  </defs>
  <g id="Enmascarar_grupo_56" data-name="Enmascarar grupo 56" transform="translate(-1024 -984.793)" clip-path="url(#clip-path)">
    <g id="factura" transform="translate(1025.485 984.793)">
      <path id="Trazado_154388" data-name="Trazado 154388" d="M133.594,32.227V3.906H3.906V87.468a15.625,15.625,0,1,0,31.25,0V68.344Zm0,0" fill="#ffe6c0"/>
      <path id="Trazado_154389" data-name="Trazado 154389" d="M133.594,32.176V3.856H3.906V87.419a15.625,15.625,0,0,0,31.25,0V68.294Zm0,0" fill="#ffe6c0"/>
      <path id="Trazado_154390" data-name="Trazado 154390" d="M66.406,103.091V49.168a15.625,15.625,0,1,0-31.25,0v53.876Zm0,0" fill="#ffcb7c"/>
      <path id="Trazado_154391" data-name="Trazado 154391" d="M50.781,33.543A15.626,15.626,0,0,1,66.406,49.168V196.043H196.094V49.168a15.626,15.626,0,0,0-15.625-15.625Z" fill="#fff"/>
      <path id="Trazado_154392" data-name="Trazado 154392" d="M181.088,76.047a18.75,18.75,0,1,1-18.75-18.75A18.751,18.751,0,0,1,181.088,76.047Zm0,0" fill="#ff6977"/>
      <path id="Trazado_154393" data-name="Trazado 154393" d="M121.564,88.02l-18.14,9.961L85.283,88.02V68.1l18.141-9.961,18.14,9.961Zm0,0" fill="#ffcb7c"/>
      <path id="Trazado_154394" data-name="Trazado 154394" d="M85.283,68.1V88.02l18.141,9.961.011-.006V78.06L85.3,68.1Zm0,0" fill="#ffd89e"/>
      <path id="Trazado_154395" data-name="Trazado 154395" d="M85.283,68.1v0l18.141,9.961,18.14-9.961v0l-18.14-9.961Zm0,0" fill="#ffe6c0"/>
      <path id="Trazado_154396" data-name="Trazado 154396" d="M66.406,103.14V49.219a15.625,15.625,0,0,0-31.25,0v53.874Zm0,0" fill="#ffcb7c"/>
      <path id="Trazado_154397" data-name="Trazado 154397" d="M50.781,33.594A15.626,15.626,0,0,1,66.406,49.219V196.094H196.094V49.219a15.626,15.626,0,0,0-15.625-15.625Z" fill="#fff"/>
      <path id="Trazado_154398" data-name="Trazado 154398" d="M181.088,76.1a18.75,18.75,0,1,1-18.75-18.75A18.75,18.75,0,0,1,181.088,76.1Zm0,0" fill="#fff505"/>
      <path id="Trazado_154399" data-name="Trazado 154399" d="M121.564,88.071l-18.14,9.961L85.283,88.071V68.149l18.141-9.961,18.14,9.961Zm0,0" fill="#ffcb7c"/>
      <path id="Trazado_154400" data-name="Trazado 154400" d="M85.283,68.155V88.071l18.141,9.961.011-.006V78.11L85.3,68.149Zm0,0" fill="#ffd89e"/>
      <path id="Trazado_154401" data-name="Trazado 154401" d="M85.283,68.149l18.141,9.961,18.14-9.961-18.14-9.961Zm0,0" fill="#ffe6c0"/>
      <path id="Trazado_154402" data-name="Trazado 154402" d="M180.469,29.637H137.5V3.906A3.906,3.906,0,0,0,133.594,0H3.906A3.906,3.906,0,0,0,0,3.906V19.481a3.906,3.906,0,0,0,7.813,0V7.813H129.688V29.637H50.781A19.554,19.554,0,0,0,31.25,49.168v38.3a11.733,11.733,0,0,1-10.667,11.67H19.531a4,4,0,0,0-.508.037A11.732,11.732,0,0,1,7.813,87.468V50.731a3.906,3.906,0,0,0-7.813,0V87.468A19.553,19.553,0,0,0,19.531,107H62.5v89.095A3.906,3.906,0,0,0,66.406,200H196.094A3.906,3.906,0,0,0,200,196.094V49.168a19.554,19.554,0,0,0-19.531-19.531ZM70.313,49.219v-.05A19.427,19.427,0,0,0,66.434,37.5H180.469a11.732,11.732,0,0,1,11.719,11.719V192.137H70.313ZM39.063,87.468V49.219a11.719,11.719,0,0,1,23.438,0V99.138H35.184a19.428,19.428,0,0,0,3.879-11.67Zm0,0" fill="#5c22c3"/>
      <path id="Trazado_154403" data-name="Trazado 154403" d="M162.338,53.391a22.68,22.68,0,0,0-22.656,22.656V76.1a22.656,22.656,0,1,0,45.313,0c0-.009,0-.017,0-.024s0-.017,0-.024A22.681,22.681,0,0,0,162.338,53.391Zm0,37.5a14.819,14.819,0,1,1,14.842-14.819A14.861,14.861,0,0,1,162.338,90.891Zm0,0" fill="#5c22c3"/>
      <path id="Trazado_154404" data-name="Trazado 154404" d="M169.771,68.933a3.908,3.908,0,0,0-5.524,0L160.5,72.681l-.069-.069a3.924,3.924,0,0,0-5.525,5.574l2.832,2.832a3.9,3.9,0,0,0,5.524,0l6.511-6.511a3.97,3.97,0,0,0,0-5.574Zm0,0" fill="#5c22c3"/>
      <path id="Trazado_154405" data-name="Trazado 154405" d="M116.533,171.043H85.283a3.908,3.908,0,0,0-3.906,3.906c0,.009,0,.017,0,.026s0,.015,0,.024a3.908,3.908,0,0,0,3.906,3.906h31.25A3.907,3.907,0,0,0,120.439,175v-.05A3.907,3.907,0,0,0,116.533,171.043Zm0,0" fill="#5c22c3"/>
      <path id="Trazado_154406" data-name="Trazado 154406" d="M134.921,172.186a3.907,3.907,0,0,0-6.668,2.765c0,.008,0,.015,0,.024s0,.015,0,.023a3.906,3.906,0,0,0,7.813,0v-.047A3.935,3.935,0,0,0,134.921,172.186Zm0,0" fill="#5c22c3"/>
      <path id="Trazado_154407" data-name="Trazado 154407" d="M177.217,152.293H151.436a3.907,3.907,0,0,0-3.906,3.906v.05a3.907,3.907,0,0,0,3.906,3.906h25.781a3.908,3.908,0,0,0,3.906-3.906c0-.009,0-.017,0-.024s0-.017,0-.026A3.908,3.908,0,0,0,177.217,152.293Zm0,0" fill="#5c22c3"/>
      <path id="Trazado_154408" data-name="Trazado 154408" d="M177.217,133.543H151.436a3.907,3.907,0,0,0-3.906,3.906v.05a3.907,3.907,0,0,0,3.906,3.906h25.781a3.908,3.908,0,0,0,3.906-3.906c0-.009,0-.017,0-.024s0-.017,0-.026A3.908,3.908,0,0,0,177.217,133.543Zm0,0" fill="#5c22c3"/>
      <path id="Trazado_154409" data-name="Trazado 154409" d="M177.217,114.793H151.436a3.907,3.907,0,0,0-3.906,3.906v.05a3.907,3.907,0,0,0,3.906,3.906h25.781a3.908,3.908,0,0,0,3.906-3.906c0-.009,0-.017,0-.024s0-.017,0-.026A3.908,3.908,0,0,0,177.217,114.793Zm0,0" fill="#5c22c3"/>
      <path id="Trazado_154410" data-name="Trazado 154410" d="M177.217,171.043H151.436a3.907,3.907,0,0,0-3.906,3.906V175a3.907,3.907,0,0,0,3.906,3.906h25.781A3.908,3.908,0,0,0,181.123,175c0-.009,0-.017,0-.024s0-.017,0-.026A3.908,3.908,0,0,0,177.217,171.043Zm0,0" fill="#5c22c3"/>
      <path id="Trazado_154411" data-name="Trazado 154411" d="M85.283,160.156h46.875a3.906,3.906,0,0,0,3.906-3.906V156.2a3.906,3.906,0,0,0-3.906-3.906H85.283a3.907,3.907,0,0,0-3.906,3.906c0,.008,0,.015,0,.024s0,.017,0,.024A3.907,3.907,0,0,0,85.283,160.156Zm0,0" fill="#5c22c3"/>
      <path id="Trazado_154412" data-name="Trazado 154412" d="M85.283,141.406h46.875a3.906,3.906,0,0,0,3.906-3.906v-.049a3.906,3.906,0,0,0-3.906-3.906H85.283a3.907,3.907,0,0,0-3.906,3.906c0,.008,0,.015,0,.024s0,.017,0,.024A3.907,3.907,0,0,0,85.283,141.406Zm0,0" fill="#5c22c3"/>
      <path id="Trazado_154413" data-name="Trazado 154413" d="M85.283,122.656h46.875a3.906,3.906,0,0,0,3.906-3.906V118.7a3.906,3.906,0,0,0-3.906-3.906H85.283a3.907,3.907,0,0,0-3.906,3.906c0,.008,0,.015,0,.024s0,.017,0,.024A3.907,3.907,0,0,0,85.283,122.656Zm0,0" fill="#5c22c3"/>
      <path id="Trazado_154414" data-name="Trazado 154414" d="M83.4,91.495l18.141,9.961a3.906,3.906,0,0,0,3.76,0l18.14-9.961a3.907,3.907,0,0,0,2.026-3.424V68.1a3.907,3.907,0,0,0-2.026-3.424L105.3,54.714a3.908,3.908,0,0,0-3.76,0L83.4,64.675a3.917,3.917,0,0,0-2.026,3.43V88.071A3.907,3.907,0,0,0,83.4,91.495ZM99.529,80.422V91.387L89.189,85.709V74.748Zm7.813,10.953V80.42l10.316-5.669V85.71ZM103.433,73.6l-9.988-5.481,9.979-5.479,9.981,5.481Zm0,0" fill="#5c22c3"/>
      <path id="Trazado_154415" data-name="Trazado 154415" d="M3.906,39.014a3.907,3.907,0,1,0-2.762-1.144A3.931,3.931,0,0,0,3.906,39.014Zm0,0"/>
    </g>
  </g>
</svg>
