<svg xmlns="http://www.w3.org/2000/svg" width="63.114" height="60.089" viewBox="0 0 63.114 60.089">
  <g id="factura" transform="translate(0 -0.39)">
    <path id="Trazado_157535" data-name="Trazado 157535" d="M350.028,43.462c.027,0,.055,0,.083,0a1.023,1.023,0,0,0,.141-.01,2.285,2.285,0,0,1,2.239,2.282,1.023,1.023,0,0,0,2.045,0,4.336,4.336,0,0,0-3.4-4.228v-.983a1.023,1.023,0,0,0-2.045,0v1.029a4.329,4.329,0,0,0,1.118,8.511,2.284,2.284,0,1,1-2.284,2.285,1.023,1.023,0,0,0-2.045,0,4.336,4.336,0,0,0,3.211,4.182v1.12a1.023,1.023,0,1,0,2.045,0V56.581a4.329,4.329,0,0,0-.927-8.558,2.283,2.283,0,0,1-.179-4.56Zm0,0" transform="translate(-301.668 -34.114)" fill="#fff505"/>
    <path id="Trazado_157536" data-name="Trazado 157536" d="M48.6.39a14.671,14.671,0,0,0-13.67,9.6H9.548A1.069,1.069,0,0,0,8.525,11.06L8.283,46.93H1.049A1.006,1.006,0,0,0,0,47.9v4.552a8.032,8.032,0,0,0,7.669,8v.022H39.239v-.03c.256.009.361.03.523.03h.022A8.032,8.032,0,0,0,47.8,52.447V29.432c.256.014.526.021.791.021A14.532,14.532,0,0,0,48.6.39ZM8.058,58.434H8.051a6.015,6.015,0,0,1-6.006-5.987V48.975H31.7v3.457a8.022,8.022,0,0,0,2.368,5.684c.107.107.241.19.353.318Zm37.7-5.987a5.987,5.987,0,0,1-5.975,5.987h-.019a6.031,6.031,0,0,1-6.02-6V47.9a.944.944,0,0,0-.976-.975H10.328l.235-34.894h23.8a15.364,15.364,0,0,0-.28,2.84,14.419,14.419,0,0,0,1.234,5.852H25.655a1.023,1.023,0,1,0,0,2.045H36.423a14.43,14.43,0,0,0,9.336,6.4ZM48.6,27.409A12.473,12.473,0,1,1,61.069,14.936,12.472,12.472,0,0,1,48.6,27.409Zm0,0" fill="#fff505"/>
    <path id="Trazado_157537" data-name="Trazado 157537" d="M127.034,212.746a3.171,3.171,0,1,0,3.273,3.169A3.226,3.226,0,0,0,127.034,212.746Zm0,4.293a1.128,1.128,0,1,1,1.228-1.124A1.18,1.18,0,0,1,127.034,217.039Zm0,0" transform="translate(-107.943 -185.213)" fill="#fff505"/>
    <path id="Trazado_157538" data-name="Trazado 157538" d="M192.719,230.527a1.022,1.022,0,0,0,1.023,1.023h13.632a1.023,1.023,0,1,0,0-2.045H193.742A1.022,1.022,0,0,0,192.719,230.527Zm0,0" transform="translate(-168.087 -199.829)" fill="#fff505"/>
    <path id="Trazado_157539" data-name="Trazado 157539" d="M127.034,143.2a3.171,3.171,0,1,0,3.273,3.169A3.226,3.226,0,0,0,127.034,143.2Zm0,4.293a1.129,1.129,0,1,1,1.228-1.124,1.18,1.18,0,0,1-1.228,1.124Zm0,0" transform="translate(-107.943 -124.559)" fill="#fff505"/>
    <path id="Trazado_157540" data-name="Trazado 157540" d="M127.034,282.281a3.171,3.171,0,1,0,3.273,3.169A3.226,3.226,0,0,0,127.034,282.281Zm0,4.293a1.128,1.128,0,1,1,1.228-1.124A1.18,1.18,0,0,1,127.034,286.574Zm0,0" transform="translate(-107.943 -245.86)" fill="#fff505"/>
    <path id="Trazado_157541" data-name="Trazado 157541" d="M207.374,299.5H193.742a1.023,1.023,0,1,0,0,2.045h13.632a1.023,1.023,0,1,0,0-2.045Zm0,0" transform="translate(-168.087 -260.882)" fill="#fff505"/>
  </g>
</svg>
