<svg xmlns="http://www.w3.org/2000/svg" xmlns:xlink="http://www.w3.org/1999/xlink" width="60" height="60" viewBox="0 0 60 60">
  <defs>
    <clipPath id="clip-path">
      <rect id="Rectángulo_35738" data-name="Rectángulo 35738" width="60" height="60" transform="translate(855 5124)" fill="#5c22c3" stroke="#707070" stroke-width="1"/>
    </clipPath>
  </defs>
  <g id="Enmascarar_grupo_82" data-name="Enmascarar grupo 82" transform="translate(-855 -5124)" clip-path="url(#clip-path)">
    <g id="nutricion" transform="translate(856.123 5124)">
      <path id="Trazado_157600" data-name="Trazado 157600" d="M55.714,51.989a1.172,1.172,0,0,0-1.586.479c-2.091,3.9-6.147,5.964-9.648,4.906a1.171,1.171,0,0,0-.678,0c-4.056,1.225-8.6-1.616-10.343-6.47-1.79-4.98.081-10.227,4.172-11.7a7.165,7.165,0,0,1,5.943.619,1.175,1.175,0,0,0,.683.141,1.226,1.226,0,0,0,.451-.141,7.164,7.164,0,0,1,5.943-.619A7.366,7.366,0,0,1,55.1,44.214a1.172,1.172,0,1,0,2.247-.667A9.68,9.68,0,0,0,51.444,37,9.23,9.23,0,0,0,45,37.115l-.365-1.831a7.512,7.512,0,0,0,1.352.122,8.742,8.742,0,0,0,3.933-.967,8.432,8.432,0,0,0,4.531-5.779,1.172,1.172,0,0,0-.671-1.4,9.224,9.224,0,0,0-3.6-.773,8.4,8.4,0,0,0-3.782.92,8.963,8.963,0,0,0-2.883,2.278l-.252-1.267a1.172,1.172,0,1,0-2.3.458l1.594,8a9.248,9.248,0,0,0-4.5-.214V1.172A1.172,1.172,0,0,0,36.887,0H1.172A1.172,1.172,0,0,0,0,1.172V52.861a1.172,1.172,0,0,0,1.172,1.172H32.345A11.39,11.39,0,0,0,41.883,60a8.947,8.947,0,0,0,2.258-.288,9.577,9.577,0,0,0,6.7-.8,12.627,12.627,0,0,0,5.355-5.333,1.171,1.171,0,0,0-.479-1.586ZM47.45,29.5a6.071,6.071,0,0,1,2.733-.672,6.257,6.257,0,0,1,1.668.232,5.727,5.727,0,0,1-2.981,3.279,6.42,6.42,0,0,1-2.884.72,4.889,4.889,0,0,1-1.6-.26,6.149,6.149,0,0,1,3.063-3.3ZM2.344,2.344H35.715V37.5c-4.524,2.379-6.524,8.455-4.465,14.194H2.344Zm0,0" fill="#5c22c3" fill-rule="evenodd"/>
      <path id="Trazado_157601" data-name="Trazado 157601" d="M15.458,21.463H6.694a1.172,1.172,0,0,0-1.171,1.172V31.4A1.172,1.172,0,0,0,6.694,32.57h8.763A1.172,1.172,0,0,0,16.63,31.4V22.635A1.172,1.172,0,0,0,15.458,21.463Zm-1.172,8.763H7.866v-6.42h6.42Zm0,0" fill="#5c22c3" fill-rule="evenodd"/>
      <path id="Trazado_157602" data-name="Trazado 157602" d="M15.458,7.177H6.694A1.172,1.172,0,0,0,5.523,8.349v8.763a1.172,1.172,0,0,0,1.171,1.172h8.763a1.172,1.172,0,0,0,1.172-1.172V8.349a1.172,1.172,0,0,0-1.172-1.171ZM14.286,15.94H7.866V9.521h6.42Zm0,0" fill="#5c22c3" fill-rule="evenodd"/>
      <path id="Trazado_157603" data-name="Trazado 157603" d="M15.458,35.749H6.694a1.172,1.172,0,0,0-1.171,1.172v8.763a1.172,1.172,0,0,0,1.171,1.171h8.763a1.172,1.172,0,0,0,1.172-1.171V36.921A1.172,1.172,0,0,0,15.458,35.749Zm-1.172,8.763H7.866v-6.42h6.42Zm0,0" fill="#5c22c3" fill-rule="evenodd"/>
      <path id="Trazado_157604" data-name="Trazado 157604" d="M21,16.458H31.341a1.172,1.172,0,1,0,0-2.344H21a1.172,1.172,0,0,0,0,2.344Zm0,0" fill="#5c22c3" fill-rule="evenodd"/>
      <path id="Trazado_157605" data-name="Trazado 157605" d="M21,11.346h6.23a1.172,1.172,0,1,0,0-2.343H21a1.172,1.172,0,0,0,0,2.343Zm0,0" fill="#5c22c3" fill-rule="evenodd"/>
      <path id="Trazado_157606" data-name="Trazado 157606" d="M21,25.632H31.98a1.172,1.172,0,0,0,0-2.344H21a1.172,1.172,0,0,0,0,2.344Zm0,0" fill="#5c22c3" fill-rule="evenodd"/>
      <path id="Trazado_157607" data-name="Trazado 157607" d="M27.233,37.575H21a1.172,1.172,0,0,0,0,2.344h6.23a1.172,1.172,0,1,0,0-2.344Zm0,0" fill="#5c22c3" fill-rule="evenodd"/>
      <path id="Trazado_157608" data-name="Trazado 157608" d="M24.951,42.687H21a1.172,1.172,0,0,0,0,2.344h3.948a1.172,1.172,0,0,0,0-2.344Zm0,0" fill="#5c22c3" fill-rule="evenodd"/>
      <path id="Trazado_157609" data-name="Trazado 157609" d="M29.393,28.4H21a1.172,1.172,0,0,0,0,2.343h8.39a1.172,1.172,0,1,0,0-2.343Zm0,0" fill="#5c22c3" fill-rule="evenodd"/>
      <path id="Trazado_157610" data-name="Trazado 157610" d="M56.582,47.382a1.172,1.172,0,1,0,1.172,1.172A1.174,1.174,0,0,0,56.582,47.382Zm0,0" fill="#5c22c3" fill-rule="evenodd"/>
    </g>
  </g>
</svg>
