<svg xmlns="http://www.w3.org/2000/svg" width="96.13" height="98.177" viewBox="0 0 96.13 98.177">
  <g id="Grupo_81535" data-name="Grupo 81535" transform="translate(-1235 -1910.001)">
    <circle id="Elipse_4725" data-name="Elipse 4725" cx="38.5" cy="38.5" r="38.5" transform="translate(1254.13 1931)" fill="#5c22c3"/>
    <g id="Grupo_81134" data-name="Grupo 81134" transform="translate(897.006 1783.564)">
      <g id="Grupo_81090" data-name="Grupo 81090" transform="translate(337.994 126.437)">
        <g id="Grupo_81087" data-name="Grupo 81087">
          <path id="Trazado_156086" data-name="Trazado 156086" d="M399.768,138.52l-2.606-1.5-.331-.186-2.166-1.243-15.856-9.158L337.994,150l15.857,9.161,1.847,1.055.329.2,2.937,1.681,17.5,10.117,40.737-23.563.034-.011Z" transform="translate(-337.994 -126.437)" fill="#ffdda8"/>
        </g>
        <g id="Grupo_81088" data-name="Grupo 81088" transform="translate(1.428 0.818)">
          <path id="Trazado_156087" data-name="Trazado 156087" d="M378.592,127.13,339.2,149.876l37.05,21.145L415.6,148.508Z" transform="translate(-339.204 -127.13)" fill="#f9c98a"/>
        </g>
        <path id="Trazado_156088" data-name="Trazado 156088" d="M376.472,168.6l-.046,52.408-17.583-10.034-5.105-2.914-15.743-8.989V146.4Z" transform="translate(-337.994 -122.837)" fill="#bc7c46"/>
        <g id="Grupo_81089" data-name="Grupo 81089" transform="translate(38.425 22.212)">
          <path id="Trazado_156089" data-name="Trazado 156089" d="M370.594,168.809l-.046,52.412,40.835-23.355v-52.61Z" transform="translate(-370.548 -145.255)" fill="#dda866"/>
        </g>
      </g>
      <g id="Grupo_81129" data-name="Grupo 81129" transform="translate(389.63 156.763)">
        <g id="Grupo_81101" data-name="Grupo 81101" transform="translate(0 6.747)">
          <g id="Grupo_81097" data-name="Grupo 81097" transform="translate(1.521 3.522)">
            <g id="Grupo_81093" data-name="Grupo 81093" transform="translate(0 2.453)">
              <g id="Grupo_81091" data-name="Grupo 81091" transform="translate(1.522 0.407)">
                <path id="Trazado_156090" data-name="Trazado 156090" d="M384.745,170.636l-.426.243V163.5l.423-.248Z" transform="translate(-384.318 -163.253)" fill="#4f2e16"/>
              </g>
              <g id="Grupo_81092" data-name="Grupo 81092">
                <path id="Trazado_156091" data-name="Trazado 156091" d="M386.5,164.061l-.311.509-1.421-.942-1.428,2.589-.309-.154,1.737-3.154Z" transform="translate(-383.029 -162.908)" fill="#4f2e16"/>
              </g>
            </g>
            <g id="Grupo_81096" data-name="Grupo 81096" transform="translate(4.242)">
              <g id="Grupo_81094" data-name="Grupo 81094" transform="translate(1.527 0.414)">
                <path id="Trazado_156092" data-name="Trazado 156092" d="M388.338,168.56l-.421.248v-7.387l.421-.241Z" transform="translate(-387.917 -161.18)" fill="#4f2e16"/>
              </g>
              <g id="Grupo_81095" data-name="Grupo 81095">
                <path id="Trazado_156093" data-name="Trazado 156093" d="M390.095,161.982l-.314.516-1.421-.949-1.423,2.593-.314-.152,1.737-3.161Z" transform="translate(-386.623 -160.829)" fill="#4f2e16"/>
              </g>
            </g>
          </g>
          <g id="Grupo_81098" data-name="Grupo 81098" transform="translate(1.204 10.103)">
            <path id="Trazado_156094" data-name="Trazado 156094" d="M390.891,166.926l-7.915,4.57c-.117.065-.215.012-.215-.123a.471.471,0,0,1,.215-.368l7.915-4.573c.119-.065.212-.011.212.123A.47.47,0,0,1,390.891,166.926Z" transform="translate(-382.761 -166.405)" fill="#4f2e16"/>
          </g>
          <g id="Grupo_81100" data-name="Grupo 81100">
            <g id="Grupo_81099" data-name="Grupo 81099">
              <path id="Trazado_156095" data-name="Trazado 156095" d="M391.013,170.469l-7.788,4.495c-.82.472-1.484.086-1.484-.857v-8.992a3.278,3.278,0,0,1,1.484-2.57l7.788-4.5c.816-.473,1.482-.087,1.482.858v8.99A3.3,3.3,0,0,1,391.013,170.469Zm-7.788-7.433a2.342,2.342,0,0,0-1.061,1.832v8.993c0,.675.477.95,1.061.61l7.788-4.491a2.352,2.352,0,0,0,1.056-1.838l0-8.992c0-.676-.476-.95-1.059-.61Z" transform="translate(-381.741 -157.846)" fill="#4f2e16"/>
            </g>
          </g>
        </g>
        <g id="Grupo_81109" data-name="Grupo 81109" transform="translate(11.397)">
          <g id="Grupo_81102" data-name="Grupo 81102" transform="translate(5.164 6.702)">
            <path id="Trazado_156096" data-name="Trazado 156096" d="M395.983,164.762c-.116.067-.211.012-.211-.12V158.2a.48.48,0,0,1,.211-.367c.118-.067.215-.014.215.123V164.4A.465.465,0,0,1,395.983,164.762Z" transform="translate(-395.772 -157.807)" fill="#4f2e16"/>
          </g>
          <g id="Grupo_81104" data-name="Grupo 81104">
            <g id="Grupo_81103" data-name="Grupo 81103">
              <path id="Trazado_156097" data-name="Trazado 156097" d="M400.667,164.754l-7.788,4.492c-.816.473-1.483.091-1.483-.855V159.4a3.292,3.292,0,0,1,1.483-2.571l7.788-4.5c.82-.473,1.485-.087,1.485.858v8.992A3.291,3.291,0,0,1,400.667,164.754Zm-7.788-7.437a2.366,2.366,0,0,0-1.06,1.838v8.991c0,.674.477.949,1.06.613l7.788-4.5a2.349,2.349,0,0,0,1.06-1.838v-8.988c0-.677-.477-.951-1.06-.61Z" transform="translate(-391.397 -152.13)" fill="#4f2e16"/>
            </g>
          </g>
          <path id="Trazado_156098" data-name="Trazado 156098" d="M399.657,158.369c-.3-1.19-1.627-1.453-3.215-.538a7.006,7.006,0,0,0-3.213,4.252Z" transform="translate(-391.067 -151.2)" fill="#4f2e16"/>
          <g id="Grupo_81108" data-name="Grupo 81108" transform="translate(4.043 3.081)">
            <g id="Grupo_81105" data-name="Grupo 81105" transform="translate(0 1.293)">
              <path id="Trazado_156099" data-name="Trazado 156099" d="M395.034,157.923c-.115.067-.212.014-.212-.122v-1.57a.473.473,0,0,1,.212-.367c.118-.066.216-.015.216.122v1.571A.468.468,0,0,1,395.034,157.923Z" transform="translate(-394.822 -155.836)" fill="#4f2e16"/>
            </g>
            <g id="Grupo_81106" data-name="Grupo 81106" transform="translate(1.121 0.644)">
              <path id="Trazado_156100" data-name="Trazado 156100" d="M395.983,157.378c-.116.064-.211.009-.211-.123v-1.57a.479.479,0,0,1,.211-.371c.118-.067.211-.014.211.125v1.568A.465.465,0,0,1,395.983,157.378Z" transform="translate(-395.772 -155.285)" fill="#4f2e16"/>
            </g>
            <g id="Grupo_81107" data-name="Grupo 81107" transform="translate(2.239)">
              <path id="Trazado_156101" data-name="Trazado 156101" d="M396.93,156.829c-.111.067-.211.011-.211-.125v-1.568a.469.469,0,0,1,.211-.366c.119-.07.217-.015.217.119v1.57A.461.461,0,0,1,396.93,156.829Z" transform="translate(-396.719 -154.74)" fill="#4f2e16"/>
            </g>
          </g>
        </g>
        <g id="Grupo_81115" data-name="Grupo 81115" transform="translate(11.364 14.377)">
          <g id="Grupo_81111" data-name="Grupo 81111">
            <g id="Grupo_81110" data-name="Grupo 81110">
              <path id="Trazado_156102" data-name="Trazado 156102" d="M400.641,176.932l-7.789,4.5c-.82.472-1.483.085-1.483-.859v-8.992a3.288,3.288,0,0,1,1.483-2.572l7.85-4.5c.82-.469,1.488-.086,1.488.858l-.068,8.993A3.286,3.286,0,0,1,400.641,176.932Zm-7.789-7.437a2.339,2.339,0,0,0-1.056,1.838l0,8.992c0,.678.478.948,1.061.611l7.789-4.5a2.342,2.342,0,0,0,1.055-1.834l.068-8.989c0-.68-.473-.954-1.062-.614Z" transform="translate(-391.369 -164.31)" fill="#4f2e16"/>
            </g>
          </g>
          <g id="Grupo_81114" data-name="Grupo 81114" transform="translate(3.324 3.716)">
            <g id="Grupo_81112" data-name="Grupo 81112" transform="translate(1.839 1.746)">
              <path id="Trazado_156103" data-name="Trazado 156103" d="M395.954,175.889c-.119.07-.211.015-.211-.118v-6.438a.459.459,0,0,1,.211-.366c.117-.07.21-.014.21.123v6.434A.46.46,0,0,1,395.954,175.889Z" transform="translate(-395.743 -168.938)" fill="#4f2e16"/>
            </g>
            <g id="Grupo_81113" data-name="Grupo 81113" transform="translate(0.871 7.624)">
              <path id="Trazado_156104" data-name="Trazado 156104" d="M397.065,174.435l-1.929,1.119c-.117.067-.214.011-.214-.125a.477.477,0,0,1,.214-.368l1.929-1.113c.123-.07.216-.015.216.123A.453.453,0,0,1,397.065,174.435Z" transform="translate(-394.923 -173.917)" fill="#4f2e16"/>
            </g>
            <path id="Trazado_156105" data-name="Trazado 156105" d="M398.289,167.458v3a2.829,2.829,0,0,1-1.272,2.206l-1.558.9c-.708.4-1.274.076-1.274-.74v-3l.774-.446v3.22c0,.13.093.189.21.119a.477.477,0,0,0,.211-.366v-3.218Z" transform="translate(-394.185 -167.458)" fill="#4f2e16"/>
          </g>
        </g>
        <g id="Grupo_81128" data-name="Grupo 81128" transform="translate(0.017 21.06)">
          <path id="Trazado_156106" data-name="Trazado 156106" d="M384.541,176.779l1.534.883-1.53,2.654Z" transform="translate(-381.253 -168.745)" fill="#4f2e16"/>
          <path id="Trazado_156107" data-name="Trazado 156107" d="M388.019,174.546l-1.5,2.589-1.491-.865Z" transform="translate(-381.164 -169.147)" fill="#4f2e16"/>
          <path id="Trazado_156108" data-name="Trazado 156108" d="M386.545,177.79l1.636.949-3.272,1.889Z" transform="translate(-381.186 -168.562)" fill="#4f2e16"/>
          <path id="Trazado_156109" data-name="Trazado 156109" d="M388.351,174.656v3.693l-1.6-.921Z" transform="translate(-380.854 -169.127)" fill="#4f2e16"/>
          <g id="Grupo_81116" data-name="Grupo 81116" transform="translate(2.319 6.697)">
            <path id="Trazado_156110" data-name="Trazado 156110" d="M389.53,179.468l-5.811-3.353.272-.469L389.8,179Z" transform="translate(-383.72 -175.646)" fill="#4f2e16"/>
          </g>
          <g id="Grupo_81117" data-name="Grupo 81117" transform="translate(2.319 3.5)">
            <path id="Trazado_156111" data-name="Trazado 156111" d="M383.992,183.157,383.72,183l5.811-10.061.271.156Z" transform="translate(-383.72 -172.938)" fill="#4f2e16"/>
          </g>
          <g id="Grupo_81118" data-name="Grupo 81118" transform="translate(8.076 4.476)">
            <path id="Trazado_156112" data-name="Trazado 156112" d="M388.978,178.622l-.382.22v-4.857l.382-.22Z" transform="translate(-388.597 -173.764)" fill="#4f2e16"/>
          </g>
          <g id="Grupo_81119" data-name="Grupo 81119" transform="translate(2.26 7.832)">
            <path id="Trazado_156113" data-name="Trazado 156113" d="M384.056,181.463l-.386.221v-4.859l.386-.217Z" transform="translate(-383.67 -176.607)" fill="#4f2e16"/>
          </g>
          <g id="Grupo_81122" data-name="Grupo 81122" transform="translate(8.561 5.308)">
            <g id="Grupo_81120" data-name="Grupo 81120" transform="translate(1.024 0.235)">
              <path id="Trazado_156114" data-name="Trazado 156114" d="M390.818,175l-.943.544v-.333l.943-.543Z" transform="translate(-389.875 -174.668)" fill="#4f2e16"/>
            </g>
            <g id="Grupo_81121" data-name="Grupo 81121">
              <path id="Trazado_156115" data-name="Trazado 156115" d="M390.239,174.469l-1.231,1.538,1.231.108Z" transform="translate(-389.008 -174.469)" fill="#4f2e16"/>
            </g>
          </g>
          <g id="Grupo_81125" data-name="Grupo 81125" transform="translate(0.262 10.387)">
            <g id="Grupo_81123" data-name="Grupo 81123" transform="translate(0 0.537)">
              <path id="Trazado_156116" data-name="Trazado 156116" d="M382.919,179.559l-.943.543v-.329l.943-.546Z" transform="translate(-381.977 -179.227)" fill="#4f2e16"/>
            </g>
            <g id="Grupo_81124" data-name="Grupo 81124" transform="translate(0.738)">
              <path id="Trazado_156117" data-name="Trazado 156117" d="M382.6,180.418l1.232-1.535-1.232-.11Z" transform="translate(-382.602 -178.772)" fill="#4f2e16"/>
            </g>
          </g>
          <g id="Grupo_81127" data-name="Grupo 81127">
            <g id="Grupo_81126" data-name="Grupo 81126">
              <path id="Trazado_156118" data-name="Trazado 156118" d="M391.136,182.528l-8.045,4.645c-.735.425-1.336.079-1.333-.771l0-9.292a2.962,2.962,0,0,1,1.336-2.312l8.05-4.643c.731-.427,1.33-.079,1.33.768v9.3A2.948,2.948,0,0,1,391.136,182.528Zm-8.045-7.29a2.121,2.121,0,0,0-.957,1.651l.006,9.293c0,.607.426.855.951.55l8.05-4.645a2.116,2.116,0,0,0,.951-1.65v-9.294c0-.609-.427-.855-.956-.55Z" transform="translate(-381.755 -169.972)" fill="#4f2e16"/>
            </g>
          </g>
        </g>
      </g>
      <g id="Grupo_81130" data-name="Grupo 81130" transform="translate(348.334 166.461)">
        <path id="Trazado_156119" data-name="Trazado 156119" d="M346.754,161.528a3.661,3.661,0,0,0,1.657,2.868l9.216,5.321c.915.528,1.656.1,1.656-.955h0a3.667,3.667,0,0,0-1.656-2.869l-9.216-5.321c-.914-.528-1.656-.1-1.657.956Z" transform="translate(-346.754 -160.346)" fill="#4f2e16"/>
        <path id="Trazado_156120" data-name="Trazado 156120" d="M346.754,161.514a3.666,3.666,0,0,0,1.656,2.868l9.215,5.32c.655.379,1.222.268,1.486-.214a1.164,1.164,0,0,1-1.14-.13l-9.217-5.321a3.657,3.657,0,0,1-1.654-2.868,1.485,1.485,0,0,1,.168-.744A1.148,1.148,0,0,0,346.754,161.514Z" transform="translate(-346.754 -160.331)" fill="#dda866"/>
      </g>
      <g id="Grupo_81131" data-name="Grupo 81131" transform="translate(355.698 136.838)">
        <path id="Trazado_156121" data-name="Trazado 156121" d="M394.457,135.436l-41.135,23.388-.33-.2,41.133-23.376Z" transform="translate(-352.993 -135.249)" fill="#bc7c46"/>
      </g>
      <g id="Grupo_81132" data-name="Grupo 81132" transform="translate(338.413 150.934)">
        <path id="Trazado_156122" data-name="Trazado 156122" d="M375.767,168.457v.362l-19.8-11.248-.33-.187-17.286-9.819v-.374l17.286,9.82.33.187Z" transform="translate(-338.349 -147.191)" fill="#a8632f"/>
      </g>
      <g id="Grupo_81133" data-name="Grupo 81133" transform="translate(355.698 160.215)">
        <path id="Trazado_156123" data-name="Trazado 156123" d="M353.323,155.252v.9l-.33-.187v-.913Z" transform="translate(-352.993 -155.054)" fill="#a8632f"/>
      </g>
    </g>
  </g>
</svg>
