<svg xmlns="http://www.w3.org/2000/svg" xmlns:xlink="http://www.w3.org/1999/xlink" width="190" height="190" viewBox="0 0 190 190">
  <defs>
    <clipPath id="clip-path">
      <rect id="Rectángulo_35170" data-name="Rectángulo 35170" width="190" height="190" transform="translate(285 3033)" fill="#fff"/>
    </clipPath>
  </defs>
  <g id="Enmascarar_grupo_63" data-name="Enmascarar grupo 63" transform="translate(-285 -3033)" clip-path="url(#clip-path)">
    <g id="lavado-de-manos" transform="translate(278.664 3026.667)">
      <path id="Trazado_156365" data-name="Trazado 156365" d="M60.167,193.167,114,139.333,63.333,88.667,9.5,142.5v50.667Z" fill="#ffceb6"/>
      <path id="Trazado_156366" data-name="Trazado 156366" d="M148.833,70.465V63.333a12.667,12.667,0,0,0-12.667-12.667H76A22.167,22.167,0,0,0,53.833,72.833v6.423a14.25,14.25,0,0,0-12.667,14.16h0a14.235,14.235,0,0,0,6.5,11.958,22.171,22.171,0,0,0-16,21.292h0a22.167,22.167,0,0,0,22.167,22.167h0v6.653a28.181,28.181,0,0,0,28.181,28.181h0a28.18,28.18,0,0,0,12.6-2.975l6.717-3.358a15.833,15.833,0,0,0,15.833,15.833h50.667V95a25.343,25.343,0,0,0-19-24.535Z" fill="#64b5f6"/>
      <path id="Trazado_156367" data-name="Trazado 156367" d="M95,145.334l-15.9,2.271a7.3,7.3,0,0,0-6.27,7.229h0a7.3,7.3,0,0,0,6.27,7.229l38.064,5.438L142.5,193.167h50.667V142.5l-70.21-70.543a8.957,8.957,0,0,0-6.333-2.623h0a8.957,8.957,0,0,0-8.957,8.956h0a8.957,8.957,0,0,0,2.623,6.333l-6.333-6.333a8.957,8.957,0,0,0-6.333-2.623h0a8.957,8.957,0,0,0-8.957,8.956h0a8.957,8.957,0,0,0,2.623,6.333l-6.333-6.333A8.957,8.957,0,0,0,78.623,82h0a8.957,8.957,0,0,0-8.957,8.956h0a8.957,8.957,0,0,0,2.623,6.333l6.333,6.333A8.957,8.957,0,0,0,72.29,101h0a8.957,8.957,0,0,0-8.956,8.956h0a8.957,8.957,0,0,0,2.623,6.333Z" fill="#ffceb6"/>
      <circle id="Elipse_4736" data-name="Elipse 4736" cx="25.333" cy="25.333" r="25.333" transform="translate(76 9.5)" fill="#fff505"/>
      <circle id="Elipse_4737" data-name="Elipse 4737" cx="6.333" cy="6.333" r="6.333" transform="translate(34.833 44.333)" fill="#7dafff"/>
      <circle id="Elipse_4738" data-name="Elipse 4738" cx="6.333" cy="6.333" r="6.333" transform="translate(177.333 69.667)" fill="#7dafff"/>
      <circle id="Elipse_4739" data-name="Elipse 4739" cx="6.333" cy="6.333" r="6.333" transform="translate(148.833 31.667)" fill="#7dafff"/>
      <path id="Trazado_156368" data-name="Trazado 156368" d="M116.623,72.5a5.747,5.747,0,0,1,4.089,1.691l70.21,70.542,4.489-4.468L125.2,69.719a12.121,12.121,0,0,0-20.231,5.259,12.12,12.12,0,0,0-19,6.333A12.122,12.122,0,0,0,68.976,98.3a12.121,12.121,0,0,0-5.259,20.232L88.283,143.1l-9.627,1.375a10.469,10.469,0,0,0,0,20.728l37.007,5.287,24.584,24.906,4.507-4.449L119.42,165.276a3.166,3.166,0,0,0-1.806-.91l-38.064-5.438a4.136,4.136,0,0,1,0-8.188l15.9-2.271a3.167,3.167,0,0,0,1.791-5.374L68.2,114.052a5.79,5.79,0,1,1,8.188-8.188L92.761,122.24l4.478-4.478L80.862,101.385l-6.333-6.333a5.79,5.79,0,1,1,8.188-8.188L89.051,93.2l16.377,16.377,4.478-4.478L93.529,88.718a5.79,5.79,0,1,1,8.188-8.188l6.333,6.333,10.043,10.043,4.478-4.478L112.529,82.385a5.79,5.79,0,0,1,4.094-9.884Z" fill="#12263f"/>
      <path id="Trazado_156369" data-name="Trazado 156369" d="M101.333,63.333a28.5,28.5,0,1,0-28.5-28.5,28.5,28.5,0,0,0,28.5,28.5Zm0-50.667A22.167,22.167,0,1,1,79.167,34.833a22.167,22.167,0,0,1,22.167-22.167Z" fill="#12263f"/>
      <path id="Trazado_156370" data-name="Trazado 156370" d="M101.333,38h15.833V31.667H104.5V19H98.167V34.833A3.167,3.167,0,0,0,101.333,38Z" fill="#12263f"/>
      <path id="Trazado_156371" data-name="Trazado 156371" d="M164.667,95v6.333H171V95a28.545,28.545,0,0,0-19-26.866v-4.8A15.851,15.851,0,0,0,136.167,47.5v6.333a9.511,9.511,0,0,1,9.5,9.5V66.68a28.655,28.655,0,0,0-3.167-.18h-6.333v6.333H142.5A22.192,22.192,0,0,1,164.667,95Z" fill="#12263f"/>
      <path id="Trazado_156372" data-name="Trazado 156372" d="M41.167,60.167a9.5,9.5,0,1,0-9.5-9.5,9.5,9.5,0,0,0,9.5,9.5Zm0-12.667A3.167,3.167,0,1,1,38,50.667,3.167,3.167,0,0,1,41.167,47.5Z" fill="#12263f"/>
      <path id="Trazado_156373" data-name="Trazado 156373" d="M155.167,47.5a9.5,9.5,0,1,0-9.5-9.5,9.5,9.5,0,0,0,9.5,9.5Zm0-12.667A3.167,3.167,0,1,1,152,38a3.167,3.167,0,0,1,3.167-3.167Z" fill="#12263f"/>
      <path id="Trazado_156374" data-name="Trazado 156374" d="M183.667,85.5a9.5,9.5,0,1,0-9.5-9.5,9.5,9.5,0,0,0,9.5,9.5Zm0-12.667A3.167,3.167,0,1,1,180.5,76a3.167,3.167,0,0,1,3.167-3.167Z" fill="#12263f"/>
      <circle id="Elipse_4740" data-name="Elipse 4740" cx="3.167" cy="3.167" r="3.167" transform="translate(34.833 72.833)" fill="#12263f"/>
      <circle id="Elipse_4741" data-name="Elipse 4741" cx="3.167" cy="3.167" r="3.167" transform="translate(164.667 50.667)" fill="#12263f"/>
      <circle id="Elipse_4742" data-name="Elipse 4742" cx="3.167" cy="3.167" r="3.167" transform="translate(19 85.5)" fill="#12263f"/>
      <path id="Trazado_156375" data-name="Trazado 156375" d="M104.5,177.333a3.167,3.167,0,0,0-4.583-2.832L93.2,177.859A25.014,25.014,0,0,1,57,155.486V152h6.333v-6.333h-9.5a19,19,0,0,1,0-38H57v-6.333H53.833a25.311,25.311,0,0,0-5.494.607,11.079,11.079,0,0,1,7.077-19.607h7.917V76H57V72.833A19.113,19.113,0,0,1,70.57,54.62l-1.807-6.07a25.485,25.485,0,0,0-18.1,24.284v3.83a17.41,17.41,0,0,0-8.806,27.684,25.483,25.483,0,0,0-11.505,12.819L7.261,140.261l4.478,4.478,16.793-16.793a25.371,25.371,0,0,0,22.134,23.849v3.691a31.358,31.358,0,0,0,15.609,27.093l-8.348,8.348,4.478,4.478,10.063-10.063a31.329,31.329,0,0,0,23.564-1.819l2.752-1.376a19.035,19.035,0,0,0,18.382,14.185h9.5V190h-9.5A12.681,12.681,0,0,1,104.5,177.333Z" fill="#12263f"/>
    </g>
  </g>
</svg>
