<svg xmlns="http://www.w3.org/2000/svg" xmlns:xlink="http://www.w3.org/1999/xlink" width="190" height="190" viewBox="0 0 190 190">
  <defs>
    <clipPath id="clip-path">
      <rect id="Rectángulo_35177" data-name="Rectángulo 35177" width="190" height="190" transform="translate(147 1262)" fill="#fff" stroke="#707070" stroke-width="1"/>
    </clipPath>
  </defs>
  <g id="Enmascarar_grupo_68" data-name="Enmascarar grupo 68" transform="translate(-147 -1262)" clip-path="url(#clip-path)">
    <g id="control-de-calidad" transform="translate(143.139 1258.133)">
      <g id="Grupo_81211" data-name="Grupo 81211">
        <path id="Trazado_156434" data-name="Trazado 156434" d="M189.342,120.719a93.633,93.633,0,0,0,0-43.715H175.371a79.12,79.12,0,0,0-6.959-16.776l9.894-9.886a93.51,93.51,0,0,0-30.925-30.925l-9.886,9.894a79.12,79.12,0,0,0-16.776-6.959V8.38A93.638,93.638,0,0,0,77,8.38V22.352a79.12,79.12,0,0,0-16.776,6.959l-9.886-9.894A93.51,93.51,0,0,0,19.417,50.342l9.894,9.886A79.12,79.12,0,0,0,22.352,77H8.38a93.642,93.642,0,0,0,0,43.715H22.352a79.12,79.12,0,0,0,6.959,16.776l-9.894,9.886a93.51,93.51,0,0,0,30.925,30.925l9.886-9.894A79.12,79.12,0,0,0,77,175.371v13.972a93.655,93.655,0,0,0,43.715,0V175.371a79.12,79.12,0,0,0,16.776-6.959l9.886,9.894a93.51,93.51,0,0,0,30.925-30.925l-9.894-9.886a79.12,79.12,0,0,0,6.959-16.776Zm-90.481,38.8a60.649,60.649,0,1,1,60.661-60.668A60.635,60.635,0,0,1,98.861,159.522Z" fill="#ba68c8"/>
      </g>
      <g id="Grupo_81215" data-name="Grupo 81215">
        <g id="Grupo_81214" data-name="Grupo 81214">
          <path id="Trazado_156436" data-name="Trazado 156436" d="M76.547,191.219a1.919,1.919,0,0,1-1.474-1.878V176.814a81,81,0,0,1-14.5-6.017l-8.866,8.875a1.971,1.971,0,0,1-2.379.278,95.659,95.659,0,0,1-31.558-31.566,1.917,1.917,0,0,1,.278-2.371l8.874-8.867a80.828,80.828,0,0,1-6.017-14.5H8.38A1.926,1.926,0,0,1,6.5,121.175a95.555,95.555,0,0,1,0-44.627A1.927,1.927,0,0,1,8.38,75.074H20.908a80.858,80.858,0,0,1,6.017-14.5L18.05,51.709a1.917,1.917,0,0,1-.278-2.371,94.055,94.055,0,0,1,8.2-11.415c0-.008,0-.015.008-.015a1.977,1.977,0,0,1,2.719-.24,1.934,1.934,0,0,1,.239,2.719,91.871,91.871,0,0,0-7.075,9.677l8.8,8.8a1.929,1.929,0,0,1,.324,2.3,77.906,77.906,0,0,0-6.789,16.374,1.937,1.937,0,0,1-1.854,1.4H9.909a91.921,91.921,0,0,0,0,39.853H22.351a1.936,1.936,0,0,1,1.854,1.4,77.624,77.624,0,0,0,6.789,16.366,1.943,1.943,0,0,1-.324,2.309l-8.8,8.8a92,92,0,0,0,28.2,28.2l8.8-8.813a1.951,1.951,0,0,1,2.3-.317,77.987,77.987,0,0,0,16.374,6.789,1.937,1.937,0,0,1,1.4,1.853v12.443a92.363,92.363,0,0,0,39.853,0V175.37a1.936,1.936,0,0,1,1.4-1.853,77.706,77.706,0,0,0,16.366-6.789,1.965,1.965,0,0,1,2.309.317l8.8,8.812a92.13,92.13,0,0,0,28.2-28.2l-8.812-8.8a1.955,1.955,0,0,1-.325-2.309,77.305,77.305,0,0,0,6.8-16.366,1.937,1.937,0,0,1,1.853-1.4h12.436a91.609,91.609,0,0,0,0-39.853H175.371a1.936,1.936,0,0,1-1.853-1.4,77.552,77.552,0,0,0-6.8-16.374,1.931,1.931,0,0,1,.325-2.3l8.812-8.8a92.075,92.075,0,0,0-28.2-28.2l-8.8,8.813a1.962,1.962,0,0,1-2.309.317,77.21,77.21,0,0,0-16.366-6.781,1.945,1.945,0,0,1-1.4-1.861V9.917a92.1,92.1,0,0,0-39.853-.008V22.351a1.952,1.952,0,0,1-1.4,1.861,77.121,77.121,0,0,0-16.374,6.781,1.952,1.952,0,0,1-2.3-.317l-8.8-8.812a91.718,91.718,0,0,0-10.5,7.771,1.983,1.983,0,0,1-2.726-.209,1.929,1.929,0,0,1,.209-2.719,95.566,95.566,0,0,1,12.28-8.936,1.971,1.971,0,0,1,2.379.278l8.867,8.874a80.836,80.836,0,0,1,14.5-6.017V8.38A1.917,1.917,0,0,1,76.548,6.5a95.974,95.974,0,0,1,44.627,0A1.926,1.926,0,0,1,122.65,8.38V20.908a81.46,81.46,0,0,1,14.5,6.017l8.867-8.874a1.96,1.96,0,0,1,2.371-.278,95.617,95.617,0,0,1,31.566,31.566,1.919,1.919,0,0,1-.278,2.371L170.8,60.576a80.98,80.98,0,0,1,6.017,14.5h12.528a1.928,1.928,0,0,1,1.878,1.474,95.565,95.565,0,0,1,0,44.627,1.928,1.928,0,0,1-1.878,1.475H176.815a81.282,81.282,0,0,1-6.017,14.5l8.874,8.859a1.917,1.917,0,0,1,.278,2.371,95.689,95.689,0,0,1-31.566,31.566,1.962,1.962,0,0,1-2.371-.278l-8.867-8.874a80.949,80.949,0,0,1-14.5,6.017v12.528a1.928,1.928,0,0,1-1.475,1.878,95.553,95.553,0,0,1-44.627,0Zm22.314-29.766a62.58,62.58,0,1,1,62.592-62.739,1.931,1.931,0,0,1-3.862.008,58.678,58.678,0,1,0-1.847,14.8,1.964,1.964,0,0,1,2.356-1.39,1.941,1.941,0,0,1,1.39,2.356A62.639,62.639,0,0,1,98.861,161.453Zm60.2-53.1a1.931,1.931,0,1,1,1.916-1.692.008.008,0,0,1-.008.008,1.932,1.932,0,0,1-1.908,1.685ZM31.3,34.809a1.933,1.933,0,0,1-.023-2.733h.008a1.972,1.972,0,0,1,2.726-.008,1.925,1.925,0,0,1,.022,2.719l-.008.008a1.927,1.927,0,0,1-2.726.015Z" fill="#12263f"/>
        </g>
      </g>
      <g id="Grupo_81221" data-name="Grupo 81221">
        <g id="Grupo_81218" data-name="Grupo 81218">
          <g id="Grupo_81216" data-name="Grupo 81216">
            <path id="Trazado_156437" data-name="Trazado 156437" d="M105,68.3l8.86,12.423L128.7,85.5a7.544,7.544,0,0,1,3.664,11.786l-9.227,11.975.282,15.642a7.544,7.544,0,0,1-10.114,7.228l-14.441-5.235L84.42,132.129A7.544,7.544,0,0,1,74.306,124.9l.282-15.642L65.36,97.283A7.544,7.544,0,0,1,69.024,85.5l14.835-4.775L92.719,68.3A7.544,7.544,0,0,1,105,68.3Z" fill="#f0c020"/>
          </g>
        </g>
        <g id="Grupo_81220" data-name="Grupo 81220">
          <g id="Grupo_81219" data-name="Grupo 81219">
            <path id="Trazado_156439" data-name="Trazado 156439" d="M72.377,124.843l.27-14.945-8.82-11.439a9.475,9.475,0,0,1-.44-10.944,1.968,1.968,0,0,1,2.665-.572,1.935,1.935,0,0,1,.579,2.673,5.605,5.605,0,0,0,.255,6.487l9.23,11.979a1.9,1.9,0,0,1,.4,1.213c0,.012-.285,15.728-.285,15.741a5.617,5.617,0,0,0,7.53,5.275L98.2,125.082a1.832,1.832,0,0,1,1.313,0l14.443,5.229a5.607,5.607,0,0,0,7.523-5.376l-.278-15.64a1.892,1.892,0,0,1,.4-1.213L130.829,96.1a5.608,5.608,0,0,0-2.726-8.766l-14.828-4.774a2,2,0,0,1-.982-.718l-8.859-12.427a5.617,5.617,0,0,0-9.145,0l-8.86,12.427a1.993,1.993,0,0,1-.981.718l-5.036,1.623a1.96,1.96,0,0,1-2.432-1.251A1.94,1.94,0,0,1,78.224,80.5l4.433-1.421,8.488-11.9a9.473,9.473,0,0,1,15.432,0l8.487,11.9,14.227,4.58a9.472,9.472,0,0,1,4.6,14.8l-8.82,11.439c0,.276.271,14.87.271,15.145a9.471,9.471,0,0,1-12.7,8.9l-13.786-5-13.787,5c-6.879,2.481-13.2-3.451-12.7-9.1ZM69.627,85.3a1.928,1.928,0,0,1,1.251-2.425,1.931,1.931,0,0,1,1.182,3.676A1.931,1.931,0,0,1,69.627,85.3Z" fill="#12263f"/>
          </g>
        </g>
      </g>
    </g>
  </g>
</svg>
