<svg xmlns="http://www.w3.org/2000/svg" xmlns:xlink="http://www.w3.org/1999/xlink" width="97" height="97" viewBox="0 0 97 97">
  <defs>
    <clipPath id="clip-path">
      <rect id="Rectángulo_35132" data-name="Rectángulo 35132" width="97" height="97" transform="translate(843 4760)" fill="#fff505"/>
    </clipPath>
  </defs>
  <g id="Enmascarar_grupo_72" data-name="Enmascarar grupo 72" transform="translate(-843 -4760)" clip-path="url(#clip-path)">
    <g id="dia-laboral_1_" data-name="dia-laboral (1)" transform="translate(841.435 4758.436)">
      <g id="Grupo_81280" data-name="Grupo 81280">
        <path id="Trazado_156493" data-name="Trazado 156493" d="M98.565,28.161V79.79H86.048a6.256,6.256,0,0,0-6.258,6.258V97H7.823a6.256,6.256,0,0,1-6.258-6.258V28.161h97Z" fill="#c2e8f7"/>
        <path id="Trazado_156494" data-name="Trazado 156494" d="M28.161,17.21A6.258,6.258,0,1,1,18.774,11.8v3.849A3.152,3.152,0,0,0,21.9,18.774a3.138,3.138,0,0,0,3.129-3.129V11.8A6.227,6.227,0,0,1,28.161,17.21Z" fill="#c2e8f7"/>
        <path id="Trazado_156495" data-name="Trazado 156495" d="M56.323,17.21A6.258,6.258,0,1,1,46.935,11.8v3.849a3.152,3.152,0,0,0,3.129,3.129,3.138,3.138,0,0,0,3.129-3.129V11.8A6.227,6.227,0,0,1,56.323,17.21Z" fill="#c2e8f7"/>
        <path id="Trazado_156496" data-name="Trazado 156496" d="M84.484,17.21A6.258,6.258,0,1,1,75.1,11.8v3.849a3.152,3.152,0,0,0,3.129,3.129,3.138,3.138,0,0,0,3.129-3.129V11.8A6.227,6.227,0,0,1,84.484,17.21Z" fill="#c2e8f7"/>
      </g>
      <path id="Trazado_156497" data-name="Trazado 156497" d="M81.355,11.8v3.849a3.138,3.138,0,0,1-3.129,3.129A3.152,3.152,0,0,1,75.1,15.645V6.258a3.138,3.138,0,0,1,3.129-3.129,3.152,3.152,0,0,1,3.129,3.129V11.8Z" fill="#99d9f2"/>
      <path id="Trazado_156498" data-name="Trazado 156498" d="M53.194,11.8v3.849a3.138,3.138,0,0,1-3.129,3.129,3.152,3.152,0,0,1-3.129-3.129V6.258a3.138,3.138,0,0,1,3.129-3.129,3.152,3.152,0,0,1,3.129,3.129V11.8Z" fill="#99d9f2"/>
      <path id="Trazado_156499" data-name="Trazado 156499" d="M25.032,11.8v3.849A3.138,3.138,0,0,1,21.9,18.774a3.152,3.152,0,0,1-3.129-3.129V6.258A3.138,3.138,0,0,1,21.9,3.129a3.152,3.152,0,0,1,3.129,3.129V11.8Z" fill="#99d9f2"/>
      <path id="Trazado_156500" data-name="Trazado 156500" d="M92.306,7.823H81.355V11.8a6.258,6.258,0,1,1-6.258,0V7.823h-21.9V11.8a6.258,6.258,0,1,1-6.258,0V7.823h-21.9V11.8a6.258,6.258,0,1,1-6.258,0V7.823H7.823a6.256,6.256,0,0,0-6.258,6.258V28.161h97V14.081A6.256,6.256,0,0,0,92.306,7.823Z" fill="#f2921d"/>
      <path id="Trazado_156501" data-name="Trazado 156501" d="M7.823,7.823H18.774a6.256,6.256,0,0,0-6.258,6.258V28.161H1.565V14.081A6.256,6.256,0,0,1,7.823,7.823Z" fill="#e87a0c"/>
      <path id="Trazado_156502" data-name="Trazado 156502" d="M84.3,18.7A6.253,6.253,0,0,1,71.968,17.21a6.09,6.09,0,0,1,1.611-4.162,5.743,5.743,0,0,0-.188,1.471,6.256,6.256,0,0,0,6.258,6.258A6.17,6.17,0,0,0,84.3,18.7Z" fill="#8be5ea"/>
      <path id="Trazado_156503" data-name="Trazado 156503" d="M56.229,18.258a6.255,6.255,0,1,1-11.171-4.8,5.979,5.979,0,0,0-.094,1.064,6.25,6.25,0,0,0,11.265,3.739Z" fill="#8be5ea"/>
      <path id="Trazado_156504" data-name="Trazado 156504" d="M27.786,19.322a6.255,6.255,0,1,1-10.295-6.555,5.883,5.883,0,0,0-.375,2.112,6.262,6.262,0,0,0,10.67,4.443Z" fill="#8be5ea"/>
      <path id="Trazado_156505" data-name="Trazado 156505" d="M18.852,86.831a6.256,6.256,0,0,1-6.258-6.258V28.161H1.565V90.742A6.256,6.256,0,0,0,7.823,97H79.79V86.831Z" fill="#8be5ea"/>
      <path id="Trazado_156506" data-name="Trazado 156506" d="M79.149,17.851a2.837,2.837,0,0,0,.641.5,3.121,3.121,0,0,1-1.565.422A3.152,3.152,0,0,1,75.1,15.645V6.258A3.125,3.125,0,0,1,79.79,3.551a3.123,3.123,0,0,0-1.565,2.707v9.387A3.059,3.059,0,0,0,79.149,17.851Z" fill="#6cd0ef"/>
      <path id="Trazado_156507" data-name="Trazado 156507" d="M50.988,17.851a2.836,2.836,0,0,0,.641.5,3.121,3.121,0,0,1-1.565.422,3.152,3.152,0,0,1-3.129-3.129V6.258a3.125,3.125,0,0,1,4.694-2.707,3.123,3.123,0,0,0-1.565,2.707v9.387A3.059,3.059,0,0,0,50.988,17.851Z" fill="#6cd0ef"/>
      <path id="Trazado_156508" data-name="Trazado 156508" d="M22.826,17.851a2.837,2.837,0,0,0,.641.5,3.121,3.121,0,0,1-1.565.422,3.152,3.152,0,0,1-3.129-3.129V6.258a3.125,3.125,0,0,1,4.694-2.707A3.123,3.123,0,0,0,21.9,6.258v9.387A3.059,3.059,0,0,0,22.826,17.851Z" fill="#6cd0ef"/>
      <path id="Trazado_156509" data-name="Trazado 156509" d="M23.139,71.514h49.7a3.825,3.825,0,0,1,0,7.65h-49.7a3.825,3.825,0,1,1,0-7.65Z" fill="#f2ca50"/>
      <path id="Trazado_156510" data-name="Trazado 156510" d="M76.646,75.785a3.815,3.815,0,0,1-3.8,3.379h-49.7a3.819,3.819,0,0,1-1.2-7.447,3.81,3.81,0,0,0,3.8,4.255h49.7A3.809,3.809,0,0,0,76.646,75.785Z" fill="#f2921d"/>
      <path id="Trazado_156511" data-name="Trazado 156511" d="M54.727,71.4v.11H41.241V42.727a5.7,5.7,0,0,1,.063-.892,6.738,6.738,0,0,1,13.361,0,5.7,5.7,0,0,1,.063.892Z" fill="#f2ca50"/>
      <path id="Trazado_156512" data-name="Trazado 156512" d="M53.272,38.55a5.633,5.633,0,0,0-1.033-.094,6.753,6.753,0,0,0-6.68,5.851,5.833,5.833,0,0,0-.063.892V71.514H41.241V42.727a5.7,5.7,0,0,1,.063-.892,6.746,6.746,0,0,1,11.452-3.88,6.106,6.106,0,0,1,.516.595Z" fill="#f2921d"/>
      <path id="Trazado_156513" data-name="Trazado 156513" d="M32.808,46.106a25.263,25.263,0,0,1,8.5-4.271,5.7,5.7,0,0,0-.063.892V71.514h-18.1V65.788a24.743,24.743,0,0,1,7.275-17.57A25.663,25.663,0,0,1,32.808,46.106Z" fill="#f2921d"/>
      <path id="Trazado_156514" data-name="Trazado 156514" d="M41.3,41.835a5.7,5.7,0,0,0-.063.892V71.514H35.921V44.072A25.043,25.043,0,0,1,41.3,41.835Z" fill="#f26835"/>
      <path id="Trazado_156515" data-name="Trazado 156515" d="M63.175,46.122a24.781,24.781,0,0,1,9.653,19.666v5.726h-18.1V42.727a5.7,5.7,0,0,0-.063-.892,25.052,25.052,0,0,1,8.511,4.271Z" fill="#f2921d"/>
      <path id="Trazado_156516" data-name="Trazado 156516" d="M60.03,44.041V71.514h-5.3V42.727a5.7,5.7,0,0,0-.063-.892A25.3,25.3,0,0,1,60.03,44.041Z" fill="#f26835"/>
      <path id="Trazado_156517" data-name="Trazado 156517" d="M98.565,79.79,79.79,97V86.048a6.256,6.256,0,0,1,6.258-6.258Z" fill="#6cd0ef"/>
      <g id="Grupo_81284" data-name="Grupo 81284">
        <path id="Trazado_156521" data-name="Trazado 156521" d="M34.372,45V56.229a1.565,1.565,0,0,1-3.129,0V47.436c.5-.469,1.017-.907,1.565-1.33C33.309,45.715,33.84,45.34,34.372,45Z" fill="#f7ddad"/>
      </g>
      <g id="Grupo_81285" data-name="Grupo 81285">
        <path id="Trazado_156522" data-name="Trazado 156522" d="M64.74,47.467v8.761a1.565,1.565,0,0,1-3.129,0V45c.532.344,1.064.72,1.565,1.111v.016a18.2,18.2,0,0,1,1.565,1.345Z" fill="#f7ddad"/>
      </g>
      <g id="Grupo_81286" data-name="Grupo 81286">
        <path id="Trazado_156523" data-name="Trazado 156523" d="M92.306,37.548H84.484a1.565,1.565,0,0,1,0-3.129h7.823a1.565,1.565,0,0,1,0,3.129Z" fill="#21a2bf"/>
      </g>
      <g id="Grupo_81287" data-name="Grupo 81287">
        <path id="Trazado_156524" data-name="Trazado 156524" d="M92.306,43.806H79.79a1.565,1.565,0,1,1,0-3.129H92.306a1.565,1.565,0,0,1,0,3.129Z" fill="#21a2bf"/>
      </g>
    </g>
  </g>
</svg>
