<svg xmlns="http://www.w3.org/2000/svg" xmlns:xlink="http://www.w3.org/1999/xlink" width="1328" height="6166" viewBox="0 0 1328 6166">
  <defs>
    <linearGradient id="linear-gradient" x1="0.667" y1="1.795" x2="0.41" gradientUnits="objectBoundingBox">
      <stop offset="0" stop-color="#d8ccec"/>
      <stop offset="1" stop-color="#d9edfc"/>
    </linearGradient>
  </defs>
  <g id="Grupo_81532" data-name="Grupo 81532" transform="translate(-136 -240)">
    <rect id="Rectángulo_575" data-name="Rectángulo 575" width="1328" height="6166" rx="20" transform="translate(136 240)" fill="#fff"/>
    <path id="Trazado_146803" data-name="Trazado 146803" d="M7356,2749.505V1534.6h-.3V1345.758c-3.4,3.052-6.541,6.332-10.249,9.117-27.771,20.864-53.827,43.572-83.885,62.016-59.6,36.562-125.685,42.859-195.14,19.284q-36.258-12.307-71.564-26.416c-43.56-17.455-88.791-27.827-137.993-25.505-30.8,1.453-57.989,9.169-81.694,25.359-35.479,24.233-60.184,55.627-88.137,84.911-14.812,15.517-29.934,30.966-46.533,45.219-34.137,29.312-75.608,42.734-126.534,39.081-54.781-3.93-100.545-18.845-133.614-56.123-27.595-31.107-55.555-62.149-85.981-91.436-49.25-47.405-113.562-63.355-187.94-51.123-26.627,4.377-52.316,12.464-78.436,18.856V2749.505Z" transform="translate(7491.999 4216.505) rotate(180)" fill="url(#linear-gradient)"/>
    <path id="Trazado_156567" data-name="Trazado 156567" d="M7356,2749.505V1534.6h-.3V1345.758c-3.4,3.052-6.541,6.332-10.249,9.117-27.771,20.864-53.827,43.572-83.885,62.016-59.6,36.562-125.685,42.859-195.14,19.284q-36.258-12.307-71.564-26.416c-43.56-17.455-88.791-27.827-137.993-25.505-30.8,1.453-57.989,9.169-81.694,25.359-35.479,24.233-60.184,55.627-88.137,84.911-14.812,15.517-29.934,30.966-46.533,45.219-34.137,29.312-75.608,42.734-126.534,39.081-54.781-3.93-100.545-18.845-133.614-56.123-27.595-31.107-55.555-62.149-85.981-91.436-49.25-47.405-113.562-63.355-187.94-51.123-26.627,4.377-52.316,12.464-78.436,18.856V2749.505Z" transform="translate(-5891.999 3540.67)" fill="url(#linear-gradient)"/>
  </g>
</svg>
