<svg xmlns="http://www.w3.org/2000/svg" width="1329.299" height="6743" viewBox="0 0 1329.299 6743">
  <g id="Grupo_81534" data-name="Grupo 81534" transform="translate(-135.5 -240)">
    <rect id="Rectángulo_575" data-name="Rectángulo 575" width="1328" height="6743" rx="20" transform="translate(136 240)" fill="#fff"/>
    <path id="Trazado_145973" data-name="Trazado 145973" d="M7355.7-79.838l.3,1522.193h-.3v233.807c-3.4-3.778-6.541-7.839-10.249-11.288-27.771-25.831-53.827-53.946-83.885-76.781-59.6-45.266-125.685-53.063-195.14-23.875q-36.259,15.236-71.565,32.7c-43.56,21.61-88.791,34.452-137.994,31.578-30.795-1.8-57.989-11.352-81.694-31.4-35.479-30-60.184-68.871-88.137-105.126-14.812-19.212-29.933-38.339-46.532-55.985-34.138-36.291-75.609-52.908-126.535-48.386-54.782,4.866-100.545,23.331-133.615,69.485-27.594,38.513-55.554,76.946-85.981,113.205-49.25,58.692-113.563,78.438-187.941,63.295-26.627-5.419-52.316-15.431-78.435-23.346l-.3-1690.086Z" transform="translate(7492 4488.162) rotate(180)" fill="#e8f4fe" stroke="rgba(0,0,0,0)" stroke-miterlimit="10" stroke-width="1"/>
  </g>
</svg>
