<svg xmlns="http://www.w3.org/2000/svg" xmlns:xlink="http://www.w3.org/1999/xlink" width="202.97" height="200" viewBox="0 0 202.97 200">
  <defs>
    <clipPath id="clip-path">
      <rect id="Rect치ngulo_35623" data-name="Rect치ngulo 35623" width="202.97" height="200" transform="translate(1146 6908)" fill="#fff" stroke="#707070" stroke-width="1"/>
    </clipPath>
  </defs>
  <g id="Enmascarar_grupo_53" data-name="Enmascarar grupo 53" transform="translate(-1146 -6908)" clip-path="url(#clip-path)">
    <g id="Filledoutline" transform="translate(1141.389 6901.333)">
      <rect id="Rect치ngulo_35627" data-name="Rect치ngulo 35627" width="113.333" height="156.667" rx="10" transform="translate(60 23.333)" fill="#0093b9"/>
      <path id="Trazado_154288" data-name="Trazado 154288" d="M73.333,36.667H160v130H73.333Z" fill="#e3e4e2"/>
      <path id="Trazado_154289" data-name="Trazado 154289" d="M140,36.667H93.333V23.333h13.333L103.333,10H130l-3.333,13.333H140Z" fill="#57c3c1"/>
      <path id="Trazado_154290" data-name="Trazado 154290" d="M133.333,203.333h-120V96.667h60V150h60Z" fill="#f8bc1e"/>
      <path id="Trazado_154291" data-name="Trazado 154291" d="M93.333,150h20v20h-20Z" fill="#f9da62"/>
      <path id="Trazado_154292" data-name="Trazado 154292" d="M133.333,153.333h-5a5,5,0,0,0-5,5v8.46A26.541,26.541,0,0,1,96.8,193.333H81.667a5,5,0,0,0-5,5v5h56.667Z" fill="#f5a922"/>
      <path id="Trazado_154293" data-name="Trazado 154293" d="M33.333,150h20v20h-20Z" fill="#f9da62"/>
      <path id="Trazado_154294" data-name="Trazado 154294" d="M73.333,153.333h-5a5,5,0,0,0-5,5v8.46A26.541,26.541,0,0,1,36.8,193.333H21.667a5,5,0,0,0-5,5v5H73.333Z" fill="#f5a922"/>
      <path id="Trazado_154295" data-name="Trazado 154295" d="M33.333,96.667h20v20h-20Z" fill="#f9da62"/>
      <path id="Trazado_154296" data-name="Trazado 154296" d="M73.333,100h-5a5,5,0,0,0-5,5v8.46A26.541,26.541,0,0,1,36.8,140H21.667a5,5,0,0,0-5,5v5H73.333Z" fill="#f5a922"/>
      <path id="Trazado_154297" data-name="Trazado 154297" d="M194.1,109.145,104.685,135.9,90,133.333l10.863-10.208L190.28,96.372a6.666,6.666,0,1,1,3.822,12.773Z" fill="#f8bc1e"/>
      <path id="Trazado_154298" data-name="Trazado 154298" d="M201.771,99.892a10,10,0,0,0-12.446-6.714L99.908,119.931a3.34,3.34,0,0,0-1.327.765L87.717,130.9a3.333,3.333,0,0,0,1.708,5.713l14.685,2.565a3.341,3.341,0,0,0,1.529-.09l72.553-21.708.314,6.865-23.054,6.9,1.911,6.387,25.548-7.644a3.333,3.333,0,0,0,2.375-3.345l-.51-11.127,10.28-3.076a10,10,0,0,0,6.714-12.447ZM104.483,132.48,97.141,131.2l5.432-5.1,15.213-4.551,1.911,6.387Zm21.6-6.463-1.911-6.387,53.393-15.975.314,6.865Zm69.042-21.676a3.313,3.313,0,0,1-1.978,1.611l-8.684,2.6-.314-6.865,7.087-2.12a3.333,3.333,0,0,1,3.889,4.776Z" fill="#5c22c3"/>
      <path id="Trazado_154299" data-name="Trazado 154299" d="M133.333,146.667H76.667v-50a3.333,3.333,0,0,0-3.333-3.333h-60A3.333,3.333,0,0,0,10,96.667V203.333a3.333,3.333,0,0,0,3.333,3.333h120a3.333,3.333,0,0,0,3.333-3.333V150A3.333,3.333,0,0,0,133.333,146.667Zm-36.667,6.667H110v13.333H96.667ZM36.667,100H50v13.333H36.667Zm-20,0H30v16.667A3.333,3.333,0,0,0,33.333,120h20a3.333,3.333,0,0,0,3.333-3.333V100H70v46.667H16.667Zm20,53.333H50v13.333H36.667Zm-20,0H30V170a3.333,3.333,0,0,0,3.333,3.333h20A3.333,3.333,0,0,0,56.667,170V153.333H70V200H16.667ZM130,200H76.667V153.333H90V170a3.333,3.333,0,0,0,3.333,3.333h20A3.333,3.333,0,0,0,116.667,170V153.333H130Z" fill="#5c22c3"/>
      <path id="Trazado_154300" data-name="Trazado 154300" d="M116.667,186.667h6.667v6.667h-6.667Z" fill="#5c22c3"/>
      <path id="Trazado_154301" data-name="Trazado 154301" d="M56.667,186.667h6.667v6.667H56.667Z" fill="#5c22c3"/>
      <path id="Trazado_154302" data-name="Trazado 154302" d="M56.667,133.333h6.667V140H56.667Z" fill="#5c22c3"/>
      <path id="Trazado_154303" data-name="Trazado 154303" d="M63.333,33.333A6.675,6.675,0,0,1,70,26.667H90v6.667H73.333A3.333,3.333,0,0,0,70,36.667v50h6.667V40h80V93.333h6.667V36.667A3.333,3.333,0,0,0,160,33.333H143.333V26.667h20A6.675,6.675,0,0,1,170,33.333V90h6.667V33.333A13.348,13.348,0,0,0,163.333,20h-32.4l2.3-9.192A3.333,3.333,0,0,0,130,6.667H103.333a3.333,3.333,0,0,0-3.234,4.142L102.4,20H70A13.348,13.348,0,0,0,56.667,33.333V86.667h6.667Zm33.333-6.667h10a3.333,3.333,0,0,0,3.234-4.142l-2.3-9.192h18.128l-2.3,9.192a3.333,3.333,0,0,0,3.234,4.142h10v6.667h-40Z" fill="#5c22c3"/>
      <path id="Trazado_154304" data-name="Trazado 154304" d="M170,170a6.675,6.675,0,0,1-6.667,6.667h-20v6.667h20A13.348,13.348,0,0,0,176.667,170V140H170Z" fill="#5c22c3"/>
      <path id="Trazado_154305" data-name="Trazado 154305" d="M163.333,166.667V143.333h-6.667v20H143.333V170H160A3.333,3.333,0,0,0,163.333,166.667Z" fill="#5c22c3"/>
      <path id="Trazado_154306" data-name="Trazado 154306" d="M103.333,50A3.333,3.333,0,0,0,100,46.667H86.667A3.333,3.333,0,0,0,83.333,50V63.333a3.333,3.333,0,0,0,3.333,3.333H100a3.333,3.333,0,0,0,3.333-3.333ZM96.667,60H90V53.333h6.667Z" fill="#5c22c3"/>
      <path id="Trazado_154307" data-name="Trazado 154307" d="M100,76.667H86.667A3.333,3.333,0,0,0,83.333,80V93.333a3.333,3.333,0,0,0,3.333,3.333H100a3.333,3.333,0,0,0,3.333-3.333V80A3.333,3.333,0,0,0,100,76.667ZM96.667,90H90V83.333h6.667Z" fill="#5c22c3"/>
      <path id="Trazado_154308" data-name="Trazado 154308" d="M110,46.667h6.667v6.667H110Z" fill="#5c22c3"/>
      <path id="Trazado_154309" data-name="Trazado 154309" d="M110,60h40v6.667H110Z" fill="#5c22c3"/>
      <path id="Trazado_154310" data-name="Trazado 154310" d="M123.333,46.667H150v6.667H123.333Z" fill="#5c22c3"/>
      <path id="Trazado_154311" data-name="Trazado 154311" d="M110,76.667h6.667v6.667H110Z" fill="#5c22c3"/>
      <path id="Trazado_154312" data-name="Trazado 154312" d="M110,90h40v6.667H110Z" fill="#5c22c3"/>
      <path id="Trazado_154313" data-name="Trazado 154313" d="M123.333,76.667H150v6.667H123.333Z" fill="#5c22c3"/>
    </g>
  </g>
</svg>
