<svg xmlns="http://www.w3.org/2000/svg" width="1070" height="602" viewBox="0 0 1070 602">
  <g id="Grupo_81527" data-name="Grupo 81527" transform="translate(0 0.07)">
    <rect id="Rectángulo_34898" data-name="Rectángulo 34898" width="1070" height="602" transform="translate(0 -0.07)" fill="#ddf2f2"/>
    <g id="Grupo_78617" data-name="Grupo 78617" transform="translate(-59 -239.677)">
      <rect id="Rectángulo_34980" data-name="Rectángulo 34980" width="976" height="465" transform="translate(101 342.608)" fill="#fff"/>
      <g id="Grupo_78580" data-name="Grupo 78580" transform="translate(101.423 475.729)">
        <g id="Grupo_78567" data-name="Grupo 78567">
          <path id="Trazado_146673" data-name="Trazado 146673" d="M1077.077,842.025H101.5V509.5h975.577Zm-974.731-.846h973.885V510.346H102.346Z" transform="translate(-101.5 -509.5)"/>
        </g>
        <g id="Grupo_78568" data-name="Grupo 78568" transform="translate(0.423 306.165)">
          <rect id="Rectángulo_34961" data-name="Rectángulo 34961" width="974.731" height="0.846"/>
        </g>
        <g id="Grupo_78569" data-name="Grupo 78569" transform="translate(0.423 280.652)">
          <rect id="Rectángulo_34962" data-name="Rectángulo 34962" width="974.731" height="0.846"/>
        </g>
        <g id="Grupo_78570" data-name="Grupo 78570" transform="translate(0.423 255.138)">
          <rect id="Rectángulo_34963" data-name="Rectángulo 34963" width="974.731" height="0.846"/>
        </g>
        <g id="Grupo_78571" data-name="Grupo 78571" transform="translate(0.423 229.624)">
          <rect id="Rectángulo_34964" data-name="Rectángulo 34964" width="974.731" height="0.846"/>
        </g>
        <g id="Grupo_78572" data-name="Grupo 78572" transform="translate(0.423 204.11)">
          <rect id="Rectángulo_34965" data-name="Rectángulo 34965" width="974.731" height="0.846"/>
        </g>
        <g id="Grupo_78573" data-name="Grupo 78573" transform="translate(0.423 178.597)">
          <rect id="Rectángulo_34966" data-name="Rectángulo 34966" width="974.731" height="0.846"/>
        </g>
        <g id="Grupo_78574" data-name="Grupo 78574" transform="translate(0.423 153.083)">
          <rect id="Rectángulo_34967" data-name="Rectángulo 34967" width="974.731" height="0.846"/>
        </g>
        <g id="Grupo_78575" data-name="Grupo 78575" transform="translate(0.423 127.569)">
          <rect id="Rectángulo_34968" data-name="Rectángulo 34968" width="974.731" height="0.846"/>
        </g>
        <g id="Grupo_78576" data-name="Grupo 78576" transform="translate(0.423 102.055)">
          <rect id="Rectángulo_34969" data-name="Rectángulo 34969" width="974.731" height="0.846"/>
        </g>
        <g id="Grupo_78577" data-name="Grupo 78577" transform="translate(0.423 76.542)">
          <rect id="Rectángulo_34970" data-name="Rectángulo 34970" width="974.731" height="0.846"/>
        </g>
        <g id="Grupo_78578" data-name="Grupo 78578" transform="translate(0.423 51.028)">
          <rect id="Rectángulo_34971" data-name="Rectángulo 34971" width="974.731" height="0.846"/>
        </g>
        <g id="Grupo_78579" data-name="Grupo 78579" transform="translate(0.423 25.514)">
          <rect id="Rectángulo_34972" data-name="Rectángulo 34972" width="974.731" height="0.846"/>
        </g>
      </g>
      <g id="Grupo_78581" data-name="Grupo 78581" transform="translate(152.613 418.193)">
        <rect id="Rectángulo_34973" data-name="Rectángulo 34973" width="0.846" height="389.211"/>
      </g>
      <g id="Grupo_78582" data-name="Grupo 78582" transform="translate(258.378 418.62)">
        <rect id="Rectángulo_34974" data-name="Rectángulo 34974" width="0.846" height="389.212"/>
      </g>
      <g id="Grupo_78583" data-name="Grupo 78583" transform="translate(672.131 344.157)">
        <rect id="Rectángulo_34975" data-name="Rectángulo 34975" width="0.846" height="463.674"/>
      </g>
      <g id="Grupo_78584" data-name="Grupo 78584" transform="translate(771.974 418.62)">
        <rect id="Rectángulo_34976" data-name="Rectángulo 34976" width="0.846" height="389.212"/>
      </g>
      <g id="Grupo_78585" data-name="Grupo 78585" transform="translate(913.276 448.493)">
        <rect id="Rectángulo_34977" data-name="Rectángulo 34977" width="0.846" height="359.338"/>
      </g>
      <g id="Grupo_78586" data-name="Grupo 78586" transform="translate(101 417.77)">
        <path id="Trazado_146674" data-name="Trazado 146674" d="M1076.577,499.382H101V441h975.577Zm-974.731-.846h973.885v-56.69H101.846Z" transform="translate(-101 -441)"/>
      </g>
      <g id="Grupo_78587" data-name="Grupo 78587" transform="translate(101.423 343.311)">
        <path id="Trazado_146675" data-name="Trazado 146675" d="M1076.654,428.3H101.5V353h975.154Zm-974.308-.846h973.462V353.846H102.346Z" transform="translate(-101.5 -353)"/>
      </g>
      <g id="Grupo_78588" data-name="Grupo 78588" transform="translate(102.267 381.387)">
        <rect id="Rectángulo_34978" data-name="Rectángulo 34978" width="973.887" height="0.846"/>
      </g>
      <g id="Grupo_78589" data-name="Grupo 78589" transform="translate(772.397 448.23)">
        <rect id="Rectángulo_34979" data-name="Rectángulo 34979" width="303.757" height="0.846"/>
      </g>
      <g id="Grupo_78590" data-name="Grupo 78590" transform="translate(139.536 358.393)">
        <path id="Trazado_146676" data-name="Trazado 146676" d="M156.269,383.871h-2.412l-4.851-8.114-.049.008v8.106h-2.413V371.84h2.413l4.85,8.106.05-.008v-8.1h2.412Z" transform="translate(-146.544 -370.98)"/>
        <path id="Trazado_146677" data-name="Trazado 146677" d="M160,379.85a4.8,4.8,0,0,1,1.115-3.276,3.889,3.889,0,0,1,3.091-1.277,3.93,3.93,0,0,1,3.107,1.273,4.773,4.773,0,0,1,1.124,3.28v.173a4.783,4.783,0,0,1-1.12,3.285,4.419,4.419,0,0,1-6.2,0A4.782,4.782,0,0,1,160,380.023Zm2.4.173a3.884,3.884,0,0,0,.43,1.962,1.65,1.65,0,0,0,2.755,0,3.86,3.86,0,0,0,.434-1.958v-.173a3.832,3.832,0,0,0-.437-1.942,1.483,1.483,0,0,0-1.38-.752,1.464,1.464,0,0,0-1.368.756,3.864,3.864,0,0,0-.433,1.938Z" transform="translate(-148.615 -371.512)"/>
        <path id="Trazado_146678" data-name="Trazado 146678" d="M173.969,375.462l.1,1.182a3.01,3.01,0,0,1,1.079-1,3.093,3.093,0,0,1,1.5-.351,2.732,2.732,0,0,1,1.471.38,2.339,2.339,0,0,1,.926,1.149,3.093,3.093,0,0,1,1.075-1.124,2.919,2.919,0,0,1,1.553-.4,2.547,2.547,0,0,1,2.086.938,4.473,4.473,0,0,1,.765,2.863V384.4h-2.413v-5.314a2.5,2.5,0,0,0-.331-1.5,1.172,1.172,0,0,0-.983-.421,1.681,1.681,0,0,0-.888.227,1.651,1.651,0,0,0-.6.632q0,.157.008.269c.006.074.008.15.008.227V384.4h-2.4v-5.314a2.518,2.518,0,0,0-.33-1.483,1.171,1.171,0,0,0-.992-.433,1.879,1.879,0,0,0-.855.185,1.638,1.638,0,0,0-.608.525V384.4h-2.4v-8.941Z" transform="translate(-150.419 -371.512)"/>
        <path id="Trazado_146679" data-name="Trazado 146679" d="M197.1,379.492a5.231,5.231,0,0,1-.892,3.2,3.018,3.018,0,0,1-2.578,1.2,2.729,2.729,0,0,1-1.367-.331,2.818,2.818,0,0,1-.987-.967l-.2,1.124h-2.041V370.824h2.4v4.9a2.729,2.729,0,0,1,.93-.826,2.594,2.594,0,0,1,1.243-.289,2.963,2.963,0,0,1,2.6,1.284,5.9,5.9,0,0,1,.892,3.425Zm-2.4-.173a4.661,4.661,0,0,0-.384-2.07,1.349,1.349,0,0,0-1.31-.764,1.8,1.8,0,0,0-.95.235,1.637,1.637,0,0,0-.612.674v3.785a1.534,1.534,0,0,0,.616.619,1.981,1.981,0,0,0,.962.215,1.372,1.372,0,0,0,1.306-.657,3.828,3.828,0,0,0,.372-1.864Z" transform="translate(-153.082 -370.824)"/>
        <path id="Trazado_146680" data-name="Trazado 146680" d="M205.025,377.536l-.884-.025a1.606,1.606,0,0,0-.884.223,1.421,1.421,0,0,0-.529.628v6.04h-2.4v-8.941h2.24l.107,1.322a2.811,2.811,0,0,1,.814-1.095,1.812,1.812,0,0,1,1.152-.393,1.784,1.784,0,0,1,.334.029c.1.02.206.042.311.07Z" transform="translate(-154.82 -371.512)"/>
        <path id="Trazado_146681" data-name="Trazado 146681" d="M210.987,384.576a4.025,4.025,0,0,1-3.124-1.228,4.5,4.5,0,0,1-1.124-3.16v-.33a4.9,4.9,0,0,1,1.091-3.289,3.71,3.71,0,0,1,3-1.273,3.471,3.471,0,0,1,2.764,1.1,4.356,4.356,0,0,1,.963,2.97v1.248h-5.33l-.025.05a2.416,2.416,0,0,0,.558,1.487,1.864,1.864,0,0,0,1.483.57,4.98,4.98,0,0,0,1.376-.165,5.633,5.633,0,0,0,1.168-.5l.653,1.488a4.469,4.469,0,0,1-1.454.735A6.46,6.46,0,0,1,210.987,384.576Zm-.157-7.42a1.34,1.34,0,0,0-1.119.5,2.508,2.508,0,0,0-.476,1.326l.017.041h2.942v-.182a2.089,2.089,0,0,0-.322-1.235A1.192,1.192,0,0,0,210.829,377.156Z" transform="translate(-155.807 -371.512)"/>
        <path id="Trazado_146682" data-name="Trazado 146682" d="M220.363,377.119H217.95V375h2.413Zm0,7.239H217.95v-2.115h2.413Z" transform="translate(-157.532 -371.467)"/>
      </g>
      <g id="Grupo_78591" data-name="Grupo 78591" transform="translate(139.246 391.231)">
        <path id="Trazado_146683" data-name="Trazado 146683" d="M155.514,417.857l.017.049a3.769,3.769,0,0,1-1.174,3.016,4.786,4.786,0,0,1-3.33,1.091,4.613,4.613,0,0,1-3.5-1.393,5,5,0,0,1-1.33-3.6v-2.388a5.087,5.087,0,0,1,1.3-3.6,4.427,4.427,0,0,1,3.4-1.4,5.079,5.079,0,0,1,3.437,1.074,3.7,3.7,0,0,1,1.207,3.025l-.016.049h-2.347a2.366,2.366,0,0,0-.558-1.723,2.327,2.327,0,0,0-1.723-.566,1.944,1.944,0,0,0-1.69.871,3.853,3.853,0,0,0-.608,2.252v2.4a3.739,3.739,0,0,0,.641,2.264,2.082,2.082,0,0,0,1.78.876,2.117,2.117,0,0,0,1.615-.566,2.461,2.461,0,0,0,.533-1.739Z" transform="translate(-146.202 -409.635)"/>
        <path id="Trazado_146684" data-name="Trazado 146684" d="M164.243,422.4a5.12,5.12,0,0,1-.227-.645,4.432,4.432,0,0,1-.137-.694,3.3,3.3,0,0,1-.983,1.082,2.465,2.465,0,0,1-1.454.43,3.019,3.019,0,0,1-2.165-.723,2.59,2.59,0,0,1-.76-1.971,2.357,2.357,0,0,1,1.012-2.037,5.053,5.053,0,0,1,2.954-.723h1.355v-.71a1.392,1.392,0,0,0-.339-1,1.328,1.328,0,0,0-1.008-.355,1.309,1.309,0,0,0-.9.285.993.993,0,0,0-.318.781h-2.323l-.016-.05a2.267,2.267,0,0,1,.987-1.954,4.286,4.286,0,0,1,2.73-.822,4,4,0,0,1,2.607.81,2.82,2.82,0,0,1,1,2.322v3.693a6.889,6.889,0,0,0,.1,1.182,5.931,5.931,0,0,0,.3,1.1Zm-2.206-1.612a2.051,2.051,0,0,0,1.124-.314,1.688,1.688,0,0,0,.678-.727v-1.264h-1.355a1.609,1.609,0,0,0-1.161.38,1.246,1.246,0,0,0-.393.933.931.931,0,0,0,.294.723A1.163,1.163,0,0,0,162.037,420.791Z" transform="translate(-148.097 -410.199)"/>
        <path id="Trazado_146685" data-name="Trazado 146685" d="M174.5,415.536l-.884-.025a1.605,1.605,0,0,0-.884.223,1.41,1.41,0,0,0-.529.628v6.04h-2.4v-8.941h2.239l.107,1.322a2.82,2.82,0,0,1,.814-1.095,1.816,1.816,0,0,1,1.153-.393,1.784,1.784,0,0,1,.334.029c.1.019.2.042.31.07Z" transform="translate(-149.833 -410.199)"/>
        <path id="Trazado_146686" data-name="Trazado 146686" d="M176.231,418.007a5.794,5.794,0,0,1,.917-3.412,2.977,2.977,0,0,1,2.578-1.3,2.538,2.538,0,0,1,1.322.338,2.969,2.969,0,0,1,.975.967l.19-1.141h2.074v8.9a3.321,3.321,0,0,1-1.141,2.7,4.811,4.811,0,0,1-3.181.954,6.039,6.039,0,0,1-1.438-.186,6.666,6.666,0,0,1-1.4-.508l.405-1.8a5.568,5.568,0,0,0,1.144.4,5.7,5.7,0,0,0,1.277.136,2.161,2.161,0,0,0,1.459-.414,1.633,1.633,0,0,0,.466-1.289v-.81a2.693,2.693,0,0,1-.933.768,2.744,2.744,0,0,1-1.231.265,3.034,3.034,0,0,1-2.562-1.207,5.14,5.14,0,0,1-.917-3.19Zm2.413.173a3.667,3.667,0,0,0,.393,1.847,1.37,1.37,0,0,0,1.284.673,2,2,0,0,0,.938-.2,1.541,1.541,0,0,0,.615-.591v-3.875a1.649,1.649,0,0,0-.615-.636,1.812,1.812,0,0,0-.921-.223,1.353,1.353,0,0,0-1.289.784,4.465,4.465,0,0,0-.405,2.049Z" transform="translate(-150.823 -410.199)"/>
        <path id="Trazado_146687" data-name="Trazado 146687" d="M187.5,417.85a4.8,4.8,0,0,1,1.115-3.276,3.889,3.889,0,0,1,3.091-1.277,3.93,3.93,0,0,1,3.107,1.273,4.773,4.773,0,0,1,1.124,3.28v.173a4.783,4.783,0,0,1-1.12,3.285,4.419,4.419,0,0,1-6.2,0,4.782,4.782,0,0,1-1.119-3.285Zm2.4.173a3.884,3.884,0,0,0,.43,1.962,1.65,1.65,0,0,0,2.755,0,3.86,3.86,0,0,0,.434-1.958v-.173a3.832,3.832,0,0,0-.437-1.942,1.483,1.483,0,0,0-1.38-.752,1.464,1.464,0,0,0-1.368.756,3.864,3.864,0,0,0-.433,1.938Z" transform="translate(-152.557 -410.199)"/>
        <path id="Trazado_146688" data-name="Trazado 146688" d="M201.955,415.119h-2.413V413h2.413Zm0,7.239h-2.413v-2.115h2.413Z" transform="translate(-154.41 -410.153)"/>
      </g>
      <g id="Grupo_78592" data-name="Grupo 78592" transform="translate(688.379 358.393)">
        <path id="Trazado_146689" data-name="Trazado 146689" d="M804.514,379.857l.017.049a3.77,3.77,0,0,1-1.174,3.016,4.786,4.786,0,0,1-3.33,1.091,4.613,4.613,0,0,1-3.5-1.393,5,5,0,0,1-1.33-3.6v-2.388a5.087,5.087,0,0,1,1.3-3.6,4.427,4.427,0,0,1,3.4-1.4,5.079,5.079,0,0,1,3.437,1.074,3.7,3.7,0,0,1,1.207,3.025l-.016.049h-2.347a2.366,2.366,0,0,0-.558-1.723,2.326,2.326,0,0,0-1.723-.566,1.944,1.944,0,0,0-1.69.871,3.852,3.852,0,0,0-.608,2.252v2.4a3.739,3.739,0,0,0,.641,2.264,2.082,2.082,0,0,0,1.78.876,2.116,2.116,0,0,0,1.615-.566,2.461,2.461,0,0,0,.533-1.739Z" transform="translate(-795.202 -370.949)"/>
        <path id="Trazado_146690" data-name="Trazado 146690" d="M811.861,384.576a4.025,4.025,0,0,1-3.124-1.228,4.5,4.5,0,0,1-1.124-3.16v-.33a4.9,4.9,0,0,1,1.091-3.289,3.71,3.71,0,0,1,3-1.273,3.471,3.471,0,0,1,2.764,1.1,4.356,4.356,0,0,1,.963,2.97v1.248H810.1l-.025.05a2.416,2.416,0,0,0,.559,1.487,1.864,1.864,0,0,0,1.483.57,4.98,4.98,0,0,0,1.376-.165,5.632,5.632,0,0,0,1.168-.5l.653,1.488a4.469,4.469,0,0,1-1.454.735A6.46,6.46,0,0,1,811.861,384.576Zm-.157-7.42a1.34,1.34,0,0,0-1.119.5,2.509,2.509,0,0,0-.476,1.326l.017.041h2.942v-.182a2.089,2.089,0,0,0-.322-1.235A1.192,1.192,0,0,0,811.7,377.156Z" transform="translate(-797.112 -371.512)"/>
        <path id="Trazado_146691" data-name="Trazado 146691" d="M818.073,379.318a5.812,5.812,0,0,1,.913-3.412,2.966,2.966,0,0,1,2.574-1.3,2.5,2.5,0,0,1,1.207.289,2.9,2.9,0,0,1,.942.826v-4.9h2.422v12.891h-2.058l-.206-1.1a2.988,2.988,0,0,1-1,.946,2.643,2.643,0,0,1-1.322.327,3.023,3.023,0,0,1-2.558-1.207,5.155,5.155,0,0,1-.913-3.19Zm2.4.173a3.639,3.639,0,0,0,.4,1.847,1.379,1.379,0,0,0,1.289.673,1.875,1.875,0,0,0,.909-.211,1.68,1.68,0,0,0,.636-.616v-3.809a1.855,1.855,0,0,0-.632-.657,1.675,1.675,0,0,0-.9-.235,1.363,1.363,0,0,0-1.294.784,4.442,4.442,0,0,0-.409,2.049Z" transform="translate(-798.721 -370.824)"/>
        <path id="Trazado_146692" data-name="Trazado 146692" d="M835.269,383.11a3.031,3.031,0,0,1-1.049,1.108,2.781,2.781,0,0,1-1.479.388,2.719,2.719,0,0,1-2.21-.959,4.6,4.6,0,0,1-.8-2.975v-5.181h2.4v5.2a2.883,2.883,0,0,0,.318,1.607,1.143,1.143,0,0,0,.987.434,2.4,2.4,0,0,0,.992-.186,1.672,1.672,0,0,0,.678-.549v-6.5h2.412v8.941h-2Z" transform="translate(-800.516 -371.542)"/>
        <path id="Trazado_146693" data-name="Trazado 146693" d="M843.65,383.715h-2.413V370.824h2.413Z" transform="translate(-802.286 -370.824)"/>
        <path id="Trazado_146694" data-name="Trazado 146694" d="M851.622,384.4a5.107,5.107,0,0,1-.227-.645,4.434,4.434,0,0,1-.137-.694,3.311,3.311,0,0,1-.983,1.082,2.464,2.464,0,0,1-1.454.43,3.019,3.019,0,0,1-2.165-.723,2.591,2.591,0,0,1-.76-1.971,2.357,2.357,0,0,1,1.012-2.037,5.053,5.053,0,0,1,2.954-.723h1.355v-.71a1.392,1.392,0,0,0-.339-1,1.328,1.328,0,0,0-1.008-.355,1.311,1.311,0,0,0-.905.285.993.993,0,0,0-.318.781h-2.322l-.016-.05a2.267,2.267,0,0,1,.987-1.954,4.286,4.286,0,0,1,2.73-.822,4,4,0,0,1,2.607.81,2.82,2.82,0,0,1,1,2.322v3.693a6.976,6.976,0,0,0,.095,1.182,5.991,5.991,0,0,0,.3,1.1Zm-2.206-1.612a2.051,2.051,0,0,0,1.124-.314,1.693,1.693,0,0,0,.678-.727v-1.264h-1.355a1.609,1.609,0,0,0-1.161.38,1.245,1.245,0,0,0-.393.933.931.931,0,0,0,.294.723A1.163,1.163,0,0,0,849.416,382.791Z" transform="translate(-803.003 -371.512)"/>
        <path id="Trazado_146695" data-name="Trazado 146695" d="M859.9,377.119h-2.413V375H859.9Zm0,7.239h-2.413v-2.115H859.9Z" transform="translate(-804.786 -371.467)"/>
      </g>
      <g id="Grupo_78593" data-name="Grupo 78593" transform="translate(416.222 293.608)">
        <path id="Trazado_146696" data-name="Trazado 146696" d="M416.8,307.406h-5.9v4.177h7.076v2.991H407.01V297.822h10.977v2.991H410.9v3.6h5.9Z" transform="translate(-407.01 -292.851)" fill="#013c7e"/>
        <path id="Trazado_146697" data-name="Trazado 146697" d="M441.575,314.574H437.7l-6.132-10.54-.07.023v10.517h-3.889V297.822H431.5l6.133,10.528.069-.023v-10.5h3.878Z" transform="translate(-414.455 -292.851)" fill="#013c7e"/>
        <path id="Trazado_146698" data-name="Trazado 146698" d="M464.224,300.813h-4.43v13.761H455.9V300.813h-4.349v-2.991h12.668Z" transform="translate(-423.113 -292.851)" fill="#013c7e"/>
        <path id="Trazado_146699" data-name="Trazado 146699" d="M477.752,308.154v6.421h-3.889V297.822H479.7a7.242,7.242,0,0,1,4.614,1.346,4.439,4.439,0,0,1,1.7,3.682,3.665,3.665,0,0,1-.685,2.232,4.855,4.855,0,0,1-2.019,1.519,3.747,3.747,0,0,1,2.215,1.455,4.506,4.506,0,0,1,.673,2.537v1.058a6.681,6.681,0,0,0,.2,1.5,1.976,1.976,0,0,0,.679,1.2v.23h-4.016a1.884,1.884,0,0,1-.6-1.255,11.244,11.244,0,0,1-.138-1.691v-1.012a2.477,2.477,0,0,0-.633-1.829,2.51,2.51,0,0,0-1.852-.633Zm0-2.991h1.968a2.674,2.674,0,0,0,1.795-.535,1.914,1.914,0,0,0,.621-1.536,2.213,2.213,0,0,0-.639-1.651,2.461,2.461,0,0,0-1.8-.627h-1.945Z" transform="translate(-431.177 -292.851)" fill="#013c7e"/>
        <path id="Trazado_146700" data-name="Trazado 146700" d="M507.188,307.406h-5.9v4.177h7.077v2.991H497.4V297.822h10.977v2.991h-7.088v3.6h5.9Z" transform="translate(-439.685 -292.851)" fill="#013c7e"/>
        <path id="Trazado_146701" data-name="Trazado 146701" d="M531.044,312.125a6.987,6.987,0,0,1-2.463,1.806,9.619,9.619,0,0,1-4.084.748,6.916,6.916,0,0,1-5.063-1.91,6.645,6.645,0,0,1-1.944-4.959v-3.5a6.754,6.754,0,0,1,1.893-4.947,6.543,6.543,0,0,1,4.873-1.922,7.177,7.177,0,0,1,4.849,1.433,4.775,4.775,0,0,1,1.582,3.917l-.023.07h-3.648a2.36,2.36,0,0,0-.655-1.83,2.858,2.858,0,0,0-1.979-.6,2.632,2.632,0,0,0-2.186,1.07,4.42,4.42,0,0,0-.828,2.784v3.521a4.472,4.472,0,0,0,.823,2.813,2.747,2.747,0,0,0,2.306,1.064,6.481,6.481,0,0,0,1.686-.173,2.7,2.7,0,0,0,.972-.46v-2.991h-2.968v-2.578h6.857Z" transform="translate(-446.948 -292.714)" fill="#013c7e"/>
        <path id="Trazado_146702" data-name="Trazado 146702" d="M550.419,311.318h-4.982l-.967,3.256h-4.1l5.466-16.752h2.082v.012l.011-.012h2.083l5.477,16.752h-4.1Zm-4.084-2.991h3.187l-1.565-5.2h-.068Z" transform="translate(-455.221 -292.851)" fill="#013c7e"/>
        <path id="Trazado_146703" data-name="Trazado 146703" d="M575.117,314.574V297.822h6.133a6.833,6.833,0,0,1,4.947,1.927,6.579,6.579,0,0,1,1.99,4.942v3.014a6.573,6.573,0,0,1-1.99,4.947,6.842,6.842,0,0,1-4.947,1.922Zm3.889-13.761v10.77h2.244a2.665,2.665,0,0,0,2.18-1.082,4.367,4.367,0,0,0,.857-2.8v-3.038a4.326,4.326,0,0,0-.857-2.772,2.665,2.665,0,0,0-2.18-1.082Z" transform="translate(-467.78 -292.851)" fill="#013c7e"/>
        <path id="Trazado_146704" data-name="Trazado 146704" d="M609.019,307.406h-5.9v4.177h7.077v2.991H599.228V297.822H610.2v2.991h-7.088v3.6h5.9Z" transform="translate(-476.497 -292.851)" fill="#013c7e"/>
        <path id="Trazado_146705" data-name="Trazado 146705" d="M629.015,314.574V297.822h6.133a6.833,6.833,0,0,1,4.947,1.927,6.579,6.579,0,0,1,1.99,4.942v3.014a6.573,6.573,0,0,1-1.99,4.947,6.842,6.842,0,0,1-4.947,1.922Zm3.888-13.761v10.77h2.244a2.664,2.664,0,0,0,2.18-1.082,4.363,4.363,0,0,0,.857-2.8v-3.038a4.323,4.323,0,0,0-.857-2.772,2.665,2.665,0,0,0-2.18-1.082Z" transform="translate(-487.264 -292.851)" fill="#013c7e"/>
        <path id="Trazado_146706" data-name="Trazado 146706" d="M666.873,307.568a7,7,0,0,1-1.962,5.1,6.844,6.844,0,0,1-5.126,2.008,6.829,6.829,0,0,1-7.145-7.11v-3.014a6.983,6.983,0,0,1,1.973-5.1,7.567,7.567,0,0,1,10.281,0,6.972,6.972,0,0,1,1.979,5.1Zm-3.878-3.038a4.846,4.846,0,0,0-.845-2.945,3.08,3.08,0,0,0-4.8-.006,4.881,4.881,0,0,0-.835,2.951v3.038a4.885,4.885,0,0,0,.845,2.968,2.825,2.825,0,0,0,2.422,1.151,2.763,2.763,0,0,0,2.37-1.151,4.91,4.91,0,0,0,.84-2.968Z" transform="translate(-495.805 -292.714)" fill="#013c7e"/>
        <path id="Trazado_146707" data-name="Trazado 146707" d="M689.238,300.813h-4.429v13.761h-3.889V300.813H676.57v-2.991h12.668Z" transform="translate(-504.455 -292.851)" fill="#013c7e"/>
        <path id="Trazado_146708" data-name="Trazado 146708" d="M704.959,311.318h-4.982l-.967,3.256h-4.1l5.466-16.752h2.082v.012l.012-.012h2.083l5.477,16.752h-4.1Zm-4.084-2.991h3.187l-1.565-5.2h-.068Z" transform="translate(-511.087 -292.851)" fill="#013c7e"/>
        <path id="Trazado_146709" data-name="Trazado 146709" d="M732.955,308.788l.023.069a5.388,5.388,0,0,1-1.616,4.344,6.86,6.86,0,0,1-4.712,1.478,6.492,6.492,0,0,1-6.869-6.869v-3.5a6.908,6.908,0,0,1,1.813-4.965,6.311,6.311,0,0,1,4.792-1.9,7.387,7.387,0,0,1,4.931,1.484,5.231,5.231,0,0,1,1.7,4.314l-.034.069h-3.786a3.08,3.08,0,0,0-.655-2.209,2.929,2.929,0,0,0-2.152-.667,2.275,2.275,0,0,0-2.013,1.053,4.97,4.97,0,0,0-.7,2.8v3.521a4.684,4.684,0,0,0,.771,2.819,2.568,2.568,0,0,0,2.209,1.059,2.463,2.463,0,0,0,1.928-.667,3.346,3.346,0,0,0,.592-2.232Z" transform="translate(-520.076 -292.714)" fill="#013c7e"/>
        <path id="Trazado_146710" data-name="Trazado 146710" d="M748.076,314.574H744.2V297.822h3.878Z" transform="translate(-528.903 -292.851)" fill="#013c7e"/>
        <path id="Trazado_146711" data-name="Trazado 146711" d="M768.577,304.891a7,7,0,0,1-1.961,5.1A6.847,6.847,0,0,1,761.489,312a6.829,6.829,0,0,1-7.145-7.11v-3.014a6.981,6.981,0,0,1,1.974-5.1,7.566,7.566,0,0,1,10.28,0,6.97,6.97,0,0,1,1.979,5.1Zm-3.878-3.038a4.846,4.846,0,0,0-.846-2.945,3.08,3.08,0,0,0-4.8-.006,4.886,4.886,0,0,0-.835,2.951v3.038a4.885,4.885,0,0,0,.845,2.968,2.825,2.825,0,0,0,2.422,1.151,2.763,2.763,0,0,0,2.37-1.151,4.909,4.909,0,0,0,.84-2.968Zm-2.773-11.816h4.268l.023.069-3.233,2.991h-3.429Z" transform="translate(-532.571 -290.037)" fill="#013c7e"/>
        <path id="Trazado_146712" data-name="Trazado 146712" d="M794.314,314.574h-3.878l-6.132-10.54-.069.023v10.517h-3.889V297.822h3.889l6.132,10.528.069-.023v-10.5h3.878Z" transform="translate(-541.97 -292.851)" fill="#013c7e"/>
        <path id="Trazado_146713" data-name="Trazado 146713" d="M820.949,305.139h.069l3.337-7.317h4.212l-5.685,10.862v5.891h-3.877V308.51l-5.592-10.689h4.211Z" transform="translate(-553.924 -292.851)" fill="#013c7e"/>
        <path id="Trazado_146714" data-name="Trazado 146714" d="M858.126,307.406h-5.9v4.177H859.3v2.991H848.335V297.822h10.977v2.991h-7.087v3.6h5.9Z" transform="translate(-566.548 -292.851)" fill="#013c7e"/>
        <path id="Trazado_146715" data-name="Trazado 146715" d="M872.82,308.833v5.741h-3.888V297.822h6.4a6.962,6.962,0,0,1,4.729,1.518,5.424,5.424,0,0,1,0,7.979,6.979,6.979,0,0,1-4.729,1.513Zm0-2.992h2.509a2.558,2.558,0,0,0,1.933-.7,2.483,2.483,0,0,0,.667-1.79,2.584,2.584,0,0,0-.661-1.829,2.514,2.514,0,0,0-1.939-.713H872.82Z" transform="translate(-573.994 -292.851)" fill="#013c7e"/>
        <path id="Trazado_146716" data-name="Trazado 146716" d="M896.355,308.833v5.741h-3.889V297.822h6.4a6.965,6.965,0,0,1,4.729,1.518,5.425,5.425,0,0,1,0,7.979,6.982,6.982,0,0,1-4.729,1.513Zm0-2.992h2.508a2.557,2.557,0,0,0,1.933-.7,2.483,2.483,0,0,0,.667-1.79,2.584,2.584,0,0,0-.662-1.829,2.514,2.514,0,0,0-1.939-.713h-2.508Z" transform="translate(-582.501 -292.851)" fill="#013c7e"/>
        <path id="Trazado_146717" data-name="Trazado 146717" d="M918.209,296.7h4.268l.023.069-3.233,2.991h-3.429Z" transform="translate(-590.95 -292.447)" fill="#013c7e"/>
        <path id="Trazado_146718" data-name="Trazado 146718" d="M938.084,310a1.668,1.668,0,0,0-.587-1.375,7.591,7.591,0,0,0-2.129-1.018,16.167,16.167,0,0,1-4.631-2.158,3.884,3.884,0,0,1-1.513-3.3,4.043,4.043,0,0,1,1.76-3.406,8.483,8.483,0,0,1,9.089.04,4.347,4.347,0,0,1,1.691,3.78l-.023.069h-3.774a2.114,2.114,0,0,0-.645-1.72,2.991,2.991,0,0,0-1.944-.535,2.5,2.5,0,0,0-1.668.518,1.612,1.612,0,0,0-.61,1.278,1.375,1.375,0,0,0,.627,1.179,12.23,12.23,0,0,0,2.341,1.111,12.478,12.478,0,0,1,4.407,2.105,4.192,4.192,0,0,1,1.5,3.406,4.029,4.029,0,0,1-1.726,3.457,7.642,7.642,0,0,1-4.579,1.248,8.372,8.372,0,0,1-4.815-1.34,4.615,4.615,0,0,1-1.916-4.217l.023-.069h3.785a2.608,2.608,0,0,0,.72,2.077,3.325,3.325,0,0,0,2.2.616,2.858,2.858,0,0,0,1.818-.483A1.549,1.549,0,0,0,938.084,310Z" transform="translate(-595.685 -292.714)" fill="#013c7e"/>
      </g>
      <g id="Grupo_78594" data-name="Grupo 78594" transform="translate(688.668 390.545)">
        <path id="Trazado_146719" data-name="Trazado 146719" d="M802.575,416.871h-4.618v5h-2.413V409.84h7.875V411.7h-5.462v3.313h4.618Z" transform="translate(-795.544 -408.98)"/>
        <path id="Trazado_146720" data-name="Trazado 146720" d="M810.055,422.576a4.022,4.022,0,0,1-3.123-1.228,4.492,4.492,0,0,1-1.124-3.16v-.33a4.891,4.891,0,0,1,1.091-3.289,3.709,3.709,0,0,1,3-1.273,3.469,3.469,0,0,1,2.763,1.1,4.357,4.357,0,0,1,.963,2.97v1.248h-5.33l-.025.05a2.415,2.415,0,0,0,.557,1.487,1.866,1.866,0,0,0,1.483.57,4.971,4.971,0,0,0,1.376-.165,5.661,5.661,0,0,0,1.169-.5l.652,1.487a4.469,4.469,0,0,1-1.454.735A6.453,6.453,0,0,1,810.055,422.576Zm-.156-7.421a1.341,1.341,0,0,0-1.12.5,2.508,2.508,0,0,0-.475,1.326l.016.041h2.942v-.182a2.09,2.09,0,0,0-.322-1.235A1.191,1.191,0,0,0,809.9,415.156Z" transform="translate(-797.123 -409.512)"/>
        <path id="Trazado_146721" data-name="Trazado 146721" d="M820.366,420.725a1.344,1.344,0,0,0,1-.376,1.367,1.367,0,0,0,.371-1h2.2l.016.05a2.8,2.8,0,0,1-1.008,2.268,3.771,3.771,0,0,1-2.578.913,3.811,3.811,0,0,1-3.065-1.268,4.825,4.825,0,0,1-1.082-3.243v-.248a4.854,4.854,0,0,1,1.078-3.243,3.777,3.777,0,0,1,3.054-1.277,3.688,3.688,0,0,1,2.636.942,3.144,3.144,0,0,1,.966,2.479l-.016.049h-2.2a1.783,1.783,0,0,0-.367-1.152,1.237,1.237,0,0,0-1.02-.459,1.378,1.378,0,0,0-1.327.748,4.1,4.1,0,0,0-.393,1.913v.248a4.089,4.089,0,0,0,.393,1.925A1.4,1.4,0,0,0,820.366,420.725Z" transform="translate(-798.725 -409.512)"/>
        <path id="Trazado_146722" data-name="Trazado 146722" d="M829.363,413.906a3.072,3.072,0,0,1,1.032-.954,2.978,2.978,0,0,1,3.549.587,4.336,4.336,0,0,1,.8,2.871v5.305H832.33v-5.321a2.47,2.47,0,0,0-.335-1.476,1.19,1.19,0,0,0-1-.433,2.386,2.386,0,0,0-.963.178,1.666,1.666,0,0,0-.665.508v6.545H826.95V408.824h2.413Z" transform="translate(-800.377 -408.824)"/>
        <path id="Trazado_146723" data-name="Trazado 146723" d="M843.5,422.4a5.11,5.11,0,0,1-.227-.645,4.436,4.436,0,0,1-.137-.694,3.31,3.31,0,0,1-.983,1.082,2.464,2.464,0,0,1-1.454.43,3.018,3.018,0,0,1-2.165-.723,2.59,2.59,0,0,1-.76-1.971,2.356,2.356,0,0,1,1.012-2.037,5.053,5.053,0,0,1,2.954-.723h1.355v-.71a1.391,1.391,0,0,0-.339-1,1.328,1.328,0,0,0-1.008-.355,1.312,1.312,0,0,0-.905.285.993.993,0,0,0-.318.781H838.2l-.016-.05a2.267,2.267,0,0,1,.987-1.954,4.286,4.286,0,0,1,2.73-.822,4,4,0,0,1,2.607.81,2.82,2.82,0,0,1,1,2.322v3.693a6.982,6.982,0,0,0,.095,1.182,6,6,0,0,0,.3,1.1Zm-2.206-1.612a2.051,2.051,0,0,0,1.124-.314,1.693,1.693,0,0,0,.678-.727v-1.264h-1.355a1.61,1.61,0,0,0-1.161.38,1.245,1.245,0,0,0-.393.933.931.931,0,0,0,.294.723A1.163,1.163,0,0,0,841.291,420.791Z" transform="translate(-802.042 -409.512)"/>
        <path id="Trazado_146724" data-name="Trazado 146724" d="M853.591,417.318a5.807,5.807,0,0,1,.913-3.412,2.965,2.965,0,0,1,2.574-1.3,2.5,2.5,0,0,1,1.207.289,2.905,2.905,0,0,1,.942.826v-4.9h2.421v12.891H859.59l-.206-1.1a3,3,0,0,1-1,.946,2.646,2.646,0,0,1-1.322.327,3.022,3.022,0,0,1-2.557-1.207,5.149,5.149,0,0,1-.913-3.19Zm2.4.173a3.648,3.648,0,0,0,.4,1.847,1.382,1.382,0,0,0,1.289.673,1.878,1.878,0,0,0,.909-.211,1.68,1.68,0,0,0,.636-.616v-3.809a1.855,1.855,0,0,0-.632-.657,1.679,1.679,0,0,0-.9-.235,1.362,1.362,0,0,0-1.293.784,4.441,4.441,0,0,0-.409,2.049Z" transform="translate(-804.476 -408.824)"/>
        <path id="Trazado_146725" data-name="Trazado 146725" d="M869.127,422.576A4.023,4.023,0,0,1,866,421.349a4.492,4.492,0,0,1-1.124-3.16v-.33a4.9,4.9,0,0,1,1.091-3.289,3.709,3.709,0,0,1,3-1.273,3.468,3.468,0,0,1,2.763,1.1,4.356,4.356,0,0,1,.963,2.97v1.248h-5.33l-.024.05a2.421,2.421,0,0,0,.558,1.487,1.867,1.867,0,0,0,1.483.57,4.971,4.971,0,0,0,1.376-.165,5.664,5.664,0,0,0,1.169-.5l.652,1.487a4.464,4.464,0,0,1-1.454.735A6.462,6.462,0,0,1,869.127,422.576Zm-.156-7.421a1.339,1.339,0,0,0-1.119.5,2.508,2.508,0,0,0-.476,1.326l.017.041h2.941v-.182a2.089,2.089,0,0,0-.322-1.235A1.191,1.191,0,0,0,868.97,415.156Z" transform="translate(-806.214 -409.512)"/>
        <path id="Trazado_146726" data-name="Trazado 146726" d="M883.582,421.871h-2.413V409.84h2.413Z" transform="translate(-808.72 -408.98)"/>
        <path id="Trazado_146727" data-name="Trazado 146727" d="M888.826,413.462l.108,1.281a3.26,3.26,0,0,1,1.1-1.066,2.859,2.859,0,0,1,1.463-.38,2.659,2.659,0,0,1,2.115.871,4.139,4.139,0,0,1,.76,2.756V422.4H891.95v-5.47a2.139,2.139,0,0,0-.335-1.36,1.231,1.231,0,0,0-1-.4,2.1,2.1,0,0,0-.946.2,1.844,1.844,0,0,0-.673.558v6.47h-2.413v-8.941Z" transform="translate(-809.552 -409.512)"/>
        <path id="Trazado_146728" data-name="Trazado 146728" d="M897.5,418.007a5.788,5.788,0,0,1,.917-3.412,2.976,2.976,0,0,1,2.578-1.3,2.535,2.535,0,0,1,1.322.338,2.972,2.972,0,0,1,.976.967l.189-1.141h2.075v8.9a3.324,3.324,0,0,1-1.141,2.7,4.814,4.814,0,0,1-3.181.954,6.038,6.038,0,0,1-1.438-.186,6.651,6.651,0,0,1-1.4-.508l.4-1.8a5.593,5.593,0,0,0,1.145.4,5.7,5.7,0,0,0,1.277.136,2.156,2.156,0,0,0,1.458-.414,1.634,1.634,0,0,0,.467-1.289v-.81a2.7,2.7,0,0,1-.934.768,2.741,2.741,0,0,1-1.231.265,3.034,3.034,0,0,1-2.561-1.207,5.134,5.134,0,0,1-.917-3.19Zm2.413.173a3.668,3.668,0,0,0,.393,1.847,1.37,1.37,0,0,0,1.284.673,1.991,1.991,0,0,0,.938-.2,1.549,1.549,0,0,0,.616-.591v-3.875a1.657,1.657,0,0,0-.616-.636,1.809,1.809,0,0,0-.921-.223,1.354,1.354,0,0,0-1.289.784,4.476,4.476,0,0,0-.4,2.049Z" transform="translate(-811.232 -409.512)"/>
        <path id="Trazado_146729" data-name="Trazado 146729" d="M913.908,415.536l-.884-.025a1.605,1.605,0,0,0-.884.223,1.41,1.41,0,0,0-.529.628v6.04h-2.4v-8.941h2.24l.107,1.322a2.828,2.828,0,0,1,.814-1.095,1.817,1.817,0,0,1,1.153-.393,1.784,1.784,0,0,1,.334.029c.1.019.2.042.31.07Z" transform="translate(-813.034 -409.512)"/>
        <path id="Trazado_146730" data-name="Trazado 146730" d="M919.87,422.576a4.023,4.023,0,0,1-3.124-1.228,4.492,4.492,0,0,1-1.124-3.16v-.33a4.9,4.9,0,0,1,1.091-3.289,3.71,3.71,0,0,1,3-1.273,3.471,3.471,0,0,1,2.764,1.1,4.36,4.36,0,0,1,.962,2.97v1.248H918.11l-.025.05a2.421,2.421,0,0,0,.558,1.487,1.867,1.867,0,0,0,1.483.57,4.971,4.971,0,0,0,1.376-.165,5.625,5.625,0,0,0,1.169-.5l.653,1.487a4.469,4.469,0,0,1-1.455.735A6.46,6.46,0,0,1,919.87,422.576Zm-.157-7.421a1.339,1.339,0,0,0-1.119.5,2.509,2.509,0,0,0-.475,1.326l.017.041h2.941v-.182a2.1,2.1,0,0,0-.322-1.235A1.193,1.193,0,0,0,919.712,415.156Z" transform="translate(-814.022 -409.512)"/>
        <path id="Trazado_146731" data-name="Trazado 146731" d="M931.281,419.924a.832.832,0,0,0-.384-.682,3.918,3.918,0,0,0-1.425-.5,5.674,5.674,0,0,1-2.384-.95,2.075,2.075,0,0,1-.814-1.727,2.462,2.462,0,0,1,.976-1.958,3.93,3.93,0,0,1,2.594-.81,4.242,4.242,0,0,1,2.714.81,2.364,2.364,0,0,1,.979,2.016l-.016.049h-2.33a1.171,1.171,0,0,0-.347-.876,1.623,1.623,0,0,0-1.917-.049.9.9,0,0,0-.339.71.8.8,0,0,0,.351.674,3.907,3.907,0,0,0,1.425.467,5.792,5.792,0,0,1,2.45.971,2.127,2.127,0,0,1,.805,1.763,2.359,2.359,0,0,1-1.033,1.975,4.452,4.452,0,0,1-2.726.769,4.143,4.143,0,0,1-2.822-.905,2.527,2.527,0,0,1-.987-2.061l.016-.05h2.207a1.254,1.254,0,0,0,.47,1.042,1.945,1.945,0,0,0,1.165.322,1.652,1.652,0,0,0,1.02-.269A.869.869,0,0,0,931.281,419.924Z" transform="translate(-815.626 -409.512)"/>
        <path id="Trazado_146732" data-name="Trazado 146732" d="M936.394,417.85a4.8,4.8,0,0,1,1.115-3.276,3.889,3.889,0,0,1,3.09-1.277,3.929,3.929,0,0,1,3.107,1.273,4.769,4.769,0,0,1,1.124,3.28v.173a4.782,4.782,0,0,1-1.12,3.285,4.419,4.419,0,0,1-6.2,0,4.783,4.783,0,0,1-1.119-3.285Zm2.4.173a3.884,3.884,0,0,0,.43,1.962,1.484,1.484,0,0,0,1.388.74,1.469,1.469,0,0,0,1.367-.744,3.86,3.86,0,0,0,.434-1.958v-.173a3.823,3.823,0,0,0-.438-1.942,1.483,1.483,0,0,0-1.38-.752,1.464,1.464,0,0,0-1.367.756,3.854,3.854,0,0,0-.434,1.938Z" transform="translate(-817.218 -409.512)"/>
        <path id="Trazado_146733" data-name="Trazado 146733" d="M950.847,415.119h-2.412V413h2.412Zm0,7.239h-2.412v-2.115h2.412Z" transform="translate(-819.071 -409.467)"/>
      </g>
      <g id="Grupo_78595" data-name="Grupo 78595" transform="translate(110.086 443.018)">
        <path id="Trazado_146734" data-name="Trazado 146734" d="M114.152,482.871h-2.413V470.84h2.413Z" transform="translate(-111.739 -470.84)"/>
        <path id="Trazado_146735" data-name="Trazado 146735" d="M119.941,471.9v2.19h1.512v1.694h-1.512v4.553a1.038,1.038,0,0,0,.219.744.768.768,0,0,0,.575.223,2.322,2.322,0,0,0,.33-.021,2.726,2.726,0,0,0,.322-.07l.2,1.744a4.892,4.892,0,0,1-.707.185,4.205,4.205,0,0,1-.748.063,2.57,2.57,0,0,1-1.922-.686,3.008,3.008,0,0,1-.674-2.173v-4.561h-1.306v-1.694h1.306V471.9Z" transform="translate(-112.43 -471.004)"/>
        <path id="Trazado_146736" data-name="Trazado 146736" d="M127.969,483.576a4.023,4.023,0,0,1-3.123-1.228,4.492,4.492,0,0,1-1.124-3.16v-.33a4.891,4.891,0,0,1,1.091-3.289,3.709,3.709,0,0,1,3-1.273,3.469,3.469,0,0,1,2.763,1.1,4.356,4.356,0,0,1,.963,2.97v1.248h-5.33l-.025.05a2.416,2.416,0,0,0,.558,1.487,1.867,1.867,0,0,0,1.483.57,4.971,4.971,0,0,0,1.376-.165,5.664,5.664,0,0,0,1.169-.5l.652,1.487a4.469,4.469,0,0,1-1.454.735A6.454,6.454,0,0,1,127.969,483.576Zm-.157-7.421a1.341,1.341,0,0,0-1.12.5,2.508,2.508,0,0,0-.475,1.326l.016.041h2.942v-.182a2.089,2.089,0,0,0-.322-1.235A1.191,1.191,0,0,0,127.812,476.156Z" transform="translate(-113.583 -471.372)"/>
        <path id="Trazado_146737" data-name="Trazado 146737" d="M136.86,474.462l.1,1.182a3.008,3.008,0,0,1,1.078-1,3.1,3.1,0,0,1,1.5-.351,2.734,2.734,0,0,1,1.471.38,2.344,2.344,0,0,1,.926,1.149,3.1,3.1,0,0,1,1.074-1.125,2.923,2.923,0,0,1,1.553-.4,2.55,2.55,0,0,1,2.087.938,4.474,4.474,0,0,1,.764,2.863V483.4H145v-5.314a2.5,2.5,0,0,0-.331-1.5,1.173,1.173,0,0,0-.983-.421,1.686,1.686,0,0,0-.888.227,1.658,1.658,0,0,0-.6.632c0,.1,0,.195.008.269s.008.15.008.227V483.4h-2.4v-5.314a2.511,2.511,0,0,0-.331-1.483,1.169,1.169,0,0,0-.992-.433,1.877,1.877,0,0,0-.855.185,1.631,1.631,0,0,0-.607.525V483.4h-2.4v-8.941Z" transform="translate(-115.26 -471.372)"/>
      </g>
      <g id="Grupo_78596" data-name="Grupo 78596" transform="translate(124.26 482.612)">
        <path id="Trazado_146738" data-name="Trazado 146738" d="M133.381,529.839h-2.4v-9.933H128.49v-1.842l4.891-.43Z" transform="translate(-128.49 -517.635)"/>
      </g>
      <g id="Grupo_78597" data-name="Grupo 78597" transform="translate(123.037 558.937)">
        <path id="Trazado_146739" data-name="Trazado 146739" d="M134.473,615.393h1.355v1.867h-1.355v2.611h-2.412V617.26h-4.9l-.116-1.446,4.99-7.974h2.438Zm-5.238,0h2.826v-4.371l-.05-.008-.248.537Z" transform="translate(-127.045 -607.84)"/>
      </g>
      <g id="Grupo_78598" data-name="Grupo 78598" transform="translate(123.36 612.069)">
        <path id="Trazado_146740" data-name="Trazado 146740" d="M132.169,670.635a6.264,6.264,0,0,1,1.3.128,6.6,6.6,0,0,1,1.186.376l-.43,1.768a9.244,9.244,0,0,0-1.009-.285,4.987,4.987,0,0,0-1.032-.095,2.079,2.079,0,0,0-1.707.81,3.521,3.521,0,0,0-.648,2.256v.388a3.358,3.358,0,0,1,1.144-.731,4.046,4.046,0,0,1,1.483-.261,2.908,2.908,0,0,1,2.413,1.095,4.464,4.464,0,0,1,.867,2.855,4,4,0,0,1-1.124,2.942,4.331,4.331,0,0,1-6-.157,5.012,5.012,0,0,1-1.185-3.528v-2.52a5.022,5.022,0,0,1,1.343-3.665A4.548,4.548,0,0,1,132.169,670.635Zm-.512,6.18a2.651,2.651,0,0,0-1.112.211,1.713,1.713,0,0,0-.714.583v.645a3.853,3.853,0,0,0,.508,2.148,1.55,1.55,0,0,0,1.343.76,1.394,1.394,0,0,0,1.2-.632,2.688,2.688,0,0,0,.446-1.591,2.44,2.44,0,0,0-.45-1.558A1.474,1.474,0,0,0,131.657,676.815Z" transform="translate(-127.426 -670.635)"/>
      </g>
      <g id="Grupo_78599" data-name="Grupo 78599" transform="translate(123.325 533.38)">
        <path id="Trazado_146741" data-name="Trazado 146741" d="M131.419,582.766a1.671,1.671,0,0,0,1.277-.446,1.767,1.767,0,0,0,.417-1.256,1.544,1.544,0,0,0-.437-1.125,1.638,1.638,0,0,0-1.223-.446,1.6,1.6,0,0,0-1.111.405,1.325,1.325,0,0,0-.45,1.032h-2.33l-.017-.049a2.73,2.73,0,0,1,1.091-2.33,4.352,4.352,0,0,1,2.818-.917,4.609,4.609,0,0,1,2.967.88,3.045,3.045,0,0,1,1.1,2.524,2.619,2.619,0,0,1-.475,1.516,3.235,3.235,0,0,1-1.3,1.086,3.032,3.032,0,0,1,1.454,1.079,2.943,2.943,0,0,1,.513,1.747,3.137,3.137,0,0,1-1.194,2.6,5.252,5.252,0,0,1-5.937.053,2.815,2.815,0,0,1-1.19-2.5l.016-.05h2.347a1.516,1.516,0,0,0,.475,1.136,1.691,1.691,0,0,0,1.227.459,1.856,1.856,0,0,0,1.339-.487,1.627,1.627,0,0,0,.513-1.231,1.87,1.87,0,0,0-.479-1.409,1.959,1.959,0,0,0-1.405-.459h-1.33v-1.81Z" transform="translate(-127.385 -577.635)"/>
      </g>
      <g id="Grupo_78600" data-name="Grupo 78600" transform="translate(123.507 585.166)">
        <path id="Trazado_146742" data-name="Trazado 146742" d="M127.816,645.566l.695-6.726h6.709v1.933h-4.734l-.331,2.809a2.929,2.929,0,0,1,.851-.409,4.109,4.109,0,0,1,1.115-.178,3.188,3.188,0,0,1,2.6,1.037,4.4,4.4,0,0,1,.921,2.978,4.221,4.221,0,0,1-1,2.9,3.869,3.869,0,0,1-3.057,1.132,4.627,4.627,0,0,1-2.843-.88,2.751,2.751,0,0,1-1.14-2.417l.016-.041,2.322-.108a1.522,1.522,0,0,0,.454,1.174,1.683,1.683,0,0,0,1.191.421,1.419,1.419,0,0,0,1.251-.562,2.773,2.773,0,0,0,.393-1.6,2.842,2.842,0,0,0-.43-1.657,1.45,1.45,0,0,0-1.273-.616,1.855,1.855,0,0,0-1.062.256,1.39,1.39,0,0,0-.525.694Z" transform="translate(-127.6 -638.84)"/>
      </g>
      <g id="Grupo_78601" data-name="Grupo 78601" transform="translate(123.161 635.088)">
        <path id="Trazado_146743" data-name="Trazado 146743" d="M135.652,699.7a15.526,15.526,0,0,0-2.776,4.3,12.164,12.164,0,0,0-.735,4.384v1.487h-2.413v-1.487a11.156,11.156,0,0,1,.921-4.582,16.711,16.711,0,0,1,2.681-4.1h-6.139V697.84h8.461Z" transform="translate(-127.191 -697.84)"/>
      </g>
      <g id="Grupo_78602" data-name="Grupo 78602" transform="translate(123.268 688.22)">
        <path id="Trazado_146744" data-name="Trazado 146744" d="M131.02,771.162a1.83,1.83,0,0,0,1.463-.674,2.821,2.821,0,0,0,.57-1.879v-.777a2.675,2.675,0,0,1-.959.784,2.721,2.721,0,0,1-1.19.265,3.316,3.316,0,0,1-2.632-1.091,4.349,4.349,0,0,1-.954-2.966,4.182,4.182,0,0,1,1.132-3,3.819,3.819,0,0,1,2.892-1.19,3.887,3.887,0,0,1,2.966,1.223,4.754,4.754,0,0,1,1.149,3.388v3.239a4.25,4.25,0,0,1-4.438,4.528,6.452,6.452,0,0,1-1.293-.136,6.6,6.6,0,0,1-1.251-.385l.4-1.743a5.45,5.45,0,0,0,1.016.314A5.771,5.771,0,0,0,131.02,771.162Zm.289-4.049a2.15,2.15,0,0,0,1.033-.239,1.931,1.931,0,0,0,.711-.645v-1.4a2.789,2.789,0,0,0-.463-1.731,1.486,1.486,0,0,0-1.24-.6,1.355,1.355,0,0,0-1.174.674,2.936,2.936,0,0,0-.446,1.657,3.025,3.025,0,0,0,.4,1.661A1.315,1.315,0,0,0,131.309,767.113Z" transform="translate(-127.318 -760.635)"/>
      </g>
      <g id="Grupo_78603" data-name="Grupo 78603" transform="translate(119.406 738.141)">
        <path id="Trazado_146745" data-name="Trazado 146745" d="M127.644,831.839h-2.4v-9.933h-2.487v-1.842l4.891-.43Z" transform="translate(-122.753 -819.635)"/>
        <path id="Trazado_146746" data-name="Trazado 146746" d="M139.119,831.839h-2.4v-9.933h-2.487v-1.842l4.891-.43Z" transform="translate(-124.519 -819.635)"/>
      </g>
      <g id="Grupo_78604" data-name="Grupo 78604" transform="translate(119.406 788.062)">
        <path id="Trazado_146747" data-name="Trazado 146747" d="M127.644,890.839h-2.4v-9.933h-2.487v-1.842l4.891-.43Z" transform="translate(-122.753 -878.635)"/>
        <path id="Trazado_146748" data-name="Trazado 146748" d="M137.156,883.766a1.67,1.67,0,0,0,1.276-.446,1.764,1.764,0,0,0,.418-1.256,1.541,1.541,0,0,0-.438-1.125,1.637,1.637,0,0,0-1.223-.446,1.6,1.6,0,0,0-1.112.405,1.328,1.328,0,0,0-.45,1.032H133.3l-.016-.049a2.728,2.728,0,0,1,1.091-2.33,4.349,4.349,0,0,1,2.818-.917,4.613,4.613,0,0,1,2.966.88,3.044,3.044,0,0,1,1.1,2.524,2.619,2.619,0,0,1-.475,1.516,3.238,3.238,0,0,1-1.3,1.086,3.041,3.041,0,0,1,1.454,1.079,2.948,2.948,0,0,1,.512,1.747,3.137,3.137,0,0,1-1.194,2.6,5.252,5.252,0,0,1-5.937.053,2.819,2.819,0,0,1-1.19-2.5l.017-.05h2.346a1.514,1.514,0,0,0,.476,1.136,1.689,1.689,0,0,0,1.227.459,1.859,1.859,0,0,0,1.339-.487,1.63,1.63,0,0,0,.512-1.231,1.866,1.866,0,0,0-.479-1.409,1.958,1.958,0,0,0-1.4-.459h-1.331v-1.81Z" transform="translate(-124.349 -878.635)"/>
      </g>
      <g id="Grupo_78605" data-name="Grupo 78605" transform="translate(123.252 661.99)">
        <path id="Trazado_146749" data-name="Trazado 146749" d="M135.347,732.931a2.779,2.779,0,0,1-.463,1.582,3.129,3.129,0,0,1-1.273,1.079,3.674,3.674,0,0,1,1.561,1.161,2.767,2.767,0,0,1,.579,1.731,3.141,3.141,0,0,1-1.161,2.6,4.607,4.607,0,0,1-2.971.93,4.969,4.969,0,0,1-3.107-.93,3.085,3.085,0,0,1-1.214-2.6,2.711,2.711,0,0,1,.6-1.731,3.785,3.785,0,0,1,1.624-1.161,3.214,3.214,0,0,1-1.334-1.079,2.69,2.69,0,0,1-.484-1.582,2.928,2.928,0,0,1,1.083-2.441,4.408,4.408,0,0,1,2.818-.855,4.118,4.118,0,0,1,2.7.855A2.979,2.979,0,0,1,135.347,732.931Zm-2.008,5.437a1.823,1.823,0,0,0-.5-1.318,1.651,1.651,0,0,0-1.235-.516,1.866,1.866,0,0,0-1.347.516,1.752,1.752,0,0,0-.537,1.318,1.684,1.684,0,0,0,.533,1.306,1.944,1.944,0,0,0,1.367.487,1.664,1.664,0,0,0,1.231-.487A1.766,1.766,0,0,0,133.339,738.369Zm-.4-5.33a1.634,1.634,0,0,0-.372-1.128,1.233,1.233,0,0,0-.966-.417,1.458,1.458,0,0,0-1.083.409,1.547,1.547,0,0,0-.4,1.136,1.688,1.688,0,0,0,.413,1.186,1.411,1.411,0,0,0,1.091.45,1.175,1.175,0,0,0,.959-.447A1.827,1.827,0,0,0,132.943,733.039Z" transform="translate(-127.299 -729.635)"/>
      </g>
      <g id="Grupo_78606" data-name="Grupo 78606" transform="translate(119.406 713.603)">
        <path id="Trazado_146750" data-name="Trazado 146750" d="M127.644,802.839h-2.4v-9.933h-2.487v-1.842l4.891-.43Z" transform="translate(-122.753 -790.635)"/>
        <path id="Trazado_146751" data-name="Trazado 146751" d="M141.3,798.484a4.716,4.716,0,0,1-1.111,3.322,4.225,4.225,0,0,1-5.913,0,4.71,4.71,0,0,1-1.115-3.322v-3.313a4.733,4.733,0,0,1,1.112-3.322,4.2,4.2,0,0,1,5.908,0,4.713,4.713,0,0,1,1.119,3.322Zm-2.4-3.561a3.109,3.109,0,0,0-.442-1.793,1.412,1.412,0,0,0-1.227-.636,1.4,1.4,0,0,0-1.227.636,3.158,3.158,0,0,0-.434,1.793v3.793a3.173,3.173,0,0,0,.437,1.813,1.419,1.419,0,0,0,1.24.632,1.4,1.4,0,0,0,1.219-.632,3.188,3.188,0,0,0,.433-1.813Z" transform="translate(-124.355 -790.635)"/>
      </g>
      <g id="Grupo_78607" data-name="Grupo 78607" transform="translate(119.406 764.37)">
        <path id="Trazado_146752" data-name="Trazado 146752" d="M127.644,862.839h-2.4v-9.933h-2.487v-1.842l4.891-.43Z" transform="translate(-122.753 -850.635)"/>
        <path id="Trazado_146753" data-name="Trazado 146753" d="M141.408,862.839h-8.073v-1.579l3.726-4.214a9.481,9.481,0,0,0,1.186-1.665,2.773,2.773,0,0,0,.351-1.251,1.8,1.8,0,0,0-.372-1.19,1.37,1.37,0,0,0-1.115-.446,1.434,1.434,0,0,0-1.215.57,2.333,2.333,0,0,0-.43,1.446h-2.346l-.017-.05a3.576,3.576,0,0,1,1.058-2.714,3.963,3.963,0,0,1,2.95-1.111,4.081,4.081,0,0,1,2.875.946,3.289,3.289,0,0,1,1.025,2.541,3.57,3.57,0,0,1-.575,1.975,22.3,22.3,0,0,1-1.978,2.471l-1.983,2.379.016.041h4.917Z" transform="translate(-124.346 -850.635)"/>
      </g>
      <g id="Grupo_78608" data-name="Grupo 78608" transform="translate(123.308 509.688)">
        <path id="Trazado_146754" data-name="Trazado 146754" d="M135.671,561.839H127.6V560.26l3.726-4.214a9.423,9.423,0,0,0,1.185-1.665,2.762,2.762,0,0,0,.351-1.251,1.8,1.8,0,0,0-.371-1.19,1.371,1.371,0,0,0-1.115-.446,1.433,1.433,0,0,0-1.215.57,2.333,2.333,0,0,0-.43,1.446h-2.346l-.017-.05a3.576,3.576,0,0,1,1.058-2.714,3.962,3.962,0,0,1,2.95-1.111,4.083,4.083,0,0,1,2.875.946,3.289,3.289,0,0,1,1.025,2.541,3.577,3.577,0,0,1-.575,1.975,22.222,22.222,0,0,1-1.979,2.471l-1.982,2.379.016.041h4.917Z" transform="translate(-127.365 -549.635)"/>
      </g>
      <g id="Grupo_78609" data-name="Grupo 78609" transform="translate(188.611 442.158)">
        <path id="Trazado_146755" data-name="Trazado 146755" d="M211.575,477.871h-4.618v5h-2.413V470.84h7.875V472.7h-5.462v3.313h4.618Z" transform="translate(-204.544 -469.98)"/>
        <path id="Trazado_146756" data-name="Trazado 146756" d="M219.055,483.576a4.022,4.022,0,0,1-3.123-1.228,4.492,4.492,0,0,1-1.124-3.16v-.33a4.891,4.891,0,0,1,1.091-3.289,3.709,3.709,0,0,1,3-1.273,3.469,3.469,0,0,1,2.763,1.1,4.356,4.356,0,0,1,.963,2.97v1.248h-5.33l-.025.05a2.416,2.416,0,0,0,.558,1.487,1.866,1.866,0,0,0,1.483.57,4.971,4.971,0,0,0,1.376-.165,5.664,5.664,0,0,0,1.169-.5l.652,1.487a4.469,4.469,0,0,1-1.454.735A6.454,6.454,0,0,1,219.055,483.576Zm-.157-7.421a1.341,1.341,0,0,0-1.12.5,2.508,2.508,0,0,0-.475,1.326l.016.041h2.942v-.182a2.089,2.089,0,0,0-.322-1.235A1.191,1.191,0,0,0,218.9,476.156Z" transform="translate(-206.123 -470.512)"/>
        <path id="Trazado_146757" data-name="Trazado 146757" d="M229.366,481.725a1.344,1.344,0,0,0,1-.376,1.367,1.367,0,0,0,.371-1h2.2l.016.05a2.8,2.8,0,0,1-1.008,2.268,3.771,3.771,0,0,1-2.578.913,3.811,3.811,0,0,1-3.066-1.268,4.825,4.825,0,0,1-1.082-3.243v-.248a4.854,4.854,0,0,1,1.078-3.243,3.777,3.777,0,0,1,3.054-1.277,3.687,3.687,0,0,1,2.636.942,3.145,3.145,0,0,1,.966,2.479l-.016.049h-2.2a1.783,1.783,0,0,0-.367-1.152,1.237,1.237,0,0,0-1.02-.459,1.379,1.379,0,0,0-1.327.748,4.1,4.1,0,0,0-.393,1.913v.248a4.089,4.089,0,0,0,.393,1.925A1.4,1.4,0,0,0,229.366,481.725Z" transform="translate(-207.725 -470.512)"/>
        <path id="Trazado_146758" data-name="Trazado 146758" d="M238.363,474.906a3.072,3.072,0,0,1,1.032-.954,2.978,2.978,0,0,1,3.549.587,4.336,4.336,0,0,1,.8,2.871v5.305H241.33v-5.321a2.47,2.47,0,0,0-.335-1.476,1.19,1.19,0,0,0-1-.433,2.386,2.386,0,0,0-.963.178,1.666,1.666,0,0,0-.665.508v6.545H235.95V469.824h2.413Z" transform="translate(-209.377 -469.824)"/>
        <path id="Trazado_146759" data-name="Trazado 146759" d="M252.5,483.4a5.121,5.121,0,0,1-.227-.645,4.434,4.434,0,0,1-.137-.694,3.311,3.311,0,0,1-.983,1.082,2.465,2.465,0,0,1-1.454.43,3.019,3.019,0,0,1-2.165-.723,2.59,2.59,0,0,1-.76-1.971,2.357,2.357,0,0,1,1.012-2.037,5.053,5.053,0,0,1,2.954-.723h1.355v-.71a1.391,1.391,0,0,0-.339-1,1.328,1.328,0,0,0-1.008-.355,1.311,1.311,0,0,0-.905.285.993.993,0,0,0-.318.781H247.2l-.016-.05a2.267,2.267,0,0,1,.987-1.954,4.286,4.286,0,0,1,2.73-.822,4,4,0,0,1,2.607.81,2.82,2.82,0,0,1,1,2.322v3.693a6.975,6.975,0,0,0,.095,1.182,6,6,0,0,0,.3,1.1Zm-2.206-1.612a2.051,2.051,0,0,0,1.124-.314,1.693,1.693,0,0,0,.678-.727v-1.264h-1.355a1.609,1.609,0,0,0-1.161.38,1.246,1.246,0,0,0-.393.933.931.931,0,0,0,.294.723A1.163,1.163,0,0,0,250.291,481.791Z" transform="translate(-211.042 -470.512)"/>
      </g>
      <g id="Grupo_78610" data-name="Grupo 78610" transform="translate(429.755 442.158)">
        <path id="Trazado_146760" data-name="Trazado 146760" d="M496.419,477.583h-4.462v3.437h5.3v1.851h-7.717V470.84h7.7V472.7h-5.288v3.024h4.462Z" transform="translate(-489.544 -469.98)"/>
        <path id="Trazado_146761" data-name="Trazado 146761" d="M503.011,482.715H500.6V469.824h2.412Z" transform="translate(-491.245 -469.824)"/>
        <path id="Trazado_146762" data-name="Trazado 146762" d="M509.6,483.576a4.022,4.022,0,0,1-3.123-1.228,4.493,4.493,0,0,1-1.125-3.16v-.33a4.892,4.892,0,0,1,1.092-3.289,3.708,3.708,0,0,1,3-1.273,3.471,3.471,0,0,1,2.764,1.1,4.356,4.356,0,0,1,.963,2.97v1.248h-5.33l-.025.05a2.416,2.416,0,0,0,.558,1.487,1.864,1.864,0,0,0,1.483.57,4.98,4.98,0,0,0,1.376-.165,5.664,5.664,0,0,0,1.169-.5l.652,1.487a4.47,4.47,0,0,1-1.455.735A6.454,6.454,0,0,1,509.6,483.576Zm-.157-7.421a1.34,1.34,0,0,0-1.119.5,2.508,2.508,0,0,0-.475,1.326l.016.041h2.942v-.182a2.089,2.089,0,0,0-.322-1.235A1.192,1.192,0,0,0,509.444,476.156Z" transform="translate(-491.977 -470.512)"/>
        <path id="Trazado_146763" data-name="Trazado 146763" d="M518.492,474.462l.1,1.182a3,3,0,0,1,1.078-1,3.1,3.1,0,0,1,1.5-.351,2.737,2.737,0,0,1,1.471.38,2.348,2.348,0,0,1,.926,1.149,3.1,3.1,0,0,1,1.074-1.125,2.923,2.923,0,0,1,1.553-.4,2.55,2.55,0,0,1,2.087.938,4.479,4.479,0,0,1,.764,2.863V483.4h-2.412v-5.314a2.5,2.5,0,0,0-.331-1.5,1.174,1.174,0,0,0-.983-.421,1.685,1.685,0,0,0-.888.227,1.657,1.657,0,0,0-.6.632c0,.1,0,.195.008.269s.008.15.008.227V483.4h-2.4v-5.314a2.511,2.511,0,0,0-.331-1.483,1.17,1.17,0,0,0-.992-.433,1.875,1.875,0,0,0-.855.185,1.625,1.625,0,0,0-.607.525V483.4h-2.4v-8.941Z" transform="translate(-493.654 -470.512)"/>
        <path id="Trazado_146764" data-name="Trazado 146764" d="M537.366,483.576a4.025,4.025,0,0,1-3.124-1.228,4.5,4.5,0,0,1-1.124-3.16v-.33a4.9,4.9,0,0,1,1.091-3.289,3.71,3.71,0,0,1,3-1.273,3.471,3.471,0,0,1,2.764,1.1,4.355,4.355,0,0,1,.962,2.97v1.248h-5.329l-.025.05a2.416,2.416,0,0,0,.558,1.487,1.864,1.864,0,0,0,1.482.57A4.971,4.971,0,0,0,539,481.56a5.625,5.625,0,0,0,1.169-.5l.653,1.487a4.47,4.47,0,0,1-1.455.735A6.461,6.461,0,0,1,537.366,483.576Zm-.157-7.421a1.339,1.339,0,0,0-1.119.5,2.507,2.507,0,0,0-.476,1.326l.017.041h2.941v-.182a2.089,2.089,0,0,0-.322-1.235A1.192,1.192,0,0,0,537.208,476.156Z" transform="translate(-496.249 -470.512)"/>
        <path id="Trazado_146765" data-name="Trazado 146765" d="M546.215,474.462l.107,1.281a3.262,3.262,0,0,1,1.1-1.066,2.857,2.857,0,0,1,1.462-.38,2.656,2.656,0,0,1,2.115.872,4.134,4.134,0,0,1,.761,2.756V483.4h-2.422v-5.47a2.14,2.14,0,0,0-.334-1.36,1.233,1.233,0,0,0-1-.4,2.106,2.106,0,0,0-.946.2,1.851,1.851,0,0,0-.674.558v6.47h-2.412v-8.941Z" transform="translate(-497.919 -470.512)"/>
        <path id="Trazado_146766" data-name="Trazado 146766" d="M558.049,471.9v2.19h1.512v1.694h-1.512v4.553a1.042,1.042,0,0,0,.218.744.769.769,0,0,0,.575.223,2.334,2.334,0,0,0,.331-.021,2.8,2.8,0,0,0,.322-.07l.2,1.744a4.834,4.834,0,0,1-.707.185,4.19,4.19,0,0,1-.748.063,2.568,2.568,0,0,1-1.921-.686,3,3,0,0,1-.673-2.173v-4.561h-1.306v-1.694h1.306V471.9Z" transform="translate(-499.515 -470.144)"/>
        <path id="Trazado_146767" data-name="Trazado 146767" d="M561.829,478.85a4.8,4.8,0,0,1,1.115-3.276,3.889,3.889,0,0,1,3.091-1.277,3.93,3.93,0,0,1,3.107,1.273,4.773,4.773,0,0,1,1.124,3.28v.173a4.786,4.786,0,0,1-1.119,3.285,4.42,4.42,0,0,1-6.2,0,4.786,4.786,0,0,1-1.119-3.285Zm2.4.173a3.883,3.883,0,0,0,.43,1.962,1.651,1.651,0,0,0,2.756,0,3.87,3.87,0,0,0,.433-1.958v-.173a3.832,3.832,0,0,0-.437-1.942,1.483,1.483,0,0,0-1.38-.752,1.462,1.462,0,0,0-1.367.756,3.855,3.855,0,0,0-.434,1.938Z" transform="translate(-500.667 -470.512)"/>
        <path id="Trazado_146768" data-name="Trazado 146768" d="M578.319,480.924a.833.833,0,0,0-.385-.682,3.917,3.917,0,0,0-1.425-.5,5.679,5.679,0,0,1-2.384-.95,2.074,2.074,0,0,1-.813-1.727,2.461,2.461,0,0,1,.975-1.958,3.93,3.93,0,0,1,2.594-.81,4.24,4.24,0,0,1,2.714.81,2.368,2.368,0,0,1,.98,2.016l-.017.049h-2.33a1.171,1.171,0,0,0-.347-.876,1.623,1.623,0,0,0-1.917-.049.9.9,0,0,0-.339.71.8.8,0,0,0,.351.674,3.908,3.908,0,0,0,1.426.467,5.793,5.793,0,0,1,2.45.971,2.127,2.127,0,0,1,.806,1.763,2.359,2.359,0,0,1-1.033,1.975,4.452,4.452,0,0,1-2.726.769,4.145,4.145,0,0,1-2.822-.905,2.527,2.527,0,0,1-.987-2.061l.016-.05h2.207a1.254,1.254,0,0,0,.47,1.042,1.946,1.946,0,0,0,1.165.322,1.652,1.652,0,0,0,1.02-.269A.87.87,0,0,0,578.319,480.924Z" transform="translate(-502.399 -470.512)"/>
      </g>
      <g id="Grupo_78611" data-name="Grupo 78611" transform="translate(688.379 442.158)">
        <path id="Trazado_146769" data-name="Trazado 146769" d="M804.514,478.857l.017.049a3.77,3.77,0,0,1-1.174,3.016,4.786,4.786,0,0,1-3.33,1.091,4.613,4.613,0,0,1-3.5-1.393,5,5,0,0,1-1.33-3.6v-2.388a5.087,5.087,0,0,1,1.3-3.6,4.427,4.427,0,0,1,3.4-1.4,5.079,5.079,0,0,1,3.437,1.074,3.7,3.7,0,0,1,1.207,3.025l-.016.049h-2.347a2.366,2.366,0,0,0-.558-1.723,2.326,2.326,0,0,0-1.723-.566,1.944,1.944,0,0,0-1.69.872,3.852,3.852,0,0,0-.608,2.252v2.4a3.739,3.739,0,0,0,.641,2.264,2.082,2.082,0,0,0,1.78.876,2.117,2.117,0,0,0,1.615-.566,2.461,2.461,0,0,0,.533-1.739Z" transform="translate(-795.202 -469.949)"/>
        <path id="Trazado_146770" data-name="Trazado 146770" d="M813.243,483.4a5.119,5.119,0,0,1-.227-.645,4.441,4.441,0,0,1-.137-.694,3.3,3.3,0,0,1-.983,1.082,2.465,2.465,0,0,1-1.454.43,3.019,3.019,0,0,1-2.165-.723,2.59,2.59,0,0,1-.76-1.971,2.356,2.356,0,0,1,1.012-2.037,5.052,5.052,0,0,1,2.954-.723h1.356v-.71a1.392,1.392,0,0,0-.339-1,1.328,1.328,0,0,0-1.008-.355,1.309,1.309,0,0,0-.9.285.993.993,0,0,0-.318.781h-2.323l-.016-.05a2.267,2.267,0,0,1,.987-1.954,4.286,4.286,0,0,1,2.73-.822,4,4,0,0,1,2.607.81,2.819,2.819,0,0,1,1,2.322v3.693a6.88,6.88,0,0,0,.1,1.182,5.93,5.93,0,0,0,.3,1.1Zm-2.206-1.612a2.051,2.051,0,0,0,1.124-.314,1.688,1.688,0,0,0,.678-.727v-1.264h-1.356a1.61,1.61,0,0,0-1.161.38,1.246,1.246,0,0,0-.393.933.931.931,0,0,0,.294.723A1.163,1.163,0,0,0,811.037,481.791Z" transform="translate(-797.097 -470.512)"/>
        <path id="Trazado_146771" data-name="Trazado 146771" d="M820.994,474.462l.108,1.281a3.261,3.261,0,0,1,1.1-1.066,2.86,2.86,0,0,1,1.463-.38,2.658,2.658,0,0,1,2.115.872,4.138,4.138,0,0,1,.76,2.756V483.4h-2.421v-5.47a2.139,2.139,0,0,0-.335-1.36,1.231,1.231,0,0,0-1-.4,2.1,2.1,0,0,0-.946.2,1.844,1.844,0,0,0-.674.558v6.47h-2.413v-8.941Z" transform="translate(-798.825 -470.512)"/>
        <path id="Trazado_146772" data-name="Trazado 146772" d="M832.828,471.9v2.19h1.512v1.694h-1.512v4.553a1.038,1.038,0,0,0,.219.744.767.767,0,0,0,.574.223,2.325,2.325,0,0,0,.331-.021,2.8,2.8,0,0,0,.322-.07l.2,1.744a4.839,4.839,0,0,1-.706.185,4.19,4.19,0,0,1-.747.063,2.569,2.569,0,0,1-1.922-.686,3.008,3.008,0,0,1-.673-2.173v-4.561h-1.306v-1.694h1.306V471.9Z" transform="translate(-800.421 -470.144)"/>
        <path id="Trazado_146773" data-name="Trazado 146773" d="M839.607,471.634h-2.413v-1.81h2.413Zm0,11.081h-2.413v-8.941h2.413Z" transform="translate(-801.664 -469.824)"/>
        <path id="Trazado_146774" data-name="Trazado 146774" d="M841.95,478.318a5.813,5.813,0,0,1,.913-3.412,2.966,2.966,0,0,1,2.574-1.3,2.5,2.5,0,0,1,1.207.289,2.9,2.9,0,0,1,.942.826v-4.9h2.422v12.891h-2.058l-.206-1.1a2.989,2.989,0,0,1-1,.946,2.644,2.644,0,0,1-1.322.327,3.023,3.023,0,0,1-2.558-1.207,5.155,5.155,0,0,1-.913-3.19Zm2.4.173a3.638,3.638,0,0,0,.4,1.847,1.379,1.379,0,0,0,1.289.674,1.875,1.875,0,0,0,.909-.211,1.68,1.68,0,0,0,.636-.616v-3.809a1.855,1.855,0,0,0-.632-.657,1.675,1.675,0,0,0-.9-.235,1.363,1.363,0,0,0-1.294.784,4.44,4.44,0,0,0-.409,2.049Z" transform="translate(-802.396 -469.824)"/>
        <path id="Trazado_146775" data-name="Trazado 146775" d="M858.868,483.4a5.119,5.119,0,0,1-.227-.645,4.434,4.434,0,0,1-.137-.694,3.3,3.3,0,0,1-.983,1.082,2.465,2.465,0,0,1-1.454.43,3.019,3.019,0,0,1-2.165-.723,2.59,2.59,0,0,1-.76-1.971,2.356,2.356,0,0,1,1.012-2.037,5.053,5.053,0,0,1,2.954-.723h1.355v-.71a1.391,1.391,0,0,0-.339-1,1.328,1.328,0,0,0-1.008-.355,1.309,1.309,0,0,0-.9.285.993.993,0,0,0-.318.781h-2.323l-.016-.05a2.267,2.267,0,0,1,.987-1.954,4.286,4.286,0,0,1,2.73-.822,4,4,0,0,1,2.607.81,2.819,2.819,0,0,1,1,2.322v3.693a6.886,6.886,0,0,0,.1,1.182,5.93,5.93,0,0,0,.3,1.1Zm-2.206-1.612a2.051,2.051,0,0,0,1.124-.314,1.688,1.688,0,0,0,.678-.727v-1.264h-1.355a1.609,1.609,0,0,0-1.161.38,1.245,1.245,0,0,0-.393.933.931.931,0,0,0,.294.723A1.163,1.163,0,0,0,856.662,481.791Z" transform="translate(-804.118 -470.512)"/>
        <path id="Trazado_146776" data-name="Trazado 146776" d="M863.981,478.318a5.807,5.807,0,0,1,.914-3.412,2.964,2.964,0,0,1,2.574-1.3,2.5,2.5,0,0,1,1.206.289,2.916,2.916,0,0,1,.943.826v-4.9h2.421v12.891H869.98l-.206-1.1a2.986,2.986,0,0,1-1,.946,2.649,2.649,0,0,1-1.322.327,3.021,3.021,0,0,1-2.557-1.207,5.15,5.15,0,0,1-.914-3.19Zm2.4.173a3.638,3.638,0,0,0,.4,1.847,1.379,1.379,0,0,0,1.289.674,1.878,1.878,0,0,0,.91-.211,1.693,1.693,0,0,0,.636-.616v-3.809a1.87,1.87,0,0,0-.632-.657,1.681,1.681,0,0,0-.9-.235,1.362,1.362,0,0,0-1.293.784,4.43,4.43,0,0,0-.41,2.049Z" transform="translate(-805.786 -469.824)"/>
      </g>
      <g id="Grupo_78612" data-name="Grupo 78612" transform="translate(886.66 425.236)">
        <path id="Trazado_146777" data-name="Trazado 146777" d="M1036.575,457.871h-4.618v5h-2.413V450.84h7.875V452.7h-5.462v3.313h4.618Z" transform="translate(-1029.544 -449.98)"/>
        <path id="Trazado_146778" data-name="Trazado 146778" d="M1043.011,451.634H1040.6v-1.81h2.412Zm0,11.081H1040.6v-8.941h2.412Z" transform="translate(-1031.245 -449.824)"/>
        <path id="Trazado_146779" data-name="Trazado 146779" d="M1050.5,456.536l-.884-.025a1.606,1.606,0,0,0-.884.223,1.411,1.411,0,0,0-.529.628v6.04h-2.4v-8.941h2.239l.108,1.322a2.818,2.818,0,0,1,.814-1.095,1.816,1.816,0,0,1,1.153-.393,1.784,1.784,0,0,1,.334.029c.1.02.2.042.31.07Z" transform="translate(-1032.045 -450.512)"/>
        <path id="Trazado_146780" data-name="Trazado 146780" d="M1055.074,454.462l.1,1.182a3.009,3.009,0,0,1,1.078-1,3.1,3.1,0,0,1,1.5-.351,2.737,2.737,0,0,1,1.471.38,2.349,2.349,0,0,1,.926,1.149,3.1,3.1,0,0,1,1.074-1.124,2.924,2.924,0,0,1,1.553-.4,2.55,2.55,0,0,1,2.087.938,4.478,4.478,0,0,1,.764,2.863V463.4h-2.412v-5.314a2.5,2.5,0,0,0-.331-1.5,1.173,1.173,0,0,0-.983-.421,1.685,1.685,0,0,0-.888.227,1.657,1.657,0,0,0-.6.632c0,.1,0,.195.009.269s.008.15.008.227V463.4h-2.4v-5.314a2.512,2.512,0,0,0-.331-1.483,1.17,1.17,0,0,0-.992-.433,1.875,1.875,0,0,0-.855.185,1.623,1.623,0,0,0-.607.525V463.4h-2.4v-8.941Z" transform="translate(-1033.128 -450.512)"/>
        <path id="Trazado_146781" data-name="Trazado 146781" d="M1075.329,463.4a5.117,5.117,0,0,1-.227-.645,4.42,4.42,0,0,1-.137-.694,3.309,3.309,0,0,1-.983,1.082,2.464,2.464,0,0,1-1.453.43,3.018,3.018,0,0,1-2.165-.723,2.59,2.59,0,0,1-.76-1.971,2.357,2.357,0,0,1,1.012-2.037,5.054,5.054,0,0,1,2.954-.723h1.355v-.71a1.391,1.391,0,0,0-.339-1,1.327,1.327,0,0,0-1.008-.355,1.311,1.311,0,0,0-.905.285.993.993,0,0,0-.318.781h-2.322l-.016-.05a2.268,2.268,0,0,1,.988-1.954,4.286,4.286,0,0,1,2.73-.822,4,4,0,0,1,2.607.81,2.82,2.82,0,0,1,1,2.322v3.693a6.975,6.975,0,0,0,.095,1.182,6,6,0,0,0,.3,1.1Zm-2.206-1.612a2.051,2.051,0,0,0,1.124-.314,1.693,1.693,0,0,0,.678-.727v-1.264h-1.355a1.609,1.609,0,0,0-1.161.38,1.245,1.245,0,0,0-.393.933.931.931,0,0,0,.294.723A1.163,1.163,0,0,0,1073.123,461.791Z" transform="translate(-1035.708 -450.512)"/>
      </g>
      <g id="Grupo_78613" data-name="Grupo 78613" transform="translate(822.355 454.864)">
        <path id="Trazado_146782" data-name="Trazado 146782" d="M960.419,491.583h-4.462v3.437h5.3v1.851h-7.717V484.84h7.7V486.7h-5.288v3.024h4.462Z" transform="translate(-953.544 -484.84)"/>
        <path id="Trazado_146783" data-name="Trazado 146783" d="M966.651,488.462l.108,1.281a3.258,3.258,0,0,1,1.1-1.066,2.859,2.859,0,0,1,1.463-.38,2.658,2.658,0,0,1,2.115.871,4.134,4.134,0,0,1,.76,2.756V497.4h-2.421v-5.47a2.139,2.139,0,0,0-.335-1.36,1.231,1.231,0,0,0-1-.4,2.1,2.1,0,0,0-.946.2,1.849,1.849,0,0,0-.673.558v6.47H964.4v-8.941Z" transform="translate(-955.215 -485.372)"/>
        <path id="Trazado_146784" data-name="Trazado 146784" d="M978.484,485.9v2.19H980v1.694h-1.512v4.553a1.038,1.038,0,0,0,.219.744.768.768,0,0,0,.575.223,2.328,2.328,0,0,0,.33-.021,2.739,2.739,0,0,0,.322-.07l.2,1.744a4.885,4.885,0,0,1-.707.185,4.2,4.2,0,0,1-.748.063,2.57,2.57,0,0,1-1.922-.686,3.008,3.008,0,0,1-.673-2.173v-4.561h-1.306v-1.694h1.306V485.9Z" transform="translate(-956.811 -485.004)"/>
        <path id="Trazado_146785" data-name="Trazado 146785" d="M987.406,490.536l-.884-.025a1.605,1.605,0,0,0-.884.223,1.41,1.41,0,0,0-.529.628v6.04h-2.4v-8.941h2.24l.107,1.322a2.818,2.818,0,0,1,.813-1.095,1.816,1.816,0,0,1,1.153-.393,1.784,1.784,0,0,1,.334.029c.1.019.2.042.31.07Z" transform="translate(-958.031 -485.372)"/>
        <path id="Trazado_146786" data-name="Trazado 146786" d="M993.368,497.576a4.024,4.024,0,0,1-3.124-1.228,4.5,4.5,0,0,1-1.124-3.16v-.33a4.9,4.9,0,0,1,1.091-3.289,3.71,3.71,0,0,1,3-1.273,3.471,3.471,0,0,1,2.764,1.1,4.36,4.36,0,0,1,.962,2.97v1.248h-5.329l-.025.05a2.421,2.421,0,0,0,.558,1.487,1.867,1.867,0,0,0,1.483.57A4.971,4.971,0,0,0,995,495.56a5.62,5.62,0,0,0,1.169-.5l.653,1.487a4.468,4.468,0,0,1-1.454.735A6.462,6.462,0,0,1,993.368,497.576Zm-.157-7.42a1.339,1.339,0,0,0-1.119.5,2.51,2.51,0,0,0-.476,1.326l.017.041h2.941v-.182a2.1,2.1,0,0,0-.321-1.235A1.192,1.192,0,0,0,993.21,490.156Z" transform="translate(-959.018 -485.372)"/>
        <path id="Trazado_146787" data-name="Trazado 146787" d="M999.6,493.007a5.789,5.789,0,0,1,.917-3.412,2.974,2.974,0,0,1,2.577-1.3,2.538,2.538,0,0,1,1.322.338,2.967,2.967,0,0,1,.975.967l.19-1.141h2.074v8.9a3.321,3.321,0,0,1-1.141,2.7,4.812,4.812,0,0,1-3.181.954,6.043,6.043,0,0,1-1.438-.186,6.665,6.665,0,0,1-1.4-.508l.405-1.8a5.586,5.586,0,0,0,1.144.4,5.7,5.7,0,0,0,1.277.136,2.159,2.159,0,0,0,1.459-.414,1.634,1.634,0,0,0,.467-1.289v-.81a2.7,2.7,0,0,1-.934.768,2.744,2.744,0,0,1-1.231.265,3.032,3.032,0,0,1-2.561-1.207,5.135,5.135,0,0,1-.917-3.19Zm2.412.173a3.667,3.667,0,0,0,.393,1.847,1.371,1.371,0,0,0,1.285.674,2,2,0,0,0,.938-.2,1.549,1.549,0,0,0,.616-.591v-3.875a1.657,1.657,0,0,0-.616-.636,1.812,1.812,0,0,0-.921-.223,1.353,1.353,0,0,0-1.289.784,4.465,4.465,0,0,0-.405,2.049Z" transform="translate(-960.631 -485.372)"/>
        <path id="Trazado_146788" data-name="Trazado 146788" d="M1016.5,497.4a5.111,5.111,0,0,1-.227-.645,4.442,4.442,0,0,1-.137-.694,3.311,3.311,0,0,1-.983,1.082,2.465,2.465,0,0,1-1.454.43,3.019,3.019,0,0,1-2.165-.723,2.591,2.591,0,0,1-.76-1.971,2.357,2.357,0,0,1,1.012-2.037,5.053,5.053,0,0,1,2.954-.723h1.355v-.71a1.392,1.392,0,0,0-.339-1,1.328,1.328,0,0,0-1.008-.355,1.311,1.311,0,0,0-.905.285.993.993,0,0,0-.318.781H1011.2l-.016-.05a2.267,2.267,0,0,1,.987-1.954,4.286,4.286,0,0,1,2.73-.822,4,4,0,0,1,2.607.81,2.82,2.82,0,0,1,1,2.322v3.693a6.976,6.976,0,0,0,.095,1.182,5.991,5.991,0,0,0,.3,1.1Zm-2.206-1.612a2.051,2.051,0,0,0,1.124-.314,1.693,1.693,0,0,0,.678-.727v-1.264h-1.355a1.61,1.61,0,0,0-1.161.38,1.246,1.246,0,0,0-.393.933.931.931,0,0,0,.294.723A1.163,1.163,0,0,0,1014.291,495.791Z" transform="translate(-962.35 -485.372)"/>
      </g>
      <g id="Grupo_78614" data-name="Grupo 78614" transform="translate(978.041 454.004)">
        <path id="Trazado_146789" data-name="Trazado 146789" d="M1139.957,492.062v4.809h-2.413V484.84h4.165a4.991,4.991,0,0,1,3.219.937,3.174,3.174,0,0,1,1.161,2.615,2.64,2.64,0,0,1-.492,1.6,3.437,3.437,0,0,1-1.434,1.086,2.59,2.59,0,0,1,1.533,1.049,3.327,3.327,0,0,1,.466,1.818v.883a4.355,4.355,0,0,0,.137,1.054,1.451,1.451,0,0,0,.466.814v.173h-2.487a1.335,1.335,0,0,1-.426-.877,7.669,7.669,0,0,1-.095-1.181v-.851a1.914,1.914,0,0,0-.491-1.4,1.866,1.866,0,0,0-1.393-.5Zm0-1.859h1.71a2.265,2.265,0,0,0,1.512-.43,1.591,1.591,0,0,0,.5-1.273,1.753,1.753,0,0,0-.5-1.314,2.018,2.018,0,0,0-1.467-.487h-1.751Z" transform="translate(-1137.544 -483.98)"/>
        <path id="Trazado_146790" data-name="Trazado 146790" d="M1153.881,497.576a4.023,4.023,0,0,1-3.123-1.228,4.492,4.492,0,0,1-1.124-3.16v-.33a4.891,4.891,0,0,1,1.091-3.289,3.709,3.709,0,0,1,3-1.273,3.468,3.468,0,0,1,2.763,1.1,4.356,4.356,0,0,1,.963,2.97v1.248h-5.33l-.025.05a2.42,2.42,0,0,0,.558,1.487,1.867,1.867,0,0,0,1.483.57,4.971,4.971,0,0,0,1.376-.165,5.662,5.662,0,0,0,1.169-.5l.652,1.487a4.463,4.463,0,0,1-1.454.735A6.463,6.463,0,0,1,1153.881,497.576Zm-.156-7.42a1.339,1.339,0,0,0-1.119.5,2.5,2.5,0,0,0-.476,1.326l.017.041h2.941v-.182a2.089,2.089,0,0,0-.322-1.235A1.191,1.191,0,0,0,1153.724,490.156Z" transform="translate(-1139.404 -484.512)"/>
        <path id="Trazado_146791" data-name="Trazado 146791" d="M1164.192,495.725a1.344,1.344,0,0,0,1-.376,1.367,1.367,0,0,0,.371-1h2.2l.017.05a2.8,2.8,0,0,1-1.009,2.268,3.771,3.771,0,0,1-2.578.913,3.812,3.812,0,0,1-3.066-1.268,4.825,4.825,0,0,1-1.082-3.243v-.248a4.854,4.854,0,0,1,1.078-3.243,3.777,3.777,0,0,1,3.054-1.277,3.687,3.687,0,0,1,2.635.942,3.148,3.148,0,0,1,.967,2.479l-.017.049h-2.2a1.783,1.783,0,0,0-.367-1.152,1.237,1.237,0,0,0-1.02-.459,1.379,1.379,0,0,0-1.327.748,4.106,4.106,0,0,0-.392,1.913v.248a4.091,4.091,0,0,0,.392,1.925A1.4,1.4,0,0,0,1164.192,495.725Z" transform="translate(-1141.006 -484.512)"/>
        <path id="Trazado_146792" data-name="Trazado 146792" d="M1173.4,485.634h-2.413v-1.81h2.413Zm0,11.081h-2.413v-8.941h2.413Z" transform="translate(-1142.691 -483.824)"/>
        <path id="Trazado_146793" data-name="Trazado 146793" d="M1184.251,492.492a5.23,5.23,0,0,1-.893,3.2,3.018,3.018,0,0,1-2.578,1.2,2.729,2.729,0,0,1-1.367-.331,2.819,2.819,0,0,1-.987-.967l-.2,1.124h-2.041V483.824h2.4v4.9a2.727,2.727,0,0,1,.93-.826,2.6,2.6,0,0,1,1.244-.289,2.961,2.961,0,0,1,2.594,1.284,5.9,5.9,0,0,1,.893,3.425Zm-2.4-.173a4.648,4.648,0,0,0-.384-2.07,1.348,1.348,0,0,0-1.31-.764,1.8,1.8,0,0,0-.95.235,1.638,1.638,0,0,0-.612.674v3.785a1.535,1.535,0,0,0,.616.619,1.983,1.983,0,0,0,.963.215,1.373,1.373,0,0,0,1.305-.657,3.839,3.839,0,0,0,.371-1.864Z" transform="translate(-1143.49 -483.824)"/>
        <path id="Trazado_146794" data-name="Trazado 146794" d="M1191.284,497.576a4.024,4.024,0,0,1-3.124-1.228,4.5,4.5,0,0,1-1.124-3.16v-.33a4.9,4.9,0,0,1,1.091-3.289,3.71,3.71,0,0,1,3-1.273,3.471,3.471,0,0,1,2.764,1.1,4.356,4.356,0,0,1,.962,2.97v1.248h-5.329l-.025.05a2.421,2.421,0,0,0,.558,1.487,1.867,1.867,0,0,0,1.483.57,4.971,4.971,0,0,0,1.376-.165,5.62,5.62,0,0,0,1.169-.5l.653,1.487a4.468,4.468,0,0,1-1.455.735A6.46,6.46,0,0,1,1191.284,497.576Zm-.157-7.42a1.339,1.339,0,0,0-1.119.5,2.508,2.508,0,0,0-.475,1.326l.017.041h2.941v-.182a2.1,2.1,0,0,0-.322-1.235A1.191,1.191,0,0,0,1191.126,490.156Z" transform="translate(-1145.16 -484.512)"/>
      </g>
    </g>
  </g>
</svg>
