<svg xmlns="http://www.w3.org/2000/svg" width="60" height="60" viewBox="0 0 60 60">
  <g id="Invoice" transform="translate(-2 -2)">
    <path id="Trazado_157542" data-name="Trazado 157542" d="M61,2H55a1,1,0,0,0-1,1v.382L51.869,2.316A3.014,3.014,0,0,0,50.528,2H35.871A3,3,0,0,0,34,2.658L29.819,6H15a1,1,0,0,0-1,1V25a1,1,0,0,0,1,1H43a1,1,0,0,0,1-1V15.448a9.024,9.024,0,0,0,7.942-.648L53.28,14H54v1a1,1,0,0,0,1,1h6a1,1,0,0,0,1-1V3A1,1,0,0,0,61,2ZM16,24V8H37.929L36.808,9.121a3,3,0,1,0,4.242,4.243l.95-.95V24ZM52.993,12a.992.992,0,0,0-.508.143l-1.572.942a7.028,7.028,0,0,1-6.239.482L44,13.293V10.414l1.27-1.27.516.172a7.044,7.044,0,0,0,4.428,0l1.1-.367a1,1,0,0,0-.632-1.9l-1.1.368a5.029,5.029,0,0,1-3.162,0l-1.1-.368a1,1,0,0,0-1.023.242L39.635,11.95a1.022,1.022,0,0,1-1.413,0,1,1,0,0,1,0-1.413L42.108,6.65a1,1,0,1,0-1.414-1.414L39.93,6H33.021l2.226-1.781A1.007,1.007,0,0,1,35.871,4H50.528a1.016,1.016,0,0,1,.447.1L54,5.618v6.375ZM60,14H56V4h4Z" fill="#5c22c3"/>
    <path id="Trazado_157543" data-name="Trazado 157543" d="M42.165,47.369A2.948,2.948,0,0,0,41,47.292V32a2,2,0,0,0-2-2H17a2,2,0,0,0-2,2V49H13.944a5.028,5.028,0,0,0-2.236.528L10,50.382V49a1,1,0,0,0-1-1H3a1,1,0,0,0-1,1V61a1,1,0,0,0,1,1H9a1,1,0,0,0,1-1V59.868l.437.292a4.992,4.992,0,0,0,2.774.84H26.792a8.994,8.994,0,0,0,4.618-1.275l11.48-6.859a3.007,3.007,0,0,0,1.5-2.6,2.885,2.885,0,0,0-.4-1.5,2.972,2.972,0,0,0-1.825-1.4ZM30,32v7.131l-1.445-.963a1,1,0,0,0-1.11,0L26,39.131V32ZM17,32h7v9a1,1,0,0,0,1.555.832L28,40.2l2.445,1.63A1,1,0,0,0,32,41V32h7V48.187l-7.1,4.1A3,3,0,0,0,29,50H21.236l-1.367-.684A3.014,3.014,0,0,0,18.528,49H17ZM8,60H4V50H8Zm33.877-8.858L30.383,58.009A7,7,0,0,1,26.792,59H13.211a2.989,2.989,0,0,1-1.664-.5L10,57.465V52.618l2.6-1.3A3,3,0,0,1,13.944,51h4.584a1.016,1.016,0,0,1,.447.1l1.578.79A1,1,0,0,0,21,52h8a1,1,0,0,1,0,2H22a1,1,0,0,0,0,2h7a2.981,2.981,0,0,0,2.24-1.025L40.894,49.4a.981.981,0,0,1,.754-.1,1,1,0,0,1,.619.491.932.932,0,0,1,.123.478,1.009,1.009,0,0,1-.513.873Z" fill="#5c22c3"/>
    <path id="Trazado_157544" data-name="Trazado 157544" d="M27,12H19a1,1,0,0,0-1,1v8a1,1,0,0,0,1,1h8a1,1,0,0,0,1-1V13A1,1,0,0,0,27,12Zm-1,8H20V14h2v2a1,1,0,0,0,2,0V14h2Z" fill="#5c22c3"/>
    <path id="Trazado_157545" data-name="Trazado 157545" d="M31,14h2a1,1,0,0,0,0-2H31a1,1,0,0,0,0,2Z" fill="#5c22c3"/>
    <path id="Trazado_157546" data-name="Trazado 157546" d="M39,16H31a1,1,0,0,0,0,2h8a1,1,0,0,0,0-2Z" fill="#5c22c3"/>
    <path id="Trazado_157547" data-name="Trazado 157547" d="M39,20H31a1,1,0,0,0,0,2h8a1,1,0,0,0,0-2Z" fill="#5c22c3"/>
  </g>
</svg>
