<svg xmlns="http://www.w3.org/2000/svg" xmlns:xlink="http://www.w3.org/1999/xlink" width="60" height="60" viewBox="0 0 60 60">
  <defs>
    <clipPath id="clip-path">
      <rect id="Rectángulo_35718" data-name="Rectángulo 35718" width="60" height="60" transform="translate(1065 4994)" fill="#fff505" stroke="#707070" stroke-width="1"/>
    </clipPath>
  </defs>
  <g id="Enmascarar_grupo_74" data-name="Enmascarar grupo 74" transform="translate(-1065 -4994)" clip-path="url(#clip-path)">
    <g id="factura_2_" data-name="factura (2)" transform="translate(1065.117 4994.117)">
      <g id="Grupo_81524" data-name="Grupo 81524">
        <g id="Grupo_81523" data-name="Grupo 81523">
          <path id="Trazado_157548" data-name="Trazado 157548" d="M34.883,21.883a10.975,10.975,0,0,0-6.346,2H16.883a1,1,0,1,0,0,2h9.5a10.94,10.94,0,0,0-2.088,4h-7.41a1,1,0,1,0,0,2h7.045c-.029.329-.045.663-.045,1a11.1,11.1,0,0,0,.41,3h-7.41a1,1,0,1,0,0,2h8.19a11,11,0,1,0,9.81-16Zm0,20a8.963,8.963,0,0,1-9-9,9.172,9.172,0,0,1,.155-1.673,1.121,1.121,0,0,0,.038-.2,8.945,8.945,0,0,1,3.294-5.258,1.026,1.026,0,0,0,.219-.164,9.005,9.005,0,1,1,5.294,16.294Z" fill="#fff505"/>
          <path id="Trazado_157549" data-name="Trazado 157549" d="M40.383,27.983a.984.984,0,0,0-1.4.3l-5.3,8-3.1-3.1a.99.99,0,0,0-1.4,1.4l4,4a.908.908,0,0,0,.7.3.792.792,0,0,0,.8-.5l6-9A.983.983,0,0,0,40.383,27.983Z" fill="#fff505"/>
          <path id="Trazado_157550" data-name="Trazado 157550" d="M53.883-.117h-39a4.951,4.951,0,0,0-5,5v41h-7a2.946,2.946,0,0,0-3,3v5a6.018,6.018,0,0,0,6,6h38a5.946,5.946,0,0,0,4-1.6,5.707,5.707,0,0,0,2-4.4v-40h7a2.946,2.946,0,0,0,3-3v-5A6.018,6.018,0,0,0,53.883-.117Zm-48,58a4.012,4.012,0,0,1-4-4v-5a1,1,0,0,1,1-1h35v6a5.851,5.851,0,0,0,1.5,4H5.883Zm42-52v48a4.157,4.157,0,0,1-1.3,3,4.621,4.621,0,0,1-2.56,1.009,1.256,1.256,0,0,0-.14-.008A3.965,3.965,0,0,1,42,57.41a4.265,4.265,0,0,1-2.121-3.728v-6.8a.945.945,0,0,0-1-1h-27v-41a2.946,2.946,0,0,1,3-3h34.5a7.078,7.078,0,0,0-.532.746,5.953,5.953,0,0,0-.96,2.97Q47.883,5.74,47.883,5.883Zm10,5a1,1,0,0,1-1,1h-7v-6a4,4,0,1,1,8,0Z" fill="#fff505"/>
          <path id="Trazado_157551" data-name="Trazado 157551" d="M23.883,7.883h12a.945.945,0,0,0,1-1,.945.945,0,0,0-1-1h-12a.945.945,0,0,0-1,1A.945.945,0,0,0,23.883,7.883Z" fill="#fff505"/>
          <path id="Trazado_157552" data-name="Trazado 157552" d="M16.883,13.883h26a1,1,0,1,0,0-2h-26a1,1,0,1,0,0,2Z" fill="#fff505"/>
          <path id="Trazado_157553" data-name="Trazado 157553" d="M16.883,19.883h26a1,1,0,0,0,0-2h-26a1,1,0,1,0,0,2Z" fill="#fff505"/>
        </g>
      </g>
    </g>
  </g>
</svg>
