<svg xmlns="http://www.w3.org/2000/svg" xmlns:xlink="http://www.w3.org/1999/xlink" width="60" height="60" viewBox="0 0 60 60">
  <defs>
    <clipPath id="clip-path">
      <rect id="Rectángulo_35737" data-name="Rectángulo 35737" width="60" height="60" transform="translate(435 5124)" fill="#5c22c3" stroke="#707070" stroke-width="1"/>
    </clipPath>
  </defs>
  <g id="Enmascarar_grupo_81" data-name="Enmascarar grupo 81" transform="translate(-435 -5124)" clip-path="url(#clip-path)">
    <g id="reporte" transform="translate(435 5124)">
      <path id="Trazado_157586" data-name="Trazado 157586" d="M53.011,46.389a.83.83,0,0,0,.016-.16V2.694A2.7,2.7,0,0,0,50.332,0H9.668a2.7,2.7,0,0,0-2.7,2.7V57.3a2.7,2.7,0,0,0,2.7,2.7h29.59a.841.841,0,0,0,.58-.24L52.787,46.81a.886.886,0,0,0,.225-.421ZM8.613,57.3V2.694A1.056,1.056,0,0,1,9.668,1.639H50.332a1.056,1.056,0,0,1,1.055,1.055V45.409H42.07a3.637,3.637,0,0,0-3.633,3.633v9.318H9.668A1.056,1.056,0,0,1,8.613,57.3ZM40.078,57.2V49.042a2,2,0,0,1,1.992-1.992h8.156Z" fill="#5c22c3"/>
      <path id="Trazado_157587" data-name="Trazado 157587" d="M28.652,22.619h19.8a.82.82,0,1,0,0-1.641h-.578v-9.2a.821.821,0,0,0-.82-.82H43.777a.82.82,0,0,0-.82.82v9.2H41.016V9.083a.82.82,0,0,0-.82-.82H36.914a.82.82,0,0,0-.82.82v11.9H34.153v-5.59a.82.82,0,0,0-.82-.82H30.051a.82.82,0,0,0-.82.82v5.59h-.578a.82.82,0,0,0,0,1.641ZM44.6,12.6h1.641v8.379H44.6ZM37.734,9.9h1.641V20.978H37.734Zm-6.863,6.306h1.641v4.77H30.871Z" fill="#5c22c3"/>
      <path id="Trazado_157588" data-name="Trazado 157588" d="M17.9,41.843a7.179,7.179,0,1,0-7.042-5.778A7.131,7.131,0,0,0,17.9,41.843Zm5.536-7.178a5.5,5.5,0,0,1-1.084,3.293L18.72,34.325V29.187a5.546,5.546,0,0,1,4.717,5.477Zm-6.356-5.477v5.477a.82.82,0,0,0,.24.58l3.873,3.874a5.539,5.539,0,1,1-4.113-9.931Z" fill="#5c22c3"/>
      <path id="Trazado_157589" data-name="Trazado 157589" d="M11.543,10.2H24.9a.82.82,0,0,0,0-1.641H11.543a.82.82,0,0,0,0,1.641Z" fill="#5c22c3"/>
      <path id="Trazado_157590" data-name="Trazado 157590" d="M13.125,12.366a.82.82,0,0,0,0,1.641h10.2a.82.82,0,1,0,0-1.641Z" fill="#5c22c3"/>
      <path id="Trazado_157591" data-name="Trazado 157591" d="M11.543,17.817H24.9a.82.82,0,0,0,0-1.641H11.543a.82.82,0,0,0,0,1.641Z" fill="#5c22c3"/>
      <path id="Trazado_157592" data-name="Trazado 157592" d="M13.125,19.987a.82.82,0,0,0,0,1.641h10.2a.82.82,0,1,0,0-1.641Z" fill="#5c22c3"/>
      <path id="Trazado_157593" data-name="Trazado 157593" d="M28.53,28.838H48.457a.82.82,0,0,0,0-1.641H28.53a.82.82,0,0,0,0,1.641Z" fill="#5c22c3"/>
      <path id="Trazado_157594" data-name="Trazado 157594" d="M30.112,31.008a.82.82,0,0,0,0,1.641H46.875a.82.82,0,1,0,0-1.641Z" fill="#5c22c3"/>
      <path id="Trazado_157595" data-name="Trazado 157595" d="M28.53,36.459H48.457a.82.82,0,1,0,0-1.641H28.53a.82.82,0,0,0,0,1.641Z" fill="#5c22c3"/>
      <path id="Trazado_157596" data-name="Trazado 157596" d="M46.875,38.629H30.112a.82.82,0,0,0,0,1.641H46.875a.82.82,0,1,0,0-1.641Z" fill="#5c22c3"/>
      <path id="Trazado_157597" data-name="Trazado 157597" d="M35.527,46.342a.821.821,0,0,0-.82-.82H12.434a.82.82,0,0,0,0,1.641H34.706a.82.82,0,0,0,.82-.82Z" fill="#5c22c3"/>
      <path id="Trazado_157598" data-name="Trazado 157598" d="M14.016,49.333a.82.82,0,0,0,0,1.641H33.124a.82.82,0,1,0,0-1.641Z" fill="#5c22c3"/>
      <path id="Trazado_157599" data-name="Trazado 157599" d="M34.706,53.143H12.434a.82.82,0,0,0,0,1.641H34.706a.82.82,0,1,0,0-1.641Z" fill="#5c22c3"/>
    </g>
  </g>
</svg>
