<svg xmlns="http://www.w3.org/2000/svg" xmlns:xlink="http://www.w3.org/1999/xlink" width="190" height="190" viewBox="0 0 190 190">
  <defs>
    <clipPath id="clip-path">
      <rect id="Rectángulo_35171" data-name="Rectángulo 35171" width="190" height="190" transform="translate(147 76)" fill="#fff" stroke="#707070" stroke-width="1"/>
    </clipPath>
  </defs>
  <g id="Enmascarar_grupo_64" data-name="Enmascarar grupo 64" transform="translate(-147 -76)" clip-path="url(#clip-path)">
    <g id="seguridad-alimenticia" transform="translate(147 76)">
      <path id="Trazado_156376" data-name="Trazado 156376" d="M176.306,24.285A169.92,169.92,0,0,1,95,3.711,169.919,169.919,0,0,1,13.694,24.285V73.56A118.8,118.8,0,0,0,95,186.289,118.8,118.8,0,0,0,176.306,73.56V24.285Z" fill="#5c22c3"/>
      <g id="Grupo_81202" data-name="Grupo 81202">
        <path id="Trazado_156377" data-name="Trazado 156377" d="M30.03,39.9V73.56A102.318,102.318,0,0,0,95,168.921a102.318,102.318,0,0,0,64.97-95.362V39.9A187.42,187.42,0,0,1,95,22.06,187.416,187.416,0,0,1,30.03,39.9Z" fill="#fff"/>
      </g>
      <g id="Grupo_81203" data-name="Grupo 81203">
        <path id="Trazado_156378" data-name="Trazado 156378" d="M95,126.752a6.968,6.968,0,0,0,5.613,2.839,13.047,13.047,0,0,0,11.422-6.742l11.768-21.32A21.143,21.143,0,0,0,99.092,71.1L95,72.355,90.908,71.1A21.143,21.143,0,0,0,66.2,101.529l11.768,21.32a13.046,13.046,0,0,0,11.422,6.742A6.967,6.967,0,0,0,95,126.752Z" fill="#6ae6a3"/>
        <path id="Trazado_156379" data-name="Trazado 156379" d="M107.038,51.129l-6.388,1.712a10.576,10.576,0,0,0-7.478,12.953l1.712,6.388,6.388-1.712a10.576,10.576,0,0,0,7.478-12.953Z" fill="#8fecba"/>
      </g>
      <g id="Grupo_81204" data-name="Grupo 81204">
        <path id="Trazado_156380" data-name="Trazado 156380" d="M176.306,20.574A167.2,167.2,0,0,1,96.771.45a3.711,3.711,0,0,0-3.541,0A167.2,167.2,0,0,1,13.694,20.574a3.711,3.711,0,0,0-3.711,3.711V73.56A122.514,122.514,0,0,0,93.829,189.811a3.713,3.713,0,0,0,2.343,0,122.373,122.373,0,0,0,55.505-37.886,3.711,3.711,0,0,0-5.706-4.747A114.949,114.949,0,0,1,95,182.372,114.929,114.929,0,0,1,17.405,73.56v-45.6A174.667,174.667,0,0,0,95,7.92a174.666,174.666,0,0,0,77.6,20.036v45.6a114.318,114.318,0,0,1-9.652,46.149,3.711,3.711,0,0,0,6.8,2.978A121.7,121.7,0,0,0,180.017,73.56V24.285a3.711,3.711,0,0,0-3.711-3.711Z" fill="#12263f"/>
        <path id="Trazado_156381" data-name="Trazado 156381" d="M163.682,39.9a3.711,3.711,0,0,0-3.387-3.7A182.755,182.755,0,0,1,96.613,18.718a3.71,3.71,0,0,0-3.225,0A182.741,182.741,0,0,1,29.705,36.207a3.711,3.711,0,0,0-3.387,3.7V73.56a106.029,106.029,0,0,0,67.325,98.816,3.713,3.713,0,0,0,2.712,0A106.029,106.029,0,0,0,163.682,73.56ZM156.26,73.56A98.606,98.606,0,0,1,95,164.923,98.606,98.606,0,0,1,33.741,73.56V43.274A190,190,0,0,0,95,26.171a190.01,190.01,0,0,0,61.26,17.1Z" fill="#12263f"/>
        <path id="Trazado_156382" data-name="Trazado 156382" d="M91.015,55.913a14.192,14.192,0,0,0-1.427,10.841l.055.206a24.849,24.849,0,0,0-26.694,36.363l11.768,21.32a16.761,16.761,0,0,0,14.671,8.66A10.7,10.7,0,0,0,95,131.7a10.7,10.7,0,0,0,5.613,1.6,16.761,16.761,0,0,0,14.671-8.66l11.768-21.32a24.851,24.851,0,0,0-16-36.187,14.185,14.185,0,0,0,1.284-10.579l-1.711-6.388a3.711,3.711,0,0,0-4.545-2.624L99.69,49.257A14.192,14.192,0,0,0,91.015,55.913Zm29.539,43.823-11.768,21.32a9.337,9.337,0,0,1-8.173,4.825,3.268,3.268,0,0,1-2.623-1.327,3.711,3.711,0,0,0-5.979,0,3.268,3.268,0,0,1-2.623,1.327,9.336,9.336,0,0,1-8.173-4.825L69.446,99.736A17.431,17.431,0,0,1,89.82,74.647L93.912,75.9a3.712,3.712,0,0,0,2.176,0l4.092-1.255a17.432,17.432,0,0,1,20.374,25.089ZM97.442,59.624a6.821,6.821,0,0,1,4.169-3.2l2.8-.751.751,2.8a6.865,6.865,0,0,1-4.854,8.408l-2.8.751-.751-2.8A6.82,6.82,0,0,1,97.442,59.624Z" fill="#12263f"/>
        <circle id="Elipse_4743" data-name="Elipse 4743" cx="3.711" cy="3.711" r="3.711" transform="translate(154.865 132.279)" fill="#12263f"/>
      </g>
    </g>
  </g>
</svg>
