<svg xmlns="http://www.w3.org/2000/svg" xmlns:xlink="http://www.w3.org/1999/xlink" width="190" height="190" viewBox="0 0 190 190">
  <defs>
    <clipPath id="clip-path">
      <rect id="Rectángulo_35172" data-name="Rectángulo 35172" width="190" height="190" transform="translate(147 346)" fill="#fff" stroke="#707070" stroke-width="1"/>
    </clipPath>
  </defs>
  <g id="Enmascarar_grupo_65" data-name="Enmascarar grupo 65" transform="translate(-147 -346)" clip-path="url(#clip-path)">
    <g id="Legal" transform="translate(140.667 339.667)">
      <path id="Trazado_156383" data-name="Trazado 156383" d="M22.167,161.5a19,19,0,0,0,19,19h152v12.667h-152a31.667,31.667,0,0,1,0-63.333h152V142.5h-152A19,19,0,0,0,22.167,161.5Z" fill="#ba68c8"/>
      <path id="Trazado_156384" data-name="Trazado 156384" d="M177.333,180.5h15.833v12.667H177.333Z" fill="#5c22c3"/>
      <path id="Trazado_156385" data-name="Trazado 156385" d="M177.333,129.833h15.833V142.5H177.333Z" fill="#5c22c3"/>
      <path id="Trazado_156386" data-name="Trazado 156386" d="M193.167,60.167A12.651,12.651,0,0,1,180.5,72.833H136.167V47.5H180.5A12.667,12.667,0,0,1,193.167,60.167Z" fill="#957856"/>
      <path id="Trazado_156387" data-name="Trazado 156387" d="M193.167,60.167a12.632,12.632,0,0,1-1.71,6.333A12.6,12.6,0,0,0,180.5,60.167H136.167V47.5H180.5A12.667,12.667,0,0,1,193.167,60.167Z" fill="#6a563d"/>
      <path id="Trazado_156388" data-name="Trazado 156388" d="M186.833,142.5v38H41.167a19,19,0,1,1,0-38Z" fill="#fee9ab"/>
      <path id="Trazado_156389" data-name="Trazado 156389" d="M186.833,142.5v19H41.167A18.953,18.953,0,0,0,24.732,171a18.547,18.547,0,0,1-2.565-9.5,19,19,0,0,1,19-19Z" fill="#fff505"/>
      <path id="Trazado_156390" data-name="Trazado 156390" d="M66.5,53.833h69.667V66.5H66.5Z" fill="#c0ab91"/>
      <path id="Trazado_156391" data-name="Trazado 156391" d="M66.5,53.833h69.667v6.333H66.5Z" fill="#a78966"/>
      <path id="Trazado_156392" data-name="Trazado 156392" d="M79.167,98.167v12.667H9.5V98.167a6.352,6.352,0,0,1,6.333-6.333h57a6.352,6.352,0,0,1,6.333,6.333Z" fill="#806749"/>
      <path id="Trazado_156393" data-name="Trazado 156393" d="M79.167,98.167v12.667H63.333V98.167A6.352,6.352,0,0,0,57,91.833H72.833a6.352,6.352,0,0,1,6.333,6.333Z" fill="#5f4d37"/>
      <path id="Trazado_156394" data-name="Trazado 156394" d="M79.167,9.5V22.167A6.352,6.352,0,0,1,72.833,28.5h-57A6.352,6.352,0,0,1,9.5,22.167V9.5Z" fill="#806749"/>
      <path id="Trazado_156395" data-name="Trazado 156395" d="M79.167,9.5V22.167A6.352,6.352,0,0,1,72.833,28.5H57a6.352,6.352,0,0,0,6.333-6.333V9.5Z" fill="#5f4d37"/>
      <path id="Trazado_156396" data-name="Trazado 156396" d="M15.833,79.167h57V91.833h-57Z" fill="#c0ab91"/>
      <path id="Trazado_156397" data-name="Trazado 156397" d="M57,79.167H72.833V91.833H57Z" fill="#a78966"/>
      <path id="Trazado_156398" data-name="Trazado 156398" d="M15.833,28.5h57V41.167h-57Z" fill="#c0ab91"/>
      <path id="Trazado_156399" data-name="Trazado 156399" d="M57,28.5H72.833V41.167H57Z" fill="#a78966"/>
      <path id="Trazado_156400" data-name="Trazado 156400" d="M22.167,41.167H66.5v38H22.167Z" fill="#a78966"/>
      <path id="Trazado_156401" data-name="Trazado 156401" d="M53.833,41.167H66.5v38H53.833Z" fill="#806749"/>
      <path id="Trazado_156402" data-name="Trazado 156402" d="M193.167,126.667h-152a34.833,34.833,0,0,0,0,69.667h152a3.167,3.167,0,0,0,3.167-3.167V180.5a3.167,3.167,0,0,0-3.167-3.167H190V145.667h3.167a3.167,3.167,0,0,0,3.167-3.167V129.833A3.167,3.167,0,0,0,193.167,126.667Zm-9.5,50.667H41.167a15.833,15.833,0,0,1,0-31.667h142.5Zm6.333-38H41.167a22.167,22.167,0,0,0,0,44.333H190V190H41.167a28.5,28.5,0,1,1,0-57H190Z" fill="#12263f"/>
      <path id="Trazado_156403" data-name="Trazado 156403" d="M38,158.333H171v6.333H38Z" fill="#12263f"/>
      <path id="Trazado_156404" data-name="Trazado 156404" d="M9.5,114H79.167a3.167,3.167,0,0,0,3.167-3.167V98.167A9.519,9.519,0,0,0,76,89.208V79.167A3.167,3.167,0,0,0,72.833,76H69.667V69.667H133v3.167A3.167,3.167,0,0,0,136.167,76H180.5a15.833,15.833,0,1,0,0-31.667H136.167A3.167,3.167,0,0,0,133,47.5v3.167H69.667V44.333h3.167A3.167,3.167,0,0,0,76,41.167V31.125a9.519,9.519,0,0,0,6.333-8.958V9.5a3.167,3.167,0,0,0-3.167-3.167H9.5A3.167,3.167,0,0,0,6.333,9.5V22.167a9.519,9.519,0,0,0,6.333,8.959V41.167a3.167,3.167,0,0,0,3.167,3.167H19V76H15.833a3.167,3.167,0,0,0-3.167,3.167V89.208a9.519,9.519,0,0,0-6.333,8.959v12.667A3.167,3.167,0,0,0,9.5,114ZM139.333,50.667H180.5a9.5,9.5,0,1,1,0,19H139.333ZM133,57v6.333H69.667V57ZM19,38V31.667H69.667V38ZM12.667,22.167v-9.5H76v9.5a3.167,3.167,0,0,1-3.167,3.167h-57A3.167,3.167,0,0,1,12.667,22.167ZM25.333,44.333h38V76h-38Zm44.333,38v6.333H19V82.333Zm-57,15.833A3.167,3.167,0,0,1,15.833,95h57A3.167,3.167,0,0,1,76,98.167v9.5H12.667Z" fill="#12263f"/>
      <path id="Trazado_156405" data-name="Trazado 156405" d="M177.333,57h6.333v6.333h-6.333Z" fill="#12263f"/>
      <path id="Trazado_156406" data-name="Trazado 156406" d="M145.667,57H171v6.333H145.667Z" fill="#12263f"/>
    </g>
  </g>
</svg>
