<svg xmlns="http://www.w3.org/2000/svg" xmlns:xlink="http://www.w3.org/1999/xlink" width="190" height="190" viewBox="0 0 190 190">
  <defs>
    <clipPath id="clip-path">
      <rect id="Rectángulo_35173" data-name="Rectángulo 35173" width="190" height="190" transform="translate(147 718)" fill="#fff" stroke="#707070" stroke-width="1"/>
    </clipPath>
  </defs>
  <g id="Enmascarar_grupo_66" data-name="Enmascarar grupo 66" transform="translate(-147 -718)" clip-path="url(#clip-path)">
    <g id="casco" transform="translate(147.002 718.002)">
      <g id="Grupo_81208" data-name="Grupo 81208">
        <path id="Trazado_156407" data-name="Trazado 156407" d="M72.539,134.248,55.746,117.455,38.221,134.978a26.6,26.6,0,1,0,16.8,16.782ZM35.624,172.182H23.749l-8.906-11.875,8.906-11.875H35.624l8.906,11.875Z" fill="#fff505"/>
        <g id="Grupo_81205" data-name="Grupo 81205">
          <path id="Trazado_156408" data-name="Trazado 156408" d="M168.7,181.3l-5.577,5.578a26.725,26.725,0,0,1-28.144-35.1l-14.559-14.559,16.793-16.793,14.559,14.559a26.725,26.725,0,0,1,35.1,28.145l-5.578,5.578L169.213,154.37H154.37v14.843Z" fill="#fff505"/>
          <path id="Trazado_156409" data-name="Trazado 156409" d="M8.695,21.29,3.117,26.866a26.725,26.725,0,0,0,35.1,28.144L52.778,69.569,69.57,52.776,55.012,38.217a26.725,26.725,0,0,0-28.145-35.1L21.29,8.695,35.624,20.781V35.624H20.781Z" fill="#fff505"/>
          <path id="Trazado_156410" data-name="Trazado 156410" d="M181.3,21.29l5.578,5.577a26.725,26.725,0,0,1-35.1,28.144L137.216,69.569,120.424,52.776l14.559-14.559a26.725,26.725,0,0,1,28.145-35.1L168.705,8.7,154.37,20.781V35.624h14.843Z" fill="#fff505"/>
        </g>
        <g id="Grupo_81207" data-name="Grupo 81207">
          <path id="Trazado_156411" data-name="Trazado 156411" d="M160.307,121.715H29.687l4.2-34.993A44.53,44.53,0,0,1,78.1,47.5h33.8a44.53,44.53,0,0,1,44.213,39.223Z" fill="#5c22c3"/>
          <g id="Grupo_81206" data-name="Grupo 81206">
            <path id="Trazado_156412" data-name="Trazado 156412" d="M80.525,41.561h28.944a6.308,6.308,0,0,1,6.308,6.308v70.985H74.216V47.87A6.308,6.308,0,0,1,80.525,41.561Z" fill="#ba68c8"/>
            <path id="Trazado_156413" data-name="Trazado 156413" d="M166.245,122.077,95,106.872,23.749,122.077l2.969,11.512L95,139.527l68.279-5.937Z" fill="#ba68c8"/>
          </g>
        </g>
      </g>
      <g id="Grupo_81209" data-name="Grupo 81209">
        <path id="Trazado_156414" data-name="Trazado 156414" d="M12.468,162.091l8.906,11.875a2.969,2.969,0,0,0,2.375,1.187H35.624A2.969,2.969,0,0,0,38,173.965L46.9,162.091a2.969,2.969,0,0,0,0-3.562L38,146.654a2.969,2.969,0,0,0-2.375-1.187H23.749a2.969,2.969,0,0,0-2.375,1.187l-8.906,11.875a2.969,2.969,0,0,0,0,3.562ZM25.234,151.4H34.14l6.679,8.906-6.679,8.906H25.234l-6.679-8.906Z" fill="#12263f"/>
        <path id="Trazado_156415" data-name="Trazado 156415" d="M29.621,59.4a29.853,29.853,0,0,0,7.753-1.029l3.794,3.794a47.651,47.651,0,0,0-10.23,24.209l-.281,2.338,5.894.707.281-2.338A41.567,41.567,0,0,1,71.248,51.035v57.871L33.24,117.018l2.6-21.665-5.894-.707L27.1,118.328l-3.975.848a2.969,2.969,0,0,0-2.255,3.644l2.2,8.543a29.615,29.615,0,1,0,35.3,21.245L70.6,140.388l24.139,2.1c.085.007.171.011.257.011s.172,0,.257-.011l8.906-.774-.514-5.915L95,136.549l-65.31-5.678v-.247q-.334,0-.668.007l-1.622-6.3L95,109.909l67.6,14.427-1.67,6.48-51.343,4.464.514,5.915,9.3-.809,12.235,12.235a29.77,29.77,0,0,0-.27,14.281l5.789-1.314a23.828,23.828,0,0,1,.647-12.867,2.969,2.969,0,0,0-.715-3.043l-9.963-9.963,35.825-3.117-.012.1A23.752,23.752,0,0,1,184.009,161.8l-2.523,2.525-10-11.863a2.969,2.969,0,0,0-2.27-1.055H154.37a2.969,2.969,0,0,0-2.969,2.969v14.843a2.969,2.969,0,0,0,1.055,2.27l11.863,10-2.525,2.526a23.789,23.789,0,0,1-22.77-13.148l-5.318,2.639A29.73,29.73,0,0,0,160.276,190a30.168,30.168,0,0,0,3.158-.166,2.969,2.969,0,0,0,1.79-.854L170.8,183.4a2.969,2.969,0,0,0-.186-4.369l-13.278-11.2V157.341h10.495l11.2,13.279a2.969,2.969,0,0,0,4.369.186l5.578-5.578a2.971,2.971,0,0,0,.853-1.787,29.689,29.689,0,0,0-22.914-32.073l2.2-8.547a2.969,2.969,0,0,0-2.255-3.644l-3.974-.848-3.835-31.956a47.647,47.647,0,0,0-10.231-24.209l3.794-3.794a29.694,29.694,0,0,0,37.21-31.81,2.971,2.971,0,0,0-.853-1.788L183.4,19.193a2.969,2.969,0,0,0-4.369.186l-11.2,13.279H157.339V22.163l13.279-11.2A2.969,2.969,0,0,0,170.8,6.6L165.226,1.02a2.969,2.969,0,0,0-1.788-.853,29.694,29.694,0,0,0-31.81,37.21l-8.5,8.5a47.143,47.143,0,0,0-4.848-.918,9.293,9.293,0,0,0-8.809-6.365H80.525a9.293,9.293,0,0,0-8.809,6.365,47.125,47.125,0,0,0-4.848.918l-8.5-8.5a29.879,29.879,0,0,0-2.291-21.3L50.8,18.8a23.9,23.9,0,0,1,1.4,18.48,2.969,2.969,0,0,0,.715,3.043l7.595,7.595a47.642,47.642,0,0,0-15.321,9.869l-4.869-4.869a2.969,2.969,0,0,0-3.045-.715,23.756,23.756,0,0,1-31.289-24l2.525-2.523,10,11.863a2.969,2.969,0,0,0,2.27,1.053H35.624a2.969,2.969,0,0,0,2.969-2.969V20.783a2.969,2.969,0,0,0-1.055-2.27l-11.863-10L28.2,5.987a23.649,23.649,0,0,1,18.28,6.91c.312.312.619.636.911.962L51.812,9.9c-.365-.408-.747-.811-1.136-1.2A29.577,29.577,0,0,0,26.556.168a2.969,2.969,0,0,0-1.788.853L19.19,6.6a2.969,2.969,0,0,0,.186,4.369l13.279,11.2V32.657H22.161l-11.2-13.279A2.969,2.969,0,0,0,6.6,19.193L1.017,24.77a2.971,2.971,0,0,0-.853,1.788A29.724,29.724,0,0,0,29.621,59.4Zm-2,77.252,35.259,3.066-9.949,9.948a2.969,2.969,0,0,0-.715,3.043,23.764,23.764,0,1,1-24.6-16.057ZM137.082,40.32a2.969,2.969,0,0,0,.715-3.043,23.756,23.756,0,0,1,24-31.291l2.523,2.525-11.862,10a2.969,2.969,0,0,0-1.055,2.27V35.626a2.969,2.969,0,0,0,2.969,2.969h14.843a2.969,2.969,0,0,0,2.27-1.055l10-11.863,2.523,2.523a23.756,23.756,0,0,1-31.289,24,2.969,2.969,0,0,0-3.045.715l-4.869,4.869a47.642,47.642,0,0,0-15.321-9.869Zm-59.9,7.552a3.343,3.343,0,0,1,3.34-3.34h28.944a3.343,3.343,0,0,1,3.34,3.34V74.219h5.937V51.035a41.567,41.567,0,0,1,34.415,36.044l3.593,29.939-38.007-8.111V80.156h-5.937V107.64l-17.192-3.669a2.969,2.969,0,0,0-1.239,0L77.185,107.64Z" fill="#12263f"/>
      </g>
    </g>
  </g>
</svg>
