<svg xmlns="http://www.w3.org/2000/svg" xmlns:xlink="http://www.w3.org/1999/xlink" width="190" height="190" viewBox="0 0 190 190">
  <defs>
    <clipPath id="clip-path">
      <rect id="Rectángulo_35174" data-name="Rectángulo 35174" width="190" height="190" transform="translate(147 987)" fill="#fff" stroke="#707070" stroke-width="1"/>
    </clipPath>
  </defs>
  <g id="Enmascarar_grupo_67" data-name="Enmascarar grupo 67" transform="translate(-147 -987)" clip-path="url(#clip-path)">
    <g id="riesgos" transform="translate(144.411 984.871)">
      <g id="Grupo_81210" data-name="Grupo 81210">
        <path id="Trazado_156416" data-name="Trazado 156416" d="M143.334,128.086h30.5v60.993h-30.5Z" fill="#fff505"/>
        <path id="Trazado_156417" data-name="Trazado 156417" d="M100.639,146.384h30.5v42.7h-30.5Z" fill="#fff505"/>
        <path id="Trazado_156418" data-name="Trazado 156418" d="M73.192,164.682H88.44v24.4h-30.5v-24.4Z" fill="#fff505"/>
      </g>
      <path id="Trazado_156419" data-name="Trazado 156419" d="M189.079,21.348V54.223a65.782,65.782,0,0,1-39.859,60.444l-2.836,1.22-2.836-1.22a65.782,65.782,0,0,1-39.859-60.444V52.607l2.745-1.708a7.192,7.192,0,0,0,3.355-6.069v-1.1a7.129,7.129,0,0,0-6.1-7.045V21.348h.579A65.8,65.8,0,0,0,146.384,6.1a65.719,65.719,0,0,0,19.731,11.314A65.259,65.259,0,0,0,188.5,21.348Z" fill="#e6e9ed"/>
      <path id="Trazado_156420" data-name="Trazado 156420" d="M82.341,118.937v36.6a9.149,9.149,0,1,1-18.3,0V128.086a3.059,3.059,0,0,0-3.05-3.05H39.646v-18.3h30.5A12.2,12.2,0,0,1,82.341,118.937Z" fill="#cf9e76"/>
      <path id="Trazado_156421" data-name="Trazado 156421" d="M39.646,125.036V179.93a9.149,9.149,0,0,1-18.3,0V106.738h18.3v18.3Z" fill="#cf9e76"/>
      <path id="Trazado_156422" data-name="Trazado 156422" d="M26.715,62.64v.03L39.646,79.291,53.888,60.963A30.8,30.8,0,0,0,68.343,56.48L98.931,37.663a6.95,6.95,0,0,1,3.721-1.067,5.956,5.956,0,0,1,1.037.091,7.129,7.129,0,0,1,6.1,7.045v1.1a7.192,7.192,0,0,1-3.355,6.069l-2.745,1.708L66.727,75.723a12.178,12.178,0,0,0-5.733,10.338v20.677H21.348v21.348H18.3a12.2,12.2,0,0,1-12.2-12.2V91.49A30.486,30.486,0,0,1,26.715,62.64Z" fill="#64b5f6"/>
      <path id="Trazado_156423" data-name="Trazado 156423" d="M42.7,60.993h9.667c.518,0,1.006,0,1.525-.03L39.646,79.291,26.715,62.671v-.03A30.391,30.391,0,0,1,36.6,60.993h6.1Z" fill="#f0d0b4"/>
      <circle id="Elipse_4744" data-name="Elipse 4744" cx="18.298" cy="18.298" r="18.298" transform="translate(21.348 24.397)" fill="#f0d0b4"/>
      <path id="Trazado_156424" data-name="Trazado 156424" d="M176.88,54.894v12.2l-4.117,1.433a25.531,25.531,0,0,1-2.409,5.794l1.921,3.934-8.631,8.631-3.934-1.921a25.531,25.531,0,0,1-5.794,2.409l-1.433,4.117h-12.2l-1.433-4.117a25.532,25.532,0,0,1-5.794-2.409l-3.934,1.921-8.631-8.631,1.921-3.934A25.532,25.532,0,0,1,120,68.526l-4.117-1.433v-12.2L120,53.461a25.531,25.531,0,0,1,2.409-5.794l-1.921-3.934,8.631-8.631,3.934,1.921a25.531,25.531,0,0,1,5.794-2.409l1.433-4.117h12.2l1.433,4.117a25.531,25.531,0,0,1,5.794,2.409l3.934-1.921,8.631,8.631-1.921,3.934a25.531,25.531,0,0,1,2.409,5.794Zm-18.3,6.1a12.2,12.2,0,1,0-12.2,12.2A12.2,12.2,0,0,0,158.582,60.993Z" fill="#5c22c3"/>
      <path id="Trazado_156425" data-name="Trazado 156425" d="M146.384,76.242a15.248,15.248,0,1,0-15.248-15.248A15.266,15.266,0,0,0,146.384,76.242Zm0-24.4a9.149,9.149,0,1,1-9.149,9.149A9.16,9.16,0,0,1,146.384,51.844Z" fill="#12263f"/>
      <path id="Trazado_156426" data-name="Trazado 156426" d="M117.558,51.082l-4.721,1.647V69.258l4.721,1.647a31.262,31.262,0,0,0,1.427,3.471l-2.168,4.5L128.507,90.56l4.5-2.171a30.283,30.283,0,0,0,3.464,1.43l1.653,4.721h16.529l1.65-4.724a29.836,29.836,0,0,0,3.464-1.43l4.5,2.171L175.947,78.87l-2.168-4.5a30.456,30.456,0,0,0,1.427-3.471l4.724-1.644V52.729l-4.721-1.647a31.263,31.263,0,0,0-1.427-3.471l2.168-4.5L164.261,31.427l-4.5,2.168a30.363,30.363,0,0,0-3.464-1.427l-1.65-4.721H138.119l-1.65,4.724A30.41,30.41,0,0,0,133,33.6l-4.5-2.168L116.817,43.116l2.168,4.5A30.975,30.975,0,0,0,117.558,51.082Zm5.386,3.211a24.148,24.148,0,0,1,2.12-5.142l.772-1.385-1.641-3.4L129.76,38.8l3.4,1.638,1.385-.769a24.2,24.2,0,0,1,5.142-2.116l1.522-.436,1.244-3.574h7.868l1.247,3.574,1.522.436a24.258,24.258,0,0,1,5.145,2.116l1.382.769,3.4-1.638,5.566,5.563-1.641,3.4.772,1.385a24.083,24.083,0,0,1,2.12,5.142l.436,1.522,3.568,1.244v7.868l-3.571,1.244-.436,1.522a24.148,24.148,0,0,1-2.12,5.142l-.772,1.385,1.641,3.4-5.563,5.563-3.4-1.641-1.385.769a24.057,24.057,0,0,1-5.142,2.12l-1.522.436-1.247,3.574H142.45L141.2,84.866l-1.522-.436a24.056,24.056,0,0,1-5.142-2.12l-1.385-.769-3.4,1.641-5.563-5.563,1.641-3.4-.772-1.385a24.082,24.082,0,0,1-2.12-5.142l-.436-1.522-3.571-1.244V57.059l3.571-1.244Z" fill="#12263f"/>
      <path id="Trazado_156427" data-name="Trazado 156427" d="M68.343,78.294,100.782,58.02a68.725,68.725,0,0,0,41.579,59.459l4.022,1.726,4.023-1.723a68.763,68.763,0,0,0,41.722-63.274V18.3H188.5A62.846,62.846,0,0,1,148.336,3.754l-1.952-1.625-1.952,1.625A62.846,62.846,0,0,1,104.268,18.3h-3.629V33.772a10.115,10.115,0,0,0-3.315,1.284L66.748,53.872a27.4,27.4,0,0,1-12.01,3.907A21.359,21.359,0,1,0,26.52,59.5,33.6,33.6,0,0,0,3.05,91.49v24.4A15.266,15.266,0,0,0,18.3,131.135V179.93a12.2,12.2,0,0,0,24.4,0V128.086h18.3v27.447a12.073,12.073,0,0,0,1.7,6.1H54.894v24.4h-6.1v6.1H182.98v-6.1h-6.1V125.036h-36.6v60.993h-6.1v-42.7h-36.6v42.7h-6.1v-24.4H83.695a12.073,12.073,0,0,0,1.7-6.1v-36.6a15.266,15.266,0,0,0-15.248-15.248h-6.1l0-17.636a9.1,9.1,0,0,1,4.3-7.758Zm78.041-68.285a68.994,68.994,0,0,0,39.646,14.343V54.208A62.668,62.668,0,0,1,148,111.874l-1.619.7-1.619-.7a62.67,62.67,0,0,1-38.023-57.581l1.311-.817a10.125,10.125,0,0,0,4.785-8.634V43.726a10.184,10.184,0,0,0-6.1-9.311V24.352a68.994,68.994,0,0,0,39.646-14.343ZM36.6,64.043H47.642l-8,10.28-7.667-9.86A27.421,27.421,0,0,1,36.6,64.043ZM24.4,42.7A15.248,15.248,0,1,1,39.646,57.944,15.266,15.266,0,0,1,24.4,42.7Zm121.986,88.44h24.4v54.894h-24.4Zm-42.7,18.3h24.4v36.6h-24.4Zm-18.3,36.6h-24.4v-18.3h24.4ZM70.142,109.788a9.16,9.16,0,0,1,9.149,9.149v36.6a6.1,6.1,0,0,1-12.2,0V128.086a6.105,6.105,0,0,0-6.1-6.1H36.6V179.93a6.1,6.1,0,0,1-12.2,0V109.788H70.142Zm-12.2-23.736,0,17.636H24.4v-24.4H18.3v45.745a9.16,9.16,0,0,1-9.149-9.149V91.49A27.476,27.476,0,0,1,25.69,66.315L39.646,84.259,55.54,63.823a33.45,33.45,0,0,0,14.4-4.757l30.576-18.816a4.084,4.084,0,0,1,6.221,3.477v1.116A4.055,4.055,0,0,1,104.82,48.3L65.11,73.125a15.144,15.144,0,0,0-7.167,12.928Z" fill="#12263f"/>
      <path id="Trazado_156428" data-name="Trazado 156428" d="M158.582,137.235h6.1v6.1h-6.1Z" fill="#12263f"/>
      <path id="Trazado_156429" data-name="Trazado 156429" d="M158.582,149.433h6.1v6.1h-6.1Z" fill="#12263f"/>
      <path id="Trazado_156430" data-name="Trazado 156430" d="M158.582,161.632h6.1v6.1h-6.1Z" fill="#12263f"/>
      <path id="Trazado_156431" data-name="Trazado 156431" d="M115.887,155.533h6.1v6.1h-6.1Z" fill="#12263f"/>
      <path id="Trazado_156432" data-name="Trazado 156432" d="M115.887,167.731h6.1v6.1h-6.1Z" fill="#12263f"/>
      <path id="Trazado_156433" data-name="Trazado 156433" d="M73.192,173.831h6.1v6.1h-6.1Z" fill="#12263f"/>
    </g>
  </g>
</svg>
