<svg xmlns="http://www.w3.org/2000/svg" xmlns:xlink="http://www.w3.org/1999/xlink" width="97" height="97" viewBox="0 0 97 97">
  <defs>
    <clipPath id="clip-path">
      <rect id="Rectángulo_35131" data-name="Rectángulo 35131" width="97" height="97" transform="translate(221 4760)" fill="#fff505"/>
    </clipPath>
  </defs>
  <g id="Enmascarar_grupo_71" data-name="Enmascarar grupo 71" transform="translate(-221 -4760)" clip-path="url(#clip-path)">
    <g id="dia-laboral" transform="translate(221 4760)">
      <path id="Trazado_156483" data-name="Trazado 156483" d="M91.127,43.006a2.843,2.843,0,0,1-2.842,2.842H8.715a2.843,2.843,0,0,1-2.842-2.842c0-14.586,9.511-26.6,22.734-32.666L31.449,28.8,34.291,8.175A47.472,47.472,0,0,1,42.47,6.428c.009,0,3.02,0,6.03,0s6.021,0,6.03,0a47.269,47.269,0,0,1,8.179,1.747L65.551,28.8l2.842-18.455C81.579,16.391,91.127,28.371,91.127,43.006Z" fill="#ffde46"/>
      <path id="Trazado_156484" data-name="Trazado 156484" d="M91.127,43.006a2.843,2.843,0,0,1-2.842,2.842H48.5V6.426c3.01,0,6.021,0,6.03,0a47.269,47.269,0,0,1,8.179,1.747L65.551,28.8l2.842-18.455C81.579,16.391,91.127,28.371,91.127,43.006Z" fill="#fdbf00"/>
      <path id="Trazado_156485" data-name="Trazado 156485" d="M86.68,78.831,78.642,86.87a2.844,2.844,0,0,1-4.018,0l-6.752-6.752a36.355,36.355,0,0,1-10.846,4.488v9.552A2.843,2.843,0,0,1,54.184,97H42.816a2.843,2.843,0,0,1-2.842-2.842V84.606a36.355,36.355,0,0,1-10.846-4.488L22.376,86.87a2.841,2.841,0,0,1-3.1.616c-.925-.383-.481-.278-8.961-8.654a2.846,2.846,0,0,1,0-4.02l6.752-6.75a36.447,36.447,0,0,1-4.964-13.216,2.84,2.84,0,0,1,2.33-3.274c.019,0,12.5,0,12.517,0a2.84,2.84,0,0,1,2.281,2.092,19.9,19.9,0,0,0,38.527,0,2.842,2.842,0,0,1,2.283-2.092c.019,0,12.5,0,12.515,0a2.84,2.84,0,0,1,2.33,3.274,36.446,36.446,0,0,1-4.964,13.216l6.752,6.75a2.846,2.846,0,0,1,0,4.02Z" fill="#704c55"/>
      <path id="Trazado_156486" data-name="Trazado 156486" d="M86.68,78.831,78.642,86.87a2.844,2.844,0,0,1-4.018,0l-6.752-6.752a36.355,36.355,0,0,1-10.846,4.488v9.552A2.843,2.843,0,0,1,54.184,97H48.5V68.582A19.893,19.893,0,0,0,67.764,53.663a2.842,2.842,0,0,1,2.283-2.092c.019,0,12.5,0,12.515,0a2.84,2.84,0,0,1,2.33,3.274,36.446,36.446,0,0,1-4.964,13.216l6.752,6.75a2.846,2.846,0,0,1,0,4.02Z" fill="#5b362a"/>
      <g id="Grupo_81275" data-name="Grupo 81275">
        <g id="Grupo_81274" data-name="Grupo 81274">
          <g id="Grupo_81273" data-name="Grupo 81273">
            <g id="Grupo_81272" data-name="Grupo 81272">
              <g id="Grupo_81271" data-name="Grupo 81271">
                <path id="Trazado_156487" data-name="Trazado 156487" d="M94.158,40.164H2.842A2.843,2.843,0,0,0,0,43.006V54.373a2.843,2.843,0,0,0,2.842,2.842H94.158A2.843,2.843,0,0,0,97,54.373V43.006A2.843,2.843,0,0,0,94.158,40.164Z" fill="#fdbf00"/>
              </g>
            </g>
          </g>
        </g>
      </g>
      <path id="Trazado_156488" data-name="Trazado 156488" d="M97,43.006V54.373a2.843,2.843,0,0,1-2.842,2.842H48.5V40.164H94.158A2.843,2.843,0,0,1,97,43.006Z" fill="#ff9100"/>
      <g id="Grupo_81277" data-name="Grupo 81277">
        <g id="Grupo_81276" data-name="Grupo 81276">
          <path id="Trazado_156489" data-name="Trazado 156489" d="M54.184,0H42.816a2.843,2.843,0,0,0-2.842,2.842v28.8a2.843,2.843,0,0,0,2.842,2.842H54.184a2.843,2.843,0,0,0,2.842-2.842V2.842A2.843,2.843,0,0,0,54.184,0Z" fill="#fdbf00"/>
        </g>
      </g>
      <path id="Trazado_156490" data-name="Trazado 156490" d="M57.025,2.842v28.8a2.843,2.843,0,0,1-2.842,2.842H48.5V0h5.684A2.843,2.843,0,0,1,57.025,2.842Z" fill="#ff9100"/>
      <g id="Grupo_81278" data-name="Grupo 81278">
        <path id="Trazado_156491" data-name="Trazado 156491" d="M34.291,8.175v17.78a2.842,2.842,0,0,1-5.684,0V10.34A46.015,46.015,0,0,1,34.291,8.175Z" fill="#fdbf00"/>
      </g>
      <g id="Grupo_81279" data-name="Grupo 81279">
        <path id="Trazado_156492" data-name="Trazado 156492" d="M68.393,10.342V25.955a2.842,2.842,0,0,1-5.684,0V8.175A46.564,46.564,0,0,1,68.393,10.342Z" fill="#ff9100"/>
      </g>
    </g>
  </g>
</svg>
