<svg xmlns="http://www.w3.org/2000/svg" width="313" height="243.673" viewBox="0 0 313 243.673">
  <g id="Grupo_81526" data-name="Grupo 81526" transform="translate(-224 -4252.24)">
    <g id="Grupo_78302" data-name="Grupo 78302" transform="translate(0 -1939.087)">
      <path id="Rectángulo_34846" data-name="Rectángulo 34846" d="M0,0H271a42,42,0,0,1,42,42V163a0,0,0,0,1,0,0H42A42,42,0,0,1,0,121V0A0,0,0,0,1,0,0Z" transform="translate(224 6272)" fill="#5c22c3"/>
      <g id="Grupo_78301" data-name="Grupo 78301" transform="translate(-600.229 6092)">
        <path id="Trazado_145968" data-name="Trazado 145968" d="M43.541,0A43.541,43.541,0,1,1,0,43.541,43.541,43.541,0,0,1,43.541,0Z" transform="translate(1042.117 249.115)" fill="#64b5f6" opacity="0.444" style="mix-blend-mode: multiply;isolation: isolate"/>
        <path id="Trazado_145969" data-name="Trazado 145969" d="M29.752,0A29.752,29.752,0,1,1,0,29.752,29.752,29.752,0,0,1,29.752,0Z" transform="translate(850.556 127.8)" fill="#64b5f6" opacity="0.444" style="mix-blend-mode: multiply;isolation: isolate"/>
        <rect id="Rectángulo_34812" data-name="Rectángulo 34812" width="309.662" height="222.853" transform="translate(826.229 116.756)" fill="none"/>
        <path id="Trazado_145971" data-name="Trazado 145971" d="M8.18,0A8.18,8.18,0,1,1,0,8.18,8.18,8.18,0,0,1,8.18,0Z" transform="translate(858.547 307.038)" fill="#64b5f6" opacity="0.444" style="mix-blend-mode: multiply;isolation: isolate"/>
        <g id="Grupo_78276" data-name="Grupo 78276" transform="translate(1062.666 279.633)">
          <g id="Grupo_53306" data-name="Grupo 53306" transform="translate(0)">
            <path id="Trazado_99200" data-name="Trazado 99200" d="M415.4,50.789a.592.592,0,1,1-.592-.565A.579.579,0,0,1,415.4,50.789Z" transform="translate(-414.214 -50.224)" fill="#fff"/>
            <path id="Trazado_99201" data-name="Trazado 99201" d="M423.842,50.789a.592.592,0,1,1-.591-.565A.579.579,0,0,1,423.842,50.789Z" transform="translate(-417.339 -50.224)" fill="#fff"/>
            <path id="Trazado_99202" data-name="Trazado 99202" d="M432.288,50.789a.592.592,0,1,1-.591-.565A.579.579,0,0,1,432.288,50.789Z" transform="translate(-420.464 -50.224)" fill="#fff"/>
            <path id="Trazado_99203" data-name="Trazado 99203" d="M440.736,50.789a.592.592,0,1,1-.592-.565A.579.579,0,0,1,440.736,50.789Z" transform="translate(-423.59 -50.224)" fill="#fff"/>
            <path id="Trazado_99204" data-name="Trazado 99204" d="M449.181,50.789a.592.592,0,1,1-.591-.565A.579.579,0,0,1,449.181,50.789Z" transform="translate(-426.715 -50.224)" fill="#fff"/>
            <path id="Trazado_99205" data-name="Trazado 99205" d="M457.627,50.789a.592.592,0,1,1-.591-.565A.579.579,0,0,1,457.627,50.789Z" transform="translate(-429.84 -50.224)" fill="#fff"/>
            <path id="Trazado_99206" data-name="Trazado 99206" d="M466.075,50.789a.592.592,0,1,1-.592-.565A.579.579,0,0,1,466.075,50.789Z" transform="translate(-432.965 -50.224)" fill="#fff"/>
            <path id="Trazado_99207" data-name="Trazado 99207" d="M474.521,50.789a.592.592,0,1,1-.591-.565A.579.579,0,0,1,474.521,50.789Z" transform="translate(-436.09 -50.224)" fill="#fff"/>
            <path id="Trazado_99208" data-name="Trazado 99208" d="M482.966,50.789a.592.592,0,1,1-.591-.565A.579.579,0,0,1,482.966,50.789Z" transform="translate(-439.215 -50.224)" fill="#fff"/>
            <path id="Trazado_99209" data-name="Trazado 99209" d="M491.414,50.789a.592.592,0,1,1-.592-.565A.579.579,0,0,1,491.414,50.789Z" transform="translate(-442.341 -50.224)" fill="#fff"/>
            <path id="Trazado_99210" data-name="Trazado 99210" d="M499.86,50.789a.592.592,0,1,1-.592-.565A.579.579,0,0,1,499.86,50.789Z" transform="translate(-445.466 -50.224)" fill="#fff"/>
          </g>
          <g id="Grupo_53307" data-name="Grupo 53307" transform="translate(0 4.523)">
            <path id="Trazado_99211" data-name="Trazado 99211" d="M415.4,58.3a.592.592,0,1,1-.592-.565A.579.579,0,0,1,415.4,58.3Z" transform="translate(-414.214 -57.732)" fill="#fff"/>
            <path id="Trazado_99212" data-name="Trazado 99212" d="M423.842,58.3a.592.592,0,1,1-.591-.565A.579.579,0,0,1,423.842,58.3Z" transform="translate(-417.339 -57.732)" fill="#fff"/>
            <path id="Trazado_99213" data-name="Trazado 99213" d="M432.288,58.3a.592.592,0,1,1-.591-.565A.579.579,0,0,1,432.288,58.3Z" transform="translate(-420.464 -57.732)" fill="#fff"/>
            <path id="Trazado_99214" data-name="Trazado 99214" d="M440.736,58.3a.592.592,0,1,1-.592-.565A.579.579,0,0,1,440.736,58.3Z" transform="translate(-423.59 -57.732)" fill="#fff"/>
            <path id="Trazado_99215" data-name="Trazado 99215" d="M449.181,58.3a.592.592,0,1,1-.591-.565A.579.579,0,0,1,449.181,58.3Z" transform="translate(-426.715 -57.732)" fill="#fff"/>
            <path id="Trazado_99216" data-name="Trazado 99216" d="M457.627,58.3a.592.592,0,1,1-.591-.565A.579.579,0,0,1,457.627,58.3Z" transform="translate(-429.84 -57.732)" fill="#fff"/>
            <path id="Trazado_99217" data-name="Trazado 99217" d="M466.075,58.3a.592.592,0,1,1-.592-.565A.579.579,0,0,1,466.075,58.3Z" transform="translate(-432.965 -57.732)" fill="#fff"/>
            <path id="Trazado_99218" data-name="Trazado 99218" d="M474.521,58.3a.592.592,0,1,1-.591-.565A.579.579,0,0,1,474.521,58.3Z" transform="translate(-436.09 -57.732)" fill="#fff"/>
            <path id="Trazado_99219" data-name="Trazado 99219" d="M482.966,58.3a.592.592,0,1,1-.591-.565A.579.579,0,0,1,482.966,58.3Z" transform="translate(-439.215 -57.732)" fill="#fff"/>
            <path id="Trazado_99220" data-name="Trazado 99220" d="M491.414,58.3a.592.592,0,1,1-.592-.565A.579.579,0,0,1,491.414,58.3Z" transform="translate(-442.341 -57.732)" fill="#fff"/>
            <path id="Trazado_99221" data-name="Trazado 99221" d="M499.86,58.3a.592.592,0,1,1-.592-.565A.579.579,0,0,1,499.86,58.3Z" transform="translate(-445.466 -57.732)" fill="#fff"/>
          </g>
          <g id="Grupo_53308" data-name="Grupo 53308" transform="translate(0 9.047)">
            <ellipse id="Elipse_3955" data-name="Elipse 3955" cx="0.591" cy="0.565" rx="0.591" ry="0.565" fill="#fff"/>
            <path id="Trazado_99222" data-name="Trazado 99222" d="M423.842,65.805a.592.592,0,1,1-.591-.565A.579.579,0,0,1,423.842,65.805Z" transform="translate(-417.339 -65.24)" fill="#fff"/>
            <ellipse id="Elipse_3956" data-name="Elipse 3956" cx="0.591" cy="0.565" rx="0.591" ry="0.565" transform="translate(10.642)" fill="#fff"/>
            <path id="Trazado_99223" data-name="Trazado 99223" d="M440.736,65.805a.592.592,0,1,1-.592-.565A.579.579,0,0,1,440.736,65.805Z" transform="translate(-423.589 -65.24)" fill="#fff"/>
            <path id="Trazado_99224" data-name="Trazado 99224" d="M449.181,65.805a.592.592,0,1,1-.591-.565A.579.579,0,0,1,449.181,65.805Z" transform="translate(-426.715 -65.24)" fill="#fff"/>
            <ellipse id="Elipse_3957" data-name="Elipse 3957" cx="0.591" cy="0.565" rx="0.591" ry="0.565" transform="translate(26.606)" fill="#fff"/>
            <path id="Trazado_99225" data-name="Trazado 99225" d="M466.075,65.805a.592.592,0,1,1-.592-.565A.58.58,0,0,1,466.075,65.805Z" transform="translate(-432.965 -65.24)" fill="#fff"/>
            <ellipse id="Elipse_3958" data-name="Elipse 3958" cx="0.591" cy="0.565" rx="0.591" ry="0.565" transform="translate(37.248)" fill="#fff"/>
            <ellipse id="Elipse_3959" data-name="Elipse 3959" cx="0.591" cy="0.565" rx="0.591" ry="0.565" transform="translate(42.569)" fill="#fff"/>
            <path id="Trazado_99226" data-name="Trazado 99226" d="M491.414,65.805a.592.592,0,1,1-.592-.565A.58.58,0,0,1,491.414,65.805Z" transform="translate(-442.341 -65.24)" fill="#fff"/>
            <path id="Trazado_99227" data-name="Trazado 99227" d="M499.86,65.805a.592.592,0,1,1-.592-.565A.579.579,0,0,1,499.86,65.805Z" transform="translate(-445.466 -65.24)" fill="#fff"/>
          </g>
          <g id="Grupo_53309" data-name="Grupo 53309" transform="translate(0 13.57)">
            <ellipse id="Elipse_3960" data-name="Elipse 3960" cx="0.591" cy="0.565" rx="0.591" ry="0.565" transform="translate(0 0)" fill="#fff"/>
            <path id="Trazado_99228" data-name="Trazado 99228" d="M423.842,73.313a.592.592,0,1,1-.591-.566A.578.578,0,0,1,423.842,73.313Z" transform="translate(-417.339 -72.747)" fill="#fff"/>
            <ellipse id="Elipse_3961" data-name="Elipse 3961" cx="0.591" cy="0.565" rx="0.591" ry="0.565" transform="translate(10.642 0)" fill="#fff"/>
            <path id="Trazado_99229" data-name="Trazado 99229" d="M440.736,73.313a.592.592,0,1,1-.592-.566A.579.579,0,0,1,440.736,73.313Z" transform="translate(-423.589 -72.747)" fill="#fff"/>
            <path id="Trazado_99230" data-name="Trazado 99230" d="M449.181,73.313a.592.592,0,1,1-.591-.566A.579.579,0,0,1,449.181,73.313Z" transform="translate(-426.715 -72.747)" fill="#fff"/>
            <ellipse id="Elipse_3962" data-name="Elipse 3962" cx="0.591" cy="0.565" rx="0.591" ry="0.565" transform="translate(26.606 0)" fill="#fff"/>
            <path id="Trazado_99231" data-name="Trazado 99231" d="M466.075,73.313a.592.592,0,1,1-.592-.566A.579.579,0,0,1,466.075,73.313Z" transform="translate(-432.965 -72.747)" fill="#fff"/>
            <ellipse id="Elipse_3963" data-name="Elipse 3963" cx="0.591" cy="0.565" rx="0.591" ry="0.565" transform="translate(37.248 0)" fill="#fff"/>
            <ellipse id="Elipse_3964" data-name="Elipse 3964" cx="0.591" cy="0.565" rx="0.591" ry="0.565" transform="translate(42.569 0)" fill="#fff"/>
            <path id="Trazado_99232" data-name="Trazado 99232" d="M491.414,73.313a.592.592,0,1,1-.592-.566A.579.579,0,0,1,491.414,73.313Z" transform="translate(-442.341 -72.747)" fill="#fff"/>
            <path id="Trazado_99233" data-name="Trazado 99233" d="M499.86,73.313a.592.592,0,1,1-.592-.566A.579.579,0,0,1,499.86,73.313Z" transform="translate(-445.466 -72.747)" fill="#fff"/>
          </g>
          <g id="Grupo_53310" data-name="Grupo 53310" transform="translate(0 18.093)">
            <path id="Trazado_99234" data-name="Trazado 99234" d="M415.4,80.821a.592.592,0,1,1-.592-.566A.579.579,0,0,1,415.4,80.821Z" transform="translate(-414.214 -80.255)" fill="#fff"/>
            <path id="Trazado_99235" data-name="Trazado 99235" d="M423.842,80.821a.592.592,0,1,1-.591-.566A.578.578,0,0,1,423.842,80.821Z" transform="translate(-417.339 -80.255)" fill="#fff"/>
            <path id="Trazado_99236" data-name="Trazado 99236" d="M432.288,80.821a.592.592,0,1,1-.591-.566A.578.578,0,0,1,432.288,80.821Z" transform="translate(-420.464 -80.255)" fill="#fff"/>
            <path id="Trazado_99237" data-name="Trazado 99237" d="M440.736,80.821a.592.592,0,1,1-.592-.566A.579.579,0,0,1,440.736,80.821Z" transform="translate(-423.59 -80.255)" fill="#fff"/>
            <path id="Trazado_99238" data-name="Trazado 99238" d="M449.181,80.821a.592.592,0,1,1-.591-.566A.579.579,0,0,1,449.181,80.821Z" transform="translate(-426.715 -80.255)" fill="#fff"/>
            <path id="Trazado_99239" data-name="Trazado 99239" d="M457.627,80.821a.592.592,0,1,1-.591-.566A.578.578,0,0,1,457.627,80.821Z" transform="translate(-429.84 -80.255)" fill="#fff"/>
            <path id="Trazado_99240" data-name="Trazado 99240" d="M466.075,80.821a.592.592,0,1,1-.592-.566A.579.579,0,0,1,466.075,80.821Z" transform="translate(-432.965 -80.255)" fill="#fff"/>
            <path id="Trazado_99241" data-name="Trazado 99241" d="M474.521,80.821a.592.592,0,1,1-.591-.566A.578.578,0,0,1,474.521,80.821Z" transform="translate(-436.09 -80.255)" fill="#fff"/>
            <path id="Trazado_99242" data-name="Trazado 99242" d="M482.966,80.821a.592.592,0,1,1-.591-.566A.579.579,0,0,1,482.966,80.821Z" transform="translate(-439.215 -80.255)" fill="#fff"/>
            <path id="Trazado_99243" data-name="Trazado 99243" d="M491.414,80.821a.592.592,0,1,1-.592-.566A.579.579,0,0,1,491.414,80.821Z" transform="translate(-442.341 -80.255)" fill="#fff"/>
            <path id="Trazado_99244" data-name="Trazado 99244" d="M499.86,80.821a.592.592,0,1,1-.592-.566A.579.579,0,0,1,499.86,80.821Z" transform="translate(-445.466 -80.255)" fill="#fff"/>
          </g>
          <g id="Grupo_53311" data-name="Grupo 53311" transform="translate(0 22.616)">
            <ellipse id="Elipse_3965" data-name="Elipse 3965" cx="0.591" cy="0.565" rx="0.591" ry="0.565" transform="translate(0 0)" fill="#fff"/>
            <path id="Trazado_99245" data-name="Trazado 99245" d="M423.842,88.329a.592.592,0,1,1-.591-.566A.578.578,0,0,1,423.842,88.329Z" transform="translate(-417.339 -87.763)" fill="#fff"/>
            <ellipse id="Elipse_3966" data-name="Elipse 3966" cx="0.591" cy="0.565" rx="0.591" ry="0.565" transform="translate(10.642 0)" fill="#fff"/>
            <path id="Trazado_99246" data-name="Trazado 99246" d="M440.736,88.329a.592.592,0,1,1-.592-.566A.579.579,0,0,1,440.736,88.329Z" transform="translate(-423.589 -87.763)" fill="#fff"/>
            <path id="Trazado_99247" data-name="Trazado 99247" d="M449.181,88.329a.592.592,0,1,1-.591-.566A.579.579,0,0,1,449.181,88.329Z" transform="translate(-426.715 -87.763)" fill="#fff"/>
            <ellipse id="Elipse_3967" data-name="Elipse 3967" cx="0.591" cy="0.565" rx="0.591" ry="0.565" transform="translate(26.606 0)" fill="#fff"/>
            <path id="Trazado_99248" data-name="Trazado 99248" d="M466.075,88.329a.592.592,0,1,1-.592-.566A.579.579,0,0,1,466.075,88.329Z" transform="translate(-432.965 -87.763)" fill="#fff"/>
            <ellipse id="Elipse_3968" data-name="Elipse 3968" cx="0.591" cy="0.565" rx="0.591" ry="0.565" transform="translate(37.248 0)" fill="#fff"/>
            <ellipse id="Elipse_3969" data-name="Elipse 3969" cx="0.591" cy="0.565" rx="0.591" ry="0.565" transform="translate(42.569 0)" fill="#fff"/>
            <path id="Trazado_99249" data-name="Trazado 99249" d="M491.414,88.329a.592.592,0,1,1-.592-.566A.579.579,0,0,1,491.414,88.329Z" transform="translate(-442.341 -87.763)" fill="#fff"/>
            <path id="Trazado_99250" data-name="Trazado 99250" d="M499.86,88.329a.592.592,0,1,1-.592-.566A.579.579,0,0,1,499.86,88.329Z" transform="translate(-445.466 -87.763)" fill="#fff"/>
          </g>
          <g id="Grupo_53312" data-name="Grupo 53312" transform="translate(0 27.14)">
            <ellipse id="Elipse_3970" data-name="Elipse 3970" cx="0.591" cy="0.565" rx="0.591" ry="0.565" fill="#fff"/>
            <path id="Trazado_99251" data-name="Trazado 99251" d="M423.842,95.836a.592.592,0,1,1-.591-.565A.579.579,0,0,1,423.842,95.836Z" transform="translate(-417.339 -95.271)" fill="#fff"/>
            <ellipse id="Elipse_3971" data-name="Elipse 3971" cx="0.591" cy="0.565" rx="0.591" ry="0.565" transform="translate(10.642)" fill="#fff"/>
            <path id="Trazado_99252" data-name="Trazado 99252" d="M440.736,95.836a.592.592,0,1,1-.592-.565A.579.579,0,0,1,440.736,95.836Z" transform="translate(-423.589 -95.271)" fill="#fff"/>
            <path id="Trazado_99253" data-name="Trazado 99253" d="M449.181,95.836a.592.592,0,1,1-.591-.565A.579.579,0,0,1,449.181,95.836Z" transform="translate(-426.715 -95.271)" fill="#fff"/>
            <ellipse id="Elipse_3972" data-name="Elipse 3972" cx="0.591" cy="0.565" rx="0.591" ry="0.565" transform="translate(26.606)" fill="#fff"/>
            <path id="Trazado_99254" data-name="Trazado 99254" d="M466.075,95.836a.592.592,0,1,1-.592-.565A.579.579,0,0,1,466.075,95.836Z" transform="translate(-432.965 -95.271)" fill="#fff"/>
            <ellipse id="Elipse_3973" data-name="Elipse 3973" cx="0.591" cy="0.565" rx="0.591" ry="0.565" transform="translate(37.248)" fill="#fff"/>
            <ellipse id="Elipse_3974" data-name="Elipse 3974" cx="0.591" cy="0.565" rx="0.591" ry="0.565" transform="translate(42.569)" fill="#fff"/>
            <path id="Trazado_99255" data-name="Trazado 99255" d="M491.414,95.836a.592.592,0,1,1-.592-.565A.579.579,0,0,1,491.414,95.836Z" transform="translate(-442.341 -95.271)" fill="#fff"/>
            <path id="Trazado_99256" data-name="Trazado 99256" d="M499.86,95.836a.592.592,0,1,1-.592-.565A.579.579,0,0,1,499.86,95.836Z" transform="translate(-445.466 -95.271)" fill="#fff"/>
          </g>
          <g id="Grupo_53313" data-name="Grupo 53313" transform="translate(0 31.663)">
            <path id="Trazado_99257" data-name="Trazado 99257" d="M415.4,103.344a.592.592,0,1,1-.592-.565A.579.579,0,0,1,415.4,103.344Z" transform="translate(-414.214 -102.779)" fill="#fff"/>
            <path id="Trazado_99258" data-name="Trazado 99258" d="M423.842,103.344a.592.592,0,1,1-.591-.565A.579.579,0,0,1,423.842,103.344Z" transform="translate(-417.339 -102.779)" fill="#fff"/>
            <path id="Trazado_99259" data-name="Trazado 99259" d="M432.288,103.344a.592.592,0,1,1-.591-.565A.579.579,0,0,1,432.288,103.344Z" transform="translate(-420.464 -102.779)" fill="#fff"/>
            <path id="Trazado_99260" data-name="Trazado 99260" d="M440.736,103.344a.592.592,0,1,1-.592-.565A.579.579,0,0,1,440.736,103.344Z" transform="translate(-423.59 -102.779)" fill="#fff"/>
            <path id="Trazado_99261" data-name="Trazado 99261" d="M449.181,103.344a.592.592,0,1,1-.591-.565A.579.579,0,0,1,449.181,103.344Z" transform="translate(-426.715 -102.779)" fill="#fff"/>
            <path id="Trazado_99262" data-name="Trazado 99262" d="M457.627,103.344a.592.592,0,1,1-.591-.565A.579.579,0,0,1,457.627,103.344Z" transform="translate(-429.84 -102.779)" fill="#fff"/>
            <path id="Trazado_99263" data-name="Trazado 99263" d="M466.075,103.344a.592.592,0,1,1-.592-.565A.579.579,0,0,1,466.075,103.344Z" transform="translate(-432.965 -102.779)" fill="#fff"/>
            <path id="Trazado_99264" data-name="Trazado 99264" d="M474.521,103.344a.592.592,0,1,1-.591-.565A.579.579,0,0,1,474.521,103.344Z" transform="translate(-436.09 -102.779)" fill="#fff"/>
            <path id="Trazado_99265" data-name="Trazado 99265" d="M482.966,103.344a.592.592,0,1,1-.591-.565A.579.579,0,0,1,482.966,103.344Z" transform="translate(-439.215 -102.779)" fill="#fff"/>
            <path id="Trazado_99266" data-name="Trazado 99266" d="M491.414,103.344a.592.592,0,1,1-.592-.565A.579.579,0,0,1,491.414,103.344Z" transform="translate(-442.341 -102.779)" fill="#fff"/>
            <path id="Trazado_99267" data-name="Trazado 99267" d="M499.86,103.344a.592.592,0,1,1-.592-.565A.579.579,0,0,1,499.86,103.344Z" transform="translate(-445.466 -102.779)" fill="#fff"/>
          </g>
          <g id="Grupo_53314" data-name="Grupo 53314" transform="translate(0 36.187)">
            <ellipse id="Elipse_3975" data-name="Elipse 3975" cx="0.591" cy="0.565" rx="0.591" ry="0.565" fill="#fff"/>
            <path id="Trazado_99268" data-name="Trazado 99268" d="M423.842,110.852a.592.592,0,1,1-.591-.565A.579.579,0,0,1,423.842,110.852Z" transform="translate(-417.339 -110.287)" fill="#fff"/>
            <ellipse id="Elipse_3976" data-name="Elipse 3976" cx="0.591" cy="0.565" rx="0.591" ry="0.565" transform="translate(10.642)" fill="#fff"/>
            <path id="Trazado_99269" data-name="Trazado 99269" d="M440.736,110.852a.592.592,0,1,1-.592-.565A.579.579,0,0,1,440.736,110.852Z" transform="translate(-423.589 -110.287)" fill="#fff"/>
            <path id="Trazado_99270" data-name="Trazado 99270" d="M449.181,110.852a.592.592,0,1,1-.591-.565A.579.579,0,0,1,449.181,110.852Z" transform="translate(-426.715 -110.287)" fill="#fff"/>
            <ellipse id="Elipse_3977" data-name="Elipse 3977" cx="0.591" cy="0.565" rx="0.591" ry="0.565" transform="translate(26.606)" fill="#fff"/>
            <path id="Trazado_99271" data-name="Trazado 99271" d="M466.075,110.852a.592.592,0,1,1-.592-.565A.58.58,0,0,1,466.075,110.852Z" transform="translate(-432.965 -110.287)" fill="#fff"/>
            <ellipse id="Elipse_3978" data-name="Elipse 3978" cx="0.591" cy="0.565" rx="0.591" ry="0.565" transform="translate(37.248)" fill="#fff"/>
            <ellipse id="Elipse_3979" data-name="Elipse 3979" cx="0.591" cy="0.565" rx="0.591" ry="0.565" transform="translate(42.569)" fill="#fff"/>
            <path id="Trazado_99272" data-name="Trazado 99272" d="M491.414,110.852a.592.592,0,1,1-.592-.565A.58.58,0,0,1,491.414,110.852Z" transform="translate(-442.341 -110.287)" fill="#fff"/>
            <path id="Trazado_99273" data-name="Trazado 99273" d="M499.86,110.852a.592.592,0,1,1-.592-.565A.579.579,0,0,1,499.86,110.852Z" transform="translate(-445.466 -110.287)" fill="#fff"/>
          </g>
          <g id="Grupo_53315" data-name="Grupo 53315" transform="translate(0 40.709)">
            <path id="Trazado_99274" data-name="Trazado 99274" d="M415.4,118.36a.592.592,0,1,1-.592-.566A.579.579,0,0,1,415.4,118.36Z" transform="translate(-414.214 -117.794)" fill="#fff"/>
            <path id="Trazado_99275" data-name="Trazado 99275" d="M423.842,118.36a.592.592,0,1,1-.591-.566A.579.579,0,0,1,423.842,118.36Z" transform="translate(-417.339 -117.794)" fill="#fff"/>
            <path id="Trazado_99276" data-name="Trazado 99276" d="M432.288,118.36a.592.592,0,1,1-.591-.566A.579.579,0,0,1,432.288,118.36Z" transform="translate(-420.464 -117.794)" fill="#fff"/>
            <path id="Trazado_99277" data-name="Trazado 99277" d="M440.736,118.36a.592.592,0,1,1-.592-.566A.579.579,0,0,1,440.736,118.36Z" transform="translate(-423.59 -117.794)" fill="#fff"/>
            <path id="Trazado_99278" data-name="Trazado 99278" d="M449.181,118.36a.592.592,0,1,1-.591-.566A.579.579,0,0,1,449.181,118.36Z" transform="translate(-426.715 -117.794)" fill="#fff"/>
            <path id="Trazado_99279" data-name="Trazado 99279" d="M457.627,118.36a.592.592,0,1,1-.591-.566A.579.579,0,0,1,457.627,118.36Z" transform="translate(-429.84 -117.794)" fill="#fff"/>
            <path id="Trazado_99280" data-name="Trazado 99280" d="M466.075,118.36a.592.592,0,1,1-.592-.566A.58.58,0,0,1,466.075,118.36Z" transform="translate(-432.965 -117.794)" fill="#fff"/>
            <path id="Trazado_99281" data-name="Trazado 99281" d="M474.521,118.36a.592.592,0,1,1-.591-.566A.579.579,0,0,1,474.521,118.36Z" transform="translate(-436.09 -117.794)" fill="#fff"/>
            <path id="Trazado_99282" data-name="Trazado 99282" d="M482.966,118.36a.592.592,0,1,1-.591-.566A.579.579,0,0,1,482.966,118.36Z" transform="translate(-439.215 -117.794)" fill="#fff"/>
            <path id="Trazado_99283" data-name="Trazado 99283" d="M491.414,118.36a.592.592,0,1,1-.592-.566A.58.58,0,0,1,491.414,118.36Z" transform="translate(-442.341 -117.794)" fill="#fff"/>
            <path id="Trazado_99284" data-name="Trazado 99284" d="M499.86,118.36a.592.592,0,1,1-.592-.566A.579.579,0,0,1,499.86,118.36Z" transform="translate(-445.466 -117.794)" fill="#fff"/>
          </g>
          <g id="Grupo_53316" data-name="Grupo 53316" transform="translate(0 45.233)">
            <ellipse id="Elipse_3980" data-name="Elipse 3980" cx="0.591" cy="0.565" rx="0.591" ry="0.565" transform="translate(0 0)" fill="#fff"/>
            <path id="Trazado_99285" data-name="Trazado 99285" d="M423.842,125.868a.592.592,0,1,1-.591-.566A.578.578,0,0,1,423.842,125.868Z" transform="translate(-417.339 -125.302)" fill="#fff"/>
            <ellipse id="Elipse_3981" data-name="Elipse 3981" cx="0.591" cy="0.565" rx="0.591" ry="0.565" transform="translate(10.642 0)" fill="#fff"/>
            <path id="Trazado_99286" data-name="Trazado 99286" d="M440.736,125.868a.592.592,0,1,1-.592-.566A.579.579,0,0,1,440.736,125.868Z" transform="translate(-423.589 -125.302)" fill="#fff"/>
            <path id="Trazado_99287" data-name="Trazado 99287" d="M449.181,125.868a.592.592,0,1,1-.591-.566A.579.579,0,0,1,449.181,125.868Z" transform="translate(-426.715 -125.302)" fill="#fff"/>
            <ellipse id="Elipse_3982" data-name="Elipse 3982" cx="0.591" cy="0.565" rx="0.591" ry="0.565" transform="translate(26.606 0)" fill="#fff"/>
            <path id="Trazado_99288" data-name="Trazado 99288" d="M466.075,125.868a.592.592,0,1,1-.592-.566A.579.579,0,0,1,466.075,125.868Z" transform="translate(-432.965 -125.302)" fill="#fff"/>
            <ellipse id="Elipse_3983" data-name="Elipse 3983" cx="0.591" cy="0.565" rx="0.591" ry="0.565" transform="translate(37.248 0)" fill="#fff"/>
            <ellipse id="Elipse_3984" data-name="Elipse 3984" cx="0.591" cy="0.565" rx="0.591" ry="0.565" transform="translate(42.569 0)" fill="#fff"/>
            <path id="Trazado_99289" data-name="Trazado 99289" d="M491.414,125.868a.592.592,0,1,1-.592-.566A.579.579,0,0,1,491.414,125.868Z" transform="translate(-442.341 -125.302)" fill="#fff"/>
            <path id="Trazado_99290" data-name="Trazado 99290" d="M499.86,125.868a.592.592,0,1,1-.592-.566A.579.579,0,0,1,499.86,125.868Z" transform="translate(-445.466 -125.302)" fill="#fff"/>
          </g>
          <g id="Grupo_53317" data-name="Grupo 53317" transform="translate(0 49.757)">
            <ellipse id="Elipse_3985" data-name="Elipse 3985" cx="0.591" cy="0.565" rx="0.591" ry="0.565" transform="translate(0 0)" fill="#fff"/>
            <path id="Trazado_99291" data-name="Trazado 99291" d="M423.842,133.376a.592.592,0,1,1-.591-.566A.578.578,0,0,1,423.842,133.376Z" transform="translate(-417.339 -132.81)" fill="#fff"/>
            <ellipse id="Elipse_3986" data-name="Elipse 3986" cx="0.591" cy="0.565" rx="0.591" ry="0.565" transform="translate(10.642 0)" fill="#fff"/>
            <path id="Trazado_99292" data-name="Trazado 99292" d="M440.736,133.376a.592.592,0,1,1-.592-.566A.579.579,0,0,1,440.736,133.376Z" transform="translate(-423.589 -132.81)" fill="#fff"/>
            <path id="Trazado_99293" data-name="Trazado 99293" d="M449.181,133.376a.592.592,0,1,1-.591-.566A.579.579,0,0,1,449.181,133.376Z" transform="translate(-426.715 -132.81)" fill="#fff"/>
            <ellipse id="Elipse_3987" data-name="Elipse 3987" cx="0.591" cy="0.565" rx="0.591" ry="0.565" transform="translate(26.606 0)" fill="#fff"/>
            <path id="Trazado_99294" data-name="Trazado 99294" d="M466.075,133.376a.592.592,0,1,1-.592-.566A.579.579,0,0,1,466.075,133.376Z" transform="translate(-432.965 -132.81)" fill="#fff"/>
            <ellipse id="Elipse_3988" data-name="Elipse 3988" cx="0.591" cy="0.565" rx="0.591" ry="0.565" transform="translate(37.248 0)" fill="#fff"/>
            <ellipse id="Elipse_3989" data-name="Elipse 3989" cx="0.591" cy="0.565" rx="0.591" ry="0.565" transform="translate(42.569 0)" fill="#fff"/>
            <path id="Trazado_99295" data-name="Trazado 99295" d="M491.414,133.376a.592.592,0,1,1-.592-.566A.579.579,0,0,1,491.414,133.376Z" transform="translate(-442.341 -132.81)" fill="#fff"/>
            <path id="Trazado_99296" data-name="Trazado 99296" d="M499.86,133.376a.592.592,0,1,1-.592-.566A.579.579,0,0,1,499.86,133.376Z" transform="translate(-445.466 -132.81)" fill="#fff"/>
          </g>
        </g>
        <line id="Línea_138" data-name="Línea 138" y2="115.674" transform="translate(834.777 177.756)" fill="none" stroke="#fff" stroke-width="1" stroke-dasharray="8"/>
      </g>
    </g>
    <g id="Grupo_80908" data-name="Grupo 80908" transform="translate(-125.474 4019.789)">
      <ellipse id="Elipse_4711" data-name="Elipse 4711" cx="38.621" cy="21.737" rx="38.621" ry="21.737" transform="translate(493.37 375.814)" fill="#401888"/>
      <path id="Trazado_154107" data-name="Trazado 154107" d="M412.265,313.02l68.2,40.336,57.478-33.87-68.117-40.368Z" transform="translate(0 105.774)" fill="#401888"/>
      <g id="Grupo_80907" data-name="Grupo 80907" transform="translate(425.34 232.451)">
        <g id="Grupo_80891" data-name="Grupo 80891" transform="translate(73.083)">
          <path id="Trazado_154108" data-name="Trazado 154108" d="M444.857,286.046c-2.515,2.453-3.3,3.159-5.632,5.439-1.365,1.33-.242,2.555,2.358,2.453a46.558,46.558,0,0,0,10.355-2.241,52.5,52.5,0,0,0,7.755-4.041,5.138,5.138,0,0,0,2.3-2.91v-4.093l-12.38.526S447.578,283.394,444.857,286.046Z" transform="translate(-438.641 -123.198)" fill="#512e2b"/>
          <path id="Trazado_154109" data-name="Trazado 154109" d="M460.223,281.351A33.931,33.931,0,0,1,456.2,285.9a44.261,44.261,0,0,0-5.488,6.353c-.51.669-.8,2.58,1.8,2.479a34.217,34.217,0,0,0,8.663-2.094c3.309-1.176,6.1-4.508,8.026-5.726a8.073,8.073,0,0,0,2.773-3.91l-1.33-4.034Z" transform="translate(-412.051 -127.006)" fill="#512e2b"/>
          <path id="Trazado_154110" data-name="Trazado 154110" d="M483.374,307.538c-.578-11.841-3.91-24.1-3.466-31,.96-15.02-7.317-22.912-7.317-22.912.657-5.063-22.82,2.019-22.82,2.019s-5.027,27.21-7.151,41.537c-2.414,16.284-.951,49.449-.951,49.449s.3,3.541,6.37,3.515c4.655-.016,8.085-4.093,8.085-4.093l.483-37.742L462,281.543s5.19,21.752,6.837,29.559c1.751,8.3,8.46,32.875,8.46,32.875s4.345,4.988,9.738,2.293,4.331-5.707,4.331-5.707S490.306,323.136,483.374,307.538Z" transform="translate(-432.772 -188.596)" fill="#3d6ec4"/>
          <path id="Trazado_154111" data-name="Trazado 154111" d="M454.269,240.905s-3.358-.167-6.824,6.347-6.781,13.445-6.781,13.445,5.047.722,10.535,5.775C458.708,259.685,459.937,244.077,454.269,240.905Z" transform="translate(-434.056 -213.29)" fill="#e26154"/>
          <path id="Trazado_154112" data-name="Trazado 154112" d="M467.395,240.26s-11.985-.611-19.2,2.231a53.228,53.228,0,0,0-3.623,10.264c-1.735,6.641-1.114,37.529-1.114,37.529s7.161,5.063,19.142,4.07a16.245,16.245,0,0,0,10.76-5s4.26-30.248,3.682-34.58S467.395,240.26,467.395,240.26Z" transform="translate(-427.977 -214.876)" fill="#ef736a"/>
          <path id="Trazado_154113" data-name="Trazado 154113" d="M464.409,241.787c-1.748.261-3.469.742-7.186,2.672s-7.791,6.6-9.414,9.47c-3.27,5.775.421,7.327,2.816,4,0,0,5.22-7.856,9.352-10.058a23.663,23.663,0,0,1,6.945-2.613S465.419,242.146,464.409,241.787Z" transform="translate(-420.788 -211.29)" fill="#3d6ec4"/>
          <path id="Trazado_154114" data-name="Trazado 154114" d="M444.118,253.52c-.408,3.9.369,5.1,1.937,5.236s1.656-2.643,2.12-5.749c.438-2.93,3.306-12.563,3.306-12.563l-3.548,1.065S444.526,249.62,444.118,253.52Z" transform="translate(-426.472 -214.334)" fill="#3d6ec4"/>
          <path id="Trazado_154115" data-name="Trazado 154115" d="M467.156,279.01c-3.309-.363-8.072-3.58-7.817-14.043s1.222-15.284,1.222-15.284l-12.642-5.54s-3.436,7.948-4.116,23.539-.964,20.965-.964,20.965,13.494.826,21.477,0,11.518-3.087,11.518-3.087l-.865-8.526S470.929,279.422,467.156,279.01Z" transform="translate(-429.124 -205.95)" fill="#3d6ec4"/>
          <path id="Trazado_154116" data-name="Trazado 154116" d="M448.3,244.356l-1.392,8.114s4.132,4.635,8.176,1.169,4.622-5.06,4.622-5.06l-1.993-11.061Z" transform="translate(-419.892 -220.964)" fill="#ffad97"/>
          <path id="Trazado_154117" data-name="Trazado 154117" d="M459.719,235.053c-3.453-2.63-11.632-3.476-14.618,4.975-3.129,8.862,4.89,19.932,9.163,18.051,2.394-1.052,7.425-4.792,8.842-9.46C464.7,243.37,462.4,237.094,459.719,235.053Z" transform="translate(-425.6 -230.676)" fill="#ffd7cc"/>
          <path id="Trazado_154118" data-name="Trazado 154118" d="M454.767,232.487c-6.213.578-9.829,4.688-10.6,8.242a4.363,4.363,0,0,0,.98,3.89c1.424,1.45,3.5,3.064,7.784,2.358a17.268,17.268,0,0,0,6.017-2.215l.719,4.694a4.064,4.064,0,0,0,1.232-.451c.072-1.859.735-2.437,1.757-1.885,1.153.627,1.2,3.273,1.2,3.273a9.615,9.615,0,0,0,2.313-8.663C465.438,238.429,460.983,231.909,454.767,232.487Z" transform="translate(-426.354 -232.451)" fill="#512e2b"/>
          <path id="Trazado_154119" data-name="Trazado 154119" d="M445.131,244.665c-.441,0-.8.519-.8,1.16s.359,1.163.8,1.163.8-.519.8-1.163S445.576,244.665,445.131,244.665Z" transform="translate(-425.744 -204.767)" fill="#fff"/>
          <path id="Trazado_154120" data-name="Trazado 154120" d="M447.34,246.509c-.373.523-.386,1.153-.026,1.411s.954.046,1.326-.477.389-1.153.03-1.411S447.715,245.989,447.34,246.509Z" transform="translate(-419.577 -201.917)" fill="#fff"/>
          <path id="Trazado_154121" data-name="Trazado 154121" d="M448.6,258.653c4.23,1.124,5.324-3.861,6.3-7.716a42.4,42.4,0,0,1-10.7-4.371C443.677,249.183,443.938,257.415,448.6,258.653Z" transform="translate(-426.485 -200.456)" fill="#4b87dd"/>
        </g>
        <g id="Grupo_80900" data-name="Grupo 80900" transform="translate(0 67.396)">
          <g id="Grupo_80893" data-name="Grupo 80893" transform="translate(55.418 134.651)">
            <path id="Trazado_154122" data-name="Trazado 154122" d="M440.083,294.307l-6.85,3.9a36.023,36.023,0,0,0,1.411,4.269,2.306,2.306,0,0,0,3.845.826c1.218-1.261,1.3-2.763,1.483-5.635C440.207,294.091,440.083,294.307,440.083,294.307Z" transform="translate(-433.233 -294.304)" fill="#99918c"/>
            <g id="Grupo_80892" data-name="Grupo 80892" transform="translate(0.721 5.266)">
              <path id="Trazado_154123" data-name="Trazado 154123" d="M436.751,296.141a4.933,4.933,0,0,0-3.257,5.1,3.135,3.135,0,0,0,4.367,2.456,4.926,4.926,0,0,0,3.253-5.1A3.132,3.132,0,0,0,436.751,296.141Z" transform="translate(-433.454 -295.916)" fill="#724941"/>
              <path id="Trazado_154124" data-name="Trazado 154124" d="M433.891,303.232l1.818,1.047,4.522-7.247-1.964-1.021Z" transform="translate(-432.463 -295.702)" fill="#724941"/>
              <path id="Trazado_154125" data-name="Trazado 154125" d="M437.259,296.434a4.931,4.931,0,0,0-3.253,5.1,3.133,3.133,0,0,0,4.364,2.46,4.928,4.928,0,0,0,3.254-5.1A3.131,3.131,0,0,0,437.259,296.434Z" transform="translate(-432.296 -295.252)" fill="#512e2b"/>
            </g>
            <path id="Trazado_154126" data-name="Trazado 154126" d="M433.965,298.871a54.846,54.846,0,0,0,1.63,6.059c.738,1.891,2.319,1.722,3.214.732,1.111-1.228,1.284-3.855,1.454-6.654a25.413,25.413,0,0,0,.026-4.639Z" transform="translate(-431.574 -294.155)" fill="#99918c"/>
            <path id="Trazado_154127" data-name="Trazado 154127" d="M435.519,297.364a.95.95,0,0,0-.624.977.6.6,0,0,0,.84.47.95.95,0,0,0,.624-.977A.6.6,0,0,0,435.519,297.364Z" transform="translate(-429.482 -287.467)" fill="#fff"/>
          </g>
          <g id="Grupo_80895" data-name="Grupo 80895" transform="translate(6.063 106.294)">
            <path id="Trazado_154128" data-name="Trazado 154128" d="M424.974,285.626l-6.85,3.9a36.034,36.034,0,0,0,1.411,4.269,2.3,2.3,0,0,0,3.841.826c1.222-1.258,1.3-2.763,1.486-5.631C425.095,285.41,424.974,285.626,424.974,285.626Z" transform="translate(-418.124 -285.623)" fill="#99918c"/>
            <g id="Grupo_80894" data-name="Grupo 80894" transform="translate(0.72 5.266)">
              <path id="Trazado_154129" data-name="Trazado 154129" d="M421.642,287.46a4.928,4.928,0,0,0-3.257,5.1,3.132,3.132,0,0,0,4.364,2.456,4.929,4.929,0,0,0,3.257-5.1A3.132,3.132,0,0,0,421.642,287.46Z" transform="translate(-418.345 -287.235)" fill="#724941"/>
              <path id="Trazado_154130" data-name="Trazado 154130" d="M418.782,294.551,420.6,295.6l4.522-7.247-1.963-1.021Z" transform="translate(-417.354 -287.021)" fill="#724941"/>
              <path id="Trazado_154131" data-name="Trazado 154131" d="M422.15,287.752a4.929,4.929,0,0,0-3.254,5.1,3.129,3.129,0,0,0,4.364,2.456,4.925,4.925,0,0,0,3.253-5.093A3.134,3.134,0,0,0,422.15,287.752Z" transform="translate(-417.186 -286.57)" fill="#512e2b"/>
            </g>
            <path id="Trazado_154132" data-name="Trazado 154132" d="M418.855,290.19a55.8,55.8,0,0,0,1.63,6.063c.741,1.888,2.323,1.718,3.214.728,1.114-1.228,1.284-3.855,1.457-6.654a25.42,25.42,0,0,0,.026-4.639Z" transform="translate(-416.467 -285.474)" fill="#99918c"/>
            <path id="Trazado_154133" data-name="Trazado 154133" d="M420.41,288.683a.946.946,0,0,0-.624.977.6.6,0,0,0,.836.47.942.942,0,0,0,.624-.977A.6.6,0,0,0,420.41,288.683Z" transform="translate(-414.374 -278.786)" fill="#fff"/>
          </g>
          <g id="Grupo_80897" data-name="Grupo 80897" transform="translate(83.595 118.377)">
            <path id="Trazado_154134" data-name="Trazado 154134" d="M448.709,289.325l-6.85,3.9a36.032,36.032,0,0,0,1.411,4.269,2.3,2.3,0,0,0,3.842.826c1.222-1.258,1.3-2.763,1.486-5.632C448.83,289.109,448.709,289.325,448.709,289.325Z" transform="translate(-441.859 -289.322)" fill="#99918c"/>
            <g id="Grupo_80896" data-name="Grupo 80896" transform="translate(0.72 5.266)">
              <path id="Trazado_154135" data-name="Trazado 154135" d="M445.374,291.159a4.929,4.929,0,0,0-3.254,5.1,3.131,3.131,0,0,0,4.364,2.457,4.933,4.933,0,0,0,3.257-5.1A3.135,3.135,0,0,0,445.374,291.159Z" transform="translate(-442.08 -290.934)" fill="#724941"/>
              <path id="Trazado_154136" data-name="Trazado 154136" d="M442.517,298.25l1.818,1.047,4.521-7.247-1.963-1.021Z" transform="translate(-441.089 -290.719)" fill="#724941"/>
              <path id="Trazado_154137" data-name="Trazado 154137" d="M445.885,291.453a4.926,4.926,0,0,0-3.254,5.1A3.133,3.133,0,0,0,447,299.005a4.927,4.927,0,0,0,3.254-5.1A3.133,3.133,0,0,0,445.885,291.453Z" transform="translate(-440.921 -290.268)" fill="#512e2b"/>
            </g>
            <path id="Trazado_154138" data-name="Trazado 154138" d="M442.59,293.887a55.039,55.039,0,0,0,1.63,6.063c.742,1.888,2.319,1.718,3.214.728,1.111-1.228,1.284-3.855,1.454-6.654a25.25,25.25,0,0,0,.029-4.635Z" transform="translate(-440.202 -289.171)" fill="#99918c"/>
            <path id="Trazado_154139" data-name="Trazado 154139" d="M444.145,292.382a.948.948,0,0,0-.624.977.6.6,0,0,0,.836.47.939.939,0,0,0,.624-.977A.6.6,0,0,0,444.145,292.382Z" transform="translate(-438.109 -282.485)" fill="#fff"/>
          </g>
          <g id="Grupo_80898" data-name="Grupo 80898" transform="translate(50.477 4.717)">
            <path id="Trazado_154140" data-name="Trazado 154140" d="M431.721,279.9V343.83l3.209-1.528V281.6l8.752-25.706-2.858-1.367Z" transform="translate(-431.721 -254.527)" fill="#99918c"/>
            <path id="Trazado_154141" data-name="Trazado 154141" d="M441.876,286.838v63.934l3.209-1.529v-60.7l9.293-27.295-2.948-1.034Z" transform="translate(-408.703 -241.643)" fill="#99918c"/>
          </g>
          <g id="Grupo_80899" data-name="Grupo 80899" transform="translate(0 83.333)">
            <path id="Trazado_154142" data-name="Trazado 154142" d="M416.268,303.9l52.375,30.266,43.777-25.3-52.37-30.267Z" transform="translate(-416.268 -278.594)" fill="#fff"/>
            <path id="Trazado_154143" data-name="Trazado 154143" d="M432.3,316.949l43.777-25.288v-3.8l-43.777,25.3Z" transform="translate(-379.927 -257.593)" fill="#89807c"/>
            <path id="Trazado_154144" data-name="Trazado 154144" d="M416.268,290.129l52.375,30.264v-3.786l-52.375-30.266Z" transform="translate(-416.268 -261.036)" fill="#99918c"/>
          </g>
          <path id="Trazado_154145" data-name="Trazado 154145" d="M432.3,273.877l32.54,18.759V289L432.3,270.242Z" transform="translate(-379.927 -214.192)" fill="#99918c"/>
          <path id="Trazado_154146" data-name="Trazado 154146" d="M432.3,270.8l32.54,18.759v-3.635L432.3,267.165Z" transform="translate(-379.927 -221.166)" fill="#99918c"/>
          <path id="Trazado_154147" data-name="Trazado 154147" d="M479.539,278.722l-36.491-21.066-.01,0L435.5,253.3a1.618,1.618,0,0,0-1.617,2.8l36.491,21.066.01,0,7.539,4.354a1.618,1.618,0,0,0,1.617-2.8Z" transform="translate(-378.171 -253.083)" fill="#89807c"/>
        </g>
        <path id="Trazado_154148" data-name="Trazado 154148" d="M467.658,249.592s-4.906,10.316-6.938,13.19-10.123,10.4-11.818,11.361a11.554,11.554,0,0,1-4.286,1.085c-1.46.013-2.979-.474-4.018-.31-.268,1.392,3.4,2.427,3.4,2.427a6.016,6.016,0,0,0-2,3.3c-.121,1.146,2.251,3.074,4.936,4.518,1.878,1.013,4.975-1.147,5.889-2.659,1.065-1.754.545-2.679,2.185-4.2,3.254-3.018,9.979-7.33,11.626-9.457,2.316-3,10.116-13.775,10.116-13.775S474.057,248.237,467.658,249.592Z" transform="translate(-361.155 -194.002)" fill="#ffd7cc"/>
        <path id="Trazado_154149" data-name="Trazado 154149" d="M450.194,251.736c-1.378,2.469-8.055,15.866-9.156,17.381s-2.084,1.682-4.024,4.273-.9,4.23.346,5.488a6.59,6.59,0,0,0,3.649,2.113,3.461,3.461,0,0,0,3.067-1.682s-1.209-.549-.108-1.927a2.392,2.392,0,0,1,2.009-.712,31.76,31.76,0,0,1-.287-3.417c-.01-2.767,3.057-6.063,4.573-8.4s4.949-6.981,6.4-9.434c.921-1.555,2.826-4.959,2.826-4.959a12.771,12.771,0,0,0-6.471-3.368S451.569,249.267,450.194,251.736Z" transform="translate(-371.688 -199.269)" fill="#ffd7cc"/>
        <path id="Trazado_154150" data-name="Trazado 154150" d="M453.469,253a59.593,59.593,0,0,0-5.2,10.816s3.479,2.528,6.6,4.492a50.422,50.422,0,0,0,5.37,2.894s12.834-20.4,4.113-27.423C461.8,241.73,456.356,248.665,453.469,253Z" transform="translate(-343.745 -207.614)" fill="#e26154"/>
        <g id="Grupo_80902" data-name="Grupo 80902" transform="translate(14.568 136.419)">
          <path id="Trazado_154151" data-name="Trazado 154151" d="M430.943,322.358l33.322-19.317V280.112l-33.333,19.27Z" transform="translate(-397.598 -260.844)" fill="#e8b679"/>
          <path id="Trazado_154152" data-name="Trazado 154152" d="M420.728,280.112v22.929l33.345,19.317-.011-22.977Z" transform="translate(-420.728 -260.844)" fill="#dba763"/>
          <path id="Trazado_154153" data-name="Trazado 154153" d="M420.728,293.479l33.334,19.27,33.333-19.27-33.322-19.266Z" transform="translate(-420.728 -274.213)" fill="#ffe1c0"/>
          <g id="Grupo_80901" data-name="Grupo 80901" transform="translate(1.365 7.14)">
            <path id="Trazado_154154" data-name="Trazado 154154" d="M435.067,298.784l7.433-4.315V282.29l-7.433,4.318Z" transform="translate(-389.591 -263.046)" fill="#512e2b"/>
            <path id="Trazado_154155" data-name="Trazado 154155" d="M424.872,280.7l33.3,19.274,7.433-4.333L432.321,276.4Z" transform="translate(-412.698 -276.399)" fill="#724941"/>
            <path id="Trazado_154156" data-name="Trazado 154156" d="M432.284,297.208l11.19-6.459v-2.175l-11.19,6.49Z" transform="translate(-395.899 -248.804)" fill="#512e2b"/>
            <path id="Trazado_154157" data-name="Trazado 154157" d="M432.284,296.034l11.19-6.459V287.4l-11.19,6.49Z" transform="translate(-395.899 -251.465)" fill="#512e2b"/>
            <path id="Trazado_154158" data-name="Trazado 154158" d="M438.785,294.854l5.352-3.1v-7.443l-5.352,3.1Z" transform="translate(-381.164 -258.465)" fill="#512e2b"/>
            <path id="Trazado_154159" data-name="Trazado 154159" d="M421.145,292.212,426.5,295.3V287.55l-5.352-3.091Z" transform="translate(-421.145 -258.131)" fill="#512e2b"/>
            <path id="Trazado_154160" data-name="Trazado 154160" d="M423.381,293.508l5.351,3.093v-7.754l-5.351-3.091Z" transform="translate(-416.078 -255.193)" fill="#512e2b"/>
            <path id="Trazado_154161" data-name="Trazado 154161" d="M427.122,295.509l11,6.356V290.722l-11-6.369Z" transform="translate(-407.6 -258.372)" fill="#fff"/>
            <path id="Trazado_154162" data-name="Trazado 154162" d="M427.427,286.7l8.653,5.019v-1.814l-8.653-4.989Z" transform="translate(-406.907 -257.093)" fill="#512e2b"/>
          </g>
        </g>
        <g id="Grupo_80904" data-name="Grupo 80904" transform="translate(21.122 105.068)">
          <path id="Trazado_154163" data-name="Trazado 154163" d="M431.117,319.5l27.343-15.851V269.455l-27.353,15.812Z" transform="translate(-403.755 -253.647)" fill="#e8b679"/>
          <path id="Trazado_154164" data-name="Trazado 154164" d="M422.734,269.455v34.194L450.1,319.5l-.01-34.232Z" transform="translate(-422.734 -253.647)" fill="#dba763"/>
          <path id="Trazado_154165" data-name="Trazado 154165" d="M422.734,280.424l27.353,15.812,27.353-15.812L450.1,264.616Z" transform="translate(-422.734 -264.616)" fill="#ffe1c0"/>
          <g id="Grupo_80903" data-name="Grupo 80903" transform="translate(1.626 5.859)">
            <path id="Trazado_154166" data-name="Trazado 154166" d="M434.5,284.778l6.1-3.541v-9.993l-6.1,3.544Z" transform="translate(-397.69 -255.452)" fill="#512e2b"/>
            <path id="Trazado_154167" data-name="Trazado 154167" d="M426.135,269.941l27.327,15.815,6.1-3.556-27.314-15.791Z" transform="translate(-416.652 -266.409)" fill="#724941"/>
            <path id="Trazado_154168" data-name="Trazado 154168" d="M432.217,288.192l9.183-5.3v-1.785l-9.183,5.326Z" transform="translate(-402.867 -233.096)" fill="#512e2b"/>
            <path id="Trazado_154169" data-name="Trazado 154169" d="M432.217,287.229l9.183-5.3v-1.785l-9.183,5.325Z" transform="translate(-402.867 -235.28)" fill="#512e2b"/>
            <path id="Trazado_154170" data-name="Trazado 154170" d="M437.552,286.26l4.392-2.543V277.61l-4.392,2.545Z" transform="translate(-390.775 -241.023)" fill="#512e2b"/>
            <path id="Trazado_154171" data-name="Trazado 154171" d="M423.232,283.779l4.391,2.538v-6.363l-4.391-2.537Z" transform="translate(-423.232 -241.461)" fill="#512e2b"/>
            <path id="Trazado_154172" data-name="Trazado 154172" d="M425.066,284.842l4.392,2.538v-6.363l-4.392-2.537Z" transform="translate(-419.074 -239.05)" fill="#512e2b"/>
            <path id="Trazado_154173" data-name="Trazado 154173" d="M423.232,280.054l9.025,5.216v-9.144l-9.025-5.226Z" transform="translate(-423.232 -256.231)" fill="#fff"/>
            <path id="Trazado_154174" data-name="Trazado 154174" d="M423.482,272.827l7.1,4.119v-1.488l-7.1-4.095Z" transform="translate(-422.664 -255.181)" fill="#512e2b"/>
          </g>
        </g>
        <g id="Grupo_80906" data-name="Grupo 80906" transform="translate(25.727 95.006)">
          <path id="Trazado_154175" data-name="Trazado 154175" d="M431.464,290.352l20.452-11.82V265.762l-20.459,11.827Z" transform="translate(-407.568 -251.957)" fill="#e8b679"/>
          <path id="Trazado_154176" data-name="Trazado 154176" d="M424.144,265.155v12.764l23.9,13.809-.007-12.764Z" transform="translate(-424.144 -253.332)" fill="#dba763"/>
          <path id="Trazado_154177" data-name="Trazado 154177" d="M424.144,273.359l23.889,13.809,20.459-11.827-23.875-13.805Z" transform="translate(-424.144 -261.535)" fill="#ffe1c0"/>
          <g id="Grupo_80905" data-name="Grupo 80905" transform="translate(1.022 14.637)">
            <path id="Trazado_154178" data-name="Trazado 154178" d="M431.926,276.252l6.868-3.964v-1.335l-6.868,3.984Z" transform="translate(-407.527 -254.829)" fill="#512e2b"/>
            <path id="Trazado_154179" data-name="Trazado 154179" d="M431.926,275.531l6.868-3.964v-1.335l-6.868,3.984Z" transform="translate(-407.527 -256.462)" fill="#512e2b"/>
            <path id="Trazado_154180" data-name="Trazado 154180" d="M424.457,271.953l4.1,2.368v-5.937l-4.1-2.367Z" transform="translate(-424.457 -266.017)" fill="#512e2b"/>
          </g>
          <path id="Trazado_154181" data-name="Trazado 154181" d="M427.766,275.035l10.455,6.042v-7.086l-10.455-6.054Z" transform="translate(-415.934 -247.028)" fill="#fff"/>
          <path id="Trazado_154182" data-name="Trazado 154182" d="M428.056,270.169l8.226,4.771v-1.724l-8.226-4.743Z" transform="translate(-415.276 -245.812)" fill="#512e2b"/>
          <path id="Trazado_154183" data-name="Trazado 154183" d="M433.974,277.5l7.066-4.1v-6.726l-7.066,4.105Z" transform="translate(-401.863 -249.9)" fill="#512e2b"/>
          <path id="Trazado_154184" data-name="Trazado 154184" d="M426.665,266.538l23.875,13.822,7.066-4.119-23.856-13.794Z" transform="translate(-418.429 -259.471)" fill="#724941"/>
        </g>
      </g>
    </g>
  </g>
</svg>
