<svg xmlns="http://www.w3.org/2000/svg" xmlns:xlink="http://www.w3.org/1999/xlink" width="1332.998" height="9275" viewBox="0 0 1332.998 9275">
  <defs>
    <linearGradient id="linear-gradient" x1="1.161" y1="1.427" x2="-0.067" y2="-0.078" gradientUnits="objectBoundingBox">
      <stop offset="0" stop-color="#d8ccec"/>
      <stop offset="1" stop-color="#d9edfc"/>
    </linearGradient>
    <linearGradient id="linear-gradient-2" x1="0.667" y1="1.795" x2="0.41" y2="0" xlink:href="#linear-gradient"/>
    <linearGradient id="linear-gradient-3" x1="1.161" y1="-0.427" x2="-0.067" y2="1.078" xlink:href="#linear-gradient"/>
  </defs>
  <g id="Grupo_81525" data-name="Grupo 81525" transform="translate(-134 -240)">
    <rect id="Rectángulo_575" data-name="Rectángulo 575" width="1328" height="9275" rx="20" transform="translate(136 240)" fill="#fff"/>
    <path id="Trazado_145974" data-name="Trazado 145974" d="M7338.146,2240.23s114.72-61.331,202.007-13.77,71.076,97.632,132.174,110.149,82.3-67.591,240.663-72.6,158.36-100.135,314.229-90.122c104.8,6.733,112.227,111.4,228.194,112.651s183.3-72.6,210.732-111.4v431.1H7340.933S7338.146,2241.481,7338.146,2240.23Z" transform="translate(-7202.146 6908.755)" fill="url(#linear-gradient)"/>
    <path id="Trazado_145972" data-name="Trazado 145972" d="M7356,2830.708V1545.528h-.3v-199.77c-3.4,3.228-6.541,6.7-10.249,9.645-27.771,22.071-53.827,46.093-83.885,65.6-59.6,38.677-125.685,45.338-195.14,20.4q-36.258-13.019-71.564-27.944c-43.56-18.464-88.791-29.437-137.993-26.981-30.8,1.537-57.989,9.7-81.694,26.826-35.479,25.635-60.184,58.845-88.137,89.823-14.812,16.415-29.934,32.757-46.533,47.835-34.137,31.007-75.608,45.206-126.534,41.342-54.781-4.158-100.545-19.935-133.614-59.37-27.595-32.906-55.555-65.744-85.981-96.725-49.25-50.148-113.562-67.019-187.94-54.08-26.627,4.63-52.316,13.185-78.436,19.947V2830.708Z" transform="translate(-5892 2505.655)" fill="url(#linear-gradient-2)"/>
    <path id="Trazado_145975" data-name="Trazado 145975" d="M7338.146,3848.137s115.152,72.99,202.768,16.387,71.344-116.193,132.672-131.09,82.609,80.441,241.568,86.4S8074.111,3939,8230.566,3927.087c105.191-8.013,112.648-132.578,229.053-134.068s183.99,86.4,211.525,132.578V2173.153h-1330.2S7338.146,3846.647,7338.146,3848.137Z" transform="translate(-7204.146 -1423.435)" fill="url(#linear-gradient-3)"/>
  </g>
</svg>
